M48
;Layer_Color=9474304
;FILE_FORMAT=4:4
METRIC,LZ
;TYPE=PLATED
T1F00S00C0.2000
T2F00S00C0.3000
T3F00S00C0.6500
T4F00S00C0.7112
T5F00S00C1.0000
T6F00S00C3.0000
;TYPE=NON_PLATED
T7F00S00C0.9000
%
T01
X00718012Y00644804
T02
X00802Y00532
X0083Y00594
X00839Y00608
X00815Y0062
X00835Y00643
X00868Y00664
Y00622
X00877Y0055
Y00484
X00795284Y00675716
X00779Y00681
X00767Y00658
X00764802Y00646989
X00760222Y00632778
X00786Y00637
X00789Y00651
X0076396Y00594
X00765Y00571
X00784Y00557
X00719899Y0062529
X00709Y0062457
Y0063819
X00716Y00677
X00658
X00648Y00656
X00638Y00623
X00613Y00682
X00555Y0073
X0055Y00572
X00565Y00567
T03
X00911Y00748
Y00783
Y00838
Y00873
T04
X00806Y00545
X00902Y00482
Y00466
X00892Y00673
X00845Y00735
X00732Y00733
X0072Y00696
X00703Y00773
X00685
X00687Y00791
X00629Y00753
X0062Y00735
X00643
X00703Y00569
X00735Y006
X00761Y00527
X00692Y00459
X00687Y00811
T05
X00917Y005142
Y005396
Y00565
X00928Y006136
Y00639
Y006644
Y006898
X007774Y00492
X00752
X007266
X007012
X00521Y006442
Y006696
Y00695
Y007204
Y007458
X00572Y00832
X00648
T06
X00933Y00467
X00517Y00883
T07
X0053584Y00503753
X0061584
M30
