M48
;Layer_Color=9474304
;FILE_FORMAT=4:4
METRIC,LZ
;TYPE=PLATED
T1F00S00C0.3810
T2F00S00C0.5080
T4F00S00C0.7620
%
G90
G05
T01
G00X0169037Y0105958
M15
G01Y010545
M16
G00X0169037Y0108458
M15
G01Y010795
M16
G00X0169037Y0110458
M15
G01Y010995
M16
G00X0169037Y0112958
M15
G01Y011245
M16
T02
G00X0169748Y0103104
M15
G01X0171526
M16
G00X0169848Y0115304
M15
G01X0171626
M16
T04
G00X01403635Y01037
M15
G01X01402365
M16
G00X01428635Y01037
M15
G01X01427365
M16
G00X01454635Y01037
M15
G01X01453365
M16
G00X01479635Y01037
M15
G01X01478365
M16
G00X01505635Y01037
M15
G01X01504365
M16
G00X01530635Y01037
M15
G01X01529365
M16
M30
