M48
;Layer_Color=9474304
;FILE_FORMAT=2:4
METRIC,LZ
;TYPE=PLATED
T2F00S00C0.8000
T3F00S00C0.8500
T4F00S00C0.9000
T5F00S00C0.9500
T6F00S00C1.0000
T7F00S00C1.1000
T8F00S00C1.2000
;TYPE=NON_PLATED
T9F00S00C1.7000
%
T02
X92Y774
X6858Y4826
Y4626
Y4426
X6096Y448
Y468
Y488
Y508
X5334Y4772
Y4572
Y4372
X5461Y8763
Y9017
Y9271
Y9525
Y9779
Y10033
Y10287
Y10541
X4699
Y10287
Y10033
Y9779
Y9525
Y9271
Y9017
Y8763
X6304Y10668
X6504
X6704
X6904
X742
X762
X782
X802
X92Y814
T03
X9144Y6858
Y69955
Y7133
T04
X4318Y4572
Y4826
Y508
T05
X8636Y10668
X889
X9144
X9398
X9652
T06
X8636Y4196
X9144Y4176
Y5456
X8636Y5476
X6238Y5842
Y635
X4958
Y5842
X4314Y581
X432Y632
X304
X3034Y581
X317Y763
X393
X92Y849
Y977
T07
X762Y4318
Y4572
Y4826
Y508
X7874
Y4826
Y4572
Y4318
T08
X840941Y635442
Y660842
Y686242
Y711642
Y737042
Y762442
Y787842
X6858Y7874
Y762
Y7366
Y7112
Y6858
Y6604
X685941Y635442
X6858Y8128
Y8382
Y8636
Y889
Y9144
Y9398
Y9652
Y9906
X840941Y991042
Y965642
Y940242
Y914842
Y889442
Y864042
Y838642
Y813242
T09
X3048Y8752
Y9652
X3053Y9964
Y10864
M30
