G04*
G04 #@! TF.GenerationSoftware,Altium Limited,Altium Designer,22.8.2 (66)*
G04*
G04 Layer_Color=16711935*
%FSLAX44Y44*%
%MOMM*%
G71*
G04*
G04 #@! TF.SameCoordinates,050CC896-B192-49FC-821C-D45D8B1C7AEE*
G04*
G04*
G04 #@! TF.FilePolarity,Negative*
G04*
G01*
G75*
%ADD42R,1.9000X1.2500*%
%ADD46R,1.9000X1.1000*%
%ADD51C,1.8000*%
%ADD52C,1.9032*%
%ADD53R,1.9032X1.9032*%
%ADD54C,2.2032*%
%ADD55R,1.9032X1.9032*%
%ADD56C,0.2032*%
%ADD57C,0.4032*%
%ADD58C,0.8032*%
%ADD59C,1.4732*%
D42*
X815000Y591000D02*
D03*
Y561000D02*
D03*
X597000Y649000D02*
D03*
Y679000D02*
D03*
D46*
X877000Y536000D02*
D03*
Y506000D02*
D03*
X598000Y700000D02*
D03*
Y730000D02*
D03*
D51*
X572000Y832000D02*
D03*
X648000D02*
D03*
D52*
X917000Y565000D02*
D03*
Y539600D02*
D03*
X928000Y639000D02*
D03*
Y664400D02*
D03*
Y689800D02*
D03*
X521000Y644200D02*
D03*
Y669600D02*
D03*
Y720400D02*
D03*
Y695000D02*
D03*
X726600Y492000D02*
D03*
X752000D02*
D03*
X777400D02*
D03*
D53*
X917000Y514200D02*
D03*
X928000Y613600D02*
D03*
X521000Y745800D02*
D03*
D54*
X911000Y838000D02*
D03*
Y873000D02*
D03*
Y748000D02*
D03*
Y783000D02*
D03*
D55*
X701200Y492000D02*
D03*
D56*
X933000Y467000D02*
D03*
X517000Y883000D02*
D03*
D57*
X718012Y644804D02*
D03*
D58*
X709000Y638190D02*
D03*
Y624570D02*
D03*
X719899Y625290D02*
D03*
X835000Y643000D02*
D03*
X839000Y608000D02*
D03*
X868000Y664000D02*
D03*
Y622000D02*
D03*
X795284Y675716D02*
D03*
X767000Y658000D02*
D03*
X789000Y651000D02*
D03*
X786000Y637000D02*
D03*
X784000Y557000D02*
D03*
X802000Y532000D02*
D03*
X815000Y620000D02*
D03*
X765000Y571000D02*
D03*
X658000Y677000D02*
D03*
X565000Y567000D02*
D03*
X550000Y572000D02*
D03*
X638000Y623000D02*
D03*
X648000Y656000D02*
D03*
X613000Y682000D02*
D03*
X555000Y730000D02*
D03*
X877000Y484000D02*
D03*
X716000Y677000D02*
D03*
X779000Y681000D02*
D03*
X763960Y594000D02*
D03*
X877000Y550000D02*
D03*
X760222Y632778D02*
D03*
X764802Y646989D02*
D03*
X830000Y594000D02*
D03*
D59*
X761000Y527000D02*
D03*
X735000Y600000D02*
D03*
X720000Y696000D02*
D03*
X732000Y733000D02*
D03*
X685000Y773000D02*
D03*
X703000D02*
D03*
X806000Y545000D02*
D03*
X892000Y673000D02*
D03*
X703000Y569000D02*
D03*
X902000Y482000D02*
D03*
X692000Y459000D02*
D03*
X845000Y735000D02*
D03*
X687000Y791000D02*
D03*
Y811000D02*
D03*
X629000Y753000D02*
D03*
X620000Y735000D02*
D03*
X643000D02*
D03*
X902000Y466000D02*
D03*
M02*
