G04*
G04 #@! TF.GenerationSoftware,Altium Limited,Altium Designer,22.8.2 (66)*
G04*
G04 Layer_Color=8388736*
%FSLAX44Y44*%
%MOMM*%
G71*
G04*
G04 #@! TF.SameCoordinates,050CC896-B192-49FC-821C-D45D8B1C7AEE*
G04*
G04*
G04 #@! TF.FilePolarity,Negative*
G04*
G01*
G75*
%ADD25R,0.7000X1.6000*%
%ADD26R,1.2000X1.4000*%
%ADD27R,1.2000X2.2000*%
%ADD28R,1.6000X1.4000*%
%ADD35R,1.0500X2.7000*%
%ADD36R,5.0000X6.3000*%
%ADD37R,1.4000X1.2000*%
%ADD38R,1.2500X1.9000*%
%ADD39R,2.8000X2.7000*%
%ADD40R,0.3500X0.9000*%
%ADD41R,0.9000X0.3500*%
%ADD42R,1.9000X1.2500*%
%ADD43R,1.3300X1.9000*%
%ADD44R,1.9000X1.2000*%
%ADD45R,0.4500X0.6000*%
%ADD46R,1.9000X1.1000*%
%ADD47R,1.1000X1.9000*%
%ADD48R,1.5500X0.4000*%
%ADD49R,0.4000X1.5500*%
%ADD50R,1.9000X1.3300*%
%ADD51C,1.8000*%
%ADD52C,1.9032*%
%ADD53R,1.9032X1.9032*%
%ADD54C,2.2032*%
%ADD55R,1.9032X1.9032*%
%ADD56C,0.2032*%
%ADD57C,0.4032*%
%ADD58C,0.8032*%
%ADD59C,1.4732*%
D25*
X607840Y608753D02*
D03*
X596840D02*
D03*
X585840D02*
D03*
X574840D02*
D03*
X563840D02*
D03*
X552840D02*
D03*
X541840D02*
D03*
X530840D02*
D03*
X519840D02*
D03*
D26*
X507840Y602752D02*
D03*
D27*
Y507752D02*
D03*
X662840Y507752D02*
D03*
D28*
X653840Y603753D02*
D03*
D35*
X786200Y796500D02*
D03*
X831800D02*
D03*
X712200Y797000D02*
D03*
X757800D02*
D03*
D36*
X809000Y861500D02*
D03*
X735000Y862000D02*
D03*
D37*
X679142Y678011D02*
D03*
X702033Y678174D02*
D03*
X679187Y659103D02*
D03*
X702188D02*
D03*
D38*
X834000Y713000D02*
D03*
X864000D02*
D03*
X713000Y720000D02*
D03*
X683000D02*
D03*
X702000Y695000D02*
D03*
X672000D02*
D03*
X711000Y603000D02*
D03*
X681000D02*
D03*
X715000Y742000D02*
D03*
X685000D02*
D03*
X687000Y637000D02*
D03*
X657000D02*
D03*
X830000Y768000D02*
D03*
X860000D02*
D03*
X811000Y769000D02*
D03*
X781000D02*
D03*
D39*
X861500Y581500D02*
D03*
D40*
X874000Y562000D02*
D03*
X869000D02*
D03*
X864000D02*
D03*
X859000D02*
D03*
X854000D02*
D03*
X849000D02*
D03*
Y601000D02*
D03*
X854000D02*
D03*
X859000D02*
D03*
X864000D02*
D03*
X869000D02*
D03*
X874000D02*
D03*
D41*
X842000Y569000D02*
D03*
Y574000D02*
D03*
Y579000D02*
D03*
Y584000D02*
D03*
Y589000D02*
D03*
Y594000D02*
D03*
X881000D02*
D03*
Y589000D02*
D03*
Y584000D02*
D03*
Y579000D02*
D03*
Y574000D02*
D03*
Y569000D02*
D03*
D42*
X815000Y594000D02*
D03*
Y564000D02*
D03*
X824000Y536000D02*
D03*
Y506000D02*
D03*
X884000Y616000D02*
D03*
Y646000D02*
D03*
X851730Y648730D02*
D03*
Y618730D02*
D03*
X742000Y555000D02*
D03*
Y525000D02*
D03*
X716000Y555000D02*
D03*
Y525000D02*
D03*
D43*
X688001Y861999D02*
D03*
D03*
Y835799D02*
D03*
D44*
X566000Y645000D02*
D03*
X628000D02*
D03*
Y682000D02*
D03*
X566000D02*
D03*
D45*
X735250Y570750D02*
D03*
X741750Y585250D02*
D03*
X754750Y570750D02*
D03*
X748250D02*
D03*
X741750D02*
D03*
X754750Y585250D02*
D03*
X748250D02*
D03*
X735250D02*
D03*
D46*
X851000Y536000D02*
D03*
Y506000D02*
D03*
D47*
X585000Y752000D02*
D03*
X555000D02*
D03*
X781000Y742000D02*
D03*
X811000D02*
D03*
D48*
X734750Y660500D02*
D03*
Y685500D02*
D03*
Y680500D02*
D03*
Y675500D02*
D03*
Y670500D02*
D03*
Y665500D02*
D03*
Y655500D02*
D03*
Y650500D02*
D03*
Y645500D02*
D03*
Y640500D02*
D03*
Y635500D02*
D03*
Y630500D02*
D03*
X819250D02*
D03*
Y635500D02*
D03*
Y640500D02*
D03*
Y645500D02*
D03*
Y650500D02*
D03*
Y655500D02*
D03*
Y660500D02*
D03*
Y665500D02*
D03*
Y675500D02*
D03*
Y680500D02*
D03*
Y685500D02*
D03*
Y670500D02*
D03*
D49*
X749500Y615750D02*
D03*
X754500D02*
D03*
X759500D02*
D03*
X764500D02*
D03*
X769500D02*
D03*
X774500D02*
D03*
X779500D02*
D03*
X784500D02*
D03*
X789500D02*
D03*
X794500D02*
D03*
X799500D02*
D03*
X804500D02*
D03*
Y700250D02*
D03*
X799500D02*
D03*
X794500D02*
D03*
X789500D02*
D03*
X784500D02*
D03*
X779500D02*
D03*
X774500D02*
D03*
X769500D02*
D03*
X764500D02*
D03*
X759500D02*
D03*
X749500D02*
D03*
X754500D02*
D03*
D50*
X752000Y769000D02*
D03*
D03*
X725800D02*
D03*
D51*
X572000Y832000D02*
D03*
X648000D02*
D03*
D52*
X917000Y565000D02*
D03*
Y539600D02*
D03*
X928000Y639000D02*
D03*
Y664400D02*
D03*
Y689800D02*
D03*
X521000Y644200D02*
D03*
Y669600D02*
D03*
Y720400D02*
D03*
Y695000D02*
D03*
X726600Y492000D02*
D03*
X752000D02*
D03*
X777400D02*
D03*
D53*
X917000Y514200D02*
D03*
X928000Y613600D02*
D03*
X521000Y745800D02*
D03*
D54*
X911000Y838000D02*
D03*
Y873000D02*
D03*
Y748000D02*
D03*
Y783000D02*
D03*
D55*
X701200Y492000D02*
D03*
D56*
X933000Y467000D02*
D03*
X517000Y883000D02*
D03*
D57*
X718012Y644804D02*
D03*
D58*
X709000Y638190D02*
D03*
Y624570D02*
D03*
X719899Y625290D02*
D03*
X835000Y643000D02*
D03*
X839000Y608000D02*
D03*
X868000Y664000D02*
D03*
Y622000D02*
D03*
X795284Y675716D02*
D03*
X767000Y658000D02*
D03*
X789000Y651000D02*
D03*
X786000Y637000D02*
D03*
X784000Y557000D02*
D03*
X802000Y532000D02*
D03*
X815000Y620000D02*
D03*
X765000Y571000D02*
D03*
X658000Y677000D02*
D03*
X565000Y567000D02*
D03*
X550000Y572000D02*
D03*
X638000Y623000D02*
D03*
X648000Y656000D02*
D03*
X613000Y682000D02*
D03*
X555000Y730000D02*
D03*
X877000Y484000D02*
D03*
X716000Y677000D02*
D03*
X779000Y681000D02*
D03*
X763960Y594000D02*
D03*
X877000Y550000D02*
D03*
X760222Y632778D02*
D03*
X764802Y646989D02*
D03*
X830000Y594000D02*
D03*
D59*
X761000Y527000D02*
D03*
X735000Y600000D02*
D03*
X720000Y696000D02*
D03*
X732000Y733000D02*
D03*
X685000Y773000D02*
D03*
X703000D02*
D03*
X806000Y545000D02*
D03*
X892000Y673000D02*
D03*
X703000Y569000D02*
D03*
X902000Y482000D02*
D03*
X692000Y459000D02*
D03*
X845000Y735000D02*
D03*
X687000Y791000D02*
D03*
Y811000D02*
D03*
X629000Y753000D02*
D03*
X620000Y735000D02*
D03*
X643000D02*
D03*
X902000Y466000D02*
D03*
M02*
