G04*
G04 #@! TF.GenerationSoftware,Altium Limited,Altium Designer,22.8.2 (66)*
G04*
G04 Layer_Color=32768*
%FSLAX44Y44*%
%MOMM*%
G71*
G04*
G04 #@! TF.SameCoordinates,050CC896-B192-49FC-821C-D45D8B1C7AEE*
G04*
G04*
G04 #@! TF.FilePolarity,Positive*
G04*
G01*
G75*
%ADD11C,0.2540*%
%ADD13C,0.1000*%
G36*
X871902Y721517D02*
X874060Y719360D01*
X871885D01*
X871902Y719378D01*
Y721517D01*
X875543D01*
X877682Y719378D01*
X871902D01*
Y721517D01*
X871973Y721588D01*
Y723177D01*
X873405D01*
X875433Y721150D01*
X871902Y721517D01*
D02*
G37*
G36*
Y811517D02*
X874060Y809360D01*
X871885D01*
X871902Y809378D01*
Y811517D01*
X875543D01*
X877682Y809378D01*
X871902D01*
Y811517D01*
X871973Y811588D01*
Y813177D01*
X873405D01*
X875433Y811150D01*
X871902Y811517D01*
D02*
G37*
D11*
X677842Y658761D02*
G03*
X677842Y658761I-1000J0D01*
G01*
X544000Y765000D02*
Y899000D01*
X676000Y765000D02*
Y899000D01*
X544000D02*
X676000D01*
X544000Y765000D02*
X676000D01*
D13*
X774500Y781500D02*
X843500D01*
X774500Y894500D02*
X843500D01*
X774500Y781500D02*
Y894500D01*
X843500Y781500D02*
Y894500D01*
X809000Y833000D02*
Y843000D01*
X804000Y838000D02*
X814000D01*
X671388Y651893D02*
X710179D01*
Y685126D01*
X671388D02*
X710179D01*
X671388Y651893D02*
Y685126D01*
X826000Y725000D02*
X872000D01*
Y701000D02*
Y725000D01*
X826000Y701000D02*
X872000D01*
X826000D02*
Y725000D01*
X675000Y708000D02*
X721000D01*
X675000D02*
Y732000D01*
X721000D01*
Y708000D02*
Y732000D01*
X861500Y576500D02*
Y586500D01*
X856500Y581500D02*
X866500D01*
X835500Y607500D02*
X887500D01*
X835500Y555500D02*
X887500D01*
X835500D02*
Y607500D01*
X887500Y555500D02*
Y607500D01*
X803000Y553000D02*
Y599000D01*
Y553000D02*
X827000D01*
Y599000D01*
X803000D02*
X827000D01*
X827000Y556000D02*
Y602000D01*
X803000Y556000D02*
X827000D01*
X803000D02*
Y602000D01*
X827000D01*
X664000Y683000D02*
X710000D01*
X664000D02*
Y707000D01*
X710000D01*
Y683000D02*
Y707000D01*
X689081Y870129D02*
X696701D01*
X692891Y866319D02*
Y873939D01*
X699001Y821999D02*
Y875249D01*
X677001Y821999D02*
X699001D01*
X677001D02*
Y875249D01*
X699001D01*
X700500Y782000D02*
X769500D01*
X700500Y895000D02*
X769500D01*
X700500Y782000D02*
Y895000D01*
X769500Y782000D02*
Y895000D01*
X735000Y833500D02*
Y843500D01*
X730000Y838500D02*
X740000D01*
X552750Y636000D02*
Y690500D01*
X553000Y690750D01*
X640750D01*
Y636000D02*
Y690750D01*
X552750Y636000D02*
X640750D01*
X865000Y544000D02*
X889000D01*
Y498000D02*
Y544000D01*
X865000Y498000D02*
X889000D01*
X865000D02*
Y544000D01*
X498500Y628000D02*
X503500D01*
X498500Y458000D02*
Y628000D01*
Y458000D02*
X672000D01*
Y628000D01*
X666000D02*
X672000D01*
X503500D02*
X666000D01*
X839000Y544000D02*
X863000D01*
X839000Y498000D02*
Y544000D01*
Y498000D02*
X863000D01*
Y544000D01*
X836000Y498000D02*
Y544000D01*
X812000Y498000D02*
X836000D01*
X812000D02*
Y544000D01*
X836000D01*
X872000Y608000D02*
Y654000D01*
X896000D01*
Y608000D02*
Y654000D01*
X872000Y608000D02*
X896000D01*
X863730Y610730D02*
Y656730D01*
X839730Y610730D02*
X863730D01*
X839730D02*
Y656730D01*
X863730D01*
X593000Y740000D02*
Y764000D01*
X547000D02*
X593000D01*
X547000Y740000D02*
Y764000D01*
Y740000D02*
X593000D01*
X673000Y591000D02*
X719000D01*
X673000D02*
Y615000D01*
X719000D01*
Y591000D02*
Y615000D01*
X586000Y692000D02*
X610000D01*
X586000D02*
Y738000D01*
X610000D01*
Y692000D02*
Y738000D01*
X677000Y730000D02*
X723000D01*
X677000D02*
Y754000D01*
X723000D01*
Y730000D02*
Y754000D01*
X773000Y730000D02*
Y754000D01*
Y730000D02*
X819000D01*
Y754000D01*
X773000D02*
X819000D01*
X609000Y641000D02*
Y687000D01*
X585000D02*
X609000D01*
X585000Y641000D02*
Y687000D01*
Y641000D02*
X609000D01*
X754000Y517000D02*
Y563000D01*
X730000Y517000D02*
X754000D01*
X730000D02*
Y563000D01*
X754000D01*
X728000Y517000D02*
Y563000D01*
X704000Y517000D02*
X728000D01*
X704000D02*
Y563000D01*
X728000D01*
X725000Y606000D02*
Y710000D01*
X829000Y606000D02*
Y710000D01*
X725000D02*
X829000D01*
X725000Y606000D02*
X829000D01*
X772000Y658000D02*
X782000D01*
X777000Y653000D02*
Y663000D01*
X871902Y809378D02*
Y811517D01*
Y809378D02*
X949720D01*
X949812Y809470D01*
Y899170D01*
X871902D02*
X949812D01*
X871902Y811517D02*
Y899170D01*
Y719378D02*
Y721517D01*
Y719378D02*
X949720D01*
X949812Y719470D01*
Y809170D01*
X871902D02*
X949812D01*
X871902Y721517D02*
Y809170D01*
X649000Y625000D02*
X695000D01*
X649000D02*
Y649000D01*
X695000D01*
Y625000D02*
Y649000D01*
X760130Y760300D02*
Y767920D01*
X756320Y764110D02*
X763940D01*
X712000Y758000D02*
X765250D01*
X712000D02*
Y780000D01*
X765250D01*
Y758000D02*
Y780000D01*
X822000Y780000D02*
X868000D01*
Y756000D02*
Y780000D01*
X822000Y756000D02*
X868000D01*
X822000D02*
Y780000D01*
X773000Y757000D02*
X819000D01*
X773000D02*
Y781000D01*
X819000D01*
Y757000D02*
Y781000D01*
M02*
