G04*
G04 #@! TF.GenerationSoftware,Altium Limited,Altium Designer,22.8.2 (66)*
G04*
G04 Layer_Color=32896*
%FSLAX44Y44*%
%MOMM*%
G71*
G04*
G04 #@! TF.SameCoordinates,050CC896-B192-49FC-821C-D45D8B1C7AEE*
G04*
G04*
G04 #@! TF.FilePolarity,Positive*
G04*
G01*
G75*
%ADD13C,0.1000*%
%ADD14C,0.2000*%
D13*
X806948Y575998D02*
X823048D01*
X868948Y520998D02*
X885048D01*
X589952Y715002D02*
X606052D01*
X588952Y664002D02*
X605052D01*
D14*
X884331Y482002D02*
Y491998D01*
X879332D01*
X877666Y490332D01*
Y487000D01*
X879332Y485334D01*
X884331D01*
X880998D02*
X877666Y482002D01*
X867669Y491998D02*
X874334D01*
Y487000D01*
X871002Y488666D01*
X869335D01*
X867669Y487000D01*
Y483668D01*
X869335Y482002D01*
X872668D01*
X874334Y483668D01*
X635331Y710002D02*
Y719998D01*
X630332D01*
X628666Y718332D01*
Y715000D01*
X630332Y713334D01*
X635331D01*
X631998D02*
X628666Y710002D01*
X618669D02*
X625334D01*
X618669Y716666D01*
Y718332D01*
X620336Y719998D01*
X623668D01*
X625334Y718332D01*
X800332Y549169D02*
X801998Y547502D01*
Y544170D01*
X800332Y542504D01*
X793668D01*
X792002Y544170D01*
Y547502D01*
X793668Y549169D01*
X792002Y552501D02*
Y555833D01*
Y554167D01*
X801998D01*
X800332Y552501D01*
X792002Y565830D02*
X801998D01*
X797000Y560831D01*
Y567496D01*
X646668Y672831D02*
X645002Y674498D01*
Y677830D01*
X646668Y679496D01*
X653332D01*
X654998Y677830D01*
Y674498D01*
X653332Y672831D01*
X654998Y669499D02*
Y666167D01*
Y667833D01*
X645002D01*
X646668Y669499D01*
X654998Y654504D02*
Y661169D01*
X648334Y654504D01*
X646668D01*
X645002Y656170D01*
Y659502D01*
X646668Y661169D01*
M02*
