G04*
G04 #@! TF.GenerationSoftware,Altium Limited,Altium Designer,22.8.2 (66)*
G04*
G04 Layer_Color=2752767*
%FSLAX44Y44*%
%MOMM*%
G71*
G04*
G04 #@! TF.SameCoordinates,AFBA7131-1AEE-443E-AB60-5C51F5C0F5D9*
G04*
G04*
G04 #@! TF.FilePolarity,Positive*
G04*
G01*
G75*
%ADD86C,0.0677*%
%ADD87C,0.0508*%
D86*
X910032Y1240100D02*
G03*
X910032Y1240100I-2032J0D01*
G01*
Y1214700D02*
G03*
X910032Y1214700I-2032J0D01*
G01*
Y1163900D02*
G03*
X910032Y1163900I-2032J0D01*
G01*
Y1189300D02*
G03*
X910032Y1189300I-2032J0D01*
G01*
X692032Y887000D02*
G03*
X692032Y887000I-2032J0D01*
G01*
X666632D02*
G03*
X666632Y887000I-2032J0D01*
G01*
X717432D02*
G03*
X717432Y887000I-2032J0D01*
G01*
X742832D02*
G03*
X742832Y887000I-2032J0D01*
G01*
X768232D02*
G03*
X768232Y887000I-2032J0D01*
G01*
X793632D02*
G03*
X793632Y887000I-2032J0D01*
G01*
X819032D02*
G03*
X819032Y887000I-2032J0D01*
G01*
X844432D02*
G03*
X844432Y887000I-2032J0D01*
G01*
X869832D02*
G03*
X869832Y887000I-2032J0D01*
G01*
X346032Y887000D02*
G03*
X346032Y887000I-2032J0D01*
G01*
X371432D02*
G03*
X371432Y887000I-2032J0D01*
G01*
X396832D02*
G03*
X396832Y887000I-2032J0D01*
G01*
X422232D02*
G03*
X422232Y887000I-2032J0D01*
G01*
X447632D02*
G03*
X447632Y887000I-2032J0D01*
G01*
X473032D02*
G03*
X473032Y887000I-2032J0D01*
G01*
X498432D02*
G03*
X498432Y887000I-2032J0D01*
G01*
X523832D02*
G03*
X523832Y887000I-2032J0D01*
G01*
X549232D02*
G03*
X549232Y887000I-2032J0D01*
G01*
X574632D02*
G03*
X574632Y887000I-2032J0D01*
G01*
X625432D02*
G03*
X625432Y887000I-2032J0D01*
G01*
X600032D02*
G03*
X600032Y887000I-2032J0D01*
G01*
X277332D02*
G03*
X277332Y887000I-2032J0D01*
G01*
X302732D02*
G03*
X302732Y887000I-2032J0D01*
G01*
X909032Y914100D02*
G03*
X909032Y914100I-2032J0D01*
G01*
Y888700D02*
G03*
X909032Y888700I-2032J0D01*
G01*
Y939500D02*
G03*
X909032Y939500I-2032J0D01*
G01*
Y964900D02*
G03*
X909032Y964900I-2032J0D01*
G01*
Y990300D02*
G03*
X909032Y990300I-2032J0D01*
G01*
Y1015700D02*
G03*
X909032Y1015700I-2032J0D01*
G01*
Y1041100D02*
G03*
X909032Y1041100I-2032J0D01*
G01*
Y1066500D02*
G03*
X909032Y1066500I-2032J0D01*
G01*
Y1091900D02*
G03*
X909032Y1091900I-2032J0D01*
G01*
Y1117300D02*
G03*
X909032Y1117300I-2032J0D01*
G01*
D87*
X355068Y1153668D02*
Y1157732D01*
X359132D01*
Y1153668D01*
X355068D01*
X295068D02*
Y1157732D01*
X299132D01*
Y1153668D01*
X295068D01*
X325068Y1106668D02*
Y1110732D01*
X329132D01*
Y1106668D01*
X325068D01*
X275250Y1033968D02*
X273218Y1038032D01*
X277282D01*
X275250Y1033968D01*
Y967968D02*
X273218Y972032D01*
X277282D01*
X275250Y967968D01*
X860984Y1244984D02*
Y1243968D01*
X863016D01*
Y1244984D01*
X864032D01*
Y1247016D01*
X863016D01*
Y1248032D01*
X860984D01*
Y1247016D01*
X859968D01*
Y1244984D01*
X860984D01*
X279984Y930984D02*
Y929968D01*
X282016D01*
Y930984D01*
X283032D01*
Y933016D01*
X282016D01*
Y934032D01*
X279984D01*
Y933016D01*
X278968D01*
Y930984D01*
X279984D01*
Y1243984D02*
Y1242968D01*
X282016D01*
Y1243984D01*
X283032D01*
Y1246016D01*
X282016D01*
Y1247032D01*
X279984D01*
Y1246016D01*
X278968D01*
Y1243984D01*
X279984D01*
X841000Y925968D02*
X842016Y926984D01*
X843032D01*
X842016Y928000D01*
X843032Y929016D01*
X842016D01*
X841000Y930032D01*
X839984Y929016D01*
X838968D01*
X839984Y928000D01*
X838968Y926984D01*
X839984D01*
X841000Y925968D01*
X817000Y926968D02*
X818016Y927984D01*
X819032D01*
X818016Y929000D01*
X819032Y930016D01*
X818016D01*
X817000Y931032D01*
X815984Y930016D01*
X814968D01*
X815984Y929000D01*
X814968Y927984D01*
X815984D01*
X817000Y926968D01*
X860968Y1029968D02*
X861984Y1032000D01*
X860968Y1034032D01*
X863000Y1033016D01*
X865032Y1034032D01*
X864016Y1032000D01*
X865032Y1029968D01*
X863000Y1030984D01*
X860968Y1029968D01*
X733968Y996968D02*
X734984Y999000D01*
X733968Y1001032D01*
X736000Y1000016D01*
X738032Y1001032D01*
X737016Y999000D01*
X738032Y996968D01*
X736000Y997984D01*
X733968Y996968D01*
X556768Y1064768D02*
X557784Y1066800D01*
X556768Y1068832D01*
X558800Y1067816D01*
X560832Y1068832D01*
X559816Y1066800D01*
X560832Y1064768D01*
X558800Y1065784D01*
X556768Y1064768D01*
Y1115568D02*
X557784Y1117600D01*
X556768Y1119632D01*
X558800Y1118616D01*
X560832Y1119632D01*
X559816Y1117600D01*
X560832Y1115568D01*
X558800Y1116584D01*
X556768Y1115568D01*
X825000Y992968D02*
X826016Y993984D01*
X827032D01*
X826016Y995000D01*
X827032Y996016D01*
X826016D01*
X825000Y997032D01*
X823984Y996016D01*
X822968D01*
X823984Y995000D01*
X822968Y993984D01*
X823984D01*
X825000Y992968D01*
X806000D02*
X807016Y993984D01*
X808032D01*
X807016Y995000D01*
X808032Y996016D01*
X807016D01*
X806000Y997032D01*
X804984Y996016D01*
X803968D01*
X804984Y995000D01*
X803968Y993984D01*
X804984D01*
X806000Y992968D01*
X786000D02*
X787016Y993984D01*
X788032D01*
X787016Y995000D01*
X788032Y996016D01*
X787016D01*
X786000Y997032D01*
X784984Y996016D01*
X783968D01*
X784984Y995000D01*
X783968Y993984D01*
X784984D01*
X786000Y992968D01*
X821000Y1033288D02*
X822016Y1034304D01*
X823032D01*
X822016Y1035320D01*
X823032Y1036336D01*
X822016D01*
X821000Y1037352D01*
X819984Y1036336D01*
X818968D01*
X819984Y1035320D01*
X818968Y1034304D01*
X819984D01*
X821000Y1033288D01*
X651000Y993968D02*
X652016Y994984D01*
X653032D01*
X652016Y996000D01*
X653032Y997016D01*
X652016D01*
X651000Y998032D01*
X649984Y997016D01*
X648968D01*
X649984Y996000D01*
X648968Y994984D01*
X649984D01*
X651000Y993968D01*
X783000Y1034968D02*
X784016Y1035984D01*
X785032D01*
X784016Y1037000D01*
X785032Y1038016D01*
X784016D01*
X783000Y1039032D01*
X781984Y1038016D01*
X780968D01*
X781984Y1037000D01*
X780968Y1035984D01*
X781984D01*
X783000Y1034968D01*
X778000Y1005968D02*
X779016Y1006984D01*
X780032D01*
X779016Y1008000D01*
X780032Y1009016D01*
X779016D01*
X778000Y1010032D01*
X776984Y1009016D01*
X775968D01*
X776984Y1008000D01*
X775968Y1006984D01*
X776984D01*
X778000Y1005968D01*
X805000Y1037968D02*
X806016Y1038984D01*
X807032D01*
X806016Y1040000D01*
X807032Y1041016D01*
X806016D01*
X805000Y1042032D01*
X803984Y1041016D01*
X802968D01*
X803984Y1040000D01*
X802968Y1038984D01*
X803984D01*
X805000Y1037968D01*
X375000Y1001968D02*
X376016Y1002984D01*
X377032D01*
X376016Y1004000D01*
X377032Y1005016D01*
X376016D01*
X375000Y1006032D01*
X373984Y1005016D01*
X372968D01*
X373984Y1004000D01*
X372968Y1002984D01*
X373984D01*
X375000Y1001968D01*
X614999Y961312D02*
X616015Y962328D01*
X617031D01*
X616015Y963344D01*
X617031Y964360D01*
X616015D01*
X614999Y965376D01*
X613983Y964360D01*
X612967D01*
X613983Y963344D01*
X612967Y962328D01*
X613983D01*
X614999Y961312D01*
X615009Y976552D02*
X616025Y977568D01*
X617040D01*
X616025Y978584D01*
X617040Y979600D01*
X616025D01*
X615009Y980616D01*
X613993Y979600D01*
X612976D01*
X613993Y978584D01*
X612976Y977568D01*
X613993D01*
X615009Y976552D01*
X621971Y1002746D02*
X622987Y1003762D01*
X624003D01*
X622987Y1004778D01*
X624003Y1005794D01*
X622987D01*
X621971Y1006810D01*
X620955Y1005794D01*
X619939D01*
X620955Y1004778D01*
X619939Y1003762D01*
X620955D01*
X621971Y1002746D01*
X611000Y1017968D02*
X612016Y1018984D01*
X613032D01*
X612016Y1020000D01*
X613032Y1021016D01*
X612016D01*
X611000Y1022032D01*
X609984Y1021016D01*
X608968D01*
X609984Y1020000D01*
X608968Y1018984D01*
X609984D01*
X611000Y1017968D01*
X386000Y1022968D02*
X387016Y1023984D01*
X388032D01*
X387016Y1025000D01*
X388032Y1026016D01*
X387016D01*
X386000Y1027032D01*
X384984Y1026016D01*
X383968D01*
X384984Y1025000D01*
X383968Y1023984D01*
X384984D01*
X386000Y1022968D01*
X814000Y1154968D02*
X815016Y1155984D01*
X816032D01*
X815016Y1157000D01*
X816032Y1158016D01*
X815016D01*
X814000Y1159032D01*
X812984Y1158016D01*
X811968D01*
X812984Y1157000D01*
X811968Y1155984D01*
X812984D01*
X814000Y1154968D01*
X725000Y1151968D02*
X726016Y1152984D01*
X727032D01*
X726016Y1154000D01*
X727032Y1155016D01*
X726016D01*
X725000Y1156032D01*
X723984Y1155016D01*
X722968D01*
X723984Y1154000D01*
X722968Y1152984D01*
X723984D01*
X725000Y1151968D01*
X584000Y1146968D02*
X585016Y1147984D01*
X586032D01*
X585016Y1149000D01*
X586032Y1150016D01*
X585016D01*
X584000Y1151032D01*
X582984Y1150016D01*
X581968D01*
X582984Y1149000D01*
X581968Y1147984D01*
X582984D01*
X584000Y1146968D01*
X602000Y1147968D02*
X603016Y1148984D01*
X604032D01*
X603016Y1150000D01*
X604032Y1151016D01*
X603016D01*
X602000Y1152032D01*
X600984Y1151016D01*
X599968D01*
X600984Y1150000D01*
X599968Y1148984D01*
X600984D01*
X602000Y1147968D01*
M02*
