G04*
G04 #@! TF.GenerationSoftware,Altium Limited,Altium Designer,22.8.2 (66)*
G04*
G04 Layer_Color=32768*
%FSLAX44Y44*%
%MOMM*%
G71*
G04*
G04 #@! TF.SameCoordinates,AFBA7131-1AEE-443E-AB60-5C51F5C0F5D9*
G04*
G04*
G04 #@! TF.FilePolarity,Positive*
G04*
G01*
G75*
%ADD11C,0.2000*%
%ADD15C,0.1000*%
%ADD83C,0.0500*%
%ADD84C,0.2540*%
D11*
X269400Y1003000D02*
X282100D01*
X275750Y996650D02*
Y1009350D01*
X243750Y1048000D02*
X313750D01*
Y958000D02*
Y1048000D01*
X243750Y958000D02*
X313750D01*
X243750D02*
Y1048000D01*
D15*
X330200Y1061800D02*
Y1071800D01*
X325200Y1066800D02*
X335200D01*
X350600D02*
X360600D01*
X355600Y1061800D02*
Y1071800D01*
X403350Y1074500D02*
Y1084500D01*
X398350Y1079500D02*
X408350D01*
X393700Y1049100D02*
Y1059100D01*
X388700Y1054100D02*
X398700D01*
X738200Y1171100D02*
Y1181100D01*
X733200Y1176100D02*
X743200D01*
X801700Y1171100D02*
Y1181100D01*
X796700Y1176100D02*
X806700D01*
X632200Y1092200D02*
X642200D01*
X637200Y1087200D02*
Y1097200D01*
X635000Y1061800D02*
Y1071800D01*
X630000Y1066800D02*
X640000D01*
X685800Y1087200D02*
Y1097200D01*
X680800Y1092200D02*
X690800D01*
X680800Y1066800D02*
X690800D01*
X685800Y1061800D02*
Y1071800D01*
X706200Y1003300D02*
X716200D01*
X711200Y998300D02*
Y1008300D01*
Y960200D02*
Y970200D01*
X706200Y965200D02*
X716200D01*
X584000Y1085000D02*
Y1095000D01*
X579000Y1090000D02*
X589000D01*
X647700Y1112600D02*
Y1122600D01*
X642700Y1117600D02*
X652700D01*
X631000Y1146000D02*
Y1156000D01*
X626000Y1151000D02*
X636000D01*
X426800Y1227200D02*
X436800D01*
X431800Y1222200D02*
Y1232200D01*
X426800Y1155700D02*
X436800D01*
X431800Y1150700D02*
Y1160700D01*
X457200Y1099900D02*
Y1109900D01*
X452200Y1104900D02*
X462200D01*
X524100Y1072400D02*
Y1082400D01*
X519100Y1077400D02*
X529100D01*
X516100Y1053000D02*
X526100D01*
X521100Y1048000D02*
Y1058000D01*
X434000Y999000D02*
Y1009000D01*
X429000Y1004000D02*
X439000D01*
X516100Y1027600D02*
X526100D01*
X521100Y1022600D02*
Y1032600D01*
X345000Y1018000D02*
Y1028000D01*
X340000Y1023000D02*
X350000D01*
X345000Y996000D02*
Y1006000D01*
X340000Y1001000D02*
X350000D01*
X447000Y965000D02*
X457000D01*
X452000Y960000D02*
Y970000D01*
X478000Y1053000D02*
X488000D01*
X483000Y1048000D02*
Y1058000D01*
X535000Y973000D02*
X545000D01*
X540000Y968000D02*
Y978000D01*
X641000Y1219000D02*
Y1229000D01*
X636000Y1224000D02*
X646000D01*
X401400Y1155700D02*
X411400D01*
X406400Y1150700D02*
Y1160700D01*
X632000Y1172000D02*
Y1182000D01*
X627000Y1177000D02*
X637000D01*
X520000Y1138000D02*
Y1148000D01*
X515000Y1143000D02*
X525000D01*
X776300Y1209200D02*
Y1219200D01*
X771300Y1214200D02*
X781300D01*
X490300Y1206500D02*
X500300D01*
X495300Y1201500D02*
Y1211500D01*
X406400Y1214200D02*
Y1224200D01*
X401400Y1219200D02*
X411400D01*
X495300Y1138000D02*
Y1148000D01*
X490300Y1143000D02*
X500300D01*
X583501Y1117600D02*
X593501D01*
X588501Y1112600D02*
Y1122600D01*
X458000Y1048000D02*
Y1058000D01*
X453000Y1053000D02*
X463000D01*
D83*
X319950Y1092300D02*
X340450D01*
X319950Y1041300D02*
X340450D01*
Y1092300D01*
X319950Y1041300D02*
Y1092300D01*
X344600Y1091400D02*
X366600D01*
X344600Y1042200D02*
Y1091400D01*
X366600Y1042200D02*
Y1091400D01*
X344600Y1042200D02*
X366600D01*
X380350Y1069500D02*
X426350D01*
X380350Y1088500D02*
X426350D01*
Y1069500D02*
Y1089500D01*
X380350Y1069500D02*
Y1089500D01*
X376700Y1063600D02*
X410700D01*
X376700Y1044600D02*
X410700D01*
X376700D02*
Y1063600D01*
X410700Y1044600D02*
Y1063600D01*
X713600Y1165100D02*
Y1187100D01*
Y1165100D02*
X762800D01*
X713600Y1187100D02*
X762800D01*
Y1165100D02*
Y1187100D01*
X826300Y1165100D02*
Y1187100D01*
X777100D02*
X826300D01*
X777100Y1165100D02*
X826300D01*
X777100D02*
Y1187100D01*
X618150Y1082700D02*
Y1101700D01*
X656250Y1082700D02*
Y1101700D01*
X618150D02*
X656250D01*
X618150Y1082700D02*
X656250D01*
X618000Y1057300D02*
X652000D01*
X618000Y1076300D02*
X652000D01*
Y1057300D02*
Y1076300D01*
X618000Y1057300D02*
Y1076300D01*
X668800Y1101700D02*
X702800D01*
X668800Y1082700D02*
X702800D01*
X668800D02*
Y1101700D01*
X702800Y1082700D02*
Y1101700D01*
X704850Y1057300D02*
Y1076300D01*
X666750Y1057300D02*
Y1076300D01*
Y1057300D02*
X704850D01*
X666750Y1076300D02*
X704850D01*
X693200Y982050D02*
Y1024550D01*
X729200Y982050D02*
Y1024550D01*
X693200Y982050D02*
X729200D01*
X693200Y1024550D02*
X729200D01*
X694200Y974700D02*
X728200D01*
X694200Y955700D02*
X728200D01*
X694200D02*
Y974700D01*
X728200Y955700D02*
Y974700D01*
X608600Y1079000D02*
Y1101000D01*
X559400D02*
X608600D01*
X559400Y1079000D02*
X608600D01*
X559400D02*
Y1101000D01*
X623100Y1106600D02*
Y1128600D01*
Y1106600D02*
X672300D01*
X623100Y1128600D02*
X672300D01*
Y1106600D02*
Y1128600D01*
X614000Y1141500D02*
X648000D01*
X614000Y1160500D02*
X648000D01*
Y1141500D02*
Y1160500D01*
X614000Y1141500D02*
Y1160500D01*
X441300Y1210200D02*
Y1244200D01*
X422300Y1210200D02*
Y1244200D01*
X441300D01*
X422300Y1210200D02*
X441300D01*
X420800Y1131100D02*
X442800D01*
Y1180300D01*
X420800Y1131100D02*
Y1180300D01*
X442800D01*
X440200Y1087900D02*
X474200D01*
X440200Y1121900D02*
X474200D01*
Y1087900D02*
Y1121900D01*
X440200Y1087900D02*
Y1121900D01*
X507100Y1086900D02*
X541100D01*
X507100Y1067900D02*
X541100D01*
X507100D02*
Y1086900D01*
X541100Y1067900D02*
Y1086900D01*
X540150Y1043500D02*
Y1062500D01*
X502050Y1043500D02*
Y1062500D01*
Y1043500D02*
X540150D01*
X502050Y1062500D02*
X540150D01*
X417000Y994500D02*
X451000D01*
X417000Y1013500D02*
X451000D01*
Y994500D02*
Y1013500D01*
X417000Y994500D02*
Y1013500D01*
X540150Y1018100D02*
Y1037100D01*
X502050Y1018100D02*
Y1037100D01*
Y1018100D02*
X540150D01*
X502050Y1037100D02*
X540150D01*
X328000Y1032500D02*
X362000D01*
X328000Y1013500D02*
X362000D01*
X328000D02*
Y1032500D01*
X362000Y1013500D02*
Y1032500D01*
X328000Y1010500D02*
X362000D01*
X328000Y991500D02*
X362000D01*
X328000D02*
Y1010500D01*
X362000Y991500D02*
Y1010500D01*
X512250Y938250D02*
Y991750D01*
X391750Y938250D02*
Y991750D01*
Y938250D02*
X512250D01*
X391750Y991750D02*
X512250D01*
X473500Y1036000D02*
Y1070000D01*
X492500Y1036000D02*
Y1070000D01*
X473500Y1036000D02*
X492500D01*
X473500Y1070000D02*
X492500D01*
X549500Y956000D02*
Y990000D01*
X530500Y956000D02*
Y990000D01*
X549500D01*
X530500Y956000D02*
X549500D01*
X630000Y1248600D02*
X652000D01*
X630000Y1199400D02*
Y1248600D01*
X652000Y1199400D02*
Y1248600D01*
X630000Y1199400D02*
X652000D01*
X396400Y1132700D02*
Y1178700D01*
X415400Y1132700D02*
Y1178700D01*
X396400Y1132700D02*
X416400D01*
X396400Y1178700D02*
X416400D01*
X615000Y1167500D02*
X649000D01*
X615000Y1186500D02*
X649000D01*
Y1167500D02*
Y1186500D01*
X615000Y1167500D02*
Y1186500D01*
X510500Y1126000D02*
X529500D01*
X510500Y1160000D02*
X529500D01*
X510500Y1126000D02*
Y1160000D01*
X529500Y1126000D02*
Y1160000D01*
X716050Y1240950D02*
X836550D01*
X716050Y1187450D02*
X836550D01*
X716050D02*
Y1240950D01*
X836550Y1187450D02*
Y1240950D01*
X531300Y1164000D02*
Y1249000D01*
X459300Y1164000D02*
Y1249000D01*
X531300D01*
X459300Y1164000D02*
X531300D01*
X395400Y1194600D02*
X417400D01*
Y1243800D01*
X395400Y1194600D02*
Y1243800D01*
X417400D01*
X485800Y1126000D02*
X504800D01*
X485800Y1160000D02*
X504800D01*
X485800Y1126000D02*
Y1160000D01*
X504800Y1126000D02*
Y1160000D01*
X745100Y1071000D02*
X855100D01*
X745100Y961000D02*
Y1071000D01*
Y961000D02*
X855100D01*
Y1071000D01*
X605500Y1108100D02*
Y1127100D01*
X571501Y1108100D02*
Y1127100D01*
Y1108100D02*
X605500D01*
X571501Y1127100D02*
X605500D01*
X448500Y1070000D02*
X467500D01*
X448500Y1036000D02*
X467500D01*
Y1070000D01*
X448500Y1036000D02*
Y1070000D01*
D84*
X292100Y1155700D02*
X299600D01*
X292100Y1148200D02*
Y1155700D01*
Y1163200D01*
X284600Y1155700D02*
X292100D01*
X214600Y1095700D02*
X327100D01*
X214600D02*
Y1205700D01*
X369600D01*
Y1095700D02*
Y1205700D01*
X327100Y1095700D02*
X369600D01*
M02*
