G04*
G04 #@! TF.GenerationSoftware,Altium Limited,Altium Designer,22.8.2 (66)*
G04*
G04 Layer_Physical_Order=2*
G04 Layer_Color=16711680*
%FSLAX44Y44*%
%MOMM*%
G71*
G04*
G04 #@! TF.SameCoordinates,AFBA7131-1AEE-443E-AB60-5C51F5C0F5D9*
G04*
G04*
G04 #@! TF.FilePolarity,Positive*
G04*
G01*
G75*
%ADD66C,3.0000*%
%ADD68C,0.4000*%
%ADD72C,0.4064*%
%ADD74C,2.0000*%
G04:AMPARAMS|DCode=75|XSize=2.1mm|YSize=1.5mm|CornerRadius=0.375mm|HoleSize=0mm|Usage=FLASHONLY|Rotation=90.000|XOffset=0mm|YOffset=0mm|HoleType=Round|Shape=RoundedRectangle|*
%AMROUNDEDRECTD75*
21,1,2.1000,0.7500,0,0,90.0*
21,1,1.3500,1.5000,0,0,90.0*
1,1,0.7500,0.3750,0.6750*
1,1,0.7500,0.3750,-0.6750*
1,1,0.7500,-0.3750,-0.6750*
1,1,0.7500,-0.3750,0.6750*
%
%ADD75ROUNDEDRECTD75*%
G04:AMPARAMS|DCode=76|XSize=2.1mm|YSize=1.5mm|CornerRadius=0.375mm|HoleSize=0mm|Usage=FLASHONLY|Rotation=180.000|XOffset=0mm|YOffset=0mm|HoleType=Round|Shape=RoundedRectangle|*
%AMROUNDEDRECTD76*
21,1,2.1000,0.7500,0,0,180.0*
21,1,1.3500,1.5000,0,0,180.0*
1,1,0.7500,-0.6750,0.3750*
1,1,0.7500,0.6750,0.3750*
1,1,0.7500,0.6750,-0.3750*
1,1,0.7500,-0.6750,-0.3750*
%
%ADD76ROUNDEDRECTD76*%
%ADD77O,1.6000X0.9000*%
%ADD78C,1.2700*%
%ADD79C,1.0000*%
G36*
X939800Y863600D02*
X254000D01*
Y1270000D01*
X939800D01*
Y863600D01*
D02*
G37*
%LPC*%
G36*
X863727Y1263540D02*
X860273D01*
X856884Y1262866D01*
X853692Y1261544D01*
X850819Y1259624D01*
X848376Y1257181D01*
X846456Y1254308D01*
X845134Y1251116D01*
X844460Y1247728D01*
Y1244273D01*
X845134Y1240884D01*
X846456Y1237692D01*
X848376Y1234819D01*
X850819Y1232376D01*
X853692Y1230456D01*
X856884Y1229134D01*
X860273Y1228460D01*
X863727D01*
X867116Y1229134D01*
X870308Y1230456D01*
X873181Y1232376D01*
X875624Y1234819D01*
X877544Y1237692D01*
X878866Y1240884D01*
X879540Y1244273D01*
Y1247728D01*
X878866Y1251116D01*
X877544Y1254308D01*
X875624Y1257181D01*
X873181Y1259624D01*
X870308Y1261544D01*
X867116Y1262866D01*
X863727Y1263540D01*
D02*
G37*
G36*
X282728Y1262540D02*
X279272D01*
X275884Y1261866D01*
X272692Y1260544D01*
X269819Y1258624D01*
X267376Y1256181D01*
X265456Y1253308D01*
X264134Y1250116D01*
X263460Y1246728D01*
Y1243272D01*
X264134Y1239884D01*
X265456Y1236692D01*
X267376Y1233819D01*
X269819Y1231376D01*
X272692Y1229456D01*
X275884Y1228134D01*
X279272Y1227460D01*
X282728D01*
X286116Y1228134D01*
X289308Y1229456D01*
X292181Y1231376D01*
X294624Y1233819D01*
X296544Y1236692D01*
X297866Y1239884D01*
X298540Y1243272D01*
Y1246728D01*
X297866Y1250116D01*
X296544Y1253308D01*
X294624Y1256181D01*
X292181Y1258624D01*
X289308Y1260544D01*
X286116Y1261866D01*
X282728Y1262540D01*
D02*
G37*
G36*
X300850Y1168863D02*
X298370D01*
Y1156970D01*
X307263D01*
Y1162450D01*
X306775Y1164904D01*
X305385Y1166985D01*
X303304Y1168375D01*
X300850Y1168863D01*
D02*
G37*
G36*
X295830D02*
X293350D01*
X290896Y1168375D01*
X288815Y1166985D01*
X287425Y1164904D01*
X286937Y1162450D01*
Y1156970D01*
X295830D01*
Y1168863D01*
D02*
G37*
G36*
X909651Y1252640D02*
X906349D01*
X903160Y1251785D01*
X900300Y1250135D01*
X897965Y1247800D01*
X896315Y1244940D01*
X895460Y1241751D01*
Y1238449D01*
X896315Y1235260D01*
X897965Y1232400D01*
X900300Y1230066D01*
X903160Y1228415D01*
X904493Y1228057D01*
Y1226743D01*
X903160Y1226385D01*
X900300Y1224734D01*
X897965Y1222400D01*
X896315Y1219540D01*
X895460Y1216351D01*
Y1213049D01*
X896315Y1209860D01*
X897965Y1207000D01*
X900300Y1204666D01*
X903160Y1203015D01*
X904493Y1202657D01*
Y1201343D01*
X903160Y1200985D01*
X900300Y1199334D01*
X897965Y1197000D01*
X896315Y1194140D01*
X895460Y1190951D01*
Y1187649D01*
X896315Y1184460D01*
X897965Y1181600D01*
X900300Y1179266D01*
X903160Y1177615D01*
X904493Y1177257D01*
Y1175943D01*
X903160Y1175585D01*
X900300Y1173934D01*
X897965Y1171600D01*
X896315Y1168740D01*
X895460Y1165551D01*
Y1162249D01*
X896315Y1159060D01*
X897965Y1156200D01*
X900300Y1153866D01*
X903160Y1152215D01*
X906349Y1151360D01*
X909651D01*
X912840Y1152215D01*
X915700Y1153866D01*
X918035Y1156200D01*
X919685Y1159060D01*
X920540Y1162249D01*
Y1165551D01*
X919685Y1168740D01*
X918035Y1171600D01*
X915700Y1173934D01*
X912840Y1175585D01*
X911507Y1175943D01*
Y1177257D01*
X912840Y1177615D01*
X915700Y1179266D01*
X918035Y1181600D01*
X919685Y1184460D01*
X920540Y1187649D01*
Y1190951D01*
X919685Y1194140D01*
X918035Y1197000D01*
X915700Y1199334D01*
X912840Y1200985D01*
X911507Y1201343D01*
Y1202657D01*
X912840Y1203015D01*
X915700Y1204666D01*
X918035Y1207000D01*
X919685Y1209860D01*
X920540Y1213049D01*
Y1216351D01*
X919685Y1219540D01*
X918035Y1222400D01*
X915700Y1224734D01*
X912840Y1226385D01*
X911507Y1226743D01*
Y1228057D01*
X912840Y1228415D01*
X915700Y1230066D01*
X918035Y1232400D01*
X919685Y1235260D01*
X920540Y1238449D01*
Y1241751D01*
X919685Y1244940D01*
X918035Y1247800D01*
X915700Y1250135D01*
X912840Y1251785D01*
X909651Y1252640D01*
D02*
G37*
G36*
X360850Y1168863D02*
X353350D01*
X350896Y1168375D01*
X348815Y1166985D01*
X347425Y1164904D01*
X346937Y1162450D01*
Y1148950D01*
X347425Y1146496D01*
X348815Y1144415D01*
X350896Y1143025D01*
X353350Y1142537D01*
X360850D01*
X363304Y1143025D01*
X365385Y1144415D01*
X366775Y1146496D01*
X367263Y1148950D01*
Y1162450D01*
X366775Y1164904D01*
X365385Y1166985D01*
X363304Y1168375D01*
X360850Y1168863D01*
D02*
G37*
G36*
X307263Y1154430D02*
X298370D01*
Y1142537D01*
X300850D01*
X303304Y1143025D01*
X305385Y1144415D01*
X306775Y1146496D01*
X307263Y1148950D01*
Y1154430D01*
D02*
G37*
G36*
X295830D02*
X286937D01*
Y1148950D01*
X287425Y1146496D01*
X288815Y1144415D01*
X290896Y1143025D01*
X293350Y1142537D01*
X295830D01*
Y1154430D01*
D02*
G37*
G36*
X560070Y1125066D02*
Y1118870D01*
X566266D01*
X565826Y1120510D01*
X564833Y1122230D01*
X563430Y1123633D01*
X561710Y1124626D01*
X560070Y1125066D01*
D02*
G37*
G36*
X557530D02*
X555890Y1124626D01*
X554170Y1123633D01*
X552766Y1122230D01*
X551774Y1120510D01*
X551334Y1118870D01*
X557530D01*
Y1125066D01*
D02*
G37*
G36*
X566266Y1116330D02*
X560070D01*
Y1110134D01*
X561710Y1110574D01*
X563430Y1111566D01*
X564833Y1112970D01*
X565826Y1114690D01*
X566266Y1116330D01*
D02*
G37*
G36*
X557530D02*
X551334D01*
X551774Y1114690D01*
X552766Y1112970D01*
X554170Y1111566D01*
X555890Y1110574D01*
X557530Y1110134D01*
Y1116330D01*
D02*
G37*
G36*
X333850Y1118863D02*
X328370D01*
Y1109970D01*
X340263D01*
Y1112450D01*
X339775Y1114904D01*
X338385Y1116985D01*
X336304Y1118375D01*
X333850Y1118863D01*
D02*
G37*
G36*
X325830D02*
X320350D01*
X317896Y1118375D01*
X315815Y1116985D01*
X314425Y1114904D01*
X313937Y1112450D01*
Y1109970D01*
X325830D01*
Y1118863D01*
D02*
G37*
G36*
X340263Y1107430D02*
X328370D01*
Y1098537D01*
X333850D01*
X336304Y1099025D01*
X338385Y1100415D01*
X339775Y1102496D01*
X340263Y1104950D01*
Y1107430D01*
D02*
G37*
G36*
X325830D02*
X313937D01*
Y1104950D01*
X314425Y1102496D01*
X315815Y1100415D01*
X317896Y1099025D01*
X320350Y1098537D01*
X325830D01*
Y1107430D01*
D02*
G37*
G36*
X560070Y1074266D02*
Y1068070D01*
X566266D01*
X565826Y1069710D01*
X564833Y1071430D01*
X563430Y1072833D01*
X561710Y1073826D01*
X560070Y1074266D01*
D02*
G37*
G36*
X557530D02*
X555890Y1073826D01*
X554170Y1072833D01*
X552766Y1071430D01*
X551774Y1069710D01*
X551334Y1068070D01*
X557530D01*
Y1074266D01*
D02*
G37*
G36*
X566266Y1065530D02*
X560070D01*
Y1059334D01*
X561710Y1059774D01*
X563430Y1060767D01*
X564833Y1062170D01*
X565826Y1063890D01*
X566266Y1065530D01*
D02*
G37*
G36*
X557530D02*
X551334D01*
X551774Y1063890D01*
X552766Y1062170D01*
X554170Y1060767D01*
X555890Y1059774D01*
X557530Y1059334D01*
Y1065530D01*
D02*
G37*
G36*
X815170Y1165890D02*
X812830D01*
X810569Y1165284D01*
X808541Y1164114D01*
X806886Y1162459D01*
X805716Y1160431D01*
X805110Y1158170D01*
Y1155830D01*
X805716Y1153569D01*
X806886Y1151541D01*
X808541Y1149886D01*
X809371Y1149407D01*
Y1097500D01*
X809371Y1097500D01*
X809723Y1095729D01*
X810727Y1094227D01*
X816371Y1088583D01*
Y1042913D01*
X815541Y1042434D01*
X815009Y1041901D01*
X813593Y1042281D01*
X813284Y1043431D01*
X812114Y1045459D01*
X810459Y1047114D01*
X808431Y1048284D01*
X806170Y1048890D01*
X803830D01*
X802904Y1048642D01*
X729629Y1121917D01*
Y1146407D01*
X730459Y1146886D01*
X732114Y1148541D01*
X733284Y1150569D01*
X733890Y1152830D01*
Y1155170D01*
X733284Y1157431D01*
X732114Y1159459D01*
X730459Y1161114D01*
X728431Y1162284D01*
X726170Y1162890D01*
X723830D01*
X721569Y1162284D01*
X719541Y1161114D01*
X717886Y1159459D01*
X716716Y1157431D01*
X716110Y1155170D01*
Y1152830D01*
X716716Y1150569D01*
X717886Y1148541D01*
X719541Y1146886D01*
X720371Y1146407D01*
Y1120000D01*
X720371Y1120000D01*
X720723Y1118229D01*
X721727Y1116727D01*
X796358Y1042096D01*
X796110Y1041170D01*
Y1038830D01*
X796716Y1036569D01*
X797680Y1034899D01*
X797148Y1033629D01*
X794383D01*
X791890Y1036122D01*
Y1038170D01*
X791284Y1040431D01*
X790114Y1042459D01*
X788459Y1044114D01*
X786431Y1045284D01*
X784170Y1045890D01*
X781830D01*
X779569Y1045284D01*
X777541Y1044114D01*
X775886Y1042459D01*
X774716Y1040431D01*
X774110Y1038170D01*
Y1035830D01*
X774716Y1033569D01*
X775886Y1031541D01*
X777541Y1029886D01*
X779569Y1028716D01*
X781830Y1028110D01*
X784170D01*
X786252Y1028668D01*
X789192Y1025727D01*
X789192Y1025727D01*
X790694Y1024723D01*
X792466Y1024371D01*
X792466Y1024371D01*
X805380D01*
X805836Y1023789D01*
X805234Y1022519D01*
X787890D01*
X786119Y1022167D01*
X784617Y1021163D01*
X784617Y1021163D01*
X780096Y1016642D01*
X779170Y1016890D01*
X776830D01*
X774569Y1016284D01*
X772541Y1015114D01*
X770886Y1013459D01*
X769716Y1011431D01*
X769110Y1009170D01*
Y1006830D01*
X769716Y1004569D01*
X770886Y1002541D01*
X772529Y1000899D01*
X772528Y1000839D01*
X772179Y999629D01*
X758917D01*
X610642Y1147904D01*
X610890Y1148830D01*
Y1151170D01*
X610284Y1153431D01*
X609114Y1155459D01*
X607459Y1157114D01*
X605431Y1158284D01*
X603170Y1158890D01*
X600830D01*
X598569Y1158284D01*
X596541Y1157114D01*
X594886Y1155459D01*
X593716Y1153431D01*
X593523Y1152713D01*
X592797Y1152548D01*
X592181Y1152610D01*
X591114Y1154459D01*
X589459Y1156114D01*
X587431Y1157284D01*
X585170Y1157890D01*
X582830D01*
X580569Y1157284D01*
X578541Y1156114D01*
X576886Y1154459D01*
X575716Y1152431D01*
X575110Y1150170D01*
Y1147830D01*
X575716Y1145569D01*
X576886Y1143541D01*
X578541Y1141886D01*
X580569Y1140716D01*
X582830Y1140110D01*
X585170D01*
X586096Y1140358D01*
X646371Y1080083D01*
Y1004499D01*
X645899Y1004185D01*
X644629Y1004866D01*
Y1013000D01*
X644629Y1013000D01*
X644277Y1014771D01*
X643273Y1016273D01*
X643273Y1016273D01*
X636273Y1023273D01*
X634771Y1024277D01*
X633000Y1024629D01*
X633000Y1024629D01*
X618593D01*
X618114Y1025459D01*
X616459Y1027114D01*
X614431Y1028284D01*
X612170Y1028890D01*
X609830D01*
X607569Y1028284D01*
X605541Y1027114D01*
X603886Y1025459D01*
X602716Y1023431D01*
X602110Y1021170D01*
Y1018830D01*
X602716Y1016569D01*
X603886Y1014541D01*
X605541Y1012886D01*
X607569Y1011716D01*
X609830Y1011110D01*
X612170D01*
X614431Y1011716D01*
X614690Y1011865D01*
X615470Y1010849D01*
X614858Y1010237D01*
X613687Y1008209D01*
X613081Y1005948D01*
Y1004346D01*
X611811Y1003820D01*
X605335Y1010296D01*
X603822Y1011307D01*
X602038Y1011662D01*
X410931D01*
X395948Y1026644D01*
X394505Y1027609D01*
X394284Y1028431D01*
X393114Y1030459D01*
X391459Y1032114D01*
X389431Y1033284D01*
X387170Y1033890D01*
X384830D01*
X382569Y1033284D01*
X380541Y1032114D01*
X378886Y1030459D01*
X377716Y1028431D01*
X377110Y1026170D01*
Y1023830D01*
X377716Y1021569D01*
X378886Y1019541D01*
X380541Y1017886D01*
X382569Y1016716D01*
X384830Y1016110D01*
X387170D01*
X389431Y1016716D01*
X391459Y1017886D01*
X391490Y1017918D01*
X399573Y1009835D01*
X399087Y1008662D01*
X382574D01*
X382114Y1009459D01*
X380459Y1011114D01*
X378431Y1012284D01*
X376170Y1012890D01*
X373830D01*
X371569Y1012284D01*
X369541Y1011114D01*
X367886Y1009459D01*
X366716Y1007431D01*
X366110Y1005170D01*
Y1002830D01*
X366716Y1000569D01*
X367886Y998541D01*
X369541Y996886D01*
X371569Y995716D01*
X373830Y995110D01*
X376170D01*
X378431Y995716D01*
X380459Y996886D01*
X382114Y998541D01*
X382574Y999338D01*
X399069D01*
X414704Y983704D01*
X416216Y982693D01*
X418000Y982338D01*
X603892D01*
X606194Y980037D01*
X606119Y979754D01*
Y977414D01*
X606724Y975153D01*
X607895Y973125D01*
X609259Y971762D01*
X609433Y970954D01*
X609256Y970173D01*
X607885Y968803D01*
X606715Y966775D01*
X606109Y964514D01*
Y962174D01*
X606715Y959913D01*
X607885Y957885D01*
X609540Y956230D01*
X611567Y955060D01*
X613829Y954454D01*
X616169D01*
X618430Y955060D01*
X620457Y956230D01*
X622113Y957885D01*
X623283Y959913D01*
X623397Y960338D01*
X624350D01*
X626134Y960693D01*
X627646Y961704D01*
X630184Y964242D01*
X631195Y965754D01*
X631550Y967538D01*
Y977245D01*
X632723Y977731D01*
X636732Y973722D01*
X636732Y973722D01*
X636732Y973722D01*
X638269Y972184D01*
X638270Y972184D01*
X639771Y971181D01*
X641543Y970828D01*
X809858D01*
X809858Y970828D01*
X811629Y971181D01*
X813131Y972184D01*
X819870Y978923D01*
X819870Y978923D01*
X820873Y980424D01*
X821226Y982196D01*
Y984020D01*
X823424Y986219D01*
X823830Y986110D01*
X826170D01*
X828431Y986716D01*
X830459Y987886D01*
X832114Y989541D01*
X833284Y991569D01*
X833890Y993830D01*
Y996170D01*
X833284Y998431D01*
X832114Y1000459D01*
X830459Y1002114D01*
X828431Y1003284D01*
X826170Y1003890D01*
X823830D01*
X821569Y1003284D01*
X819541Y1002114D01*
X817886Y1000459D01*
X816716Y998431D01*
X816110Y996170D01*
X814890D01*
X814284Y998431D01*
X813114Y1000459D01*
X811459Y1002114D01*
X809431Y1003284D01*
X807170Y1003890D01*
X804830D01*
X802569Y1003284D01*
X800541Y1002114D01*
X798886Y1000459D01*
X797716Y998431D01*
X797110Y996170D01*
Y993830D01*
X797716Y991569D01*
X798000Y991076D01*
X797230Y989924D01*
X796878Y988153D01*
X796878Y988153D01*
Y986713D01*
X796791Y986626D01*
X791816D01*
X791469Y987849D01*
X791469Y987896D01*
X793114Y989541D01*
X794284Y991569D01*
X794890Y993830D01*
Y996170D01*
X794284Y998431D01*
X793114Y1000459D01*
X791459Y1002114D01*
X789431Y1003284D01*
X787334Y1003846D01*
X787105Y1004003D01*
X786443Y1005160D01*
X786890Y1006830D01*
Y1009170D01*
X786642Y1010096D01*
X789807Y1013261D01*
X820260D01*
X822854Y1010667D01*
X822854Y1010667D01*
X824356Y1009663D01*
X826127Y1009311D01*
X826127Y1009311D01*
X856143D01*
X861371Y1004083D01*
Y979917D01*
X819096Y937642D01*
X818170Y937890D01*
X815830D01*
X813569Y937284D01*
X811541Y936114D01*
X809886Y934459D01*
X808716Y932431D01*
X808110Y930170D01*
Y927830D01*
X808716Y925569D01*
X809886Y923541D01*
X811541Y921886D01*
X813569Y920716D01*
X815830Y920110D01*
X818170D01*
X820431Y920716D01*
X822459Y921886D01*
X824114Y923541D01*
X825284Y925569D01*
X825890Y927830D01*
Y930170D01*
X825642Y931096D01*
X869273Y974727D01*
X869273Y974727D01*
X870277Y976229D01*
X870629Y978000D01*
Y1006000D01*
X870629Y1006000D01*
X870374Y1007284D01*
X871415Y1007841D01*
X872371Y1007068D01*
Y965917D01*
X843096Y936642D01*
X842170Y936890D01*
X839830D01*
X837569Y936284D01*
X835541Y935114D01*
X833886Y933459D01*
X832716Y931431D01*
X832110Y929170D01*
Y926830D01*
X832716Y924569D01*
X833886Y922541D01*
X835541Y920886D01*
X837569Y919716D01*
X839830Y919110D01*
X842170D01*
X844431Y919716D01*
X846459Y920886D01*
X848114Y922541D01*
X849284Y924569D01*
X849890Y926830D01*
Y929170D01*
X849642Y930096D01*
X880273Y960727D01*
X880273Y960727D01*
X881277Y962229D01*
X881629Y964000D01*
Y1009000D01*
X881629Y1009000D01*
X881277Y1010771D01*
X880273Y1012273D01*
X880273Y1012273D01*
X868793Y1023753D01*
X867654Y1024514D01*
X867526Y1025906D01*
X867630Y1025966D01*
X869034Y1027370D01*
X870026Y1029090D01*
X870466Y1030730D01*
X855534D01*
X855974Y1029090D01*
X856966Y1027370D01*
X857958Y1026379D01*
X857432Y1025109D01*
X842737D01*
X840143Y1027703D01*
X838641Y1028707D01*
X836870Y1029059D01*
X836870Y1029059D01*
X828995D01*
X828384Y1030329D01*
X829284Y1031889D01*
X829890Y1034150D01*
Y1036490D01*
X829284Y1038751D01*
X828114Y1040779D01*
X826459Y1042434D01*
X825629Y1042913D01*
Y1090500D01*
X825629Y1090500D01*
X825277Y1092271D01*
X824273Y1093773D01*
X824273Y1093773D01*
X818629Y1099417D01*
Y1149407D01*
X819459Y1149886D01*
X821114Y1151541D01*
X822284Y1153569D01*
X822890Y1155830D01*
Y1158170D01*
X822284Y1160431D01*
X821114Y1162459D01*
X819459Y1164114D01*
X817431Y1165284D01*
X815170Y1165890D01*
D02*
G37*
G36*
X864270Y1039466D02*
Y1033270D01*
X870466D01*
X870026Y1034910D01*
X869034Y1036630D01*
X867630Y1038034D01*
X865910Y1039026D01*
X864270Y1039466D01*
D02*
G37*
G36*
X861730D02*
X860090Y1039026D01*
X858370Y1038034D01*
X856966Y1036630D01*
X855974Y1034910D01*
X855534Y1033270D01*
X861730D01*
Y1039466D01*
D02*
G37*
G36*
X278750Y1043101D02*
X271750D01*
X269912Y1042859D01*
X268200Y1042149D01*
X266729Y1041021D01*
X265601Y1039550D01*
X264891Y1037838D01*
X264649Y1036000D01*
X264891Y1034162D01*
X265601Y1032450D01*
X266729Y1030979D01*
X268200Y1029851D01*
X269912Y1029141D01*
X271750Y1028899D01*
X278750D01*
X280588Y1029141D01*
X282300Y1029851D01*
X283771Y1030979D01*
X284899Y1032450D01*
X285609Y1034162D01*
X285851Y1036000D01*
X285609Y1037838D01*
X284899Y1039550D01*
X283771Y1041021D01*
X282300Y1042149D01*
X280588Y1042859D01*
X278750Y1043101D01*
D02*
G37*
G36*
Y977101D02*
X271750D01*
X269912Y976859D01*
X268200Y976149D01*
X266729Y975021D01*
X265601Y973550D01*
X264891Y971838D01*
X264649Y970000D01*
X264891Y968162D01*
X265601Y966450D01*
X266729Y964979D01*
X268200Y963851D01*
X269912Y963141D01*
X271750Y962899D01*
X278750D01*
X280588Y963141D01*
X282300Y963851D01*
X283771Y964979D01*
X284899Y966450D01*
X285609Y968162D01*
X285851Y970000D01*
X285609Y971838D01*
X284899Y973550D01*
X283771Y975021D01*
X282300Y976149D01*
X280588Y976859D01*
X278750Y977101D01*
D02*
G37*
G36*
X282728Y949540D02*
X279272D01*
X275884Y948866D01*
X272692Y947544D01*
X269819Y945624D01*
X267376Y943181D01*
X265456Y940308D01*
X264134Y937116D01*
X263460Y933727D01*
Y930273D01*
X264134Y926884D01*
X265456Y923692D01*
X267376Y920819D01*
X269819Y918376D01*
X272692Y916456D01*
X275884Y915134D01*
X279272Y914460D01*
X282728D01*
X286116Y915134D01*
X289308Y916456D01*
X292181Y918376D01*
X294624Y920819D01*
X296544Y923692D01*
X297866Y926884D01*
X298540Y930273D01*
Y933727D01*
X297866Y937116D01*
X296544Y940308D01*
X294624Y943181D01*
X292181Y945624D01*
X289308Y947544D01*
X286116Y948866D01*
X282728Y949540D01*
D02*
G37*
G36*
X368130Y899540D02*
X367749D01*
X364560Y898686D01*
X361700Y897035D01*
X359366Y894700D01*
X357715Y891840D01*
X357357Y890507D01*
X356043D01*
X355685Y891840D01*
X354035Y894700D01*
X351700Y897035D01*
X348840Y898686D01*
X345651Y899540D01*
X345270D01*
Y887000D01*
Y874460D01*
X345651D01*
X348840Y875315D01*
X351700Y876965D01*
X354035Y879300D01*
X355685Y882160D01*
X356043Y883493D01*
X357357D01*
X357715Y882160D01*
X359366Y879300D01*
X361700Y876965D01*
X364560Y875315D01*
X367749Y874460D01*
X368130D01*
Y887000D01*
Y899540D01*
D02*
G37*
G36*
X299430D02*
X299049D01*
X295860Y898686D01*
X293000Y897035D01*
X290665Y894700D01*
X289015Y891840D01*
X288657Y890507D01*
X287343D01*
X286985Y891840D01*
X285334Y894700D01*
X283000Y897035D01*
X280140Y898686D01*
X276951Y899540D01*
X276570D01*
Y887000D01*
Y874460D01*
X276951D01*
X280140Y875315D01*
X283000Y876965D01*
X285334Y879300D01*
X286985Y882160D01*
X287343Y883493D01*
X288657D01*
X289015Y882160D01*
X290665Y879300D01*
X293000Y876965D01*
X295860Y875315D01*
X299049Y874460D01*
X299430D01*
Y887000D01*
Y899540D01*
D02*
G37*
G36*
X625051D02*
X621749D01*
X618560Y898686D01*
X615700Y897035D01*
X613366Y894700D01*
X611715Y891840D01*
X611357Y890507D01*
X610043D01*
X609685Y891840D01*
X608035Y894700D01*
X605700Y897035D01*
X602840Y898686D01*
X599651Y899540D01*
X596349D01*
X593160Y898686D01*
X590300Y897035D01*
X587966Y894700D01*
X586315Y891840D01*
X585957Y890507D01*
X584643D01*
X584285Y891840D01*
X582635Y894700D01*
X580300Y897035D01*
X577440Y898686D01*
X574251Y899540D01*
X570949D01*
X567760Y898686D01*
X564900Y897035D01*
X562565Y894700D01*
X560915Y891840D01*
X560557Y890507D01*
X559243D01*
X558885Y891840D01*
X557234Y894700D01*
X554900Y897035D01*
X552040Y898686D01*
X548851Y899540D01*
X545549D01*
X542360Y898686D01*
X539500Y897035D01*
X537165Y894700D01*
X535515Y891840D01*
X535157Y890507D01*
X533843D01*
X533485Y891840D01*
X531834Y894700D01*
X529500Y897035D01*
X526640Y898686D01*
X523451Y899540D01*
X520149D01*
X516960Y898686D01*
X514100Y897035D01*
X511766Y894700D01*
X510115Y891840D01*
X509757Y890507D01*
X508443D01*
X508085Y891840D01*
X506435Y894700D01*
X504100Y897035D01*
X501240Y898686D01*
X498051Y899540D01*
X494749D01*
X491560Y898686D01*
X488700Y897035D01*
X486366Y894700D01*
X484715Y891840D01*
X484357Y890507D01*
X483043D01*
X482685Y891840D01*
X481035Y894700D01*
X478700Y897035D01*
X475840Y898686D01*
X472651Y899540D01*
X469349D01*
X466160Y898686D01*
X463300Y897035D01*
X460965Y894700D01*
X459315Y891840D01*
X458957Y890507D01*
X457643D01*
X457285Y891840D01*
X455634Y894700D01*
X453300Y897035D01*
X450440Y898686D01*
X447251Y899540D01*
X443949D01*
X440760Y898686D01*
X437900Y897035D01*
X435565Y894700D01*
X433915Y891840D01*
X433557Y890507D01*
X432243D01*
X431885Y891840D01*
X430234Y894700D01*
X427900Y897035D01*
X425040Y898686D01*
X421851Y899540D01*
X418549D01*
X415360Y898686D01*
X412500Y897035D01*
X410165Y894700D01*
X408515Y891840D01*
X408157Y890507D01*
X406843D01*
X406485Y891840D01*
X404835Y894700D01*
X402500Y897035D01*
X399640Y898686D01*
X396451Y899540D01*
X393149D01*
X389960Y898686D01*
X387100Y897035D01*
X384766Y894700D01*
X383115Y891840D01*
X382757Y890507D01*
X381443D01*
X381085Y891840D01*
X379435Y894700D01*
X377100Y897035D01*
X374240Y898686D01*
X371051Y899540D01*
X370670D01*
Y887000D01*
Y874460D01*
X371051D01*
X374240Y875315D01*
X377100Y876965D01*
X379435Y879300D01*
X381085Y882160D01*
X381443Y883493D01*
X382757D01*
X383115Y882160D01*
X384766Y879300D01*
X387100Y876965D01*
X389960Y875315D01*
X393149Y874460D01*
X396451D01*
X399640Y875315D01*
X402500Y876965D01*
X404835Y879300D01*
X406485Y882160D01*
X406843Y883493D01*
X408157D01*
X408515Y882160D01*
X410165Y879300D01*
X412500Y876965D01*
X415360Y875315D01*
X418549Y874460D01*
X421851D01*
X425040Y875315D01*
X427900Y876965D01*
X430234Y879300D01*
X431885Y882160D01*
X432243Y883493D01*
X433557D01*
X433915Y882160D01*
X435565Y879300D01*
X437900Y876965D01*
X440760Y875315D01*
X443949Y874460D01*
X447251D01*
X450440Y875315D01*
X453300Y876965D01*
X455634Y879300D01*
X457285Y882160D01*
X457643Y883493D01*
X458957D01*
X459315Y882160D01*
X460965Y879300D01*
X463300Y876965D01*
X466160Y875315D01*
X469349Y874460D01*
X472651D01*
X475840Y875315D01*
X478700Y876965D01*
X481035Y879300D01*
X482685Y882160D01*
X483043Y883493D01*
X484357D01*
X484715Y882160D01*
X486366Y879300D01*
X488700Y876965D01*
X491560Y875315D01*
X494749Y874460D01*
X498051D01*
X501240Y875315D01*
X504100Y876965D01*
X506435Y879300D01*
X508085Y882160D01*
X508443Y883493D01*
X509757D01*
X510115Y882160D01*
X511766Y879300D01*
X514100Y876965D01*
X516960Y875315D01*
X520149Y874460D01*
X523451D01*
X526640Y875315D01*
X529500Y876965D01*
X531834Y879300D01*
X533485Y882160D01*
X533843Y883493D01*
X535157D01*
X535515Y882160D01*
X537165Y879300D01*
X539500Y876965D01*
X542360Y875315D01*
X545549Y874460D01*
X548851D01*
X552040Y875315D01*
X554900Y876965D01*
X557234Y879300D01*
X558885Y882160D01*
X559243Y883493D01*
X560557D01*
X560915Y882160D01*
X562565Y879300D01*
X564900Y876965D01*
X567760Y875315D01*
X570949Y874460D01*
X574251D01*
X577440Y875315D01*
X580300Y876965D01*
X582635Y879300D01*
X584285Y882160D01*
X584643Y883493D01*
X585957D01*
X586315Y882160D01*
X587966Y879300D01*
X590300Y876965D01*
X593160Y875315D01*
X596349Y874460D01*
X599651D01*
X602840Y875315D01*
X605700Y876965D01*
X608035Y879300D01*
X609685Y882160D01*
X610043Y883493D01*
X611357D01*
X611715Y882160D01*
X613366Y879300D01*
X615700Y876965D01*
X618560Y875315D01*
X621749Y874460D01*
X625051D01*
X628240Y875315D01*
X631100Y876965D01*
X633434Y879300D01*
X635085Y882160D01*
X635940Y885349D01*
Y888651D01*
X635085Y891840D01*
X633434Y894700D01*
X631100Y897035D01*
X628240Y898686D01*
X625051Y899540D01*
D02*
G37*
G36*
X869451Y899540D02*
X866149D01*
X862960Y898685D01*
X860100Y897035D01*
X857766Y894700D01*
X856115Y891840D01*
X855757Y890507D01*
X854443D01*
X854085Y891840D01*
X852434Y894700D01*
X850100Y897035D01*
X847240Y898685D01*
X844051Y899540D01*
X840749D01*
X837560Y898685D01*
X834700Y897035D01*
X832365Y894700D01*
X830715Y891840D01*
X830357Y890507D01*
X829043D01*
X828685Y891840D01*
X827035Y894700D01*
X824700Y897035D01*
X821840Y898685D01*
X818651Y899540D01*
X815349D01*
X812160Y898685D01*
X809300Y897035D01*
X806965Y894700D01*
X805315Y891840D01*
X804957Y890507D01*
X803643D01*
X803285Y891840D01*
X801635Y894700D01*
X799300Y897035D01*
X796440Y898685D01*
X793251Y899540D01*
X789949D01*
X786760Y898685D01*
X783900Y897035D01*
X781565Y894700D01*
X779915Y891840D01*
X779557Y890507D01*
X778243D01*
X777885Y891840D01*
X776235Y894700D01*
X773900Y897035D01*
X771040Y898685D01*
X767851Y899540D01*
X764549D01*
X761360Y898685D01*
X758500Y897035D01*
X756165Y894700D01*
X754515Y891840D01*
X754157Y890507D01*
X752843D01*
X752485Y891840D01*
X750835Y894700D01*
X748500Y897035D01*
X745640Y898685D01*
X742451Y899540D01*
X739149D01*
X735960Y898685D01*
X733100Y897035D01*
X730766Y894700D01*
X729115Y891840D01*
X728757Y890507D01*
X727443D01*
X727085Y891840D01*
X725434Y894700D01*
X723100Y897035D01*
X720240Y898685D01*
X717051Y899540D01*
X713749D01*
X710560Y898685D01*
X707700Y897035D01*
X705366Y894700D01*
X703715Y891840D01*
X703357Y890507D01*
X702043D01*
X701685Y891840D01*
X700034Y894700D01*
X697700Y897035D01*
X694840Y898685D01*
X691651Y899540D01*
X688349D01*
X685160Y898685D01*
X682300Y897035D01*
X679966Y894700D01*
X678315Y891840D01*
X677957Y890507D01*
X676643D01*
X676285Y891840D01*
X674634Y894700D01*
X672300Y897035D01*
X669440Y898685D01*
X666251Y899540D01*
X662949D01*
X659760Y898685D01*
X656900Y897035D01*
X654566Y894700D01*
X652915Y891840D01*
X652060Y888651D01*
Y885349D01*
X652915Y882160D01*
X654566Y879300D01*
X656900Y876965D01*
X659760Y875315D01*
X662949Y874460D01*
X666251D01*
X669440Y875315D01*
X672300Y876965D01*
X674634Y879300D01*
X676285Y882160D01*
X676643Y883493D01*
X677957D01*
X678315Y882160D01*
X679966Y879300D01*
X682300Y876965D01*
X685160Y875315D01*
X688349Y874460D01*
X691651D01*
X694840Y875315D01*
X697700Y876965D01*
X700034Y879300D01*
X701685Y882160D01*
X702043Y883493D01*
X703357D01*
X703715Y882160D01*
X705366Y879300D01*
X707700Y876965D01*
X710560Y875315D01*
X713749Y874460D01*
X717051D01*
X720240Y875315D01*
X723100Y876965D01*
X725434Y879300D01*
X727085Y882160D01*
X727443Y883493D01*
X728757D01*
X729115Y882160D01*
X730766Y879300D01*
X733100Y876965D01*
X735960Y875315D01*
X739149Y874460D01*
X742451D01*
X745640Y875315D01*
X748500Y876965D01*
X750835Y879300D01*
X752485Y882160D01*
X752843Y883493D01*
X754157D01*
X754515Y882160D01*
X756165Y879300D01*
X758500Y876965D01*
X761360Y875315D01*
X764549Y874460D01*
X767851D01*
X771040Y875315D01*
X773900Y876965D01*
X776235Y879300D01*
X777885Y882160D01*
X778243Y883493D01*
X779557D01*
X779915Y882160D01*
X781565Y879300D01*
X783900Y876965D01*
X786760Y875315D01*
X789949Y874460D01*
X793251D01*
X796440Y875315D01*
X799300Y876965D01*
X801635Y879300D01*
X803285Y882160D01*
X803643Y883493D01*
X804957D01*
X805315Y882160D01*
X806965Y879300D01*
X809300Y876965D01*
X812160Y875315D01*
X815349Y874460D01*
X818651D01*
X821840Y875315D01*
X824700Y876965D01*
X827035Y879300D01*
X828685Y882160D01*
X829043Y883493D01*
X830357D01*
X830715Y882160D01*
X832365Y879300D01*
X834700Y876965D01*
X837560Y875315D01*
X840749Y874460D01*
X844051D01*
X847240Y875315D01*
X850100Y876965D01*
X852434Y879300D01*
X854085Y882160D01*
X854443Y883493D01*
X855757D01*
X856115Y882160D01*
X857766Y879300D01*
X860100Y876965D01*
X862960Y875315D01*
X866149Y874460D01*
X869451D01*
X872640Y875315D01*
X875500Y876965D01*
X877834Y879300D01*
X879485Y882160D01*
X880340Y885349D01*
Y888651D01*
X879485Y891840D01*
X877834Y894700D01*
X875500Y897035D01*
X872640Y898685D01*
X869451Y899540D01*
D02*
G37*
G36*
X302351Y899540D02*
X301970D01*
Y888270D01*
X313240D01*
Y888651D01*
X312385Y891840D01*
X310735Y894700D01*
X308400Y897035D01*
X305540Y898686D01*
X302351Y899540D01*
D02*
G37*
G36*
X342730D02*
X342349D01*
X339160Y898686D01*
X336300Y897035D01*
X333965Y894700D01*
X332315Y891840D01*
X331460Y888651D01*
Y888270D01*
X342730D01*
Y899540D01*
D02*
G37*
G36*
X274030D02*
X273649D01*
X270460Y898686D01*
X267600Y897035D01*
X265266Y894700D01*
X263615Y891840D01*
X262760Y888651D01*
Y888270D01*
X274030D01*
Y899540D01*
D02*
G37*
G36*
X908651Y1129840D02*
X905349D01*
X902160Y1128985D01*
X899300Y1127335D01*
X896965Y1125000D01*
X895315Y1122140D01*
X894460Y1118951D01*
Y1115649D01*
X895315Y1112460D01*
X896965Y1109600D01*
X899300Y1107265D01*
X902160Y1105615D01*
X903493Y1105257D01*
Y1103943D01*
X902160Y1103585D01*
X899300Y1101935D01*
X896965Y1099600D01*
X895315Y1096740D01*
X894460Y1093551D01*
Y1090249D01*
X895315Y1087060D01*
X896965Y1084200D01*
X899300Y1081865D01*
X902160Y1080215D01*
X903493Y1079857D01*
Y1078543D01*
X902160Y1078185D01*
X899300Y1076535D01*
X896965Y1074200D01*
X895315Y1071340D01*
X894460Y1068151D01*
Y1064849D01*
X895315Y1061660D01*
X896965Y1058800D01*
X899300Y1056466D01*
X902160Y1054815D01*
X903493Y1054457D01*
Y1053143D01*
X902160Y1052785D01*
X899300Y1051134D01*
X896965Y1048800D01*
X895315Y1045940D01*
X894460Y1042751D01*
Y1039449D01*
X895315Y1036260D01*
X896965Y1033400D01*
X899300Y1031066D01*
X902160Y1029415D01*
X903493Y1029057D01*
Y1027743D01*
X902160Y1027385D01*
X899300Y1025734D01*
X896965Y1023400D01*
X895315Y1020540D01*
X894460Y1017351D01*
Y1014049D01*
X895315Y1010860D01*
X896965Y1008000D01*
X899300Y1005666D01*
X902160Y1004015D01*
X903493Y1003657D01*
Y1002343D01*
X902160Y1001985D01*
X899300Y1000334D01*
X896965Y998000D01*
X895315Y995140D01*
X894460Y991951D01*
Y988649D01*
X895315Y985460D01*
X896965Y982600D01*
X899300Y980266D01*
X902160Y978615D01*
X903493Y978257D01*
Y976943D01*
X902160Y976585D01*
X899300Y974934D01*
X896965Y972600D01*
X895315Y969740D01*
X894460Y966551D01*
Y963249D01*
X895315Y960060D01*
X896965Y957200D01*
X899300Y954865D01*
X902160Y953215D01*
X903493Y952857D01*
Y951543D01*
X902160Y951185D01*
X899300Y949535D01*
X896965Y947200D01*
X895315Y944340D01*
X894460Y941151D01*
Y937849D01*
X895315Y934660D01*
X896965Y931800D01*
X899300Y929465D01*
X902160Y927815D01*
X903493Y927457D01*
Y926143D01*
X902160Y925785D01*
X899300Y924135D01*
X896965Y921800D01*
X895315Y918940D01*
X894460Y915751D01*
Y912449D01*
X895315Y909260D01*
X896965Y906400D01*
X899300Y904065D01*
X902160Y902415D01*
X903493Y902057D01*
Y900743D01*
X902160Y900385D01*
X899300Y898735D01*
X896965Y896400D01*
X895315Y893540D01*
X894460Y890351D01*
Y887049D01*
X895315Y883860D01*
X896965Y881000D01*
X899300Y878665D01*
X902160Y877015D01*
X905349Y876160D01*
X908651D01*
X911840Y877015D01*
X914700Y878665D01*
X917035Y881000D01*
X918685Y883860D01*
X919540Y887049D01*
Y890351D01*
X918685Y893540D01*
X917035Y896400D01*
X914700Y898735D01*
X911840Y900385D01*
X910507Y900743D01*
Y902057D01*
X911840Y902415D01*
X914700Y904065D01*
X917035Y906400D01*
X918685Y909260D01*
X919540Y912449D01*
Y915751D01*
X918685Y918940D01*
X917035Y921800D01*
X914700Y924135D01*
X911840Y925785D01*
X910507Y926143D01*
Y927457D01*
X911840Y927815D01*
X914700Y929465D01*
X917035Y931800D01*
X918685Y934660D01*
X919540Y937849D01*
Y941151D01*
X918685Y944340D01*
X917035Y947200D01*
X914700Y949535D01*
X911840Y951185D01*
X910507Y951543D01*
Y952857D01*
X911840Y953215D01*
X914700Y954865D01*
X917035Y957200D01*
X918685Y960060D01*
X919540Y963249D01*
Y966551D01*
X918685Y969740D01*
X917035Y972600D01*
X914700Y974934D01*
X911840Y976585D01*
X910507Y976943D01*
Y978257D01*
X911840Y978615D01*
X914700Y980266D01*
X917035Y982600D01*
X918685Y985460D01*
X919540Y988649D01*
Y991951D01*
X918685Y995140D01*
X917035Y998000D01*
X914700Y1000334D01*
X911840Y1001985D01*
X910507Y1002343D01*
Y1003657D01*
X911840Y1004015D01*
X914700Y1005666D01*
X917035Y1008000D01*
X918685Y1010860D01*
X919540Y1014049D01*
Y1017351D01*
X918685Y1020540D01*
X917035Y1023400D01*
X914700Y1025734D01*
X911840Y1027385D01*
X910507Y1027743D01*
Y1029057D01*
X911840Y1029415D01*
X914700Y1031066D01*
X917035Y1033400D01*
X918685Y1036260D01*
X919540Y1039449D01*
Y1042751D01*
X918685Y1045940D01*
X917035Y1048800D01*
X914700Y1051134D01*
X911840Y1052785D01*
X910507Y1053143D01*
Y1054457D01*
X911840Y1054815D01*
X914700Y1056466D01*
X917035Y1058800D01*
X918685Y1061660D01*
X919540Y1064849D01*
Y1068151D01*
X918685Y1071340D01*
X917035Y1074200D01*
X914700Y1076535D01*
X911840Y1078185D01*
X910507Y1078543D01*
Y1079857D01*
X911840Y1080215D01*
X914700Y1081865D01*
X917035Y1084200D01*
X918685Y1087060D01*
X919540Y1090249D01*
Y1093551D01*
X918685Y1096740D01*
X917035Y1099600D01*
X914700Y1101935D01*
X911840Y1103585D01*
X910507Y1103943D01*
Y1105257D01*
X911840Y1105615D01*
X914700Y1107265D01*
X917035Y1109600D01*
X918685Y1112460D01*
X919540Y1115649D01*
Y1118951D01*
X918685Y1122140D01*
X917035Y1125000D01*
X914700Y1127335D01*
X911840Y1128985D01*
X908651Y1129840D01*
D02*
G37*
G36*
X342730Y885730D02*
X331460D01*
Y885349D01*
X332315Y882160D01*
X333965Y879300D01*
X336300Y876965D01*
X339160Y875315D01*
X342349Y874460D01*
X342730D01*
Y885730D01*
D02*
G37*
G36*
X313240D02*
X301970D01*
Y874460D01*
X302351D01*
X305540Y875315D01*
X308400Y876965D01*
X310735Y879300D01*
X312385Y882160D01*
X313240Y885349D01*
Y885730D01*
D02*
G37*
G36*
X274030D02*
X262760D01*
Y885349D01*
X263615Y882160D01*
X265266Y879300D01*
X267600Y876965D01*
X270460Y875315D01*
X273649Y874460D01*
X274030D01*
Y885730D01*
D02*
G37*
%LPD*%
G36*
X737821Y1007633D02*
X737270Y1006679D01*
Y1000270D01*
X743679D01*
X744633Y1000821D01*
X753727Y991727D01*
X753727Y991727D01*
X755229Y990723D01*
X757000Y990371D01*
X757000Y990371D01*
X778407D01*
X778886Y989541D01*
X780531Y987896D01*
X780531Y987849D01*
X780184Y986626D01*
X655084D01*
X654744Y987896D01*
X656459Y988886D01*
X658114Y990541D01*
X659284Y992569D01*
X659890Y994830D01*
Y997170D01*
X659284Y999431D01*
X658114Y1001459D01*
X656459Y1003114D01*
X655629Y1003593D01*
Y1082000D01*
X655629Y1082000D01*
X655277Y1083771D01*
X654273Y1085273D01*
X599356Y1140190D01*
X600014Y1141329D01*
X600830Y1141110D01*
X603170D01*
X604096Y1141358D01*
X737821Y1007633D01*
D02*
G37*
G36*
X613728Y988718D02*
X613358Y987570D01*
X612144Y987271D01*
X609119Y990296D01*
X607607Y991307D01*
X605823Y991662D01*
X419931D01*
X410427Y1001165D01*
X410913Y1002338D01*
X600108D01*
X613728Y988718D01*
D02*
G37*
%LPC*%
G36*
X734730Y1006466D02*
X733090Y1006026D01*
X731370Y1005033D01*
X729967Y1003630D01*
X728974Y1001910D01*
X728534Y1000270D01*
X734730D01*
Y1006466D01*
D02*
G37*
G36*
X743466Y997730D02*
X737270D01*
Y991534D01*
X738910Y991974D01*
X740630Y992967D01*
X742033Y994370D01*
X743026Y996090D01*
X743466Y997730D01*
D02*
G37*
G36*
X734730D02*
X728534D01*
X728974Y996090D01*
X729967Y994370D01*
X731370Y992967D01*
X733090Y991974D01*
X734730Y991534D01*
Y997730D01*
D02*
G37*
%LPD*%
D66*
X862000Y1246000D02*
D03*
X281000Y932000D02*
D03*
Y1245000D02*
D03*
D68*
X866000Y978000D02*
Y1006000D01*
X817000Y929000D02*
X866000Y978000D01*
X841000Y928000D02*
X877000Y964000D01*
Y1009000D01*
X865520Y1020480D02*
X877000Y1009000D01*
X816597Y985938D02*
X825000Y994341D01*
X816597Y982196D02*
Y985938D01*
X825000Y994341D02*
Y995000D01*
X809858Y975457D02*
X816597Y982196D01*
X798709Y981997D02*
X801507Y984796D01*
Y988153D01*
X806000Y992646D01*
Y995000D01*
X646602Y981997D02*
X798709D01*
X602000Y1150000D02*
X757000Y995000D01*
X786000D01*
X826127Y1013940D02*
X858060D01*
X822177Y1017890D02*
X826127Y1013940D01*
X640005Y976995D02*
X641543Y975457D01*
X640000Y988599D02*
X646602Y981997D01*
X641543Y975457D02*
X809858D01*
X778000Y1008000D02*
X787890Y1017890D01*
X822177D01*
X812169Y1024430D02*
X836870D01*
X807599Y1029000D02*
X812169Y1024430D01*
X840820Y1020480D02*
X865520D01*
X836870Y1024430D02*
X840820Y1020480D01*
X821000Y1035320D02*
Y1090500D01*
X651000Y996000D02*
Y1082000D01*
X584000Y1149000D02*
X651000Y1082000D01*
X784465Y1037000D02*
X792466Y1029000D01*
X807599D01*
X783000Y1037000D02*
X784465D01*
X725000Y1120000D02*
X805000Y1040000D01*
X621971Y1004778D02*
X633460Y993289D01*
Y983540D02*
Y993289D01*
X640005Y976995D02*
X640005D01*
X633000Y1020000D02*
X640000Y1013000D01*
X633460Y983540D02*
X640005Y976995D01*
X640000Y988599D02*
Y1013000D01*
X611000Y1020000D02*
X633000D01*
X858060Y1013940D02*
X866000Y1006000D01*
X814000Y1097500D02*
X821000Y1090500D01*
X814000Y1097500D02*
Y1157000D01*
X725000Y1120000D02*
Y1154000D01*
X584000Y1149000D02*
X584000D01*
D72*
X418000Y987000D02*
X605823D01*
X401000Y1004000D02*
X418000Y987000D01*
X375000Y1004000D02*
X401000D01*
X409000Y1007000D02*
X602038D01*
X626888Y982150D01*
X605823Y987000D02*
X614239Y978584D01*
X392652Y1023348D02*
X409000Y1007000D01*
X614239Y978584D02*
X615009D01*
X624350Y965000D02*
X626888Y967538D01*
X621694Y964996D02*
X621698Y965000D01*
X614999Y963344D02*
X616651Y964996D01*
X621698Y965000D02*
X624350D01*
X626888Y967538D02*
Y982150D01*
X386000Y1025000D02*
X387652Y1023348D01*
X392652D01*
X616651Y964996D02*
X621694D01*
D74*
X908000Y1240100D02*
D03*
Y1214700D02*
D03*
Y1163900D02*
D03*
Y1189300D02*
D03*
X690000Y887000D02*
D03*
X664600D02*
D03*
X715400D02*
D03*
X740800D02*
D03*
X766200D02*
D03*
X791600D02*
D03*
X817000D02*
D03*
X842400D02*
D03*
X867800D02*
D03*
X344000Y887000D02*
D03*
X369400D02*
D03*
X394800D02*
D03*
X420200D02*
D03*
X445600D02*
D03*
X471000D02*
D03*
X496400D02*
D03*
X521800D02*
D03*
X547200D02*
D03*
X572600D02*
D03*
X623400D02*
D03*
X598000D02*
D03*
X275300D02*
D03*
X300700D02*
D03*
X907000Y914100D02*
D03*
Y888700D02*
D03*
Y939500D02*
D03*
Y964900D02*
D03*
Y990300D02*
D03*
Y1015700D02*
D03*
Y1041100D02*
D03*
Y1066500D02*
D03*
Y1091900D02*
D03*
Y1117300D02*
D03*
D75*
X357100Y1155700D02*
D03*
X297100D02*
D03*
D76*
X327100Y1108700D02*
D03*
D77*
X275250Y1036000D02*
D03*
Y970000D02*
D03*
D78*
X841000Y928000D02*
D03*
X817000Y929000D02*
D03*
X825000Y995000D02*
D03*
X806000D02*
D03*
X786000D02*
D03*
X821000Y1035320D02*
D03*
X651000Y996000D02*
D03*
X783000Y1037000D02*
D03*
X778000Y1008000D02*
D03*
X805000Y1040000D02*
D03*
X375000Y1004000D02*
D03*
X614999Y963344D02*
D03*
X615009Y978584D02*
D03*
X621971Y1004778D02*
D03*
X611000Y1020000D02*
D03*
X386000Y1025000D02*
D03*
X814000Y1157000D02*
D03*
X725000Y1154000D02*
D03*
X584000Y1149000D02*
D03*
X602000Y1150000D02*
D03*
D79*
X863000Y1032000D02*
D03*
X736000Y999000D02*
D03*
X558800Y1066800D02*
D03*
Y1117600D02*
D03*
M02*
