G04*
G04 #@! TF.GenerationSoftware,Altium Limited,Altium Designer,22.8.2 (66)*
G04*
G04 Layer_Color=8388736*
%FSLAX44Y44*%
%MOMM*%
G71*
G04*
G04 #@! TF.SameCoordinates,AFBA7131-1AEE-443E-AB60-5C51F5C0F5D9*
G04*
G04*
G04 #@! TF.FilePolarity,Positive*
G04*
G01*
G75*
%ADD11C,0.2000*%
D11*
X908000Y1197000D02*
Y1207000D01*
X903000Y1202000D02*
X913000D01*
X895300Y1149600D02*
X920700D01*
X895300D02*
Y1255000D01*
X920700D01*
Y1149600D02*
Y1255000D01*
X650300Y874300D02*
X882200D01*
Y899700D01*
X650300D02*
X882200D01*
X650300Y874300D02*
Y899700D01*
X766200Y882000D02*
Y892000D01*
X761200Y887000D02*
X771200D01*
X478700Y887000D02*
X488700D01*
X483700Y882000D02*
Y892000D01*
X637700Y874300D02*
Y899700D01*
X329700Y874300D02*
X637700D01*
X329700D02*
Y899700D01*
X637700D01*
X261000D02*
X315000D01*
X261000Y874300D02*
Y899700D01*
Y874300D02*
X315000D01*
Y899700D01*
X288000Y882000D02*
Y892000D01*
X283000Y887000D02*
X293000D01*
X919700Y874400D02*
Y1132300D01*
X894300D02*
X919700D01*
X894300Y874400D02*
Y1132300D01*
Y874400D02*
X919700D01*
X902000Y1003000D02*
X912000D01*
X907000Y998000D02*
Y1008000D01*
M02*
