G04*
G04 #@! TF.GenerationSoftware,Altium Limited,Altium Designer,22.8.2 (66)*
G04*
G04 Layer_Color=16711935*
%FSLAX44Y44*%
%MOMM*%
G71*
G04*
G04 #@! TF.SameCoordinates,AFBA7131-1AEE-443E-AB60-5C51F5C0F5D9*
G04*
G04*
G04 #@! TF.FilePolarity,Negative*
G04*
G01*
G75*
%ADD62C,2.2032*%
G04:AMPARAMS|DCode=63|XSize=2.3032mm|YSize=1.7032mm|CornerRadius=0.4766mm|HoleSize=0mm|Usage=FLASHONLY|Rotation=90.000|XOffset=0mm|YOffset=0mm|HoleType=Round|Shape=RoundedRectangle|*
%AMROUNDEDRECTD63*
21,1,2.3032,0.7500,0,0,90.0*
21,1,1.3500,1.7032,0,0,90.0*
1,1,0.9532,0.3750,0.6750*
1,1,0.9532,0.3750,-0.6750*
1,1,0.9532,-0.3750,-0.6750*
1,1,0.9532,-0.3750,0.6750*
%
%ADD63ROUNDEDRECTD63*%
G04:AMPARAMS|DCode=64|XSize=2.3032mm|YSize=1.7032mm|CornerRadius=0.4766mm|HoleSize=0mm|Usage=FLASHONLY|Rotation=180.000|XOffset=0mm|YOffset=0mm|HoleType=Round|Shape=RoundedRectangle|*
%AMROUNDEDRECTD64*
21,1,2.3032,0.7500,0,0,180.0*
21,1,1.3500,1.7032,0,0,180.0*
1,1,0.9532,-0.6750,0.3750*
1,1,0.9532,0.6750,0.3750*
1,1,0.9532,0.6750,-0.3750*
1,1,0.9532,-0.6750,-0.3750*
%
%ADD64ROUNDEDRECTD64*%
%ADD65O,1.8032X1.1032*%
%ADD66C,3.0000*%
%ADD67C,1.4732*%
D62*
X908000Y1240100D02*
D03*
Y1214700D02*
D03*
Y1163900D02*
D03*
Y1189300D02*
D03*
X690000Y887000D02*
D03*
X664600D02*
D03*
X715400D02*
D03*
X740800D02*
D03*
X766200D02*
D03*
X791600D02*
D03*
X817000D02*
D03*
X842400D02*
D03*
X867800D02*
D03*
X344000Y887000D02*
D03*
X369400D02*
D03*
X394800D02*
D03*
X420200D02*
D03*
X445600D02*
D03*
X471000D02*
D03*
X496400D02*
D03*
X521800D02*
D03*
X547200D02*
D03*
X572600D02*
D03*
X623400D02*
D03*
X598000D02*
D03*
X275300D02*
D03*
X300700D02*
D03*
X907000Y914100D02*
D03*
Y888700D02*
D03*
Y939500D02*
D03*
Y964900D02*
D03*
Y990300D02*
D03*
Y1015700D02*
D03*
Y1041100D02*
D03*
Y1066500D02*
D03*
Y1091900D02*
D03*
Y1117300D02*
D03*
D63*
X357100Y1155700D02*
D03*
X297100D02*
D03*
D64*
X327100Y1108700D02*
D03*
D65*
X275250Y1036000D02*
D03*
Y970000D02*
D03*
D66*
X862000Y1246000D02*
D03*
X281000Y932000D02*
D03*
Y1245000D02*
D03*
D67*
X841000Y928000D02*
D03*
X817000Y929000D02*
D03*
X825000Y995000D02*
D03*
X806000D02*
D03*
X786000D02*
D03*
X821000Y1035320D02*
D03*
X651000Y996000D02*
D03*
X783000Y1037000D02*
D03*
X778000Y1008000D02*
D03*
X805000Y1040000D02*
D03*
X614999Y963344D02*
D03*
X615009Y978584D02*
D03*
X621971Y1004778D02*
D03*
X611000Y1020000D02*
D03*
M02*
