G04*
G04 #@! TF.GenerationSoftware,Altium Limited,Altium Designer,22.8.2 (66)*
G04*
G04 Layer_Physical_Order=1*
G04 Layer_Color=255*
%FSLAX44Y44*%
%MOMM*%
G71*
G04*
G04 #@! TF.SameCoordinates,AFBA7131-1AEE-443E-AB60-5C51F5C0F5D9*
G04*
G04*
G04 #@! TF.FilePolarity,Positive*
G04*
G01*
G75*
%ADD18R,1.6500X1.2500*%
%ADD19R,1.2300X1.8000*%
%ADD20R,0.9000X0.9500*%
%ADD21R,1.1500X1.3500*%
%ADD22R,1.8000X1.2300*%
%ADD23R,1.2000X1.2000*%
%ADD24R,0.5500X0.8000*%
%ADD25R,1.3000X1.4000*%
%ADD26O,1.3500X0.4000*%
%ADD27R,1.8000X1.9000*%
G04:AMPARAMS|DCode=28|XSize=1.6mm|YSize=1.4mm|CornerRadius=0.35mm|HoleSize=0mm|Usage=FLASHONLY|Rotation=90.000|XOffset=0mm|YOffset=0mm|HoleType=Round|Shape=RoundedRectangle|*
%AMROUNDEDRECTD28*
21,1,1.6000,0.7000,0,0,90.0*
21,1,0.9000,1.4000,0,0,90.0*
1,1,0.7000,0.3500,0.4500*
1,1,0.7000,0.3500,-0.4500*
1,1,0.7000,-0.3500,-0.4500*
1,1,0.7000,-0.3500,0.4500*
%
%ADD28ROUNDEDRECTD28*%
%ADD29R,1.4000X1.3000*%
%ADD30R,0.9000X0.8000*%
%ADD31R,5.5000X2.0000*%
%ADD32R,1.3500X1.1500*%
%ADD33R,0.9500X0.9000*%
%ADD34R,3.3500X2.1500*%
%ADD35R,1.0000X2.1500*%
%ADD36R,1.5000X0.5500*%
%ADD37R,0.5500X1.5000*%
%ADD38R,1.5240X1.0160*%
%ADD39R,1.1000X1.8000*%
%ADD66C,3.0000*%
%ADD68C,0.4000*%
%ADD69C,0.5000*%
%ADD70C,0.6000*%
%ADD71C,0.3556*%
%ADD72C,0.4064*%
%ADD73C,0.5080*%
%ADD74C,2.0000*%
G04:AMPARAMS|DCode=75|XSize=2.1mm|YSize=1.5mm|CornerRadius=0.375mm|HoleSize=0mm|Usage=FLASHONLY|Rotation=90.000|XOffset=0mm|YOffset=0mm|HoleType=Round|Shape=RoundedRectangle|*
%AMROUNDEDRECTD75*
21,1,2.1000,0.7500,0,0,90.0*
21,1,1.3500,1.5000,0,0,90.0*
1,1,0.7500,0.3750,0.6750*
1,1,0.7500,0.3750,-0.6750*
1,1,0.7500,-0.3750,-0.6750*
1,1,0.7500,-0.3750,0.6750*
%
%ADD75ROUNDEDRECTD75*%
G04:AMPARAMS|DCode=76|XSize=2.1mm|YSize=1.5mm|CornerRadius=0.375mm|HoleSize=0mm|Usage=FLASHONLY|Rotation=180.000|XOffset=0mm|YOffset=0mm|HoleType=Round|Shape=RoundedRectangle|*
%AMROUNDEDRECTD76*
21,1,2.1000,0.7500,0,0,180.0*
21,1,1.3500,1.5000,0,0,180.0*
1,1,0.7500,-0.6750,0.3750*
1,1,0.7500,0.6750,0.3750*
1,1,0.7500,0.6750,-0.3750*
1,1,0.7500,-0.6750,-0.3750*
%
%ADD76ROUNDEDRECTD76*%
%ADD77O,1.6000X0.9000*%
%ADD78C,1.2700*%
%ADD79C,1.0000*%
G36*
X939800Y863600D02*
X254000D01*
Y1270000D01*
X939800D01*
Y863600D01*
D02*
G37*
%LPC*%
G36*
X649690Y1248640D02*
X642270D01*
Y1238370D01*
X649690D01*
Y1248640D01*
D02*
G37*
G36*
X639730D02*
X632310D01*
Y1238370D01*
X639730D01*
Y1248640D01*
D02*
G37*
G36*
X561640Y1246440D02*
X554870D01*
Y1236170D01*
X561640D01*
Y1246440D01*
D02*
G37*
G36*
X552330D02*
X545560D01*
Y1236170D01*
X552330D01*
Y1246440D01*
D02*
G37*
G36*
X863727Y1263540D02*
X860273D01*
X856884Y1262866D01*
X853692Y1261544D01*
X850819Y1259624D01*
X848376Y1257181D01*
X846456Y1254308D01*
X845134Y1251116D01*
X844460Y1247728D01*
Y1244273D01*
X845134Y1240884D01*
X846456Y1237692D01*
X848376Y1234819D01*
X850819Y1232376D01*
X853692Y1230456D01*
X856884Y1229134D01*
X860273Y1228460D01*
X863727D01*
X867116Y1229134D01*
X870308Y1230456D01*
X873181Y1232376D01*
X875624Y1234819D01*
X877544Y1237692D01*
X878866Y1240884D01*
X879540Y1244273D01*
Y1247728D01*
X878866Y1251116D01*
X877544Y1254308D01*
X875624Y1257181D01*
X873181Y1259624D01*
X870308Y1261544D01*
X867116Y1262866D01*
X863727Y1263540D01*
D02*
G37*
G36*
X282728Y1262540D02*
X279272D01*
X275884Y1261866D01*
X272692Y1260544D01*
X269819Y1258624D01*
X267376Y1256181D01*
X265456Y1253308D01*
X264134Y1250116D01*
X263460Y1246728D01*
Y1243272D01*
X264134Y1239884D01*
X265456Y1236692D01*
X267376Y1233819D01*
X269819Y1231376D01*
X272692Y1229456D01*
X275884Y1228134D01*
X279272Y1227460D01*
X282728D01*
X286116Y1228134D01*
X289308Y1229456D01*
X292181Y1231376D01*
X294624Y1233819D01*
X296544Y1236692D01*
X297866Y1239884D01*
X298540Y1243272D01*
Y1246728D01*
X297866Y1250116D01*
X296544Y1253308D01*
X294624Y1256181D01*
X292181Y1258624D01*
X289308Y1260544D01*
X286116Y1261866D01*
X282728Y1262540D01*
D02*
G37*
G36*
X649690Y1235830D02*
X642270D01*
Y1225560D01*
X649690D01*
Y1235830D01*
D02*
G37*
G36*
X639730D02*
X632310D01*
Y1225560D01*
X639730D01*
Y1235830D01*
D02*
G37*
G36*
X561640Y1233630D02*
X554870D01*
Y1223360D01*
X561640D01*
Y1233630D01*
D02*
G37*
G36*
X552330D02*
X545560D01*
Y1223360D01*
X552330D01*
Y1233630D01*
D02*
G37*
G36*
X441340Y1217930D02*
X433070D01*
Y1210160D01*
X441340D01*
Y1217930D01*
D02*
G37*
G36*
X430530D02*
X422260D01*
Y1210160D01*
X430530D01*
Y1217930D01*
D02*
G37*
G36*
X415090Y1217640D02*
X407670D01*
Y1207370D01*
X415090D01*
Y1217640D01*
D02*
G37*
G36*
X405130D02*
X397710D01*
Y1207370D01*
X405130D01*
Y1217640D01*
D02*
G37*
G36*
X415090Y1204830D02*
X407670D01*
Y1194560D01*
X415090D01*
Y1204830D01*
D02*
G37*
G36*
X405130D02*
X397710D01*
Y1194560D01*
X405130D01*
Y1204830D01*
D02*
G37*
G36*
X800140Y1184790D02*
X789870D01*
Y1177370D01*
X800140D01*
Y1184790D01*
D02*
G37*
G36*
X787330D02*
X777060D01*
Y1177370D01*
X787330D01*
Y1184790D01*
D02*
G37*
G36*
X762840D02*
X752570D01*
Y1177370D01*
X762840D01*
Y1184790D01*
D02*
G37*
G36*
X750030D02*
X739760D01*
Y1177370D01*
X750030D01*
Y1184790D01*
D02*
G37*
G36*
X413690Y1178490D02*
X399110D01*
Y1177098D01*
X372850D01*
X372850Y1177099D01*
X370688Y1176669D01*
X368856Y1175444D01*
X362038Y1168627D01*
X360850Y1168863D01*
X353350D01*
X350896Y1168375D01*
X348815Y1166985D01*
X347425Y1164904D01*
X346937Y1162450D01*
Y1148950D01*
X347425Y1146496D01*
X348815Y1144415D01*
X350896Y1143025D01*
X353350Y1142537D01*
X360850D01*
X363304Y1143025D01*
X365385Y1144415D01*
X366775Y1146496D01*
X367263Y1148950D01*
Y1158221D01*
X368307Y1158919D01*
X375190Y1165801D01*
X399110D01*
Y1164410D01*
X413690D01*
Y1178490D01*
D02*
G37*
G36*
X561640Y1184440D02*
X554870D01*
Y1174170D01*
X561640D01*
Y1184440D01*
D02*
G37*
G36*
X552330D02*
X545560D01*
Y1174170D01*
X552330D01*
Y1184440D01*
D02*
G37*
G36*
X440490Y1180340D02*
X433070D01*
Y1170070D01*
X440490D01*
Y1180340D01*
D02*
G37*
G36*
X430530D02*
X423110D01*
Y1170070D01*
X430530D01*
Y1180340D01*
D02*
G37*
G36*
X800140Y1174830D02*
X789870D01*
Y1167410D01*
X800140D01*
Y1174830D01*
D02*
G37*
G36*
X787330D02*
X777060D01*
Y1167410D01*
X787330D01*
Y1174830D01*
D02*
G37*
G36*
X762840Y1174830D02*
X752570D01*
Y1167410D01*
X762840D01*
Y1174830D01*
D02*
G37*
G36*
X750030D02*
X739760D01*
Y1167410D01*
X750030D01*
Y1174830D01*
D02*
G37*
G36*
X561640Y1171630D02*
X554870D01*
Y1161360D01*
X561640D01*
Y1171630D01*
D02*
G37*
G36*
X552330D02*
X545560D01*
Y1161360D01*
X552330D01*
Y1171630D01*
D02*
G37*
G36*
X440490Y1167530D02*
X433070D01*
Y1157260D01*
X440490D01*
Y1167530D01*
D02*
G37*
G36*
X430530D02*
X423110D01*
Y1157260D01*
X430530D01*
Y1167530D01*
D02*
G37*
G36*
X300850Y1168863D02*
X298370D01*
Y1156970D01*
X307263D01*
Y1162450D01*
X306775Y1164904D01*
X305385Y1166985D01*
X303304Y1168375D01*
X300850Y1168863D01*
D02*
G37*
G36*
X295830D02*
X293350D01*
X290896Y1168375D01*
X288815Y1166985D01*
X287425Y1164904D01*
X286937Y1162450D01*
Y1156970D01*
X295830D01*
Y1168863D01*
D02*
G37*
G36*
X853840Y1226740D02*
X793760D01*
Y1201660D01*
X810171D01*
Y1184790D01*
X803260D01*
Y1167410D01*
X809371D01*
Y1164593D01*
X808541Y1164114D01*
X806886Y1162459D01*
X805716Y1160431D01*
X805110Y1158170D01*
Y1155830D01*
X805716Y1153569D01*
X806886Y1151541D01*
X808541Y1149886D01*
X810569Y1148716D01*
X812830Y1148110D01*
X815170D01*
X817431Y1148716D01*
X819459Y1149886D01*
X821114Y1151541D01*
X822284Y1153569D01*
X822890Y1155830D01*
Y1158170D01*
X822284Y1160431D01*
X821114Y1162459D01*
X819459Y1164114D01*
X818629Y1164593D01*
Y1167410D01*
X826340D01*
Y1184790D01*
X819429D01*
Y1201660D01*
X853840D01*
Y1226740D01*
D02*
G37*
G36*
X758840D02*
X698760D01*
Y1201660D01*
X724171D01*
Y1184790D01*
X713560D01*
Y1167410D01*
X720371D01*
Y1161593D01*
X719541Y1161114D01*
X717886Y1159459D01*
X716716Y1157431D01*
X716110Y1155170D01*
Y1152830D01*
X716716Y1150569D01*
X717886Y1148541D01*
X719541Y1146886D01*
X721569Y1145716D01*
X723830Y1145110D01*
X726170D01*
X728431Y1145716D01*
X730459Y1146886D01*
X732114Y1148541D01*
X733284Y1150569D01*
X733890Y1152830D01*
Y1155170D01*
X733284Y1157431D01*
X732114Y1159459D01*
X730459Y1161114D01*
X729629Y1161593D01*
Y1167410D01*
X736640D01*
Y1184790D01*
X733429D01*
Y1201660D01*
X758840D01*
Y1226740D01*
D02*
G37*
G36*
X307263Y1154430D02*
X298370D01*
Y1142537D01*
X300850D01*
X303304Y1143025D01*
X305385Y1144415D01*
X306775Y1146496D01*
X307263Y1148950D01*
Y1154430D01*
D02*
G37*
G36*
X295830D02*
X286937D01*
Y1148950D01*
X287425Y1146496D01*
X288815Y1144415D01*
X290896Y1143025D01*
X293350Y1142537D01*
X295830D01*
Y1154430D01*
D02*
G37*
G36*
X525840Y1190540D02*
X510760D01*
Y1163960D01*
X513502D01*
Y1160040D01*
X510710D01*
Y1143810D01*
X510710Y1143460D01*
Y1142540D01*
X510710Y1142190D01*
Y1135520D01*
X520000D01*
X529290D01*
Y1142190D01*
X529290Y1142540D01*
Y1143460D01*
X529290Y1143810D01*
Y1160040D01*
X524799D01*
Y1163960D01*
X525840D01*
Y1190540D01*
D02*
G37*
G36*
X529290Y1132980D02*
X521270D01*
Y1125960D01*
X529290D01*
Y1132980D01*
D02*
G37*
G36*
X518730D02*
X510710D01*
Y1125960D01*
X518730D01*
Y1132980D01*
D02*
G37*
G36*
X504590D02*
X496570D01*
Y1125960D01*
X504590D01*
Y1132980D01*
D02*
G37*
G36*
X494030D02*
X486010D01*
Y1125960D01*
X494030D01*
Y1132980D01*
D02*
G37*
G36*
X579230Y1127140D02*
X571460D01*
Y1118870D01*
X579230D01*
Y1127140D01*
D02*
G37*
G36*
X672340Y1126290D02*
X662070D01*
Y1118870D01*
X672340D01*
Y1126290D01*
D02*
G37*
G36*
X560070Y1125066D02*
Y1118870D01*
X566266D01*
X565826Y1120510D01*
X564833Y1122230D01*
X563430Y1123633D01*
X561710Y1124626D01*
X560070Y1125066D01*
D02*
G37*
G36*
X557530D02*
X555890Y1124626D01*
X554170Y1123633D01*
X552766Y1122230D01*
X551774Y1120510D01*
X551334Y1118870D01*
X557530D01*
Y1125066D01*
D02*
G37*
G36*
X333850Y1118863D02*
X328370D01*
Y1109970D01*
X340263D01*
Y1112450D01*
X339775Y1114904D01*
X338385Y1116985D01*
X336304Y1118375D01*
X333850Y1118863D01*
D02*
G37*
G36*
X325830D02*
X320350D01*
X317896Y1118375D01*
X315815Y1116985D01*
X314425Y1114904D01*
X313937Y1112450D01*
Y1109970D01*
X325830D01*
Y1118863D01*
D02*
G37*
G36*
X672340Y1116330D02*
X662070D01*
Y1108910D01*
X672340D01*
Y1116330D01*
D02*
G37*
G36*
X454240Y1120940D02*
X440160D01*
Y1119579D01*
X394400D01*
X392418Y1119185D01*
X390737Y1118063D01*
X384338Y1111663D01*
X383215Y1109982D01*
X382821Y1108000D01*
Y1086790D01*
X380560D01*
Y1084679D01*
X364290D01*
Y1091440D01*
X346910D01*
Y1089230D01*
X340990D01*
Y1092840D01*
X319410D01*
Y1075260D01*
X340990D01*
Y1078870D01*
X346910D01*
Y1068360D01*
X364290D01*
Y1074321D01*
X380560D01*
Y1072210D01*
X381646D01*
Y1063390D01*
X376660D01*
Y1044810D01*
X392890D01*
X393240Y1044810D01*
X394160D01*
X394510Y1044810D01*
X401180D01*
Y1054100D01*
Y1063390D01*
X394510D01*
X394160Y1063390D01*
X393240D01*
X392890Y1063390D01*
X390904D01*
Y1072210D01*
X394640D01*
Y1086790D01*
X393180D01*
Y1105855D01*
X396545Y1109221D01*
X440160D01*
Y1107860D01*
X454240D01*
Y1120940D01*
D02*
G37*
G36*
X340263Y1107430D02*
X328370D01*
Y1098537D01*
X333850D01*
X336304Y1099025D01*
X338385Y1100415D01*
X339775Y1102496D01*
X340263Y1104950D01*
Y1107430D01*
D02*
G37*
G36*
X325830D02*
X313937D01*
Y1104950D01*
X314425Y1102496D01*
X315815Y1100415D01*
X317896Y1099025D01*
X320350Y1098537D01*
X325830D01*
Y1107430D01*
D02*
G37*
G36*
X695820Y1101490D02*
Y1093470D01*
X702840D01*
Y1101490D01*
X695820D01*
D02*
G37*
G36*
X702840Y1090930D02*
X695820D01*
Y1082910D01*
X702840D01*
Y1090930D01*
D02*
G37*
G36*
X909651Y1252640D02*
X906349D01*
X903160Y1251785D01*
X900300Y1250135D01*
X897965Y1247800D01*
X896315Y1244940D01*
X895460Y1241751D01*
Y1238449D01*
X896315Y1235260D01*
X896424Y1235070D01*
X883727Y1222373D01*
X882723Y1220871D01*
X882371Y1219100D01*
X882371Y1219100D01*
Y1202917D01*
X753827Y1074373D01*
X752823Y1072871D01*
X752471Y1071100D01*
X752471Y1071100D01*
Y1049290D01*
X747060D01*
Y1048629D01*
X721017D01*
X704840Y1064806D01*
Y1075340D01*
X687760D01*
Y1058260D01*
X698294D01*
X713732Y1042822D01*
X713246Y1041648D01*
X678766D01*
X678766Y1041649D01*
X676604Y1041219D01*
X674772Y1039994D01*
X674772Y1039994D01*
X673452Y1038674D01*
X661120D01*
Y1036702D01*
X625286D01*
X602649Y1059340D01*
Y1075410D01*
X617960D01*
Y1068070D01*
X626250D01*
Y1066800D01*
X627520D01*
Y1057510D01*
X634190D01*
X634540Y1057510D01*
Y1057510D01*
X635460D01*
Y1057510D01*
X652040D01*
Y1062171D01*
X666760D01*
Y1058260D01*
X683840D01*
Y1075340D01*
X666760D01*
Y1071429D01*
X652040D01*
Y1076090D01*
X637548D01*
X637023Y1077360D01*
X639831Y1080169D01*
X640393Y1081009D01*
X640590Y1082000D01*
Y1083660D01*
X656240D01*
Y1087571D01*
X668760D01*
Y1082910D01*
X684990D01*
X685340Y1082910D01*
X686260D01*
X686610Y1082910D01*
X693280D01*
Y1092200D01*
Y1101490D01*
X686610D01*
X686260Y1101490D01*
X685340D01*
X684990Y1101490D01*
X668760D01*
Y1096829D01*
X656240D01*
Y1100740D01*
X640590D01*
Y1102410D01*
X644000D01*
X644991Y1102607D01*
X645831Y1103169D01*
X648831Y1106169D01*
X649393Y1107009D01*
X649590Y1108000D01*
X650337Y1108910D01*
X659530D01*
Y1117600D01*
Y1126290D01*
X655788D01*
X655302Y1127463D01*
X660994Y1133156D01*
X662219Y1134988D01*
X662649Y1137150D01*
X662648Y1137150D01*
Y1159750D01*
X662649Y1159750D01*
X662219Y1161912D01*
X660994Y1163744D01*
X660994Y1163744D01*
X649040Y1175698D01*
Y1186290D01*
X646524D01*
Y1199360D01*
X649690D01*
Y1222440D01*
X632310D01*
Y1199360D01*
X635227D01*
Y1186290D01*
X632810D01*
X632460Y1186290D01*
X631540D01*
X631190Y1186290D01*
X614960D01*
Y1177529D01*
X598640D01*
Y1184440D01*
X595229D01*
Y1223360D01*
X598640D01*
Y1246440D01*
X582560D01*
Y1223360D01*
X585971D01*
Y1184440D01*
X582560D01*
Y1161360D01*
X598640D01*
Y1168271D01*
X614960D01*
Y1167710D01*
X618621D01*
Y1160540D01*
X613960D01*
Y1154629D01*
X609593D01*
X609114Y1155459D01*
X607459Y1157114D01*
X605431Y1158284D01*
X603170Y1158890D01*
X600830D01*
X598569Y1158284D01*
X596541Y1157114D01*
X594886Y1155459D01*
X593716Y1153431D01*
X593523Y1152713D01*
X592797Y1152548D01*
X592181Y1152610D01*
X591114Y1154459D01*
X589459Y1156114D01*
X587431Y1157284D01*
X585170Y1157890D01*
X582830D01*
X580569Y1157284D01*
X578541Y1156114D01*
X576886Y1154459D01*
X575716Y1152431D01*
X575110Y1150170D01*
Y1147830D01*
X575716Y1145569D01*
X576886Y1143541D01*
X578541Y1141886D01*
X580569Y1140716D01*
X582830Y1140110D01*
X585170D01*
X586096Y1140358D01*
X590617Y1135837D01*
X590617Y1135837D01*
X592119Y1134833D01*
X593890Y1134481D01*
X593890Y1134481D01*
X629220D01*
X629220Y1134481D01*
X630992Y1134833D01*
X632494Y1135837D01*
X636033Y1139376D01*
X636033Y1139377D01*
X637037Y1140878D01*
X637152Y1141460D01*
X648040D01*
Y1158926D01*
X649310Y1159452D01*
X651351Y1157410D01*
Y1139490D01*
X644452Y1132590D01*
X590000D01*
X589009Y1132393D01*
X588169Y1131831D01*
X587607Y1130991D01*
X587410Y1130000D01*
Y1127140D01*
X581771D01*
Y1117600D01*
X580500D01*
Y1116330D01*
X571460D01*
Y1109139D01*
X561261D01*
X561094Y1110409D01*
X561710Y1110574D01*
X563430Y1111566D01*
X564833Y1112970D01*
X565826Y1114690D01*
X566266Y1116330D01*
X551334D01*
X551774Y1114690D01*
X552766Y1112970D01*
X554170Y1111566D01*
X555890Y1110574D01*
X556506Y1110409D01*
X556339Y1109139D01*
X528174D01*
X526207Y1108748D01*
X524540Y1107634D01*
X514177Y1097270D01*
X474675D01*
X474240Y1098360D01*
X474240Y1098540D01*
Y1111440D01*
X472849D01*
Y1147860D01*
X484740Y1159752D01*
X486010Y1159226D01*
X486010Y1159195D01*
X486010Y1159195D01*
X486010Y1159107D01*
Y1143810D01*
X486010Y1143460D01*
Y1142540D01*
X486010Y1142190D01*
Y1135520D01*
X495300D01*
X504590D01*
Y1142190D01*
X504590Y1142540D01*
Y1143460D01*
X504590Y1143810D01*
Y1160040D01*
X500948D01*
Y1163960D01*
X502840D01*
Y1190540D01*
X492068D01*
X491582Y1191713D01*
X499294Y1199426D01*
X499294Y1199426D01*
X500519Y1201258D01*
X500949Y1203420D01*
X500948Y1203420D01*
Y1222460D01*
X514590D01*
Y1249040D01*
X476010D01*
Y1240848D01*
X441340D01*
Y1244240D01*
X422260D01*
Y1240848D01*
X415090D01*
Y1243840D01*
X397710D01*
Y1220760D01*
X415090D01*
Y1229551D01*
X422260D01*
Y1226160D01*
Y1220470D01*
X431800D01*
X441340D01*
Y1226160D01*
Y1229551D01*
X476010D01*
Y1222460D01*
X489651D01*
Y1205760D01*
X480006Y1196114D01*
X478781Y1194282D01*
X478351Y1192120D01*
X478352Y1192120D01*
Y1190540D01*
X464760D01*
Y1171948D01*
X447520Y1154708D01*
X435410D01*
X435410Y1154709D01*
X433248Y1154279D01*
X433041Y1154140D01*
X423110D01*
Y1145599D01*
X413690D01*
Y1146990D01*
X399110D01*
Y1132910D01*
X413690D01*
Y1134302D01*
X423110D01*
Y1131060D01*
X440490D01*
Y1143411D01*
X449860D01*
X449860Y1143411D01*
X452022Y1143841D01*
X453854Y1145066D01*
X460572Y1151783D01*
X461742Y1151158D01*
X461552Y1150200D01*
X461552Y1150200D01*
Y1111440D01*
X460160D01*
Y1098540D01*
X460160Y1098360D01*
X459725Y1097270D01*
X454240D01*
Y1101940D01*
X440160D01*
Y1088860D01*
X442007D01*
X442533Y1087590D01*
X436313Y1081370D01*
X426140D01*
Y1086790D01*
X412060D01*
Y1072210D01*
X413451D01*
Y1025368D01*
X371532Y983449D01*
X371241Y983254D01*
X371241Y983254D01*
X368746Y980759D01*
X368551Y980468D01*
X356006Y967922D01*
X354781Y966089D01*
X354351Y963928D01*
X354352Y963928D01*
Y921800D01*
X354351Y921800D01*
X354781Y919638D01*
X356006Y917806D01*
X373655Y900157D01*
X372997Y899018D01*
X371051Y899540D01*
X370670D01*
Y887000D01*
Y874460D01*
X371051D01*
X374240Y875315D01*
X377100Y876965D01*
X379435Y879300D01*
X381085Y882160D01*
X381443Y883493D01*
X382757D01*
X383115Y882160D01*
X384766Y879300D01*
X387100Y876965D01*
X389960Y875315D01*
X393149Y874460D01*
X396451D01*
X399640Y875315D01*
X402500Y876965D01*
X404835Y879300D01*
X406485Y882160D01*
X406533Y882338D01*
X408467D01*
X408515Y882160D01*
X410165Y879300D01*
X412500Y876965D01*
X415360Y875315D01*
X418549Y874460D01*
X421851D01*
X425040Y875315D01*
X427900Y876965D01*
X430234Y879300D01*
X431885Y882160D01*
X431933Y882338D01*
X433867D01*
X433915Y882160D01*
X435565Y879300D01*
X437900Y876965D01*
X440760Y875315D01*
X443949Y874460D01*
X447251D01*
X450440Y875315D01*
X453300Y876965D01*
X455634Y879300D01*
X457285Y882160D01*
X457333Y882338D01*
X459267D01*
X459315Y882160D01*
X460965Y879300D01*
X463300Y876965D01*
X466160Y875315D01*
X469349Y874460D01*
X472651D01*
X475840Y875315D01*
X478700Y876965D01*
X481035Y879300D01*
X482685Y882160D01*
X482733Y882338D01*
X484667D01*
X484715Y882160D01*
X486366Y879300D01*
X488700Y876965D01*
X491560Y875315D01*
X494749Y874460D01*
X498051D01*
X501240Y875315D01*
X504100Y876965D01*
X506435Y879300D01*
X508085Y882160D01*
X508443Y883493D01*
X509757D01*
X510115Y882160D01*
X511766Y879300D01*
X514100Y876965D01*
X516960Y875315D01*
X520149Y874460D01*
X523451D01*
X526640Y875315D01*
X529500Y876965D01*
X531834Y879300D01*
X533019Y881351D01*
X535981D01*
X537165Y879300D01*
X539500Y876965D01*
X542360Y875315D01*
X545549Y874460D01*
X548851D01*
X552040Y875315D01*
X554900Y876965D01*
X557234Y879300D01*
X558419Y881351D01*
X561381D01*
X562565Y879300D01*
X564900Y876965D01*
X567760Y875315D01*
X570949Y874460D01*
X574251D01*
X577440Y875315D01*
X580300Y876965D01*
X582635Y879300D01*
X583819Y881351D01*
X586781D01*
X587966Y879300D01*
X590300Y876965D01*
X593160Y875315D01*
X596349Y874460D01*
X599651D01*
X602840Y875315D01*
X605700Y876965D01*
X608035Y879300D01*
X609219Y881351D01*
X612181D01*
X613366Y879300D01*
X615700Y876965D01*
X618560Y875315D01*
X621749Y874460D01*
X625051D01*
X628240Y875315D01*
X631100Y876965D01*
X633434Y879300D01*
X635085Y882160D01*
X635940Y885349D01*
Y888651D01*
X635085Y891840D01*
X633434Y894700D01*
X631919Y896216D01*
Y901930D01*
X635340Y905351D01*
X671000D01*
X671000Y905351D01*
X673162Y905781D01*
X674994Y907006D01*
X685340Y917352D01*
X686655D01*
X686973Y916841D01*
X687135Y916081D01*
X669630Y898576D01*
X669440Y898685D01*
X666251Y899540D01*
X662949D01*
X659760Y898685D01*
X656900Y897035D01*
X654566Y894700D01*
X652915Y891840D01*
X652060Y888651D01*
Y885349D01*
X652915Y882160D01*
X654566Y879300D01*
X656900Y876965D01*
X659760Y875315D01*
X662949Y874460D01*
X666251D01*
X669440Y875315D01*
X672300Y876965D01*
X674634Y879300D01*
X676285Y882160D01*
X676643Y883493D01*
X677957D01*
X678315Y882160D01*
X679966Y879300D01*
X682300Y876965D01*
X685160Y875315D01*
X688349Y874460D01*
X691651D01*
X694840Y875315D01*
X697700Y876965D01*
X700034Y879300D01*
X701685Y882160D01*
X702043Y883493D01*
X703357D01*
X703715Y882160D01*
X705366Y879300D01*
X707700Y876965D01*
X710560Y875315D01*
X713749Y874460D01*
X717051D01*
X720240Y875315D01*
X723100Y876965D01*
X725434Y879300D01*
X727085Y882160D01*
X727443Y883493D01*
X728757D01*
X729115Y882160D01*
X730766Y879300D01*
X733100Y876965D01*
X735960Y875315D01*
X739149Y874460D01*
X742451D01*
X745640Y875315D01*
X748500Y876965D01*
X750835Y879300D01*
X752485Y882160D01*
X752843Y883493D01*
X754157D01*
X754515Y882160D01*
X756165Y879300D01*
X758500Y876965D01*
X761360Y875315D01*
X764549Y874460D01*
X767851D01*
X771040Y875315D01*
X773900Y876965D01*
X776235Y879300D01*
X777885Y882160D01*
X778243Y883493D01*
X779557D01*
X779915Y882160D01*
X781565Y879300D01*
X783900Y876965D01*
X786760Y875315D01*
X789949Y874460D01*
X793251D01*
X796440Y875315D01*
X799300Y876965D01*
X801635Y879300D01*
X803285Y882160D01*
X803643Y883493D01*
X804957D01*
X805315Y882160D01*
X806965Y879300D01*
X809300Y876965D01*
X812160Y875315D01*
X815349Y874460D01*
X818651D01*
X821840Y875315D01*
X824700Y876965D01*
X827035Y879300D01*
X828685Y882160D01*
X829043Y883493D01*
X830357D01*
X830715Y882160D01*
X832365Y879300D01*
X834700Y876965D01*
X837560Y875315D01*
X840749Y874460D01*
X844051D01*
X847240Y875315D01*
X850100Y876965D01*
X852434Y879300D01*
X854085Y882160D01*
X854443Y883493D01*
X855757D01*
X856115Y882160D01*
X857766Y879300D01*
X860100Y876965D01*
X862960Y875315D01*
X866149Y874460D01*
X869451D01*
X872640Y875315D01*
X875500Y876965D01*
X877834Y879300D01*
X879485Y882160D01*
X880340Y885349D01*
Y888651D01*
X879485Y891840D01*
X877834Y894700D01*
X875500Y897035D01*
X872640Y898685D01*
X872429Y898742D01*
Y940200D01*
X872429Y940200D01*
X872077Y941971D01*
X871073Y943473D01*
X868889Y945658D01*
X869375Y946831D01*
X870623D01*
X874371Y943083D01*
Y916700D01*
X874371Y916700D01*
X874723Y914929D01*
X875727Y913427D01*
X895424Y893730D01*
X895315Y893540D01*
X894460Y890351D01*
Y887049D01*
X895315Y883860D01*
X896965Y881000D01*
X899300Y878665D01*
X902160Y877015D01*
X905349Y876160D01*
X908651D01*
X911840Y877015D01*
X914700Y878665D01*
X917035Y881000D01*
X918685Y883860D01*
X919540Y887049D01*
Y890351D01*
X918685Y893540D01*
X917035Y896400D01*
X914700Y898735D01*
X911840Y900385D01*
X910507Y900743D01*
Y902057D01*
X911840Y902415D01*
X914700Y904065D01*
X917035Y906400D01*
X918685Y909260D01*
X919540Y912449D01*
Y915751D01*
X918685Y918940D01*
X917035Y921800D01*
X914700Y924135D01*
X911840Y925785D01*
X910507Y926143D01*
Y927457D01*
X911840Y927815D01*
X914700Y929465D01*
X917035Y931800D01*
X918685Y934660D01*
X919540Y937849D01*
Y941151D01*
X918685Y944340D01*
X917035Y947200D01*
X914700Y949535D01*
X911840Y951185D01*
X910507Y951543D01*
Y952857D01*
X911840Y953215D01*
X914700Y954865D01*
X917035Y957200D01*
X918685Y960060D01*
X919540Y963249D01*
Y966551D01*
X918685Y969740D01*
X917035Y972600D01*
X914700Y974934D01*
X911840Y976585D01*
X910507Y976943D01*
Y978257D01*
X911840Y978615D01*
X914700Y980266D01*
X917035Y982600D01*
X918685Y985460D01*
X919540Y988649D01*
Y991951D01*
X918685Y995140D01*
X917035Y998000D01*
X914700Y1000334D01*
X911840Y1001985D01*
X910507Y1002343D01*
Y1003657D01*
X911840Y1004015D01*
X914700Y1005666D01*
X917035Y1008000D01*
X918685Y1010860D01*
X919540Y1014049D01*
Y1017351D01*
X918685Y1020540D01*
X917035Y1023400D01*
X914700Y1025734D01*
X911840Y1027385D01*
X910507Y1027743D01*
Y1029057D01*
X911840Y1029415D01*
X914700Y1031066D01*
X917035Y1033400D01*
X918685Y1036260D01*
X919540Y1039449D01*
Y1042751D01*
X918685Y1045940D01*
X917035Y1048800D01*
X914700Y1051134D01*
X911840Y1052785D01*
X910507Y1053143D01*
Y1054457D01*
X911840Y1054815D01*
X914700Y1056466D01*
X917035Y1058800D01*
X918685Y1061660D01*
X919540Y1064849D01*
Y1068151D01*
X918685Y1071340D01*
X917035Y1074200D01*
X914700Y1076535D01*
X911840Y1078185D01*
X910507Y1078543D01*
Y1079857D01*
X911840Y1080215D01*
X914700Y1081865D01*
X917035Y1084200D01*
X918685Y1087060D01*
X919540Y1090249D01*
Y1093551D01*
X918685Y1096740D01*
X917035Y1099600D01*
X914700Y1101935D01*
X911840Y1103585D01*
X910507Y1103943D01*
Y1105257D01*
X911840Y1105615D01*
X914700Y1107265D01*
X917035Y1109600D01*
X918685Y1112460D01*
X919540Y1115649D01*
Y1118951D01*
X918685Y1122140D01*
X917035Y1125000D01*
X914700Y1127335D01*
X911840Y1128985D01*
X908651Y1129840D01*
X905349D01*
X902160Y1128985D01*
X899300Y1127335D01*
X896965Y1125000D01*
X895315Y1122140D01*
X895258Y1121929D01*
X847379D01*
X846893Y1123102D01*
X883061Y1159271D01*
X896258D01*
X896315Y1159060D01*
X897965Y1156200D01*
X900300Y1153866D01*
X903160Y1152215D01*
X906349Y1151360D01*
X909651D01*
X912840Y1152215D01*
X915700Y1153866D01*
X918035Y1156200D01*
X919685Y1159060D01*
X920540Y1162249D01*
Y1165551D01*
X919685Y1168740D01*
X918035Y1171600D01*
X915700Y1173934D01*
X912840Y1175585D01*
X911507Y1175943D01*
Y1177257D01*
X912840Y1177615D01*
X915700Y1179266D01*
X918035Y1181600D01*
X919685Y1184460D01*
X920540Y1187649D01*
Y1190951D01*
X919685Y1194140D01*
X918035Y1197000D01*
X915700Y1199334D01*
X912840Y1200985D01*
X911507Y1201343D01*
Y1202657D01*
X912840Y1203015D01*
X915700Y1204666D01*
X918035Y1207000D01*
X919685Y1209860D01*
X920540Y1213049D01*
Y1216351D01*
X919685Y1219540D01*
X918035Y1222400D01*
X915700Y1224734D01*
X912840Y1226385D01*
X911507Y1226743D01*
Y1228057D01*
X912840Y1228415D01*
X915700Y1230066D01*
X918035Y1232400D01*
X919685Y1235260D01*
X920540Y1238449D01*
Y1241751D01*
X919685Y1244940D01*
X918035Y1247800D01*
X915700Y1250135D01*
X912840Y1251785D01*
X909651Y1252640D01*
D02*
G37*
G36*
X624980Y1065530D02*
X617960D01*
Y1057510D01*
X624980D01*
Y1065530D01*
D02*
G37*
G36*
X403720Y1063390D02*
Y1055370D01*
X410740D01*
Y1063390D01*
X403720D01*
D02*
G37*
G36*
X364290Y1065240D02*
X356870D01*
Y1054970D01*
X364290D01*
Y1065240D01*
D02*
G37*
G36*
X354330D02*
X346910D01*
Y1054970D01*
X354330D01*
Y1065240D01*
D02*
G37*
G36*
X410740Y1052830D02*
X403720D01*
Y1044810D01*
X410740D01*
Y1052830D01*
D02*
G37*
G36*
X364290Y1052430D02*
X356870D01*
Y1042160D01*
X364290D01*
Y1052430D01*
D02*
G37*
G36*
X354330D02*
X346910D01*
Y1042160D01*
X354330D01*
Y1052430D01*
D02*
G37*
G36*
X278750Y1043101D02*
X271750D01*
X269912Y1042859D01*
X268200Y1042149D01*
X266729Y1041021D01*
X265601Y1039550D01*
X264891Y1037838D01*
X264649Y1036000D01*
X264891Y1034162D01*
X265601Y1032450D01*
X266729Y1030979D01*
X268200Y1029851D01*
X269912Y1029141D01*
X271750Y1028899D01*
X278750D01*
X280588Y1029141D01*
X282300Y1029851D01*
X283771Y1030979D01*
X284899Y1032450D01*
X285609Y1034162D01*
X285851Y1036000D01*
X285609Y1037838D01*
X284899Y1039550D01*
X283771Y1041021D01*
X282300Y1042149D01*
X280588Y1042859D01*
X278750Y1043101D01*
D02*
G37*
G36*
X303250Y1045658D02*
X296250D01*
X293893Y1045190D01*
X291895Y1043855D01*
X290560Y1041857D01*
X290092Y1039500D01*
Y1030500D01*
X290560Y1028143D01*
X291895Y1026145D01*
X293893Y1024810D01*
X296250Y1024342D01*
X303250D01*
X305607Y1024810D01*
X307605Y1026145D01*
X308939Y1028143D01*
X309408Y1030500D01*
Y1039500D01*
X308939Y1041857D01*
X307605Y1043855D01*
X305607Y1045190D01*
X303250Y1045658D01*
D02*
G37*
G36*
X340990Y1058340D02*
X319410D01*
Y1047352D01*
X314704Y1042646D01*
X313693Y1041134D01*
X313338Y1039350D01*
Y1029245D01*
X304755Y1020662D01*
X302000D01*
X301836Y1020629D01*
X297250D01*
X295479Y1020277D01*
X293977Y1019273D01*
X292973Y1017771D01*
X292621Y1016000D01*
X292973Y1014229D01*
X293961Y1012750D01*
X292973Y1011271D01*
X292621Y1009500D01*
X292973Y1007729D01*
X293961Y1006250D01*
X292973Y1004771D01*
X292621Y1003000D01*
X292973Y1001229D01*
X293961Y999750D01*
X292973Y998271D01*
X292621Y996500D01*
X292973Y994729D01*
X293961Y993250D01*
X292973Y991771D01*
X292874Y991270D01*
X302000D01*
X311126D01*
X311027Y991771D01*
X310039Y993250D01*
X311027Y994729D01*
X311379Y996500D01*
X311259Y997101D01*
X312302Y998371D01*
X316708D01*
X317352Y997727D01*
X317352Y997727D01*
X318854Y996723D01*
X320625Y996371D01*
X320625Y996371D01*
X327960D01*
Y991710D01*
X344190D01*
X344540Y991710D01*
X345460D01*
X345810Y991710D01*
X362040D01*
Y995351D01*
X370187D01*
X370187Y995351D01*
X371760Y995665D01*
X373830Y995110D01*
X376170D01*
X378431Y995716D01*
X380459Y996886D01*
X382114Y998541D01*
X383284Y1000569D01*
X383890Y1002830D01*
Y1005170D01*
X383284Y1007431D01*
X382114Y1009459D01*
X380459Y1011114D01*
X378431Y1012284D01*
X376170Y1012890D01*
X373830D01*
X371569Y1012284D01*
X369541Y1011114D01*
X367886Y1009459D01*
X366716Y1007431D01*
X366506Y1006648D01*
X362040D01*
Y1010290D01*
X345810D01*
X345460Y1010290D01*
X344540D01*
X344190Y1010290D01*
X327960D01*
Y1005629D01*
X322542D01*
X321898Y1006273D01*
X320396Y1007277D01*
X318625Y1007629D01*
X318625Y1007629D01*
X317680D01*
X317194Y1008802D01*
X326690Y1018298D01*
X327960Y1017874D01*
Y1013710D01*
X344190D01*
X344540Y1013710D01*
X345460D01*
X345810Y1013710D01*
X362040D01*
Y1020338D01*
X378426D01*
X378886Y1019541D01*
X380541Y1017886D01*
X382569Y1016716D01*
X384830Y1016110D01*
X387170D01*
X389431Y1016716D01*
X391459Y1017886D01*
X393114Y1019541D01*
X394284Y1021569D01*
X394890Y1023830D01*
Y1026170D01*
X394284Y1028431D01*
X393114Y1030459D01*
X391459Y1032114D01*
X389431Y1033284D01*
X387170Y1033890D01*
X384830D01*
X382569Y1033284D01*
X380541Y1032114D01*
X378886Y1030459D01*
X378426Y1029662D01*
X362040D01*
Y1032290D01*
X345810D01*
X345460Y1032290D01*
X344540D01*
X344190Y1032290D01*
X327960D01*
Y1027403D01*
X325166D01*
X323891Y1027149D01*
X323842Y1027156D01*
X322878Y1027789D01*
X322662Y1028047D01*
Y1037419D01*
X326002Y1040760D01*
X340990D01*
Y1058340D01*
D02*
G37*
G36*
X311126Y988730D02*
X303270D01*
Y985371D01*
X306750D01*
X308521Y985723D01*
X310023Y986727D01*
X311027Y988229D01*
X311126Y988730D01*
D02*
G37*
G36*
X300730D02*
X292874D01*
X292973Y988229D01*
X293977Y986727D01*
X295479Y985723D01*
X297250Y985371D01*
X300730D01*
Y988730D01*
D02*
G37*
G36*
X286790Y1027040D02*
X263710D01*
Y1002960D01*
Y978960D01*
X286790D01*
Y1002960D01*
Y1027040D01*
D02*
G37*
G36*
X278750Y977101D02*
X271750D01*
X269912Y976859D01*
X268200Y976149D01*
X266729Y975021D01*
X265601Y973550D01*
X264891Y971838D01*
X264649Y970000D01*
X264891Y968162D01*
X265601Y966450D01*
X266729Y964979D01*
X268200Y963851D01*
X269912Y963141D01*
X271750Y962899D01*
X278750D01*
X280588Y963141D01*
X282300Y963851D01*
X283771Y964979D01*
X284899Y966450D01*
X285609Y968162D01*
X285851Y970000D01*
X285609Y971838D01*
X284899Y973550D01*
X283771Y975021D01*
X282300Y976149D01*
X280588Y976859D01*
X278750Y977101D01*
D02*
G37*
G36*
X303250Y981658D02*
X296250D01*
X293893Y981189D01*
X291895Y979855D01*
X290560Y977857D01*
X290092Y975500D01*
Y966500D01*
X290560Y964143D01*
X291895Y962145D01*
X293893Y960810D01*
X296250Y960342D01*
X303250D01*
X305607Y960810D01*
X307605Y962145D01*
X308939Y964143D01*
X309408Y966500D01*
Y975500D01*
X308939Y977857D01*
X307605Y979855D01*
X305607Y981189D01*
X303250Y981658D01*
D02*
G37*
G36*
X282728Y949540D02*
X279272D01*
X275884Y948866D01*
X272692Y947544D01*
X269819Y945624D01*
X267376Y943181D01*
X265456Y940308D01*
X264134Y937116D01*
X263460Y933727D01*
Y930273D01*
X264134Y926884D01*
X265456Y923692D01*
X267376Y920819D01*
X269819Y918376D01*
X272692Y916456D01*
X275884Y915134D01*
X279272Y914460D01*
X282728D01*
X286116Y915134D01*
X289308Y916456D01*
X292181Y918376D01*
X294624Y920819D01*
X296544Y923692D01*
X297866Y926884D01*
X298540Y930273D01*
Y933727D01*
X297866Y937116D01*
X296544Y940308D01*
X294624Y943181D01*
X292181Y945624D01*
X289308Y947544D01*
X286116Y948866D01*
X282728Y949540D01*
D02*
G37*
G36*
X368130Y899540D02*
X367749D01*
X364560Y898686D01*
X361700Y897035D01*
X359366Y894700D01*
X357715Y891840D01*
X357357Y890507D01*
X356043D01*
X355685Y891840D01*
X354035Y894700D01*
X351700Y897035D01*
X348840Y898686D01*
X345651Y899540D01*
X345270D01*
Y887000D01*
Y874460D01*
X345651D01*
X348840Y875315D01*
X351700Y876965D01*
X354035Y879300D01*
X355685Y882160D01*
X356043Y883493D01*
X357357D01*
X357715Y882160D01*
X359366Y879300D01*
X361700Y876965D01*
X364560Y875315D01*
X367749Y874460D01*
X368130D01*
Y887000D01*
Y899540D01*
D02*
G37*
G36*
X299430D02*
X299049D01*
X295860Y898686D01*
X293000Y897035D01*
X290665Y894700D01*
X289015Y891840D01*
X288657Y890507D01*
X287343D01*
X286985Y891840D01*
X285334Y894700D01*
X283000Y897035D01*
X280140Y898686D01*
X276951Y899540D01*
X276570D01*
Y887000D01*
Y874460D01*
X276951D01*
X280140Y875315D01*
X283000Y876965D01*
X285334Y879300D01*
X286985Y882160D01*
X287343Y883493D01*
X288657D01*
X289015Y882160D01*
X290665Y879300D01*
X293000Y876965D01*
X295860Y875315D01*
X299049Y874460D01*
X299430D01*
Y887000D01*
Y899540D01*
D02*
G37*
G36*
X302351D02*
X301970D01*
Y888270D01*
X313240D01*
Y888651D01*
X312385Y891840D01*
X310735Y894700D01*
X308400Y897035D01*
X305540Y898686D01*
X302351Y899540D01*
D02*
G37*
G36*
X342730D02*
X342349D01*
X339160Y898686D01*
X336300Y897035D01*
X333965Y894700D01*
X332315Y891840D01*
X331460Y888651D01*
Y888270D01*
X342730D01*
Y899540D01*
D02*
G37*
G36*
X274030D02*
X273649D01*
X270460Y898686D01*
X267600Y897035D01*
X265266Y894700D01*
X263615Y891840D01*
X262760Y888651D01*
Y888270D01*
X274030D01*
Y899540D01*
D02*
G37*
G36*
X342730Y885730D02*
X331460D01*
Y885349D01*
X332315Y882160D01*
X333965Y879300D01*
X336300Y876965D01*
X339160Y875315D01*
X342349Y874460D01*
X342730D01*
Y885730D01*
D02*
G37*
G36*
X313240D02*
X301970D01*
Y874460D01*
X302351D01*
X305540Y875315D01*
X308400Y876965D01*
X310735Y879300D01*
X312385Y882160D01*
X313240Y885349D01*
Y885730D01*
D02*
G37*
G36*
X274030D02*
X262760D01*
Y885349D01*
X263615Y882160D01*
X265266Y879300D01*
X267600Y876965D01*
X270460Y875315D01*
X273649Y874460D01*
X274030D01*
Y885730D01*
D02*
G37*
%LPD*%
G36*
X897965Y1181600D02*
X900300Y1179266D01*
X903160Y1177615D01*
X904493Y1177257D01*
Y1175943D01*
X903160Y1175585D01*
X900300Y1173934D01*
X897965Y1171600D01*
X896315Y1168740D01*
X896258Y1168529D01*
X881369D01*
X880993Y1169068D01*
X880799Y1169755D01*
X893917Y1182873D01*
X897231D01*
X897965Y1181600D01*
D02*
G37*
G36*
X895315Y1112460D02*
X896965Y1109600D01*
X899300Y1107265D01*
X902160Y1105615D01*
X903493Y1105257D01*
Y1103943D01*
X902160Y1103585D01*
X899300Y1101935D01*
X896965Y1099600D01*
X895315Y1096740D01*
X895258Y1096529D01*
X831227D01*
X830742Y1097702D01*
X845710Y1112671D01*
X895258D01*
X895315Y1112460D01*
D02*
G37*
G36*
X585560Y1098690D02*
Y1081310D01*
X587410D01*
Y1078000D01*
X587607Y1077009D01*
X588169Y1076169D01*
X589009Y1075607D01*
X590000Y1075410D01*
X591352D01*
Y1057000D01*
X591351Y1057000D01*
X591781Y1054838D01*
X593006Y1053006D01*
X618952Y1027060D01*
X618952Y1027060D01*
X620784Y1025835D01*
X622946Y1025406D01*
X661120D01*
Y1010480D01*
Y997550D01*
X659788D01*
X659284Y999431D01*
X658114Y1001459D01*
X656459Y1003114D01*
X654431Y1004284D01*
X652170Y1004890D01*
X649830D01*
X647569Y1004284D01*
X645541Y1003114D01*
X643886Y1001459D01*
X642716Y999431D01*
X642110Y997170D01*
Y994830D01*
X642716Y992569D01*
X643886Y990541D01*
X645541Y988886D01*
X647569Y987716D01*
X649830Y987110D01*
X652170D01*
X654431Y987716D01*
X655686Y988440D01*
X656433Y988292D01*
X656434Y988292D01*
X661120D01*
Y972380D01*
Y959934D01*
Y947234D01*
Y934280D01*
X681440D01*
Y947234D01*
Y959934D01*
Y972380D01*
Y985334D01*
Y998034D01*
Y1010480D01*
Y1023434D01*
Y1030351D01*
X701651D01*
X702037Y1029081D01*
X701366Y1028634D01*
X698316Y1025584D01*
X697203Y1023916D01*
X696811Y1021950D01*
Y1021840D01*
X696410D01*
Y1008760D01*
X709930D01*
Y1015300D01*
X712470D01*
Y1008760D01*
X725990D01*
Y1010161D01*
X734534D01*
X736501Y1010552D01*
X738168Y1011666D01*
X741209Y1014708D01*
X743000Y1014351D01*
X743000Y1014352D01*
X747060D01*
Y1013270D01*
X757100D01*
Y1010730D01*
X747060D01*
Y1006710D01*
Y999087D01*
X746217Y998523D01*
X746216Y998523D01*
X744545Y996852D01*
X743407Y997509D01*
X743466Y997730D01*
X737270D01*
Y991534D01*
X737491Y991593D01*
X738148Y990455D01*
X736727Y989034D01*
X735723Y987532D01*
X735371Y985760D01*
X735371Y985760D01*
Y948917D01*
X704433Y917979D01*
X703815Y918076D01*
X703412Y919424D01*
X707194Y923206D01*
X707194Y923206D01*
X708419Y925038D01*
X708848Y927200D01*
Y955660D01*
X717930D01*
Y965200D01*
Y974740D01*
X714538D01*
X714052Y975913D01*
X722898Y984760D01*
X725990D01*
Y988747D01*
X726349Y990550D01*
X726348Y990550D01*
Y991300D01*
X725990Y993102D01*
Y997840D01*
X715410D01*
Y993248D01*
X708163Y986002D01*
X706990Y986488D01*
Y997840D01*
X696410D01*
Y984760D01*
X705262D01*
X705749Y983587D01*
X702706Y980544D01*
X701481Y978712D01*
X701051Y976550D01*
X701051Y976550D01*
Y974740D01*
X694160D01*
Y955660D01*
X697551D01*
Y929540D01*
X696660Y928649D01*
X683000D01*
X680838Y928219D01*
X679006Y926994D01*
X679006Y926994D01*
X668660Y916648D01*
X633000D01*
X630838Y916219D01*
X629006Y914994D01*
X629006Y914994D01*
X622276Y908264D01*
X621052Y906432D01*
X620622Y904270D01*
X620622Y904270D01*
Y899238D01*
X618560Y898686D01*
X615700Y897035D01*
X613366Y894700D01*
X612181Y892649D01*
X609219D01*
X608035Y894700D01*
X605700Y897035D01*
X602840Y898686D01*
X599651Y899540D01*
X596349D01*
X593160Y898686D01*
X590300Y897035D01*
X587966Y894700D01*
X586781Y892649D01*
X583819D01*
X582635Y894700D01*
X580300Y897035D01*
X577440Y898686D01*
X574251Y899540D01*
X570949D01*
X567760Y898686D01*
X564900Y897035D01*
X562565Y894700D01*
X561381Y892649D01*
X558419D01*
X557234Y894700D01*
X554900Y897035D01*
X552040Y898686D01*
X548851Y899540D01*
X545549D01*
X542360Y898686D01*
X539500Y897035D01*
X537165Y894700D01*
X535981Y892649D01*
X533019D01*
X531834Y894700D01*
X529500Y897035D01*
X526640Y898686D01*
X523451Y899540D01*
X520149D01*
X516960Y898686D01*
X514100Y897035D01*
X511766Y894700D01*
X510115Y891840D01*
X509757Y890507D01*
X508443D01*
X508085Y891840D01*
X506435Y894700D01*
X504100Y897035D01*
X501240Y898686D01*
X498051Y899540D01*
X494749D01*
X491560Y898686D01*
X488700Y897035D01*
X486366Y894700D01*
X484715Y891840D01*
X484667Y891662D01*
X482733D01*
X482685Y891840D01*
X481035Y894700D01*
X478700Y897035D01*
X475840Y898686D01*
X472651Y899540D01*
X469349D01*
X466160Y898686D01*
X463300Y897035D01*
X460965Y894700D01*
X459315Y891840D01*
X459267Y891662D01*
X457333D01*
X457285Y891840D01*
X455634Y894700D01*
X453300Y897035D01*
X450440Y898686D01*
X447251Y899540D01*
X443949D01*
X440760Y898686D01*
X437900Y897035D01*
X435565Y894700D01*
X433915Y891840D01*
X433867Y891662D01*
X431933D01*
X431885Y891840D01*
X430234Y894700D01*
X427900Y897035D01*
X425040Y898686D01*
X421851Y899540D01*
X418549D01*
X415360Y898686D01*
X412500Y897035D01*
X410165Y894700D01*
X408515Y891840D01*
X408467Y891662D01*
X406533D01*
X406485Y891840D01*
X404835Y894700D01*
X402500Y897035D01*
X399640Y898686D01*
X396451Y899540D01*
X393149D01*
X390861Y898927D01*
X365648Y924140D01*
Y961588D01*
X373287Y969226D01*
X374460Y968740D01*
Y952460D01*
X403338D01*
Y950000D01*
X403693Y948216D01*
X404704Y946704D01*
X412804Y938604D01*
X414316Y937593D01*
X416100Y937238D01*
X579840D01*
Y934280D01*
X600160D01*
Y947234D01*
Y961615D01*
X606259D01*
X606715Y959913D01*
X607885Y957885D01*
X609540Y956230D01*
X611567Y955060D01*
X613829Y954454D01*
X616169D01*
X618430Y955060D01*
X620457Y956230D01*
X622113Y957885D01*
X623283Y959913D01*
X623889Y962174D01*
Y964514D01*
X623283Y966775D01*
X622113Y968803D01*
X620749Y970166D01*
X620574Y970974D01*
X620751Y971755D01*
X622122Y973125D01*
X623293Y975153D01*
X623899Y977414D01*
Y979754D01*
X623293Y982015D01*
X622122Y984043D01*
X620467Y985698D01*
X618440Y986868D01*
X616179Y987474D01*
X613838D01*
X611577Y986868D01*
X609550Y985698D01*
X607895Y984043D01*
X607843Y983954D01*
X600160D01*
Y1000698D01*
X614062D01*
X614858Y999319D01*
X616513Y997664D01*
X618540Y996494D01*
X620801Y995888D01*
X623142D01*
X625403Y996494D01*
X627430Y997664D01*
X629085Y999319D01*
X630256Y1001347D01*
X630861Y1003608D01*
Y1005948D01*
X630256Y1008209D01*
X629085Y1010237D01*
X627430Y1011892D01*
X625403Y1013062D01*
X623142Y1013668D01*
X620801D01*
X618540Y1013062D01*
X618281Y1012913D01*
X617501Y1013929D01*
X618114Y1014541D01*
X619284Y1016569D01*
X619890Y1018830D01*
Y1021170D01*
X619284Y1023431D01*
X618114Y1025459D01*
X616459Y1027114D01*
X614431Y1028284D01*
X612170Y1028890D01*
X609830D01*
X607569Y1028284D01*
X605541Y1027114D01*
X603886Y1025459D01*
X602859Y1023679D01*
X600160D01*
Y1029784D01*
X590000D01*
X579840D01*
Y1022662D01*
X568531D01*
X540140Y1051052D01*
Y1061540D01*
X523060D01*
Y1044460D01*
X533548D01*
X540921Y1037086D01*
X540071Y1036140D01*
X523060D01*
Y1019060D01*
X540140D01*
Y1022939D01*
X545730D01*
X550737Y1017932D01*
X550210Y1016662D01*
X493431D01*
X475306Y1034787D01*
X475792Y1035960D01*
X485698D01*
X489254Y1032404D01*
X489377Y1031782D01*
X490388Y1030270D01*
X496354Y1024304D01*
X497866Y1023293D01*
X499650Y1022939D01*
X502060D01*
Y1019060D01*
X519140D01*
Y1036140D01*
X502060D01*
Y1033578D01*
X500790Y1033053D01*
X498115Y1035728D01*
X497991Y1036350D01*
X496980Y1037862D01*
X492290Y1042552D01*
Y1052190D01*
X492290Y1052540D01*
Y1053460D01*
X492290Y1053810D01*
Y1060480D01*
X473710D01*
Y1053810D01*
X473710Y1053460D01*
Y1052540D01*
X473710Y1052190D01*
Y1038042D01*
X472537Y1037556D01*
X467540Y1042552D01*
Y1051960D01*
Y1059730D01*
X448460D01*
Y1051960D01*
Y1035960D01*
X460948D01*
X488204Y1008704D01*
X489716Y1007693D01*
X491500Y1007338D01*
X549069D01*
X566704Y989704D01*
X568216Y988693D01*
X570000Y988338D01*
X579840D01*
Y972380D01*
Y958662D01*
X553431D01*
X549540Y962552D01*
Y971960D01*
Y979730D01*
X540000D01*
X530460D01*
Y978385D01*
X529540Y977540D01*
X469460D01*
Y952460D01*
X529540D01*
Y955115D01*
X530460Y955960D01*
X542948D01*
X548204Y950704D01*
X549716Y949693D01*
X551500Y949338D01*
X579840D01*
Y946562D01*
X418031D01*
X413402Y951190D01*
X413928Y952460D01*
X434540D01*
Y977540D01*
X409662D01*
Y980569D01*
X423553Y994460D01*
X440730D01*
Y1004000D01*
Y1013540D01*
X419260D01*
X418774Y1014713D01*
X423094Y1019034D01*
X423094Y1019034D01*
X424319Y1020866D01*
X424749Y1023028D01*
X424748Y1023028D01*
Y1071093D01*
X438442D01*
X440408Y1071484D01*
X442075Y1072598D01*
X452333Y1082856D01*
X453447Y1084523D01*
X453838Y1086489D01*
Y1086993D01*
X505915D01*
X507060Y1086690D01*
X507060Y1085723D01*
Y1074581D01*
X506293Y1073434D01*
X505938Y1071650D01*
Y1061540D01*
X502060D01*
Y1044460D01*
X519140D01*
Y1061540D01*
X515262D01*
Y1068110D01*
X523290D01*
X523640Y1068110D01*
X524560D01*
X524910Y1068110D01*
X531580D01*
Y1077400D01*
Y1086690D01*
X524910D01*
X524560Y1086690D01*
X523640D01*
X523290Y1086690D01*
X519519D01*
X519134Y1087960D01*
X519939Y1088498D01*
X530302Y1098861D01*
X558161D01*
X559360Y1098690D01*
X559360Y1097591D01*
Y1091270D01*
X582440D01*
X582440Y1098690D01*
X583639Y1098861D01*
X584361D01*
X585560Y1098690D01*
D02*
G37*
G36*
X646000Y1126290D02*
X635870D01*
Y1117600D01*
Y1108910D01*
X646090D01*
X647000Y1108000D01*
X644000Y1105000D01*
X638000D01*
Y1082000D01*
X634000Y1078000D01*
X590000D01*
Y1081310D01*
X595830D01*
Y1090000D01*
Y1098690D01*
X590000D01*
Y1108060D01*
X595230D01*
Y1117600D01*
Y1127140D01*
X590000D01*
Y1130000D01*
X646000D01*
Y1126290D01*
D02*
G37*
G36*
X894849Y1069604D02*
X894460Y1068151D01*
Y1064849D01*
X895315Y1061660D01*
X896041Y1060401D01*
X895025Y1059621D01*
X881613Y1073033D01*
X880111Y1074037D01*
X878340Y1074389D01*
X878340Y1074389D01*
X827585D01*
X827099Y1075562D01*
X829908Y1078371D01*
X886083D01*
X894849Y1069604D01*
D02*
G37*
G36*
X895424Y1046130D02*
X895315Y1045940D01*
X894460Y1042751D01*
Y1039449D01*
X895315Y1036260D01*
X896041Y1035001D01*
X895025Y1034221D01*
X866973Y1062273D01*
X865471Y1063277D01*
X863700Y1063629D01*
X863700Y1063629D01*
X833390D01*
Y1065131D01*
X876423D01*
X895424Y1046130D01*
D02*
G37*
G36*
X800539Y1047690D02*
X799541Y1047114D01*
X797886Y1045459D01*
X796716Y1043431D01*
X796110Y1041170D01*
Y1038830D01*
X796716Y1036569D01*
X797886Y1034541D01*
X799541Y1032886D01*
X801569Y1031716D01*
X803830Y1031110D01*
X806170D01*
X808431Y1031716D01*
X810459Y1032886D01*
X810991Y1033419D01*
X812408Y1033039D01*
X812716Y1031889D01*
X813886Y1029861D01*
X815541Y1028206D01*
X817569Y1027036D01*
X818006Y1026918D01*
X817839Y1025648D01*
X779688D01*
X779202Y1026822D01*
X780773Y1028393D01*
X781830Y1028110D01*
X784170D01*
X786431Y1028716D01*
X788459Y1029886D01*
X790114Y1031541D01*
X791284Y1033569D01*
X791890Y1035830D01*
Y1038170D01*
X791284Y1040431D01*
X790114Y1042459D01*
X788459Y1044114D01*
X786431Y1045284D01*
X784170Y1045890D01*
X781830D01*
X779569Y1045284D01*
X777541Y1044114D01*
X775886Y1042459D01*
X774716Y1040431D01*
X774110Y1038170D01*
Y1035830D01*
X774323Y1035035D01*
X771917Y1032629D01*
X767140D01*
Y1038710D01*
Y1048960D01*
X800199D01*
X800539Y1047690D01*
D02*
G37*
G36*
X895424Y1020730D02*
X895315Y1020540D01*
X894460Y1017351D01*
Y1014049D01*
X895315Y1010860D01*
X896965Y1008000D01*
X899300Y1005666D01*
X902160Y1004015D01*
X903493Y1003657D01*
Y1002343D01*
X902160Y1001985D01*
X899300Y1000334D01*
X899042Y1000076D01*
X898742Y1000277D01*
X896970Y1000629D01*
X896970Y1000629D01*
X853140D01*
Y1002730D01*
X843100D01*
X833060D01*
Y1001240D01*
X831790Y1000782D01*
X830459Y1002114D01*
X828431Y1003284D01*
X826170Y1003890D01*
X823830D01*
X821569Y1003284D01*
X819541Y1002114D01*
X817886Y1000459D01*
X816716Y998431D01*
X816110Y996170D01*
X814890D01*
X814284Y998431D01*
X813114Y1000459D01*
X811459Y1002114D01*
X809431Y1003284D01*
X807170Y1003890D01*
X804830D01*
X802569Y1003284D01*
X800541Y1002114D01*
X798886Y1000459D01*
X797716Y998431D01*
X797110Y996170D01*
Y995193D01*
X795840Y994667D01*
X794890Y995617D01*
Y996170D01*
X794284Y998431D01*
X793114Y1000459D01*
X791459Y1002114D01*
X789431Y1003284D01*
X787334Y1003846D01*
X787105Y1004003D01*
X786443Y1005160D01*
X786890Y1006830D01*
Y1009170D01*
X786284Y1011431D01*
X785331Y1013082D01*
X785878Y1014352D01*
X822983D01*
X828718Y1008616D01*
X830386Y1007503D01*
X832352Y1007111D01*
X833060D01*
Y1005270D01*
X843100D01*
X853140D01*
Y1006710D01*
Y1014710D01*
Y1018730D01*
X843100D01*
Y1021270D01*
X853140D01*
Y1022710D01*
Y1030710D01*
Y1038710D01*
Y1049290D01*
X833390D01*
Y1054371D01*
X861783D01*
X895424Y1020730D01*
D02*
G37*
G36*
X774569Y999716D02*
X776666Y999154D01*
X776895Y998997D01*
X777557Y997840D01*
X777110Y996170D01*
Y993830D01*
X777716Y991569D01*
X778886Y989541D01*
X780541Y987886D01*
X782569Y986716D01*
X784830Y986110D01*
X787170D01*
X789431Y986716D01*
X790235Y987179D01*
X793201Y984213D01*
X792715Y983040D01*
X767140D01*
Y990710D01*
Y999371D01*
X771646D01*
X771646Y999371D01*
X773417Y999723D01*
X773945Y1000076D01*
X774569Y999716D01*
D02*
G37*
G36*
X416960Y1011240D02*
Y1001052D01*
X401704Y985796D01*
X400693Y984284D01*
X400338Y982500D01*
Y977540D01*
X383260D01*
X382774Y978713D01*
X415787Y1011726D01*
X416960Y1011240D01*
D02*
G37*
G36*
X876151Y963802D02*
X875665Y962629D01*
X834523D01*
X833390Y962960D01*
Y968371D01*
X871583D01*
X876151Y963802D01*
D02*
G37*
G36*
X895424Y969930D02*
X895315Y969740D01*
X894460Y966551D01*
Y963249D01*
X895315Y960060D01*
X896041Y958801D01*
X895025Y958021D01*
X876773Y976273D01*
X875271Y977277D01*
X873500Y977629D01*
X873500Y977629D01*
X833390D01*
Y982710D01*
X853140D01*
Y983371D01*
X881983D01*
X895424Y969930D01*
D02*
G37*
G36*
X747060Y984615D02*
Y982710D01*
X752471D01*
Y948017D01*
X715543Y911089D01*
X712295D01*
X711809Y912262D01*
X743273Y943727D01*
X743273Y943727D01*
X744277Y945229D01*
X744629Y947000D01*
X744629Y947000D01*
Y983843D01*
X745887Y985101D01*
X747060Y984615D01*
D02*
G37*
G36*
X766810Y962960D02*
X767471D01*
Y945617D01*
X720430Y898576D01*
X720240Y898685D01*
X717051Y899540D01*
X713749D01*
X710560Y898685D01*
X707700Y897035D01*
X705366Y894700D01*
X703715Y891840D01*
X703357Y890507D01*
X702043D01*
X701685Y891840D01*
X700034Y894700D01*
X697700Y897035D01*
X697690Y897040D01*
Y900144D01*
X699377Y901831D01*
X717460D01*
X717460Y901831D01*
X719231Y902183D01*
X720733Y903187D01*
X760373Y942827D01*
X760373Y942827D01*
X761377Y944329D01*
X761729Y946100D01*
X761729Y946100D01*
Y982710D01*
X766810D01*
Y962960D01*
D02*
G37*
G36*
X783471Y921329D02*
Y910817D01*
X771230Y898576D01*
X771040Y898685D01*
X767851Y899540D01*
X764549D01*
X761360Y898685D01*
X760101Y897959D01*
X759321Y898975D01*
X782201Y921855D01*
X783471Y921329D01*
D02*
G37*
G36*
X775471Y938729D02*
Y928217D01*
X745830Y898576D01*
X745640Y898685D01*
X742451Y899540D01*
X739149D01*
X735960Y898685D01*
X734701Y897959D01*
X733921Y898975D01*
X774201Y939255D01*
X775471Y938729D01*
D02*
G37*
G36*
X815558Y941647D02*
X815558Y941647D01*
X817060Y940643D01*
X818831Y940291D01*
X861163D01*
X863171Y938283D01*
Y898742D01*
X862960Y898685D01*
X860100Y897035D01*
X857766Y894700D01*
X856115Y891840D01*
X855757Y890507D01*
X854443D01*
X854085Y891840D01*
X852434Y894700D01*
X850100Y897035D01*
X847240Y898685D01*
X846329Y898930D01*
Y920811D01*
X846459Y920886D01*
X848114Y922541D01*
X849284Y924569D01*
X849890Y926830D01*
Y929170D01*
X849284Y931431D01*
X848114Y933459D01*
X846459Y935114D01*
X844431Y936284D01*
X842170Y936890D01*
X839830D01*
X837569Y936284D01*
X835541Y935114D01*
X833886Y933459D01*
X832716Y931431D01*
X832110Y929170D01*
Y926830D01*
X832716Y924569D01*
X833886Y922541D01*
X835541Y920886D01*
X837071Y920003D01*
Y898403D01*
X834700Y897035D01*
X832365Y894700D01*
X830715Y891840D01*
X830357Y890507D01*
X829043D01*
X828685Y891840D01*
X827035Y894700D01*
X824700Y897035D01*
X821840Y898685D01*
X821629Y898742D01*
Y921407D01*
X822459Y921886D01*
X824114Y923541D01*
X825284Y925569D01*
X825890Y927830D01*
Y930170D01*
X825284Y932431D01*
X824114Y934459D01*
X822459Y936114D01*
X820431Y937284D01*
X818170Y937890D01*
X815830D01*
X813569Y937284D01*
X811541Y936114D01*
X809886Y934459D01*
X808716Y932431D01*
X808110Y930170D01*
Y927830D01*
X808716Y925569D01*
X809886Y923541D01*
X811541Y921886D01*
X812371Y921407D01*
Y898742D01*
X812160Y898685D01*
X809300Y897035D01*
X806965Y894700D01*
X805315Y891840D01*
X804957Y890507D01*
X803643D01*
X803285Y891840D01*
X801635Y894700D01*
X800692Y895642D01*
X800729Y895830D01*
X800729Y895830D01*
Y954680D01*
X801999Y955206D01*
X815558Y941647D01*
D02*
G37*
%LPC*%
G36*
X582440Y1088730D02*
X572170D01*
Y1081310D01*
X582440D01*
Y1088730D01*
D02*
G37*
G36*
X569630D02*
X559360D01*
Y1081310D01*
X569630D01*
Y1088730D01*
D02*
G37*
G36*
X534120Y1086690D02*
Y1078670D01*
X541140D01*
Y1086690D01*
X534120D01*
D02*
G37*
G36*
X541140Y1076130D02*
X534120D01*
Y1068110D01*
X541140D01*
Y1076130D01*
D02*
G37*
G36*
X560070Y1074266D02*
Y1068070D01*
X566266D01*
X565826Y1069710D01*
X564833Y1071430D01*
X563430Y1072833D01*
X561710Y1073826D01*
X560070Y1074266D01*
D02*
G37*
G36*
X557530D02*
X555890Y1073826D01*
X554170Y1072833D01*
X552766Y1071430D01*
X551774Y1069710D01*
X551334Y1068070D01*
X557530D01*
Y1074266D01*
D02*
G37*
G36*
X492290Y1070040D02*
X484270D01*
Y1063020D01*
X492290D01*
Y1070040D01*
D02*
G37*
G36*
X481730D02*
X473710D01*
Y1063020D01*
X481730D01*
Y1070040D01*
D02*
G37*
G36*
X467540D02*
X459270D01*
Y1062270D01*
X467540D01*
Y1070040D01*
D02*
G37*
G36*
X456730D02*
X448460D01*
Y1062270D01*
X456730D01*
Y1070040D01*
D02*
G37*
G36*
X566266Y1065530D02*
X560070D01*
Y1059334D01*
X561710Y1059774D01*
X563430Y1060767D01*
X564833Y1062170D01*
X565826Y1063890D01*
X566266Y1065530D01*
D02*
G37*
G36*
X557530D02*
X551334D01*
X551774Y1063890D01*
X552766Y1062170D01*
X554170Y1060767D01*
X555890Y1059774D01*
X557530Y1059334D01*
Y1065530D01*
D02*
G37*
G36*
X600160Y1038674D02*
X591270D01*
Y1032324D01*
X600160D01*
Y1038674D01*
D02*
G37*
G36*
X588730D02*
X579840D01*
Y1032324D01*
X588730D01*
Y1038674D01*
D02*
G37*
G36*
X451040Y1013540D02*
X443270D01*
Y1005270D01*
X451040D01*
Y1013540D01*
D02*
G37*
G36*
X737270Y1006466D02*
Y1000270D01*
X743466D01*
X743026Y1001910D01*
X742033Y1003630D01*
X740630Y1005033D01*
X738910Y1006026D01*
X737270Y1006466D01*
D02*
G37*
G36*
X734730D02*
X733090Y1006026D01*
X731370Y1005033D01*
X729967Y1003630D01*
X728974Y1001910D01*
X728534Y1000270D01*
X734730D01*
Y1006466D01*
D02*
G37*
G36*
X451040Y1002730D02*
X443270D01*
Y994460D01*
X451040D01*
Y1002730D01*
D02*
G37*
G36*
X734730Y997730D02*
X728534D01*
X728974Y996090D01*
X729967Y994370D01*
X731370Y992967D01*
X733090Y991974D01*
X734730Y991534D01*
Y997730D01*
D02*
G37*
G36*
X549540Y990040D02*
X541270D01*
Y982270D01*
X549540D01*
Y990040D01*
D02*
G37*
G36*
X538730D02*
X530460D01*
Y982270D01*
X538730D01*
Y990040D01*
D02*
G37*
G36*
X728240Y974740D02*
X720470D01*
Y966470D01*
X728240D01*
Y974740D01*
D02*
G37*
G36*
Y963930D02*
X720470D01*
Y955660D01*
X728240D01*
Y963930D01*
D02*
G37*
G36*
X605541Y1127140D02*
X597771D01*
Y1118870D01*
X605541D01*
Y1127140D01*
D02*
G37*
G36*
X633330Y1126290D02*
X623060D01*
Y1118870D01*
X633330D01*
Y1126290D01*
D02*
G37*
G36*
Y1116330D02*
X623060D01*
Y1108910D01*
X633330D01*
Y1116330D01*
D02*
G37*
G36*
X605541D02*
X597771D01*
Y1108060D01*
X605541D01*
Y1116330D01*
D02*
G37*
G36*
X635240Y1100740D02*
X627970D01*
Y1093470D01*
X635240D01*
Y1100740D01*
D02*
G37*
G36*
X625430D02*
X618160D01*
Y1093470D01*
X625430D01*
Y1100740D01*
D02*
G37*
G36*
X608640Y1098690D02*
X598370D01*
Y1091270D01*
X608640D01*
Y1098690D01*
D02*
G37*
G36*
X635240Y1090930D02*
X627970D01*
Y1083660D01*
X635240D01*
Y1090930D01*
D02*
G37*
G36*
X625430D02*
X618160D01*
Y1083660D01*
X625430D01*
Y1090930D01*
D02*
G37*
G36*
X608640Y1088730D02*
X598370D01*
Y1081310D01*
X608640D01*
Y1088730D01*
D02*
G37*
G36*
X864270Y1039466D02*
Y1033270D01*
X870466D01*
X870026Y1034910D01*
X869034Y1036630D01*
X867630Y1038034D01*
X865910Y1039026D01*
X864270Y1039466D01*
D02*
G37*
G36*
X861730D02*
X860090Y1039026D01*
X858370Y1038034D01*
X856966Y1036630D01*
X855974Y1034910D01*
X855534Y1033270D01*
X861730D01*
Y1039466D01*
D02*
G37*
G36*
X870466Y1030730D02*
X864270D01*
Y1024534D01*
X865910Y1024974D01*
X867630Y1025966D01*
X869034Y1027370D01*
X870026Y1029090D01*
X870466Y1030730D01*
D02*
G37*
G36*
X861730D02*
X855534D01*
X855974Y1029090D01*
X856966Y1027370D01*
X858370Y1025966D01*
X860090Y1024974D01*
X861730Y1024534D01*
Y1030730D01*
D02*
G37*
%LPD*%
D18*
X330200Y1084050D02*
D03*
Y1049550D02*
D03*
D19*
X355600Y1053700D02*
D03*
Y1079900D02*
D03*
X431800Y1168800D02*
D03*
Y1142600D02*
D03*
X641000Y1210900D02*
D03*
Y1237100D02*
D03*
X406400Y1232300D02*
D03*
Y1206100D02*
D03*
D20*
X419100Y1079500D02*
D03*
X387600D02*
D03*
D21*
X384950Y1054100D02*
D03*
X402450D02*
D03*
X643750Y1066800D02*
D03*
X626250D02*
D03*
X677050Y1092200D02*
D03*
X694550D02*
D03*
X515350Y1077400D02*
D03*
X532850D02*
D03*
X336250Y1023000D02*
D03*
X353750D02*
D03*
X336250Y1001000D02*
D03*
X353750D02*
D03*
X640750Y1177000D02*
D03*
X623250D02*
D03*
D22*
X751300Y1176100D02*
D03*
X725100D02*
D03*
X788600D02*
D03*
X814800D02*
D03*
X570900Y1090000D02*
D03*
X597100D02*
D03*
X660800Y1117600D02*
D03*
X634600D02*
D03*
D23*
X626700Y1092200D02*
D03*
X647700D02*
D03*
X696300Y1066800D02*
D03*
X675300D02*
D03*
X531600Y1053000D02*
D03*
X510600D02*
D03*
X531600Y1027600D02*
D03*
X510600D02*
D03*
D24*
X720700Y991300D02*
D03*
X701700D02*
D03*
Y1015300D02*
D03*
X711200D02*
D03*
X720700D02*
D03*
D25*
X703200Y965200D02*
D03*
X719200D02*
D03*
X639000Y1151000D02*
D03*
X623000D02*
D03*
X442000Y1004000D02*
D03*
X426000D02*
D03*
X596501Y1117600D02*
D03*
X580500D02*
D03*
D26*
X302000Y996500D02*
D03*
Y990000D02*
D03*
Y1016000D02*
D03*
Y1009500D02*
D03*
Y1003000D02*
D03*
D27*
X275250Y1015000D02*
D03*
Y991000D02*
D03*
D28*
X299750Y1035000D02*
D03*
Y971000D02*
D03*
D29*
X431800Y1235200D02*
D03*
Y1219200D02*
D03*
X540000Y981000D02*
D03*
Y965000D02*
D03*
X458000Y1061000D02*
D03*
Y1045000D02*
D03*
D30*
X467200Y1104900D02*
D03*
X447200Y1095400D02*
D03*
Y1114400D02*
D03*
D31*
X404500Y965000D02*
D03*
X499500D02*
D03*
X823800Y1214200D02*
D03*
X728800D02*
D03*
D32*
X483000Y1044250D02*
D03*
Y1061750D02*
D03*
X520000Y1134250D02*
D03*
Y1151750D02*
D03*
X495300Y1134250D02*
D03*
Y1151750D02*
D03*
D33*
X406400Y1139950D02*
D03*
Y1171450D02*
D03*
D34*
X495300Y1235750D02*
D03*
D35*
X518300Y1177250D02*
D03*
X495300D02*
D03*
X472300D02*
D03*
D36*
X843100Y988000D02*
D03*
Y996000D02*
D03*
Y1004000D02*
D03*
Y1012000D02*
D03*
Y1020000D02*
D03*
Y1028000D02*
D03*
Y1036000D02*
D03*
Y1044000D02*
D03*
X757100D02*
D03*
Y1036000D02*
D03*
Y1028000D02*
D03*
Y1020000D02*
D03*
Y1012000D02*
D03*
Y1004000D02*
D03*
Y996000D02*
D03*
Y988000D02*
D03*
D37*
X828100Y1059000D02*
D03*
X820100D02*
D03*
X812100D02*
D03*
X804100D02*
D03*
X796100D02*
D03*
X788100D02*
D03*
X780100D02*
D03*
X772100D02*
D03*
Y973000D02*
D03*
X780100D02*
D03*
X788100D02*
D03*
X796100D02*
D03*
X804100D02*
D03*
X812100D02*
D03*
X820100D02*
D03*
X828100D02*
D03*
D38*
X590000Y1018100D02*
D03*
Y1031054D02*
D03*
Y980000D02*
D03*
Y1005654D02*
D03*
Y992954D02*
D03*
Y941900D02*
D03*
Y967554D02*
D03*
Y954854D02*
D03*
X671280Y1018100D02*
D03*
Y1031054D02*
D03*
Y980000D02*
D03*
Y1005654D02*
D03*
Y992954D02*
D03*
Y941900D02*
D03*
Y967554D02*
D03*
Y954854D02*
D03*
D39*
X553600Y1234900D02*
D03*
Y1172900D02*
D03*
X590600D02*
D03*
Y1234900D02*
D03*
D66*
X862000Y1246000D02*
D03*
X281000Y932000D02*
D03*
Y1245000D02*
D03*
D68*
X841000Y928000D02*
X841700Y927300D01*
Y887700D02*
Y927300D01*
X820100Y973000D02*
Y987746D01*
X825000Y992646D01*
Y995000D01*
X806000Y992646D02*
X812100Y986546D01*
X806000Y992646D02*
Y995000D01*
X812100Y973000D02*
Y986546D01*
X786000Y995000D02*
X787665Y993335D01*
X790625D01*
X803350Y980610D01*
Y973750D02*
Y980610D01*
X807354Y1040000D02*
X813564Y1046210D01*
X825511D01*
X821340Y1035660D02*
X842760D01*
X825511Y1046210D02*
X827721Y1044000D01*
X821000Y1035320D02*
X821340Y1035660D01*
X803350Y973750D02*
X804251Y972849D01*
X827721Y1044000D02*
X843100D01*
X842760Y1035660D02*
X843100Y1036000D01*
X656433Y992921D02*
X671247D01*
X653354Y996000D02*
X656433Y992921D01*
X651000Y996000D02*
X653354D01*
X671247Y992921D02*
X671280Y992954D01*
X773834Y1028000D02*
X782834Y1037000D01*
X757100Y1028000D02*
X773834D01*
X782834Y1037000D02*
X783000D01*
X757100Y1004000D02*
X771646D01*
X775646Y1008000D02*
X778000D01*
X771646Y1004000D02*
X775646Y1008000D01*
X805000Y1040000D02*
X807354D01*
X887000Y1219100D02*
X908000Y1240100D01*
X757100Y1071100D02*
X887000Y1201000D01*
Y1219100D01*
X757100Y1044000D02*
Y1071100D01*
X320625Y1001000D02*
X336250D01*
X318625Y1003000D02*
X320625Y1001000D01*
X302000Y1003000D02*
X318625D01*
X621422Y1005327D02*
X621971Y1004778D01*
X590327Y1005327D02*
X621422D01*
X590000Y1005654D02*
X590327Y1005327D01*
X590950Y1019050D02*
X610050D01*
X590000Y1018100D02*
X590950Y1019050D01*
X610050D02*
X611000Y1020000D01*
X386275Y1055425D02*
Y1078175D01*
X387600Y1079500D01*
X384950Y1054100D02*
X386275Y1055425D01*
X690600Y913000D02*
X706000D01*
X664600Y887000D02*
X690600Y913000D01*
X749490Y995250D02*
X756350D01*
X740000Y985760D02*
X749490Y995250D01*
X756350D02*
X757100Y996000D01*
X706000Y913000D02*
X740000Y947000D01*
Y985760D01*
X717460Y906460D02*
X757100Y946100D01*
X697460Y906460D02*
X717460D01*
X693062Y902061D02*
X697460Y906460D01*
X693062Y890061D02*
Y902061D01*
X690000Y887000D02*
X693062Y890061D01*
X757100Y946100D02*
Y988000D01*
X772100Y943700D02*
Y973000D01*
X715400Y887000D02*
X772100Y943700D01*
X740800Y887000D02*
X780100Y926300D01*
Y973000D01*
X766200Y887000D02*
X788100Y908900D01*
Y973000D01*
X791600Y891330D02*
X796100Y895830D01*
X791600Y887000D02*
Y891330D01*
X796100Y895830D02*
Y973000D01*
X817000Y887000D02*
Y929000D01*
X841700Y887700D02*
X842400Y887000D01*
X821540Y951460D02*
X872540D01*
X879000Y945000D01*
Y916700D02*
Y945000D01*
Y916700D02*
X907000Y888700D01*
X863080Y944920D02*
X867800Y940200D01*
Y887000D02*
Y940200D01*
X818831Y944920D02*
X863080D01*
X804251Y959500D02*
X818831Y944920D01*
X804251Y959500D02*
Y972849D01*
X812000Y961000D02*
X821540Y951460D01*
X812000Y972900D02*
X812100Y973000D01*
X812000Y961000D02*
Y972900D01*
X828240Y958000D02*
X879000D01*
X820850Y965390D02*
X828240Y958000D01*
X879000D02*
X887000Y950000D01*
Y922000D02*
X891839Y917161D01*
X903939D02*
X907000Y914100D01*
X891839Y917161D02*
X903939D01*
X887000Y922000D02*
Y950000D01*
X820850Y965390D02*
Y972250D01*
X820100Y973000D02*
X820850Y972250D01*
X796100Y973000D02*
X796500Y972600D01*
X873500Y973000D02*
X907000Y939500D01*
X828100Y973000D02*
X873500D01*
X843100Y988000D02*
X883900D01*
X907000Y964900D01*
X902670Y990300D02*
X907000D01*
X843100Y996000D02*
X896970D01*
X902670Y990300D01*
X863700Y1059000D02*
X907000Y1015700D01*
X828100Y1059000D02*
X863700D01*
X827642Y1091900D02*
X907000D01*
X824000Y1069760D02*
X878340D01*
X820850Y1066610D02*
X824000Y1069760D01*
X878340D02*
X907000Y1041100D01*
X812850Y1067859D02*
X827991Y1083000D01*
X881144Y1163900D02*
X908000D01*
X796850Y1059750D02*
Y1070357D01*
X812850Y1059750D02*
Y1067859D01*
X827991Y1083000D02*
X888000D01*
X820850Y1059750D02*
Y1066610D01*
X804850Y1069108D02*
X827642Y1091900D01*
X788850Y1071606D02*
X881144Y1163900D01*
X796850Y1070357D02*
X843793Y1117300D01*
X788850Y1059750D02*
Y1071606D01*
X820100Y1059000D02*
X820850Y1059750D01*
X804850D02*
Y1069108D01*
X843793Y1117300D02*
X907000D01*
X888000Y1083000D02*
X904500Y1066500D01*
X907000D01*
X812100Y1059000D02*
X812850Y1059750D01*
X804100Y1059000D02*
X804850Y1059750D01*
X796100Y1059000D02*
X796850Y1059750D01*
X788100Y1059000D02*
X788850Y1059750D01*
X779749Y1059351D02*
Y1075251D01*
Y1059351D02*
X780100Y1059000D01*
X892000Y1187502D02*
X906202D01*
X779749Y1075251D02*
X892000Y1187502D01*
X906202D02*
X908000Y1189300D01*
Y1212751D02*
Y1214700D01*
X772100Y1076851D02*
X908000Y1212751D01*
X772100Y1059000D02*
Y1076851D01*
X814000Y1157000D02*
Y1175300D01*
X814800Y1176100D01*
X725000Y1176000D02*
X725100Y1176100D01*
X725000Y1154000D02*
Y1176000D01*
X696300Y1066800D02*
X719100Y1044000D01*
X757100D01*
X643750Y1066800D02*
X675300D01*
X647700Y1092200D02*
X677050D01*
X584000Y1149000D02*
X593890Y1139110D01*
X632760Y1144260D02*
X639000Y1150500D01*
X632760Y1142650D02*
Y1144260D01*
X639000Y1150500D02*
Y1151000D01*
X629220Y1139110D02*
X632760Y1142650D01*
X593890Y1139110D02*
X629220D01*
X602000Y1150000D02*
X622000D01*
X623000Y1151000D01*
X728800Y1179800D02*
Y1214200D01*
X725100Y1176100D02*
X728800Y1179800D01*
X822800Y1214200D02*
X823800D01*
X814800Y1206200D02*
X822800Y1214200D01*
X814800Y1176100D02*
Y1206200D01*
X623250Y1176650D02*
Y1177000D01*
Y1151250D02*
Y1176650D01*
X623000Y1151000D02*
X623250Y1151250D01*
X590600Y1172900D02*
Y1234900D01*
Y1172900D02*
X619500D01*
X623250Y1176650D01*
D69*
X832352Y1012250D02*
X842850D01*
X824602Y1020000D02*
X832352Y1012250D01*
X701950Y1021950D02*
X705000Y1025000D01*
X701700Y1015300D02*
X701950Y1015550D01*
Y1021950D01*
X705000Y1025000D02*
X717521D01*
X720450Y1015550D02*
Y1022071D01*
X717521Y1025000D02*
X720450Y1022071D01*
Y1015550D02*
X720700Y1015300D01*
X734534D01*
X842850Y1027750D02*
X843100Y1028000D01*
X832352Y1027750D02*
X842850D01*
X824602Y1020000D02*
X832352Y1027750D01*
X842850Y1012250D02*
X843100Y1012000D01*
X740234Y1021000D02*
X742000D01*
X734534Y1015300D02*
X740234Y1021000D01*
X419356Y1078994D02*
Y1079500D01*
X589571Y1104000D02*
X592500Y1106929D01*
Y1114095D01*
X528174Y1104000D02*
X589571D01*
X516306Y1092132D02*
X528174Y1104000D01*
X592500Y1114095D02*
X596006Y1117600D01*
X448700Y1093900D02*
X449206D01*
X447200Y1095400D02*
X448700Y1093900D01*
X423016Y1077250D02*
X424035Y1076232D01*
X421100Y1077250D02*
X423016D01*
X438442Y1076232D02*
X448699Y1086489D01*
X424035Y1076232D02*
X438442D01*
X419356Y1078994D02*
X421100Y1077250D01*
X448699Y1086489D02*
Y1091631D01*
X449206Y1093900D02*
X450974Y1092132D01*
X516306D01*
D70*
X743000Y1020000D02*
X757100D01*
X824602D01*
X742000Y1036000D02*
X757100D01*
X678766D02*
X742000D01*
Y1021000D02*
X743000Y1020000D01*
X742000Y1021000D02*
Y1036000D01*
X597000Y1057000D02*
Y1089900D01*
X597100Y1090000D01*
X597000Y1057000D02*
X622946Y1031054D01*
X671280D01*
X370187Y1001000D02*
X373187Y1004000D01*
X375000D01*
X353750Y1001000D02*
X370187D01*
X375332Y979260D02*
X419100Y1023028D01*
X372740Y976668D02*
Y976765D01*
X375235Y979260D02*
X375332D01*
X360000Y963928D02*
X372740Y976668D01*
Y976765D02*
X375235Y979260D01*
X360000Y921800D02*
Y963928D01*
Y921800D02*
X394800Y887000D01*
X419100Y1023028D02*
Y1079500D01*
X495300Y1203420D02*
Y1235750D01*
X484000Y1192120D02*
X495300Y1203420D01*
X484000Y1167000D02*
Y1192120D01*
X409300Y1235200D02*
X431800D01*
X494750D01*
X406400Y1232300D02*
X409300Y1235200D01*
X494750D02*
X495300Y1235750D01*
X467200Y1104900D02*
Y1150200D01*
X484000Y1167000D01*
X519150Y1152600D02*
Y1176400D01*
X495300Y1151750D02*
Y1177250D01*
X640750Y1177000D02*
X640875Y1177125D01*
Y1210775D01*
X641000Y1210900D01*
X640750Y1176000D02*
Y1177000D01*
Y1176000D02*
X657000Y1159750D01*
Y1137150D02*
Y1159750D01*
X637450Y1117600D02*
X657000Y1137150D01*
X634600Y1117600D02*
X637450D01*
X671280Y1031054D02*
X673820D01*
X678766Y1036000D01*
X706700Y968700D02*
Y976550D01*
X720700Y990550D02*
Y991300D01*
X706700Y976550D02*
X720700Y990550D01*
X703200Y965200D02*
X706700Y968700D01*
X626270Y904270D02*
X633000Y911000D01*
X623400Y887000D02*
X626270Y889870D01*
Y904270D01*
X633000Y911000D02*
X671000D01*
X683000Y923000D01*
X699000D01*
X703200Y927200D02*
Y965200D01*
X699000Y923000D02*
X703200Y927200D01*
X572600Y887000D02*
X598000D01*
X623400D01*
X547200D02*
X572600D01*
X521800D02*
X547200D01*
X449860Y1149060D02*
X472300Y1171500D01*
Y1177250D01*
X431800Y1142600D02*
Y1145450D01*
X435410Y1149060D01*
X449860D01*
X429150Y1139950D02*
X431800Y1142600D01*
X406400Y1139950D02*
X429150D01*
X357100Y1155700D02*
Y1158045D01*
X361968Y1162913D01*
X364313D01*
X372850Y1171450D01*
X406400D01*
D71*
X302085Y1009585D02*
X311751D01*
X325166Y1023000D02*
X336250D01*
X302000Y1009500D02*
X302085Y1009585D01*
X311751D02*
X325166Y1023000D01*
D72*
X590708Y979292D02*
X614300D01*
X612662Y963344D02*
X614999D01*
X591277Y966277D02*
X609729D01*
X590000Y980000D02*
X590708Y979292D01*
X614300D02*
X615009Y978584D01*
X609729Y966277D02*
X612662Y963344D01*
X306686Y1016000D02*
X318000Y1027314D01*
Y1039350D01*
X328200Y1049550D01*
X353750Y1023000D02*
X355750Y1025000D01*
X386000D01*
X420200Y887000D02*
X445600D01*
X394800D02*
X420200D01*
X445600D02*
X471000D01*
X496400D01*
X590000Y967554D02*
X591277Y966277D01*
X458000Y1045000D02*
X458500D01*
X589954Y993000D02*
X590000Y992954D01*
X491500Y1012000D02*
X551000D01*
X570000Y993000D02*
X589954D01*
X458500Y1045000D02*
X491500Y1012000D01*
X551000D02*
X570000Y993000D01*
X493684Y1033566D02*
Y1034566D01*
X484000Y1044250D02*
X493684Y1034566D01*
X483000Y1044250D02*
X484000D01*
X493684Y1033566D02*
X499650Y1027600D01*
X510600D01*
X547661D02*
X569607Y1005654D01*
X531600Y1027600D02*
X547661D01*
X569607Y1005654D02*
X590000D01*
X566600Y1018000D02*
X589900D01*
X590000Y1018100D01*
X531600Y1053000D02*
X566600Y1018000D01*
X510600Y1071650D02*
X515350Y1076400D01*
X510600Y1053000D02*
Y1071650D01*
X515350Y1076400D02*
Y1077400D01*
X408000Y950000D02*
Y961500D01*
X405000Y965500D02*
Y982500D01*
X408000Y950000D02*
X416100Y941900D01*
X405000Y982500D02*
X426000Y1003500D01*
Y1004000D01*
X404500Y965000D02*
X405000Y965500D01*
X416100Y941900D02*
X590000D01*
X404500Y965000D02*
X408000Y961500D01*
X589146Y954000D02*
X590000Y954854D01*
X540500Y965000D02*
X551500Y954000D01*
X540000Y965000D02*
X540500D01*
X551500Y954000D02*
X589146D01*
X499500Y965000D02*
X540000D01*
X302000Y1016000D02*
X306686D01*
X328200Y1049550D02*
X330200D01*
D73*
X518300Y1177250D02*
X519150Y1176400D01*
Y1152600D02*
X520000Y1151750D01*
X356000Y1079500D02*
X387600D01*
X355600Y1079900D02*
X356000Y1079500D01*
X330200Y1084050D02*
X351990D01*
X355600Y1080440D01*
Y1079900D02*
Y1080440D01*
X387600Y1079500D02*
X388000Y1079900D01*
Y1108000D01*
X394400Y1114400D02*
X447200D01*
X388000Y1108000D02*
X394400Y1114400D01*
D74*
X908000Y1240100D02*
D03*
Y1214700D02*
D03*
Y1163900D02*
D03*
Y1189300D02*
D03*
X690000Y887000D02*
D03*
X664600D02*
D03*
X715400D02*
D03*
X740800D02*
D03*
X766200D02*
D03*
X791600D02*
D03*
X817000D02*
D03*
X842400D02*
D03*
X867800D02*
D03*
X344000Y887000D02*
D03*
X369400D02*
D03*
X394800D02*
D03*
X420200D02*
D03*
X445600D02*
D03*
X471000D02*
D03*
X496400D02*
D03*
X521800D02*
D03*
X547200D02*
D03*
X572600D02*
D03*
X623400D02*
D03*
X598000D02*
D03*
X275300D02*
D03*
X300700D02*
D03*
X907000Y914100D02*
D03*
Y888700D02*
D03*
Y939500D02*
D03*
Y964900D02*
D03*
Y990300D02*
D03*
Y1015700D02*
D03*
Y1041100D02*
D03*
Y1066500D02*
D03*
Y1091900D02*
D03*
Y1117300D02*
D03*
D75*
X357100Y1155700D02*
D03*
X297100D02*
D03*
D76*
X327100Y1108700D02*
D03*
D77*
X275250Y1036000D02*
D03*
Y970000D02*
D03*
D78*
X841000Y928000D02*
D03*
X817000Y929000D02*
D03*
X825000Y995000D02*
D03*
X806000D02*
D03*
X786000D02*
D03*
X821000Y1035320D02*
D03*
X651000Y996000D02*
D03*
X783000Y1037000D02*
D03*
X778000Y1008000D02*
D03*
X805000Y1040000D02*
D03*
X375000Y1004000D02*
D03*
X614999Y963344D02*
D03*
X615009Y978584D02*
D03*
X621971Y1004778D02*
D03*
X611000Y1020000D02*
D03*
X386000Y1025000D02*
D03*
X814000Y1157000D02*
D03*
X725000Y1154000D02*
D03*
X584000Y1149000D02*
D03*
X602000Y1150000D02*
D03*
D79*
X863000Y1032000D02*
D03*
X736000Y999000D02*
D03*
X558800Y1066800D02*
D03*
Y1117600D02*
D03*
M02*
