G04*
G04 #@! TF.GenerationSoftware,Altium Limited,Altium Designer,22.8.2 (66)*
G04*
G04 Layer_Color=16711935*
%FSLAX44Y44*%
%MOMM*%
G71*
G04*
G04 #@! TF.SameCoordinates,AFBA7131-1AEE-443E-AB60-5C51F5C0F5D9*
G04*
G04*
G04 #@! TF.FilePolarity,Positive*
G04*
G01*
G75*
%ADD15C,0.1000*%
%ADD81R,1.6999X0.8400*%
%ADD82R,0.8400X1.6999*%
G36*
X755134Y990246D02*
X764986D01*
Y985714D01*
X755134D01*
Y990246D01*
D02*
G37*
G36*
Y998262D02*
X764994D01*
Y993714D01*
X755134D01*
Y998262D01*
D02*
G37*
G36*
Y1006272D02*
X764988D01*
Y1001714D01*
X755134D01*
Y1006272D01*
D02*
G37*
G36*
Y1014285D02*
X765012D01*
Y1009714D01*
X755134D01*
Y1014285D01*
D02*
G37*
G36*
X769814Y980872D02*
X774336D01*
Y971034D01*
X769814D01*
Y980872D01*
D02*
G37*
G36*
X777814Y980887D02*
X782359D01*
Y971034D01*
X777814D01*
Y980887D01*
D02*
G37*
G36*
X785814Y980911D02*
X790378D01*
Y971034D01*
X785814D01*
Y980911D01*
D02*
G37*
G36*
X793814Y980939D02*
X798386D01*
Y971034D01*
X793814D01*
Y980939D01*
D02*
G37*
G36*
X801814Y980872D02*
X806398D01*
Y971034D01*
X801814D01*
Y980872D01*
D02*
G37*
G36*
X809814Y980917D02*
X814395D01*
Y971034D01*
X809814D01*
Y980917D01*
D02*
G37*
G36*
X817814Y980878D02*
X822426D01*
Y971034D01*
X817814D01*
Y980878D01*
D02*
G37*
G36*
X825814Y980905D02*
X830416D01*
Y971034D01*
X825814D01*
Y980905D01*
D02*
G37*
G36*
X835160Y990284D02*
X845069D01*
Y985714D01*
X835160D01*
Y990284D01*
D02*
G37*
G36*
Y998253D02*
X845150D01*
Y993714D01*
X835160D01*
Y998253D01*
D02*
G37*
G36*
Y1006279D02*
X845101D01*
Y1001714D01*
X835160D01*
Y1006279D01*
D02*
G37*
G36*
Y1014285D02*
X845104D01*
Y1009714D01*
X835160D01*
Y1014285D01*
D02*
G37*
G36*
X755134Y1022292D02*
X765007D01*
Y1017714D01*
X755134D01*
Y1022292D01*
D02*
G37*
G36*
Y1030307D02*
X764987D01*
Y1025714D01*
X755134D01*
Y1030307D01*
D02*
G37*
G36*
Y1038330D02*
X764971D01*
Y1033714D01*
X755134D01*
Y1038330D01*
D02*
G37*
G36*
Y1046292D02*
X765033D01*
Y1041714D01*
X755134D01*
Y1046292D01*
D02*
G37*
G36*
X769814Y1061031D02*
X774349D01*
Y1051060D01*
X769814D01*
Y1061031D01*
D02*
G37*
G36*
X777814Y1061040D02*
X782357D01*
Y1051060D01*
X777814D01*
Y1061040D01*
D02*
G37*
G36*
X785814Y1060984D02*
X790382D01*
Y1051060D01*
X785814D01*
Y1060984D01*
D02*
G37*
G36*
X793814Y1061018D02*
X798384D01*
Y1051060D01*
X793814D01*
Y1061018D01*
D02*
G37*
G36*
X835160Y1022294D02*
X845126D01*
Y1017714D01*
X835160D01*
Y1022294D01*
D02*
G37*
G36*
Y1030303D02*
X845119D01*
Y1025714D01*
X835160D01*
Y1030303D01*
D02*
G37*
G36*
Y1038310D02*
X845114D01*
Y1033714D01*
X835160D01*
Y1038310D01*
D02*
G37*
G36*
Y1046318D02*
X845113D01*
Y1041714D01*
X835160D01*
Y1046318D01*
D02*
G37*
G36*
X801814Y1060978D02*
X806388D01*
Y1051060D01*
X801814D01*
Y1060978D01*
D02*
G37*
G36*
X809814Y1061039D02*
X814409D01*
Y1051060D01*
X809814D01*
Y1061039D01*
D02*
G37*
G36*
X817814Y1061003D02*
X822405D01*
Y1051060D01*
X817814D01*
Y1061003D01*
D02*
G37*
G36*
X825814Y1061055D02*
X830446D01*
Y1051060D01*
X825814D01*
Y1061055D01*
D02*
G37*
D15*
X322450Y1082300D02*
X337950D01*
X322450Y1051300D02*
X337950D01*
Y1082300D01*
X322450Y1051300D02*
Y1082300D01*
X347101Y1049650D02*
Y1083800D01*
X364099Y1049650D02*
Y1083800D01*
X347101Y1049650D02*
X364099D01*
X347101Y1083800D02*
X364099D01*
X389100Y1071000D02*
X417600D01*
X389100Y1088000D02*
X417600D01*
Y1071000D02*
Y1088000D01*
X389100Y1071000D02*
Y1088000D01*
X382700Y1060850D02*
X404700D01*
X382700Y1047350D02*
X404700D01*
X382700D02*
Y1060850D01*
X404700Y1047350D02*
Y1060850D01*
X721200Y1167601D02*
X755350D01*
X721200Y1184598D02*
X755350D01*
Y1167601D02*
Y1184598D01*
X721200Y1167601D02*
Y1184598D01*
X784550Y1184599D02*
X818700D01*
X784550Y1167601D02*
X818700D01*
X784550D02*
Y1184599D01*
X818700Y1167601D02*
Y1184599D01*
X626200Y1085450D02*
Y1098950D01*
X648200Y1085450D02*
Y1098950D01*
X626200D02*
X648200D01*
X626200Y1085450D02*
X648200D01*
X624000Y1060050D02*
X646000D01*
X624000Y1073550D02*
X646000D01*
Y1060050D02*
Y1073550D01*
X624000Y1060050D02*
Y1073550D01*
X674800Y1098950D02*
X696800D01*
X674800Y1085450D02*
X696800D01*
X674800D02*
Y1098950D01*
X696800Y1085450D02*
Y1098950D01*
Y1060050D02*
Y1073550D01*
X674800Y1060050D02*
Y1073550D01*
Y1060050D02*
X696800D01*
X674800Y1073550D02*
X696800D01*
X695700Y994800D02*
Y1011800D01*
X726700Y994800D02*
Y1011800D01*
X695700Y994800D02*
X726700D01*
X695700Y1011800D02*
X726700D01*
X700200Y972200D02*
X722200D01*
X700200Y958200D02*
X722200D01*
X700200D02*
Y972200D01*
X722200Y958200D02*
Y972200D01*
X566850Y1098499D02*
X601000D01*
X566850Y1081501D02*
X601000D01*
X566850D02*
Y1098499D01*
X601000Y1081501D02*
Y1098499D01*
X630700Y1109101D02*
X664850D01*
X630700Y1126098D02*
X664850D01*
Y1109101D02*
Y1126098D01*
X630700Y1109101D02*
Y1126098D01*
X620000Y1144000D02*
X642000D01*
X620000Y1158000D02*
X642000D01*
Y1144000D02*
Y1158000D01*
X620000Y1144000D02*
Y1158000D01*
X438800Y1216200D02*
Y1238200D01*
X424800Y1216200D02*
Y1238200D01*
X438800D01*
X424800Y1216200D02*
X438800D01*
X440299Y1138700D02*
Y1172850D01*
X423302Y1138700D02*
Y1172850D01*
X440299D01*
X423302Y1138700D02*
X440299D01*
X450200Y1090900D02*
X464200D01*
X450200Y1118900D02*
X464200D01*
Y1090900D02*
Y1118900D01*
X450200Y1090900D02*
Y1118900D01*
X513100Y1084150D02*
X535100D01*
X513100Y1070650D02*
X535100D01*
X513100D02*
Y1084150D01*
X535100Y1070650D02*
Y1084150D01*
X532100Y1046250D02*
Y1059750D01*
X510100Y1046250D02*
Y1059750D01*
Y1046250D02*
X532100D01*
X510100Y1059750D02*
X532100D01*
X423000Y997000D02*
X445000D01*
X423000Y1011000D02*
X445000D01*
Y997000D02*
Y1011000D01*
X423000Y997000D02*
Y1011000D01*
X532100Y1020850D02*
Y1034350D01*
X510100Y1020850D02*
Y1034350D01*
Y1020850D02*
X532100D01*
X510100Y1034350D02*
X532100D01*
X334000Y1029750D02*
X356000D01*
X334000Y1016250D02*
X356000D01*
X334000D02*
Y1029750D01*
X356000Y1016250D02*
Y1029750D01*
X334000Y1007750D02*
X356000D01*
X334000Y994250D02*
X356000D01*
X334000D02*
Y1007750D01*
X356000Y994250D02*
Y1007750D01*
X509750Y940750D02*
Y989250D01*
X394250Y940750D02*
Y989250D01*
Y940750D02*
X509750D01*
X394250Y989250D02*
X509750D01*
X476250Y1042000D02*
Y1064000D01*
X489750Y1042000D02*
Y1064000D01*
X476250Y1042000D02*
X489750D01*
X476250Y1064000D02*
X489750D01*
X547000Y962000D02*
Y984000D01*
X533000Y962000D02*
Y984000D01*
X547000D01*
X533000Y962000D02*
X547000D01*
X632501Y1207000D02*
X649499D01*
X632501Y1241150D02*
X649499D01*
X632501Y1207000D02*
Y1241150D01*
X649499Y1207000D02*
Y1241150D01*
X397900Y1141450D02*
Y1169950D01*
X414900Y1141450D02*
Y1169950D01*
X397900Y1141450D02*
X414900D01*
X397900Y1169950D02*
X414900D01*
X621000Y1170250D02*
X643000D01*
X621000Y1183750D02*
X643000D01*
Y1170250D02*
Y1183750D01*
X621000Y1170250D02*
Y1183750D01*
X513250Y1132000D02*
X526750D01*
X513250Y1154000D02*
X526750D01*
X513250Y1132000D02*
Y1154000D01*
X526750Y1132000D02*
Y1154000D01*
X718550Y1238450D02*
X834050D01*
X718550Y1189950D02*
X834050D01*
X718550D02*
Y1238450D01*
X834050Y1189950D02*
Y1238450D01*
X528800Y1188000D02*
Y1225000D01*
X461800Y1188000D02*
Y1225000D01*
X528800D01*
X461800Y1188000D02*
X528800D01*
X397901Y1236200D02*
X414898D01*
X397901Y1202050D02*
X414898D01*
Y1236200D01*
X397901Y1202050D02*
Y1236200D01*
X488550Y1132000D02*
X502050D01*
X488550Y1154000D02*
X502050D01*
X488550Y1132000D02*
Y1154000D01*
X502050Y1132000D02*
Y1154000D01*
X599501Y1110600D02*
Y1124600D01*
X577500Y1110600D02*
Y1124600D01*
Y1110600D02*
X599501D01*
X577500Y1124600D02*
X599501D01*
X451000Y1064000D02*
X465000D01*
X451000Y1042000D02*
X465000D01*
Y1064000D01*
X451000Y1042000D02*
Y1064000D01*
D81*
X355599Y1079750D02*
D03*
X431801Y1142750D02*
D03*
X641001Y1211050D02*
D03*
X406399Y1232150D02*
D03*
D82*
X725250Y1176099D02*
D03*
X814650Y1176101D02*
D03*
X596950Y1090001D02*
D03*
X634750Y1117599D02*
D03*
M02*
