G04*
G04 #@! TF.GenerationSoftware,Altium Limited,Altium Designer,22.8.2 (66)*
G04*
G04 Layer_Color=8421504*
%FSLAX44Y44*%
%MOMM*%
G71*
G04*
G04 #@! TF.SameCoordinates,AFBA7131-1AEE-443E-AB60-5C51F5C0F5D9*
G04*
G04*
G04 #@! TF.FilePolarity,Positive*
G04*
G01*
G75*
%ADD18R,1.6500X1.2500*%
%ADD19R,1.2300X1.8000*%
%ADD20R,0.9000X0.9500*%
%ADD21R,1.1500X1.3500*%
%ADD22R,1.8000X1.2300*%
%ADD23R,1.2000X1.2000*%
%ADD24R,0.5500X0.8000*%
%ADD25R,1.3000X1.4000*%
%ADD26O,1.3500X0.4000*%
%ADD27R,1.8000X1.9000*%
G04:AMPARAMS|DCode=28|XSize=1.6mm|YSize=1.4mm|CornerRadius=0.35mm|HoleSize=0mm|Usage=FLASHONLY|Rotation=90.000|XOffset=0mm|YOffset=0mm|HoleType=Round|Shape=RoundedRectangle|*
%AMROUNDEDRECTD28*
21,1,1.6000,0.7000,0,0,90.0*
21,1,0.9000,1.4000,0,0,90.0*
1,1,0.7000,0.3500,0.4500*
1,1,0.7000,0.3500,-0.4500*
1,1,0.7000,-0.3500,-0.4500*
1,1,0.7000,-0.3500,0.4500*
%
%ADD28ROUNDEDRECTD28*%
%ADD29R,1.4000X1.3000*%
%ADD30R,0.9000X0.8000*%
%ADD31R,5.5000X2.0000*%
%ADD32R,1.3500X1.1500*%
%ADD33R,0.9500X0.9000*%
%ADD34R,3.3500X2.1500*%
%ADD35R,1.0000X2.1500*%
%ADD36R,1.5000X0.5500*%
%ADD37R,0.5500X1.5000*%
%ADD38R,1.5240X1.0160*%
%ADD39R,1.1000X1.8000*%
D18*
X330200Y1084050D02*
D03*
Y1049550D02*
D03*
D19*
X355600Y1053700D02*
D03*
Y1079900D02*
D03*
X431800Y1168800D02*
D03*
Y1142600D02*
D03*
X641000Y1210900D02*
D03*
Y1237100D02*
D03*
X406400Y1232300D02*
D03*
Y1206100D02*
D03*
D20*
X419100Y1079500D02*
D03*
X387600D02*
D03*
D21*
X384950Y1054100D02*
D03*
X402450D02*
D03*
X643750Y1066800D02*
D03*
X626250D02*
D03*
X677050Y1092200D02*
D03*
X694550D02*
D03*
X515350Y1077400D02*
D03*
X532850D02*
D03*
X336250Y1023000D02*
D03*
X353750D02*
D03*
X336250Y1001000D02*
D03*
X353750D02*
D03*
X640750Y1177000D02*
D03*
X623250D02*
D03*
D22*
X751300Y1176100D02*
D03*
X725100D02*
D03*
X788600D02*
D03*
X814800D02*
D03*
X570900Y1090000D02*
D03*
X597100D02*
D03*
X660800Y1117600D02*
D03*
X634600D02*
D03*
D23*
X626700Y1092200D02*
D03*
X647700D02*
D03*
X696300Y1066800D02*
D03*
X675300D02*
D03*
X531600Y1053000D02*
D03*
X510600D02*
D03*
X531600Y1027600D02*
D03*
X510600D02*
D03*
D24*
X720700Y991300D02*
D03*
X701700D02*
D03*
Y1015300D02*
D03*
X711200D02*
D03*
X720700D02*
D03*
D25*
X703200Y965200D02*
D03*
X719200D02*
D03*
X639000Y1151000D02*
D03*
X623000D02*
D03*
X442000Y1004000D02*
D03*
X426000D02*
D03*
X596501Y1117600D02*
D03*
X580500D02*
D03*
D26*
X302000Y996500D02*
D03*
Y990000D02*
D03*
Y1016000D02*
D03*
Y1009500D02*
D03*
Y1003000D02*
D03*
D27*
X275250Y1015000D02*
D03*
Y991000D02*
D03*
D28*
X299750Y1035000D02*
D03*
Y971000D02*
D03*
D29*
X431800Y1235200D02*
D03*
Y1219200D02*
D03*
X540000Y981000D02*
D03*
Y965000D02*
D03*
X458000Y1061000D02*
D03*
Y1045000D02*
D03*
D30*
X467200Y1104900D02*
D03*
X447200Y1095400D02*
D03*
Y1114400D02*
D03*
D31*
X404500Y965000D02*
D03*
X499500D02*
D03*
X823800Y1214200D02*
D03*
X728800D02*
D03*
D32*
X483000Y1044250D02*
D03*
Y1061750D02*
D03*
X520000Y1134250D02*
D03*
Y1151750D02*
D03*
X495300Y1134250D02*
D03*
Y1151750D02*
D03*
D33*
X406400Y1139950D02*
D03*
Y1171450D02*
D03*
D34*
X495300Y1235750D02*
D03*
D35*
X518300Y1177250D02*
D03*
X495300D02*
D03*
X472300D02*
D03*
D36*
X843100Y988000D02*
D03*
Y996000D02*
D03*
Y1004000D02*
D03*
Y1012000D02*
D03*
Y1020000D02*
D03*
Y1028000D02*
D03*
Y1036000D02*
D03*
Y1044000D02*
D03*
X757100D02*
D03*
Y1036000D02*
D03*
Y1028000D02*
D03*
Y1020000D02*
D03*
Y1012000D02*
D03*
Y1004000D02*
D03*
Y996000D02*
D03*
Y988000D02*
D03*
D37*
X828100Y1059000D02*
D03*
X820100D02*
D03*
X812100D02*
D03*
X804100D02*
D03*
X796100D02*
D03*
X788100D02*
D03*
X780100D02*
D03*
X772100D02*
D03*
Y973000D02*
D03*
X780100D02*
D03*
X788100D02*
D03*
X796100D02*
D03*
X804100D02*
D03*
X812100D02*
D03*
X820100D02*
D03*
X828100D02*
D03*
D38*
X590000Y1018100D02*
D03*
Y1031054D02*
D03*
Y980000D02*
D03*
Y1005654D02*
D03*
Y992954D02*
D03*
Y941900D02*
D03*
Y967554D02*
D03*
Y954854D02*
D03*
X671280Y1018100D02*
D03*
Y1031054D02*
D03*
Y980000D02*
D03*
Y1005654D02*
D03*
Y992954D02*
D03*
Y941900D02*
D03*
Y967554D02*
D03*
Y954854D02*
D03*
D39*
X553600Y1234900D02*
D03*
Y1172900D02*
D03*
X590600D02*
D03*
Y1234900D02*
D03*
M02*
