G04*
G04 #@! TF.GenerationSoftware,Altium Limited,Altium Designer,22.8.2 (66)*
G04*
G04 Layer_Color=32896*
%FSLAX44Y44*%
%MOMM*%
G71*
G04*
G04 #@! TF.SameCoordinates,AFBA7131-1AEE-443E-AB60-5C51F5C0F5D9*
G04*
G04*
G04 #@! TF.FilePolarity,Positive*
G04*
G01*
G75*
G36*
X783968Y1254107D02*
X783158D01*
Y1259140D01*
X779793Y1254107D01*
X778925D01*
Y1260515D01*
X779735D01*
Y1255483D01*
X783109Y1260515D01*
X783968D01*
Y1254107D01*
D02*
G37*
G36*
X765582D02*
X764773D01*
Y1259140D01*
X761408Y1254107D01*
X760539D01*
Y1260515D01*
X761349D01*
Y1255483D01*
X764724Y1260515D01*
X765582D01*
Y1254107D01*
D02*
G37*
G36*
X753156D02*
X752346D01*
Y1259140D01*
X748981Y1254107D01*
X748113D01*
Y1260515D01*
X748923D01*
Y1255483D01*
X752298Y1260515D01*
X753156D01*
Y1254107D01*
D02*
G37*
G36*
X790405Y1256809D02*
Y1256624D01*
X790395Y1256448D01*
X790386Y1256282D01*
X790366Y1256126D01*
X790347Y1255990D01*
X790327Y1255853D01*
X790307Y1255736D01*
X790278Y1255629D01*
X790259Y1255531D01*
X790239Y1255443D01*
X790220Y1255366D01*
X790200Y1255307D01*
X790181Y1255258D01*
X790171Y1255229D01*
X790161Y1255210D01*
Y1255200D01*
X790054Y1254995D01*
X789927Y1254810D01*
X789800Y1254663D01*
X789664Y1254537D01*
X789547Y1254429D01*
X789439Y1254361D01*
X789400Y1254332D01*
X789381Y1254322D01*
X789361Y1254302D01*
X789352D01*
X789127Y1254205D01*
X788874Y1254127D01*
X788630Y1254078D01*
X788396Y1254039D01*
X788288Y1254029D01*
X788191Y1254019D01*
X788103Y1254010D01*
X788025D01*
X787967Y1254000D01*
X787879D01*
X787547Y1254019D01*
X787255Y1254059D01*
X787118Y1254078D01*
X787001Y1254107D01*
X786884Y1254146D01*
X786786Y1254176D01*
X786699Y1254205D01*
X786611Y1254244D01*
X786543Y1254273D01*
X786494Y1254293D01*
X786445Y1254322D01*
X786416Y1254332D01*
X786396Y1254351D01*
X786386D01*
X786191Y1254497D01*
X786016Y1254644D01*
X785879Y1254800D01*
X785772Y1254946D01*
X785694Y1255083D01*
X785636Y1255180D01*
X785616Y1255219D01*
X785606Y1255248D01*
X785596Y1255268D01*
Y1255278D01*
X785518Y1255502D01*
X785470Y1255756D01*
X785431Y1256009D01*
X785401Y1256253D01*
X785392Y1256370D01*
X785382Y1256477D01*
Y1256565D01*
X785372Y1256653D01*
Y1256721D01*
Y1256770D01*
Y1256799D01*
Y1256809D01*
Y1260515D01*
X786221D01*
Y1256809D01*
Y1256594D01*
X786240Y1256390D01*
X786260Y1256214D01*
X786279Y1256048D01*
X786309Y1255892D01*
X786348Y1255765D01*
X786386Y1255648D01*
X786416Y1255541D01*
X786455Y1255453D01*
X786494Y1255375D01*
X786523Y1255317D01*
X786562Y1255268D01*
X786582Y1255229D01*
X786601Y1255200D01*
X786621Y1255190D01*
Y1255180D01*
X786699Y1255102D01*
X786796Y1255044D01*
X787001Y1254936D01*
X787216Y1254868D01*
X787440Y1254810D01*
X787635Y1254780D01*
X787723Y1254771D01*
X787801D01*
X787869Y1254761D01*
X787957D01*
X788152Y1254771D01*
X788327Y1254790D01*
X788484Y1254829D01*
X788620Y1254868D01*
X788727Y1254897D01*
X788805Y1254936D01*
X788854Y1254956D01*
X788874Y1254966D01*
X789010Y1255053D01*
X789118Y1255151D01*
X789215Y1255258D01*
X789283Y1255356D01*
X789342Y1255443D01*
X789381Y1255512D01*
X789400Y1255561D01*
X789410Y1255580D01*
X789439Y1255658D01*
X789459Y1255746D01*
X789498Y1255941D01*
X789517Y1256146D01*
X789537Y1256341D01*
X789547Y1256526D01*
X789557Y1256604D01*
Y1256673D01*
Y1256731D01*
Y1256770D01*
Y1256799D01*
Y1256809D01*
Y1260515D01*
X790405D01*
Y1256809D01*
D02*
G37*
G36*
X810000Y1254107D02*
X809103D01*
X808410Y1256048D01*
X805718D01*
X804977Y1254107D01*
X804021D01*
X806625Y1260515D01*
X807552D01*
X810000Y1254107D01*
D02*
G37*
G36*
X803319D02*
X802470D01*
Y1256955D01*
X801378D01*
X801280Y1256946D01*
X801202D01*
X801134Y1256936D01*
X801085Y1256926D01*
X801046D01*
X801027Y1256916D01*
X801017D01*
X800871Y1256868D01*
X800754Y1256809D01*
X800705Y1256780D01*
X800666Y1256760D01*
X800646Y1256750D01*
X800637Y1256741D01*
X800558Y1256692D01*
X800490Y1256624D01*
X800344Y1256487D01*
X800295Y1256419D01*
X800246Y1256360D01*
X800217Y1256321D01*
X800207Y1256312D01*
X800110Y1256185D01*
X800012Y1256048D01*
X799905Y1255902D01*
X799808Y1255756D01*
X799720Y1255629D01*
X799651Y1255531D01*
X799632Y1255492D01*
X799612Y1255463D01*
X799593Y1255443D01*
Y1255434D01*
X798744Y1254107D01*
X797681D01*
X798793Y1255843D01*
X798920Y1256029D01*
X799047Y1256195D01*
X799164Y1256341D01*
X799271Y1256468D01*
X799359Y1256565D01*
X799427Y1256643D01*
X799476Y1256682D01*
X799495Y1256702D01*
X799564Y1256760D01*
X799651Y1256819D01*
X799817Y1256926D01*
X799885Y1256965D01*
X799944Y1256994D01*
X799983Y1257014D01*
X800003Y1257024D01*
X799837Y1257053D01*
X799681Y1257082D01*
X799534Y1257121D01*
X799408Y1257170D01*
X799281Y1257219D01*
X799174Y1257268D01*
X799066Y1257316D01*
X798978Y1257365D01*
X798900Y1257414D01*
X798832Y1257453D01*
X798774Y1257502D01*
X798725Y1257531D01*
X798696Y1257570D01*
X798666Y1257589D01*
X798647Y1257609D01*
X798569Y1257697D01*
X798501Y1257794D01*
X798383Y1257989D01*
X798305Y1258175D01*
X798257Y1258360D01*
X798218Y1258516D01*
X798208Y1258584D01*
Y1258643D01*
X798198Y1258691D01*
Y1258730D01*
Y1258750D01*
Y1258760D01*
X798208Y1258955D01*
X798237Y1259130D01*
X798286Y1259296D01*
X798335Y1259443D01*
X798383Y1259560D01*
X798432Y1259647D01*
X798462Y1259706D01*
X798471Y1259725D01*
X798578Y1259881D01*
X798696Y1260008D01*
X798813Y1260116D01*
X798930Y1260193D01*
X799027Y1260262D01*
X799105Y1260311D01*
X799164Y1260330D01*
X799174Y1260340D01*
X799183D01*
X799271Y1260369D01*
X799369Y1260398D01*
X799573Y1260437D01*
X799788Y1260476D01*
X799993Y1260496D01*
X800188Y1260506D01*
X800266D01*
X800344Y1260515D01*
X803319D01*
Y1254107D01*
D02*
G37*
G36*
X796872D02*
X794570D01*
X794355Y1254117D01*
X794160Y1254127D01*
X793985Y1254146D01*
X793838Y1254166D01*
X793711Y1254185D01*
X793624Y1254195D01*
X793565Y1254215D01*
X793546D01*
X793380Y1254263D01*
X793234Y1254312D01*
X793107Y1254361D01*
X792999Y1254410D01*
X792912Y1254458D01*
X792843Y1254497D01*
X792795Y1254517D01*
X792785Y1254527D01*
X792668Y1254614D01*
X792561Y1254712D01*
X792453Y1254810D01*
X792375Y1254897D01*
X792297Y1254985D01*
X792249Y1255053D01*
X792209Y1255092D01*
X792200Y1255112D01*
X792102Y1255258D01*
X792014Y1255414D01*
X791936Y1255570D01*
X791878Y1255717D01*
X791829Y1255853D01*
X791790Y1255951D01*
X791780Y1255990D01*
X791770Y1256019D01*
X791761Y1256039D01*
Y1256048D01*
X791702Y1256263D01*
X791663Y1256487D01*
X791624Y1256712D01*
X791605Y1256907D01*
X791595Y1257082D01*
Y1257160D01*
X791585Y1257219D01*
Y1257277D01*
Y1257316D01*
Y1257336D01*
Y1257346D01*
X791595Y1257658D01*
X791624Y1257941D01*
X791663Y1258194D01*
X791693Y1258311D01*
X791712Y1258418D01*
X791731Y1258516D01*
X791761Y1258604D01*
X791780Y1258682D01*
X791800Y1258740D01*
X791819Y1258789D01*
X791829Y1258828D01*
X791839Y1258848D01*
Y1258857D01*
X791946Y1259101D01*
X792063Y1259316D01*
X792190Y1259501D01*
X792317Y1259657D01*
X792424Y1259784D01*
X792512Y1259881D01*
X792580Y1259940D01*
X792590Y1259959D01*
X792600D01*
X792756Y1260077D01*
X792912Y1260174D01*
X793068Y1260252D01*
X793214Y1260311D01*
X793341Y1260359D01*
X793448Y1260389D01*
X793487Y1260408D01*
X793507D01*
X793526Y1260418D01*
X793536D01*
X793692Y1260447D01*
X793877Y1260476D01*
X794072Y1260496D01*
X794248Y1260506D01*
X794414Y1260515D01*
X796872D01*
Y1254107D01*
D02*
G37*
G36*
X777355D02*
X776506D01*
Y1260515D01*
X777355D01*
Y1254107D01*
D02*
G37*
G36*
X759818D02*
X758920D01*
X758228Y1256048D01*
X755536D01*
X754795Y1254107D01*
X753839D01*
X756443Y1260515D01*
X757370D01*
X759818Y1254107D01*
D02*
G37*
G36*
X772458Y1260613D02*
X772702Y1260584D01*
X772927Y1260535D01*
X773131Y1260486D01*
X773326Y1260408D01*
X773512Y1260340D01*
X773678Y1260252D01*
X773834Y1260174D01*
X773970Y1260086D01*
X774087Y1259998D01*
X774185Y1259930D01*
X774273Y1259862D01*
X774341Y1259803D01*
X774390Y1259755D01*
X774419Y1259725D01*
X774429Y1259716D01*
X774575Y1259540D01*
X774712Y1259355D01*
X774819Y1259150D01*
X774916Y1258945D01*
X775004Y1258740D01*
X775072Y1258535D01*
X775121Y1258331D01*
X775170Y1258136D01*
X775209Y1257941D01*
X775228Y1257775D01*
X775248Y1257619D01*
X775267Y1257482D01*
Y1257375D01*
X775277Y1257287D01*
Y1257238D01*
Y1257219D01*
X775258Y1256907D01*
X775219Y1256614D01*
X775160Y1256341D01*
X775131Y1256224D01*
X775092Y1256107D01*
X775063Y1256000D01*
X775033Y1255902D01*
X775004Y1255824D01*
X774975Y1255756D01*
X774946Y1255697D01*
X774936Y1255658D01*
X774916Y1255629D01*
Y1255619D01*
X774760Y1255356D01*
X774594Y1255112D01*
X774409Y1254917D01*
X774234Y1254741D01*
X774078Y1254605D01*
X774009Y1254556D01*
X773951Y1254507D01*
X773902Y1254478D01*
X773863Y1254449D01*
X773843Y1254439D01*
X773834Y1254429D01*
X773697Y1254351D01*
X773561Y1254293D01*
X773278Y1254185D01*
X773005Y1254107D01*
X772761Y1254059D01*
X772644Y1254039D01*
X772536Y1254019D01*
X772449Y1254010D01*
X772371D01*
X772302Y1254000D01*
X772215D01*
X771912Y1254019D01*
X771620Y1254059D01*
X771356Y1254127D01*
X771132Y1254195D01*
X771025Y1254234D01*
X770937Y1254263D01*
X770859Y1254302D01*
X770790Y1254332D01*
X770732Y1254351D01*
X770693Y1254371D01*
X770674Y1254390D01*
X770664D01*
X770410Y1254556D01*
X770186Y1254741D01*
X769991Y1254936D01*
X769835Y1255122D01*
X769718Y1255287D01*
X769669Y1255366D01*
X769620Y1255424D01*
X769591Y1255483D01*
X769571Y1255522D01*
X769552Y1255541D01*
Y1255551D01*
X769415Y1255843D01*
X769318Y1256146D01*
X769249Y1256438D01*
X769201Y1256712D01*
X769181Y1256838D01*
X769171Y1256946D01*
X769162Y1257043D01*
Y1257131D01*
X769152Y1257199D01*
Y1257258D01*
Y1257287D01*
Y1257297D01*
X769171Y1257648D01*
X769211Y1257970D01*
X769269Y1258262D01*
X769308Y1258389D01*
X769337Y1258516D01*
X769376Y1258623D01*
X769415Y1258721D01*
X769445Y1258809D01*
X769474Y1258877D01*
X769493Y1258935D01*
X769513Y1258974D01*
X769532Y1259004D01*
Y1259013D01*
X769688Y1259286D01*
X769854Y1259520D01*
X770040Y1259725D01*
X770215Y1259891D01*
X770371Y1260018D01*
X770439Y1260077D01*
X770498Y1260116D01*
X770547Y1260154D01*
X770586Y1260174D01*
X770605Y1260193D01*
X770615D01*
X770751Y1260272D01*
X770888Y1260340D01*
X771161Y1260437D01*
X771434Y1260515D01*
X771678Y1260574D01*
X771795Y1260584D01*
X771893Y1260603D01*
X771990Y1260613D01*
X772068D01*
X772127Y1260623D01*
X772215D01*
X772458Y1260613D01*
D02*
G37*
G36*
X744134D02*
X744378Y1260584D01*
X744602Y1260535D01*
X744807Y1260486D01*
X745002Y1260408D01*
X745187Y1260340D01*
X745353Y1260252D01*
X745509Y1260174D01*
X745646Y1260086D01*
X745763Y1259998D01*
X745860Y1259930D01*
X745948Y1259862D01*
X746016Y1259803D01*
X746065Y1259755D01*
X746094Y1259725D01*
X746104Y1259716D01*
X746251Y1259540D01*
X746387Y1259355D01*
X746494Y1259150D01*
X746592Y1258945D01*
X746680Y1258740D01*
X746748Y1258535D01*
X746797Y1258331D01*
X746845Y1258136D01*
X746885Y1257941D01*
X746904Y1257775D01*
X746924Y1257619D01*
X746943Y1257482D01*
Y1257375D01*
X746953Y1257287D01*
Y1257238D01*
Y1257219D01*
X746933Y1256907D01*
X746894Y1256614D01*
X746836Y1256341D01*
X746806Y1256224D01*
X746767Y1256107D01*
X746738Y1256000D01*
X746709Y1255902D01*
X746680Y1255824D01*
X746650Y1255756D01*
X746621Y1255697D01*
X746611Y1255658D01*
X746592Y1255629D01*
Y1255619D01*
X746436Y1255356D01*
X746270Y1255112D01*
X746085Y1254917D01*
X745909Y1254741D01*
X745753Y1254605D01*
X745685Y1254556D01*
X745626Y1254507D01*
X745577Y1254478D01*
X745538Y1254449D01*
X745519Y1254439D01*
X745509Y1254429D01*
X745373Y1254351D01*
X745236Y1254293D01*
X744953Y1254185D01*
X744680Y1254107D01*
X744436Y1254059D01*
X744319Y1254039D01*
X744212Y1254019D01*
X744124Y1254010D01*
X744046D01*
X743978Y1254000D01*
X743890D01*
X743588Y1254019D01*
X743295Y1254059D01*
X743032Y1254127D01*
X742807Y1254195D01*
X742700Y1254234D01*
X742612Y1254263D01*
X742534Y1254302D01*
X742466Y1254332D01*
X742408Y1254351D01*
X742368Y1254371D01*
X742349Y1254390D01*
X742339D01*
X742086Y1254556D01*
X741861Y1254741D01*
X741666Y1254936D01*
X741510Y1255122D01*
X741393Y1255287D01*
X741344Y1255366D01*
X741296Y1255424D01*
X741266Y1255483D01*
X741247Y1255522D01*
X741227Y1255541D01*
Y1255551D01*
X741091Y1255843D01*
X740993Y1256146D01*
X740925Y1256438D01*
X740876Y1256712D01*
X740857Y1256838D01*
X740847Y1256946D01*
X740837Y1257043D01*
Y1257131D01*
X740827Y1257199D01*
Y1257258D01*
Y1257287D01*
Y1257297D01*
X740847Y1257648D01*
X740886Y1257970D01*
X740945Y1258262D01*
X740984Y1258389D01*
X741013Y1258516D01*
X741052Y1258623D01*
X741091Y1258721D01*
X741120Y1258809D01*
X741149Y1258877D01*
X741169Y1258935D01*
X741188Y1258974D01*
X741208Y1259004D01*
Y1259013D01*
X741364Y1259286D01*
X741530Y1259520D01*
X741715Y1259725D01*
X741891Y1259891D01*
X742047Y1260018D01*
X742115Y1260077D01*
X742173Y1260116D01*
X742222Y1260154D01*
X742261Y1260174D01*
X742281Y1260193D01*
X742290D01*
X742427Y1260272D01*
X742564Y1260340D01*
X742837Y1260437D01*
X743110Y1260515D01*
X743354Y1260574D01*
X743471Y1260584D01*
X743568Y1260603D01*
X743666Y1260613D01*
X743744D01*
X743802Y1260623D01*
X743890D01*
X744134Y1260613D01*
D02*
G37*
G36*
X762851Y1245107D02*
X762042D01*
Y1250140D01*
X758677Y1245107D01*
X757809D01*
Y1251515D01*
X758618D01*
Y1246482D01*
X761993Y1251515D01*
X762851D01*
Y1245107D01*
D02*
G37*
G36*
X784231D02*
X783412D01*
Y1250560D01*
X781568Y1245107D01*
X780807D01*
X778935Y1250472D01*
Y1245107D01*
X778115D01*
Y1251515D01*
X779266D01*
X780798Y1247058D01*
X780876Y1246814D01*
X780954Y1246609D01*
X781012Y1246434D01*
X781051Y1246288D01*
X781090Y1246180D01*
X781120Y1246102D01*
X781129Y1246053D01*
X781139Y1246034D01*
X781178Y1246161D01*
X781227Y1246317D01*
X781276Y1246473D01*
X781324Y1246629D01*
X781373Y1246765D01*
X781412Y1246873D01*
X781422Y1246921D01*
X781432Y1246951D01*
X781441Y1246970D01*
Y1246980D01*
X782963Y1251515D01*
X784231D01*
Y1245107D01*
D02*
G37*
G36*
X810000D02*
X809151D01*
Y1248014D01*
X806147D01*
Y1248765D01*
X809151D01*
Y1250764D01*
X805679D01*
Y1251515D01*
X810000D01*
Y1245107D01*
D02*
G37*
G36*
X804431D02*
X803582D01*
Y1251515D01*
X804431D01*
Y1245107D01*
D02*
G37*
G36*
X802080D02*
X801232D01*
Y1247955D01*
X800139D01*
X800042Y1247946D01*
X799964D01*
X799895Y1247936D01*
X799846Y1247926D01*
X799808D01*
X799788Y1247916D01*
X799778D01*
X799632Y1247868D01*
X799515Y1247809D01*
X799466Y1247780D01*
X799427Y1247760D01*
X799408Y1247750D01*
X799398Y1247741D01*
X799320Y1247692D01*
X799251Y1247624D01*
X799105Y1247487D01*
X799056Y1247419D01*
X799008Y1247360D01*
X798978Y1247321D01*
X798969Y1247312D01*
X798871Y1247185D01*
X798774Y1247048D01*
X798666Y1246902D01*
X798569Y1246756D01*
X798481Y1246629D01*
X798413Y1246531D01*
X798393Y1246492D01*
X798374Y1246463D01*
X798354Y1246443D01*
Y1246434D01*
X797506Y1245107D01*
X796442D01*
X797554Y1246843D01*
X797681Y1247029D01*
X797808Y1247195D01*
X797925Y1247341D01*
X798032Y1247468D01*
X798120Y1247565D01*
X798188Y1247643D01*
X798237Y1247682D01*
X798257Y1247702D01*
X798325Y1247760D01*
X798413Y1247819D01*
X798578Y1247926D01*
X798647Y1247965D01*
X798705Y1247994D01*
X798744Y1248014D01*
X798764Y1248024D01*
X798598Y1248053D01*
X798442Y1248082D01*
X798296Y1248121D01*
X798169Y1248170D01*
X798042Y1248219D01*
X797935Y1248268D01*
X797828Y1248316D01*
X797740Y1248365D01*
X797662Y1248414D01*
X797593Y1248453D01*
X797535Y1248502D01*
X797486Y1248531D01*
X797457Y1248570D01*
X797428Y1248589D01*
X797408Y1248609D01*
X797330Y1248697D01*
X797262Y1248794D01*
X797145Y1248989D01*
X797067Y1249174D01*
X797018Y1249360D01*
X796979Y1249516D01*
X796969Y1249584D01*
Y1249643D01*
X796959Y1249691D01*
Y1249731D01*
Y1249750D01*
Y1249760D01*
X796969Y1249955D01*
X796999Y1250130D01*
X797047Y1250296D01*
X797096Y1250443D01*
X797145Y1250560D01*
X797194Y1250647D01*
X797223Y1250706D01*
X797233Y1250725D01*
X797340Y1250881D01*
X797457Y1251008D01*
X797574Y1251115D01*
X797691Y1251193D01*
X797788Y1251262D01*
X797867Y1251311D01*
X797925Y1251330D01*
X797935Y1251340D01*
X797945D01*
X798032Y1251369D01*
X798130Y1251398D01*
X798335Y1251437D01*
X798549Y1251476D01*
X798754Y1251496D01*
X798949Y1251506D01*
X799027D01*
X799105Y1251515D01*
X802080D01*
Y1245107D01*
D02*
G37*
G36*
X790142Y1250764D02*
X788035D01*
Y1245107D01*
X787186D01*
Y1250764D01*
X785080D01*
Y1251515D01*
X790142D01*
Y1250764D01*
D02*
G37*
G36*
X793663Y1251613D02*
X793887Y1251584D01*
X794082Y1251554D01*
X794258Y1251515D01*
X794394Y1251467D01*
X794453Y1251447D01*
X794501Y1251437D01*
X794550Y1251418D01*
X794580Y1251408D01*
X794589Y1251398D01*
X794599D01*
X794784Y1251311D01*
X794950Y1251203D01*
X795087Y1251096D01*
X795194Y1250999D01*
X795282Y1250901D01*
X795350Y1250823D01*
X795389Y1250774D01*
X795399Y1250764D01*
Y1250755D01*
X795487Y1250599D01*
X795555Y1250433D01*
X795604Y1250286D01*
X795633Y1250140D01*
X795652Y1250023D01*
X795672Y1249935D01*
Y1249896D01*
Y1249867D01*
Y1249857D01*
Y1249847D01*
X795662Y1249691D01*
X795633Y1249535D01*
X795604Y1249399D01*
X795555Y1249282D01*
X795516Y1249184D01*
X795487Y1249116D01*
X795457Y1249067D01*
X795448Y1249048D01*
X795350Y1248921D01*
X795243Y1248804D01*
X795135Y1248706D01*
X795018Y1248619D01*
X794921Y1248550D01*
X794843Y1248502D01*
X794784Y1248463D01*
X794775Y1248453D01*
X794765D01*
X794697Y1248414D01*
X794609Y1248384D01*
X794424Y1248316D01*
X794219Y1248248D01*
X794014Y1248180D01*
X793829Y1248131D01*
X793751Y1248111D01*
X793682Y1248092D01*
X793624Y1248072D01*
X793575Y1248063D01*
X793546Y1248053D01*
X793536D01*
X793380Y1248014D01*
X793234Y1247975D01*
X793097Y1247946D01*
X792980Y1247916D01*
X792882Y1247887D01*
X792785Y1247858D01*
X792707Y1247838D01*
X792629Y1247819D01*
X792570Y1247799D01*
X792522Y1247780D01*
X792443Y1247760D01*
X792404Y1247750D01*
X792395Y1247741D01*
X792258Y1247682D01*
X792131Y1247614D01*
X792034Y1247555D01*
X791956Y1247497D01*
X791897Y1247438D01*
X791849Y1247399D01*
X791829Y1247370D01*
X791819Y1247360D01*
X791761Y1247273D01*
X791722Y1247185D01*
X791683Y1247097D01*
X791663Y1247009D01*
X791654Y1246941D01*
X791644Y1246882D01*
Y1246843D01*
Y1246834D01*
X791654Y1246726D01*
X791673Y1246629D01*
X791702Y1246531D01*
X791731Y1246453D01*
X791770Y1246385D01*
X791800Y1246336D01*
X791819Y1246297D01*
X791829Y1246288D01*
X791907Y1246200D01*
X791995Y1246122D01*
X792083Y1246053D01*
X792180Y1245995D01*
X792258Y1245946D01*
X792327Y1245917D01*
X792365Y1245897D01*
X792385Y1245888D01*
X792531Y1245839D01*
X792678Y1245809D01*
X792814Y1245780D01*
X792951Y1245770D01*
X793058Y1245761D01*
X793156Y1245751D01*
X793234D01*
X793429Y1245761D01*
X793614Y1245780D01*
X793790Y1245809D01*
X793926Y1245849D01*
X794053Y1245878D01*
X794141Y1245907D01*
X794199Y1245927D01*
X794209Y1245936D01*
X794219D01*
X794365Y1246014D01*
X794501Y1246092D01*
X794609Y1246180D01*
X794697Y1246258D01*
X794775Y1246327D01*
X794823Y1246385D01*
X794853Y1246424D01*
X794862Y1246434D01*
X794931Y1246561D01*
X794989Y1246687D01*
X795028Y1246824D01*
X795067Y1246951D01*
X795087Y1247068D01*
X795106Y1247156D01*
X795116Y1247214D01*
Y1247224D01*
Y1247234D01*
X795916Y1247165D01*
X795896Y1246931D01*
X795857Y1246717D01*
X795799Y1246512D01*
X795740Y1246346D01*
X795682Y1246200D01*
X795652Y1246141D01*
X795623Y1246092D01*
X795604Y1246053D01*
X795584Y1246024D01*
X795574Y1246014D01*
Y1246005D01*
X795438Y1245829D01*
X795282Y1245673D01*
X795135Y1245546D01*
X794979Y1245439D01*
X794853Y1245351D01*
X794745Y1245293D01*
X794706Y1245273D01*
X794677Y1245254D01*
X794658Y1245244D01*
X794648D01*
X794414Y1245166D01*
X794170Y1245107D01*
X793926Y1245059D01*
X793702Y1245029D01*
X793595Y1245020D01*
X793497Y1245010D01*
X793409D01*
X793341Y1245000D01*
X793195D01*
X792941Y1245010D01*
X792717Y1245039D01*
X792502Y1245078D01*
X792327Y1245127D01*
X792170Y1245166D01*
X792112Y1245185D01*
X792063Y1245205D01*
X792024Y1245224D01*
X791995Y1245234D01*
X791975Y1245244D01*
X791966D01*
X791770Y1245351D01*
X791595Y1245458D01*
X791449Y1245575D01*
X791332Y1245693D01*
X791234Y1245790D01*
X791176Y1245868D01*
X791127Y1245927D01*
X791117Y1245946D01*
X791020Y1246112D01*
X790951Y1246288D01*
X790893Y1246453D01*
X790863Y1246600D01*
X790844Y1246726D01*
X790824Y1246824D01*
Y1246863D01*
Y1246892D01*
Y1246902D01*
Y1246912D01*
X790834Y1247097D01*
X790863Y1247273D01*
X790912Y1247429D01*
X790961Y1247555D01*
X791010Y1247673D01*
X791059Y1247750D01*
X791088Y1247799D01*
X791097Y1247819D01*
X791205Y1247955D01*
X791332Y1248082D01*
X791468Y1248199D01*
X791605Y1248297D01*
X791731Y1248365D01*
X791829Y1248423D01*
X791868Y1248443D01*
X791888Y1248463D01*
X791907Y1248472D01*
X791917D01*
X791995Y1248502D01*
X792092Y1248541D01*
X792190Y1248580D01*
X792307Y1248609D01*
X792541Y1248677D01*
X792775Y1248745D01*
X792990Y1248794D01*
X793087Y1248823D01*
X793175Y1248843D01*
X793243Y1248862D01*
X793292Y1248872D01*
X793331Y1248882D01*
X793341D01*
X793526Y1248931D01*
X793692Y1248970D01*
X793838Y1249009D01*
X793975Y1249057D01*
X794092Y1249097D01*
X794189Y1249126D01*
X794277Y1249165D01*
X794355Y1249204D01*
X794424Y1249233D01*
X794482Y1249253D01*
X794521Y1249282D01*
X794550Y1249301D01*
X794599Y1249331D01*
X794609Y1249340D01*
X794687Y1249428D01*
X794745Y1249516D01*
X794794Y1249613D01*
X794823Y1249701D01*
X794843Y1249779D01*
X794853Y1249847D01*
Y1249887D01*
Y1249906D01*
X794833Y1250052D01*
X794794Y1250179D01*
X794745Y1250296D01*
X794677Y1250394D01*
X794619Y1250481D01*
X794560Y1250540D01*
X794521Y1250579D01*
X794511Y1250589D01*
X794443Y1250638D01*
X794365Y1250686D01*
X794189Y1250755D01*
X794004Y1250803D01*
X793819Y1250833D01*
X793653Y1250862D01*
X793575D01*
X793516Y1250872D01*
X793390D01*
X793126Y1250862D01*
X792902Y1250823D01*
X792707Y1250774D01*
X792551Y1250716D01*
X792434Y1250657D01*
X792346Y1250608D01*
X792297Y1250569D01*
X792278Y1250560D01*
X792151Y1250433D01*
X792044Y1250286D01*
X791966Y1250140D01*
X791907Y1249994D01*
X791868Y1249857D01*
X791849Y1249750D01*
X791839Y1249711D01*
X791829Y1249682D01*
Y1249662D01*
Y1249652D01*
X791020Y1249711D01*
X791039Y1249916D01*
X791078Y1250101D01*
X791136Y1250277D01*
X791195Y1250423D01*
X791244Y1250540D01*
X791293Y1250638D01*
X791332Y1250696D01*
X791341Y1250716D01*
X791458Y1250872D01*
X791595Y1251008D01*
X791731Y1251125D01*
X791868Y1251223D01*
X791995Y1251291D01*
X792092Y1251350D01*
X792131Y1251369D01*
X792161Y1251379D01*
X792170Y1251389D01*
X792180D01*
X792385Y1251467D01*
X792600Y1251525D01*
X792814Y1251564D01*
X793009Y1251593D01*
X793175Y1251613D01*
X793243D01*
X793312Y1251623D01*
X793429D01*
X793663Y1251613D01*
D02*
G37*
G36*
X774194D02*
X774438Y1251584D01*
X774663Y1251535D01*
X774867Y1251486D01*
X775063Y1251408D01*
X775248Y1251340D01*
X775414Y1251252D01*
X775570Y1251174D01*
X775706Y1251086D01*
X775823Y1250999D01*
X775921Y1250930D01*
X776009Y1250862D01*
X776077Y1250803D01*
X776126Y1250755D01*
X776155Y1250725D01*
X776165Y1250716D01*
X776311Y1250540D01*
X776448Y1250355D01*
X776555Y1250150D01*
X776652Y1249945D01*
X776740Y1249740D01*
X776808Y1249535D01*
X776857Y1249331D01*
X776906Y1249136D01*
X776945Y1248941D01*
X776965Y1248775D01*
X776984Y1248619D01*
X777004Y1248482D01*
Y1248375D01*
X777013Y1248287D01*
Y1248238D01*
Y1248219D01*
X776994Y1247907D01*
X776955Y1247614D01*
X776896Y1247341D01*
X776867Y1247224D01*
X776828Y1247107D01*
X776799Y1247000D01*
X776769Y1246902D01*
X776740Y1246824D01*
X776711Y1246756D01*
X776682Y1246697D01*
X776672Y1246658D01*
X776652Y1246629D01*
Y1246619D01*
X776496Y1246356D01*
X776331Y1246112D01*
X776145Y1245917D01*
X775970Y1245741D01*
X775814Y1245605D01*
X775745Y1245556D01*
X775687Y1245507D01*
X775638Y1245478D01*
X775599Y1245449D01*
X775580Y1245439D01*
X775570Y1245429D01*
X775433Y1245351D01*
X775297Y1245293D01*
X775014Y1245185D01*
X774741Y1245107D01*
X774497Y1245059D01*
X774380Y1245039D01*
X774273Y1245020D01*
X774185Y1245010D01*
X774107D01*
X774038Y1245000D01*
X773951D01*
X773648Y1245020D01*
X773356Y1245059D01*
X773092Y1245127D01*
X772868Y1245195D01*
X772761Y1245234D01*
X772673Y1245263D01*
X772595Y1245302D01*
X772527Y1245332D01*
X772468Y1245351D01*
X772429Y1245371D01*
X772410Y1245390D01*
X772400D01*
X772146Y1245556D01*
X771922Y1245741D01*
X771727Y1245936D01*
X771571Y1246122D01*
X771454Y1246288D01*
X771405Y1246366D01*
X771356Y1246424D01*
X771327Y1246482D01*
X771308Y1246522D01*
X771288Y1246541D01*
Y1246551D01*
X771151Y1246843D01*
X771054Y1247146D01*
X770986Y1247438D01*
X770937Y1247711D01*
X770917Y1247838D01*
X770908Y1247946D01*
X770898Y1248043D01*
Y1248131D01*
X770888Y1248199D01*
Y1248258D01*
Y1248287D01*
Y1248297D01*
X770908Y1248648D01*
X770947Y1248970D01*
X771005Y1249262D01*
X771044Y1249389D01*
X771073Y1249516D01*
X771112Y1249623D01*
X771151Y1249721D01*
X771181Y1249809D01*
X771210Y1249877D01*
X771229Y1249935D01*
X771249Y1249974D01*
X771268Y1250004D01*
Y1250013D01*
X771424Y1250286D01*
X771590Y1250520D01*
X771776Y1250725D01*
X771951Y1250891D01*
X772107Y1251018D01*
X772176Y1251077D01*
X772234Y1251115D01*
X772283Y1251154D01*
X772322Y1251174D01*
X772341Y1251193D01*
X772351D01*
X772488Y1251272D01*
X772624Y1251340D01*
X772897Y1251437D01*
X773170Y1251515D01*
X773414Y1251574D01*
X773531Y1251584D01*
X773629Y1251603D01*
X773726Y1251613D01*
X773804D01*
X773863Y1251623D01*
X773951D01*
X774194Y1251613D01*
D02*
G37*
G36*
X767240D02*
X767484Y1251584D01*
X767708Y1251535D01*
X767913Y1251486D01*
X768108Y1251408D01*
X768294Y1251340D01*
X768459Y1251252D01*
X768615Y1251174D01*
X768752Y1251086D01*
X768869Y1250999D01*
X768967Y1250930D01*
X769054Y1250862D01*
X769123Y1250803D01*
X769171Y1250755D01*
X769201Y1250725D01*
X769211Y1250716D01*
X769357Y1250540D01*
X769493Y1250355D01*
X769601Y1250150D01*
X769698Y1249945D01*
X769786Y1249740D01*
X769854Y1249535D01*
X769903Y1249331D01*
X769952Y1249136D01*
X769991Y1248941D01*
X770010Y1248775D01*
X770030Y1248619D01*
X770049Y1248482D01*
Y1248375D01*
X770059Y1248287D01*
Y1248238D01*
Y1248219D01*
X770040Y1247907D01*
X770001Y1247614D01*
X769942Y1247341D01*
X769913Y1247224D01*
X769874Y1247107D01*
X769844Y1247000D01*
X769815Y1246902D01*
X769786Y1246824D01*
X769757Y1246756D01*
X769727Y1246697D01*
X769718Y1246658D01*
X769698Y1246629D01*
Y1246619D01*
X769542Y1246356D01*
X769376Y1246112D01*
X769191Y1245917D01*
X769015Y1245741D01*
X768859Y1245605D01*
X768791Y1245556D01*
X768733Y1245507D01*
X768684Y1245478D01*
X768645Y1245449D01*
X768625Y1245439D01*
X768615Y1245429D01*
X768479Y1245351D01*
X768342Y1245293D01*
X768059Y1245185D01*
X767786Y1245107D01*
X767543Y1245059D01*
X767426Y1245039D01*
X767318Y1245020D01*
X767231Y1245010D01*
X767152D01*
X767084Y1245000D01*
X766996D01*
X766694Y1245020D01*
X766401Y1245059D01*
X766138Y1245127D01*
X765914Y1245195D01*
X765806Y1245234D01*
X765719Y1245263D01*
X765641Y1245302D01*
X765572Y1245332D01*
X765514Y1245351D01*
X765475Y1245371D01*
X765455Y1245390D01*
X765446D01*
X765192Y1245556D01*
X764968Y1245741D01*
X764773Y1245936D01*
X764616Y1246122D01*
X764500Y1246288D01*
X764451Y1246366D01*
X764402Y1246424D01*
X764373Y1246482D01*
X764353Y1246522D01*
X764334Y1246541D01*
Y1246551D01*
X764197Y1246843D01*
X764100Y1247146D01*
X764031Y1247438D01*
X763982Y1247711D01*
X763963Y1247838D01*
X763953Y1247946D01*
X763943Y1248043D01*
Y1248131D01*
X763934Y1248199D01*
Y1248258D01*
Y1248287D01*
Y1248297D01*
X763953Y1248648D01*
X763992Y1248970D01*
X764051Y1249262D01*
X764090Y1249389D01*
X764119Y1249516D01*
X764158Y1249623D01*
X764197Y1249721D01*
X764226Y1249809D01*
X764256Y1249877D01*
X764275Y1249935D01*
X764295Y1249974D01*
X764314Y1250004D01*
Y1250013D01*
X764470Y1250286D01*
X764636Y1250520D01*
X764821Y1250725D01*
X764997Y1250891D01*
X765153Y1251018D01*
X765221Y1251077D01*
X765280Y1251115D01*
X765329Y1251154D01*
X765368Y1251174D01*
X765387Y1251193D01*
X765397D01*
X765533Y1251272D01*
X765670Y1251340D01*
X765943Y1251437D01*
X766216Y1251515D01*
X766460Y1251574D01*
X766577Y1251584D01*
X766674Y1251603D01*
X766772Y1251613D01*
X766850D01*
X766909Y1251623D01*
X766996D01*
X767240Y1251613D01*
D02*
G37*
%LPC*%
G36*
X807113Y1259852D02*
X807045Y1259638D01*
X806976Y1259413D01*
X806898Y1259189D01*
X806820Y1258974D01*
X806762Y1258789D01*
X806732Y1258711D01*
X806703Y1258643D01*
X806684Y1258584D01*
X806664Y1258545D01*
X806655Y1258516D01*
Y1258506D01*
X805991Y1256741D01*
X808166D01*
X807464Y1258614D01*
X807386Y1258838D01*
X807318Y1259062D01*
X807259Y1259267D01*
X807210Y1259462D01*
X807171Y1259618D01*
X807152Y1259686D01*
X807132Y1259745D01*
X807123Y1259794D01*
Y1259823D01*
X807113Y1259842D01*
Y1259852D01*
D02*
G37*
G36*
X802470Y1259803D02*
X800451D01*
X800198Y1259794D01*
X799983Y1259755D01*
X799808Y1259716D01*
X799661Y1259657D01*
X799554Y1259608D01*
X799466Y1259560D01*
X799427Y1259520D01*
X799408Y1259511D01*
X799300Y1259394D01*
X799212Y1259267D01*
X799154Y1259140D01*
X799115Y1259023D01*
X799096Y1258916D01*
X799076Y1258838D01*
Y1258779D01*
Y1258770D01*
Y1258760D01*
X799086Y1258643D01*
X799105Y1258535D01*
X799135Y1258438D01*
X799164Y1258360D01*
X799193Y1258282D01*
X799222Y1258233D01*
X799242Y1258194D01*
X799251Y1258184D01*
X799320Y1258096D01*
X799398Y1258018D01*
X799486Y1257950D01*
X799564Y1257892D01*
X799632Y1257853D01*
X799690Y1257823D01*
X799730Y1257814D01*
X799749Y1257804D01*
X799876Y1257765D01*
X800022Y1257736D01*
X800178Y1257716D01*
X800324Y1257706D01*
X800451Y1257697D01*
X800558Y1257687D01*
X802470D01*
Y1259803D01*
D02*
G37*
G36*
X796023Y1259764D02*
X794687D01*
X794424Y1259755D01*
X794199Y1259745D01*
X794014Y1259725D01*
X793858Y1259696D01*
X793741Y1259667D01*
X793663Y1259647D01*
X793614Y1259638D01*
X793595Y1259628D01*
X793429Y1259540D01*
X793273Y1259433D01*
X793136Y1259316D01*
X793019Y1259189D01*
X792922Y1259082D01*
X792853Y1258984D01*
X792824Y1258945D01*
X792814Y1258916D01*
X792795Y1258906D01*
Y1258896D01*
X792736Y1258789D01*
X792687Y1258672D01*
X792600Y1258428D01*
X792541Y1258175D01*
X792502Y1257921D01*
X792492Y1257814D01*
X792483Y1257706D01*
X792473Y1257609D01*
X792463Y1257521D01*
Y1257453D01*
Y1257404D01*
Y1257365D01*
Y1257355D01*
X792473Y1257092D01*
X792492Y1256858D01*
X792522Y1256643D01*
X792551Y1256458D01*
X792580Y1256312D01*
X792600Y1256253D01*
X792609Y1256204D01*
X792619Y1256165D01*
X792629Y1256136D01*
X792639Y1256126D01*
Y1256116D01*
X792707Y1255941D01*
X792785Y1255775D01*
X792863Y1255639D01*
X792931Y1255522D01*
X792999Y1255434D01*
X793058Y1255366D01*
X793097Y1255317D01*
X793107Y1255307D01*
X793195Y1255229D01*
X793282Y1255161D01*
X793380Y1255112D01*
X793477Y1255063D01*
X793555Y1255024D01*
X793624Y1254995D01*
X793663Y1254985D01*
X793682Y1254975D01*
X793829Y1254936D01*
X793985Y1254907D01*
X794150Y1254888D01*
X794306Y1254878D01*
X794453Y1254868D01*
X794560Y1254858D01*
X796023D01*
Y1259764D01*
D02*
G37*
G36*
X756931Y1259852D02*
X756862Y1259638D01*
X756794Y1259413D01*
X756716Y1259189D01*
X756638Y1258974D01*
X756580Y1258789D01*
X756550Y1258711D01*
X756521Y1258643D01*
X756501Y1258584D01*
X756482Y1258545D01*
X756472Y1258516D01*
Y1258506D01*
X755809Y1256741D01*
X757984D01*
X757282Y1258614D01*
X757204Y1258838D01*
X757135Y1259062D01*
X757077Y1259267D01*
X757028Y1259462D01*
X756989Y1259618D01*
X756970Y1259686D01*
X756950Y1259745D01*
X756940Y1259794D01*
Y1259823D01*
X756931Y1259842D01*
Y1259852D01*
D02*
G37*
G36*
X772302Y1259891D02*
X772215D01*
X771981Y1259881D01*
X771766Y1259842D01*
X771571Y1259794D01*
X771405Y1259735D01*
X771268Y1259667D01*
X771161Y1259618D01*
X771122Y1259599D01*
X771093Y1259579D01*
X771083Y1259569D01*
X771073D01*
X770898Y1259443D01*
X770742Y1259296D01*
X770605Y1259140D01*
X770498Y1258994D01*
X770410Y1258867D01*
X770352Y1258760D01*
X770332Y1258721D01*
X770313Y1258691D01*
X770303Y1258672D01*
Y1258662D01*
X770215Y1258438D01*
X770147Y1258204D01*
X770098Y1257970D01*
X770059Y1257765D01*
X770040Y1257580D01*
Y1257492D01*
X770030Y1257423D01*
Y1257375D01*
Y1257336D01*
Y1257307D01*
Y1257297D01*
X770040Y1257072D01*
X770059Y1256858D01*
X770088Y1256663D01*
X770127Y1256477D01*
X770176Y1256302D01*
X770225Y1256146D01*
X770283Y1256009D01*
X770342Y1255873D01*
X770400Y1255765D01*
X770459Y1255668D01*
X770508Y1255580D01*
X770556Y1255512D01*
X770595Y1255453D01*
X770625Y1255414D01*
X770644Y1255395D01*
X770654Y1255385D01*
X770771Y1255268D01*
X770898Y1255170D01*
X771025Y1255083D01*
X771161Y1255005D01*
X771288Y1254936D01*
X771424Y1254888D01*
X771668Y1254810D01*
X771785Y1254780D01*
X771893Y1254761D01*
X771981Y1254741D01*
X772068Y1254732D01*
X772137Y1254722D01*
X772224D01*
X772400Y1254732D01*
X772556Y1254751D01*
X772712Y1254780D01*
X772858Y1254829D01*
X773005Y1254878D01*
X773131Y1254936D01*
X773248Y1254995D01*
X773356Y1255053D01*
X773453Y1255112D01*
X773541Y1255180D01*
X773609Y1255229D01*
X773668Y1255278D01*
X773717Y1255327D01*
X773756Y1255356D01*
X773775Y1255375D01*
X773785Y1255385D01*
X773892Y1255512D01*
X773990Y1255658D01*
X774068Y1255804D01*
X774136Y1255951D01*
X774194Y1256107D01*
X774253Y1256253D01*
X774321Y1256546D01*
X774351Y1256682D01*
X774370Y1256809D01*
X774380Y1256916D01*
X774390Y1257014D01*
X774399Y1257102D01*
Y1257160D01*
Y1257199D01*
Y1257209D01*
X774390Y1257472D01*
X774370Y1257716D01*
X774341Y1257931D01*
X774302Y1258136D01*
X774253Y1258331D01*
X774194Y1258496D01*
X774136Y1258643D01*
X774078Y1258779D01*
X774019Y1258896D01*
X773960Y1258994D01*
X773902Y1259082D01*
X773853Y1259150D01*
X773814Y1259199D01*
X773785Y1259238D01*
X773765Y1259257D01*
X773756Y1259267D01*
X773629Y1259374D01*
X773502Y1259472D01*
X773375Y1259560D01*
X773239Y1259628D01*
X773112Y1259686D01*
X772985Y1259735D01*
X772741Y1259813D01*
X772634Y1259842D01*
X772536Y1259862D01*
X772439Y1259872D01*
X772361Y1259881D01*
X772302Y1259891D01*
D02*
G37*
G36*
X743978D02*
X743890D01*
X743656Y1259881D01*
X743441Y1259842D01*
X743246Y1259794D01*
X743081Y1259735D01*
X742944Y1259667D01*
X742837Y1259618D01*
X742798Y1259599D01*
X742768Y1259579D01*
X742759Y1259569D01*
X742749D01*
X742573Y1259443D01*
X742417Y1259296D01*
X742281Y1259140D01*
X742173Y1258994D01*
X742086Y1258867D01*
X742027Y1258760D01*
X742008Y1258721D01*
X741988Y1258691D01*
X741978Y1258672D01*
Y1258662D01*
X741891Y1258438D01*
X741822Y1258204D01*
X741774Y1257970D01*
X741735Y1257765D01*
X741715Y1257580D01*
Y1257492D01*
X741705Y1257423D01*
Y1257375D01*
Y1257336D01*
Y1257307D01*
Y1257297D01*
X741715Y1257072D01*
X741735Y1256858D01*
X741764Y1256663D01*
X741803Y1256477D01*
X741852Y1256302D01*
X741900Y1256146D01*
X741959Y1256009D01*
X742017Y1255873D01*
X742076Y1255765D01*
X742134Y1255668D01*
X742183Y1255580D01*
X742232Y1255512D01*
X742271Y1255453D01*
X742300Y1255414D01*
X742320Y1255395D01*
X742329Y1255385D01*
X742447Y1255268D01*
X742573Y1255170D01*
X742700Y1255083D01*
X742837Y1255005D01*
X742963Y1254936D01*
X743100Y1254888D01*
X743344Y1254810D01*
X743461Y1254780D01*
X743568Y1254761D01*
X743656Y1254741D01*
X743744Y1254732D01*
X743812Y1254722D01*
X743900D01*
X744075Y1254732D01*
X744231Y1254751D01*
X744388Y1254780D01*
X744534Y1254829D01*
X744680Y1254878D01*
X744807Y1254936D01*
X744924Y1254995D01*
X745031Y1255053D01*
X745129Y1255112D01*
X745217Y1255180D01*
X745285Y1255229D01*
X745343Y1255278D01*
X745392Y1255327D01*
X745431Y1255356D01*
X745451Y1255375D01*
X745460Y1255385D01*
X745568Y1255512D01*
X745665Y1255658D01*
X745743Y1255804D01*
X745812Y1255951D01*
X745870Y1256107D01*
X745929Y1256253D01*
X745997Y1256546D01*
X746026Y1256682D01*
X746046Y1256809D01*
X746055Y1256916D01*
X746065Y1257014D01*
X746075Y1257102D01*
Y1257160D01*
Y1257199D01*
Y1257209D01*
X746065Y1257472D01*
X746046Y1257716D01*
X746016Y1257931D01*
X745977Y1258136D01*
X745929Y1258331D01*
X745870Y1258496D01*
X745812Y1258643D01*
X745753Y1258779D01*
X745695Y1258896D01*
X745636Y1258994D01*
X745577Y1259082D01*
X745529Y1259150D01*
X745490Y1259199D01*
X745460Y1259238D01*
X745441Y1259257D01*
X745431Y1259267D01*
X745304Y1259374D01*
X745178Y1259472D01*
X745051Y1259560D01*
X744914Y1259628D01*
X744787Y1259686D01*
X744661Y1259735D01*
X744417Y1259813D01*
X744309Y1259842D01*
X744212Y1259862D01*
X744114Y1259872D01*
X744036Y1259881D01*
X743978Y1259891D01*
D02*
G37*
G36*
X801232Y1250803D02*
X799212D01*
X798959Y1250794D01*
X798744Y1250755D01*
X798569Y1250716D01*
X798422Y1250657D01*
X798315Y1250608D01*
X798227Y1250560D01*
X798188Y1250520D01*
X798169Y1250511D01*
X798062Y1250394D01*
X797974Y1250267D01*
X797915Y1250140D01*
X797876Y1250023D01*
X797857Y1249916D01*
X797837Y1249838D01*
Y1249779D01*
Y1249770D01*
Y1249760D01*
X797847Y1249643D01*
X797867Y1249535D01*
X797896Y1249438D01*
X797925Y1249360D01*
X797954Y1249282D01*
X797984Y1249233D01*
X798003Y1249194D01*
X798013Y1249184D01*
X798081Y1249097D01*
X798159Y1249018D01*
X798247Y1248950D01*
X798325Y1248892D01*
X798393Y1248853D01*
X798452Y1248823D01*
X798491Y1248814D01*
X798510Y1248804D01*
X798637Y1248765D01*
X798783Y1248736D01*
X798939Y1248716D01*
X799086Y1248706D01*
X799212Y1248697D01*
X799320Y1248687D01*
X801232D01*
Y1250803D01*
D02*
G37*
G36*
X774038Y1250891D02*
X773951D01*
X773717Y1250881D01*
X773502Y1250842D01*
X773307Y1250794D01*
X773141Y1250735D01*
X773005Y1250667D01*
X772897Y1250618D01*
X772858Y1250599D01*
X772829Y1250579D01*
X772819Y1250569D01*
X772810D01*
X772634Y1250443D01*
X772478Y1250296D01*
X772341Y1250140D01*
X772234Y1249994D01*
X772146Y1249867D01*
X772088Y1249760D01*
X772068Y1249721D01*
X772049Y1249691D01*
X772039Y1249672D01*
Y1249662D01*
X771951Y1249438D01*
X771883Y1249204D01*
X771834Y1248970D01*
X771795Y1248765D01*
X771776Y1248580D01*
Y1248492D01*
X771766Y1248423D01*
Y1248375D01*
Y1248336D01*
Y1248307D01*
Y1248297D01*
X771776Y1248072D01*
X771795Y1247858D01*
X771824Y1247663D01*
X771863Y1247477D01*
X771912Y1247302D01*
X771961Y1247146D01*
X772020Y1247009D01*
X772078Y1246873D01*
X772137Y1246765D01*
X772195Y1246668D01*
X772244Y1246580D01*
X772293Y1246512D01*
X772332Y1246453D01*
X772361Y1246414D01*
X772380Y1246395D01*
X772390Y1246385D01*
X772507Y1246268D01*
X772634Y1246170D01*
X772761Y1246083D01*
X772897Y1246005D01*
X773024Y1245936D01*
X773161Y1245888D01*
X773404Y1245809D01*
X773521Y1245780D01*
X773629Y1245761D01*
X773717Y1245741D01*
X773804Y1245732D01*
X773873Y1245722D01*
X773960D01*
X774136Y1245732D01*
X774292Y1245751D01*
X774448Y1245780D01*
X774594Y1245829D01*
X774741Y1245878D01*
X774867Y1245936D01*
X774985Y1245995D01*
X775092Y1246053D01*
X775189Y1246112D01*
X775277Y1246180D01*
X775346Y1246229D01*
X775404Y1246278D01*
X775453Y1246327D01*
X775492Y1246356D01*
X775511Y1246375D01*
X775521Y1246385D01*
X775628Y1246512D01*
X775726Y1246658D01*
X775804Y1246804D01*
X775872Y1246951D01*
X775931Y1247107D01*
X775989Y1247253D01*
X776058Y1247546D01*
X776087Y1247682D01*
X776106Y1247809D01*
X776116Y1247916D01*
X776126Y1248014D01*
X776135Y1248102D01*
Y1248160D01*
Y1248199D01*
Y1248209D01*
X776126Y1248472D01*
X776106Y1248716D01*
X776077Y1248931D01*
X776038Y1249136D01*
X775989Y1249331D01*
X775931Y1249496D01*
X775872Y1249643D01*
X775814Y1249779D01*
X775755Y1249896D01*
X775697Y1249994D01*
X775638Y1250082D01*
X775589Y1250150D01*
X775550Y1250199D01*
X775521Y1250238D01*
X775501Y1250257D01*
X775492Y1250267D01*
X775365Y1250374D01*
X775238Y1250472D01*
X775111Y1250560D01*
X774975Y1250628D01*
X774848Y1250686D01*
X774721Y1250735D01*
X774477Y1250813D01*
X774370Y1250842D01*
X774273Y1250862D01*
X774175Y1250872D01*
X774097Y1250881D01*
X774038Y1250891D01*
D02*
G37*
G36*
X767084D02*
X766996D01*
X766762Y1250881D01*
X766548Y1250842D01*
X766353Y1250794D01*
X766187Y1250735D01*
X766050Y1250667D01*
X765943Y1250618D01*
X765904Y1250599D01*
X765875Y1250579D01*
X765865Y1250569D01*
X765855D01*
X765680Y1250443D01*
X765524Y1250296D01*
X765387Y1250140D01*
X765280Y1249994D01*
X765192Y1249867D01*
X765133Y1249760D01*
X765114Y1249721D01*
X765094Y1249691D01*
X765085Y1249672D01*
Y1249662D01*
X764997Y1249438D01*
X764929Y1249204D01*
X764880Y1248970D01*
X764841Y1248765D01*
X764821Y1248580D01*
Y1248492D01*
X764812Y1248423D01*
Y1248375D01*
Y1248336D01*
Y1248307D01*
Y1248297D01*
X764821Y1248072D01*
X764841Y1247858D01*
X764870Y1247663D01*
X764909Y1247477D01*
X764958Y1247302D01*
X765007Y1247146D01*
X765065Y1247009D01*
X765124Y1246873D01*
X765182Y1246765D01*
X765241Y1246668D01*
X765290Y1246580D01*
X765338Y1246512D01*
X765377Y1246453D01*
X765406Y1246414D01*
X765426Y1246395D01*
X765436Y1246385D01*
X765553Y1246268D01*
X765680Y1246170D01*
X765806Y1246083D01*
X765943Y1246005D01*
X766070Y1245936D01*
X766206Y1245888D01*
X766450Y1245809D01*
X766567Y1245780D01*
X766674Y1245761D01*
X766762Y1245741D01*
X766850Y1245732D01*
X766918Y1245722D01*
X767006D01*
X767182Y1245732D01*
X767338Y1245751D01*
X767494Y1245780D01*
X767640Y1245829D01*
X767786Y1245878D01*
X767913Y1245936D01*
X768030Y1245995D01*
X768138Y1246053D01*
X768235Y1246112D01*
X768323Y1246180D01*
X768391Y1246229D01*
X768450Y1246278D01*
X768498Y1246327D01*
X768538Y1246356D01*
X768557Y1246375D01*
X768567Y1246385D01*
X768674Y1246512D01*
X768772Y1246658D01*
X768850Y1246804D01*
X768918Y1246951D01*
X768976Y1247107D01*
X769035Y1247253D01*
X769103Y1247546D01*
X769132Y1247682D01*
X769152Y1247809D01*
X769162Y1247916D01*
X769171Y1248014D01*
X769181Y1248102D01*
Y1248160D01*
Y1248199D01*
Y1248209D01*
X769171Y1248472D01*
X769152Y1248716D01*
X769123Y1248931D01*
X769084Y1249136D01*
X769035Y1249331D01*
X768976Y1249496D01*
X768918Y1249643D01*
X768859Y1249779D01*
X768801Y1249896D01*
X768742Y1249994D01*
X768684Y1250082D01*
X768635Y1250150D01*
X768596Y1250199D01*
X768567Y1250238D01*
X768547Y1250257D01*
X768538Y1250267D01*
X768411Y1250374D01*
X768284Y1250472D01*
X768157Y1250560D01*
X768020Y1250628D01*
X767894Y1250686D01*
X767767Y1250735D01*
X767523Y1250813D01*
X767416Y1250842D01*
X767318Y1250862D01*
X767221Y1250872D01*
X767143Y1250881D01*
X767084Y1250891D01*
D02*
G37*
%LPD*%
M02*
