G04*
G04 #@! TF.GenerationSoftware,Altium Limited,Altium Designer,22.8.2 (66)*
G04*
G04 Layer_Color=16711935*
%FSLAX44Y44*%
%MOMM*%
G71*
G04*
G04 #@! TF.SameCoordinates,52C54432-6914-4BE2-A169-96465BD4BA84*
G04*
G04*
G04 #@! TF.FilePolarity,Positive*
G04*
G01*
G75*
%ADD32C,0.2540*%
%ADD41C,0.0762*%
D32*
X1887370Y1014040D02*
Y1169040D01*
X1678370Y1014040D02*
Y1169040D01*
Y1014040D02*
X1887370D01*
X1678370Y1169040D02*
X1887370D01*
X1545000Y1023000D02*
Y1052000D01*
X1389000Y1023000D02*
Y1052000D01*
Y1023000D02*
X1545000D01*
X1389000Y1052000D02*
X1545000D01*
D41*
X1321822Y988000D02*
X1780000D01*
X1321822Y1250000D02*
X1780000D01*
Y988000D02*
Y1250000D01*
X1321822Y988000D02*
Y1250000D01*
X1497038Y1142819D02*
Y1245689D01*
X1396708Y1142819D02*
Y1245689D01*
Y1142819D02*
X1497038D01*
X1396708Y1245689D02*
X1497038D01*
X1735510Y1215266D02*
Y1236602D01*
X1690552Y1215266D02*
Y1236602D01*
Y1215266D02*
X1735510D01*
X1690552Y1236602D02*
X1735510D01*
X1737510Y1187266D02*
Y1208602D01*
X1692552Y1187266D02*
Y1208602D01*
Y1187266D02*
X1737510D01*
X1692552Y1208602D02*
X1737510D01*
X1364398Y1192510D02*
X1385734D01*
X1364398Y1147552D02*
X1385734D01*
Y1192510D01*
X1364398Y1147552D02*
Y1192510D01*
X1513398Y1190510D02*
X1534734D01*
X1513398Y1145552D02*
X1534734D01*
Y1190510D01*
X1513398Y1145552D02*
Y1190510D01*
X1522000Y1100000D02*
X1536000D01*
X1522000Y1126000D02*
X1536000D01*
X1522000Y1100000D02*
Y1126000D01*
X1536000Y1100000D02*
Y1126000D01*
X1522490Y1057398D02*
Y1078734D01*
X1567448Y1057398D02*
Y1078734D01*
X1522490D02*
X1567448D01*
X1522490Y1057398D02*
X1567448D01*
X1467000Y1074000D02*
Y1088000D01*
X1441000Y1074000D02*
Y1088000D01*
Y1074000D02*
X1467000D01*
X1441000Y1088000D02*
X1467000D01*
X1517000Y1074000D02*
Y1088000D01*
X1491000Y1074000D02*
Y1088000D01*
Y1074000D02*
X1517000D01*
X1491000Y1088000D02*
X1517000D01*
X1540000Y1127000D02*
X1554000D01*
X1540000Y1098000D02*
X1554000D01*
Y1127000D01*
X1540000Y1098000D02*
Y1127000D01*
X1419000Y1091000D02*
X1433000D01*
X1419000Y1062000D02*
X1433000D01*
Y1091000D01*
X1419000Y1062000D02*
Y1091000D01*
X1490000Y1090000D02*
X1504000D01*
X1490000Y1119000D02*
X1504000D01*
X1490000Y1090000D02*
Y1119000D01*
X1504000Y1090000D02*
Y1119000D01*
X1488000Y1105000D02*
Y1119000D01*
X1459000Y1105000D02*
Y1119000D01*
Y1105000D02*
X1488000D01*
X1459000Y1119000D02*
X1488000D01*
X1600630Y1033418D02*
Y1054754D01*
X1645588Y1033418D02*
Y1054754D01*
X1600630D02*
X1645588D01*
X1600630Y1033418D02*
X1645588D01*
X1600630Y1058818D02*
Y1080154D01*
X1645588Y1058818D02*
Y1080154D01*
X1600630D02*
X1645588D01*
X1600630Y1058818D02*
X1645588D01*
M02*
