G04*
G04 #@! TF.GenerationSoftware,Altium Limited,Altium Designer,22.8.2 (66)*
G04*
G04 Layer_Color=65535*
%FSLAX44Y44*%
%MOMM*%
G71*
G04*
G04 #@! TF.SameCoordinates,52C54432-6914-4BE2-A169-96465BD4BA84*
G04*
G04*
G04 #@! TF.FilePolarity,Positive*
G04*
G01*
G75*
%ADD10C,0.1000*%
G36*
X1381902Y1230537D02*
Y1230527D01*
Y1230498D01*
Y1230449D01*
Y1230381D01*
X1381893Y1230293D01*
Y1230205D01*
X1381883Y1230098D01*
X1381873Y1229981D01*
X1381844Y1229737D01*
X1381805Y1229483D01*
X1381756Y1229230D01*
X1381678Y1229005D01*
Y1228996D01*
X1381668Y1228976D01*
X1381659Y1228947D01*
X1381639Y1228908D01*
X1381581Y1228810D01*
X1381503Y1228674D01*
X1381395Y1228528D01*
X1381259Y1228371D01*
X1381083Y1228225D01*
X1380888Y1228079D01*
X1380878D01*
X1380859Y1228059D01*
X1380830Y1228049D01*
X1380781Y1228020D01*
X1380732Y1228001D01*
X1380664Y1227971D01*
X1380576Y1227933D01*
X1380488Y1227903D01*
X1380391Y1227874D01*
X1380274Y1227835D01*
X1380157Y1227806D01*
X1380020Y1227786D01*
X1379727Y1227747D01*
X1379396Y1227728D01*
X1379308D01*
X1379250Y1227737D01*
X1379171D01*
X1379084Y1227747D01*
X1378986Y1227757D01*
X1378879Y1227767D01*
X1378645Y1227806D01*
X1378401Y1227855D01*
X1378147Y1227933D01*
X1377923Y1228030D01*
X1377913D01*
X1377894Y1228049D01*
X1377874Y1228059D01*
X1377835Y1228089D01*
X1377728Y1228157D01*
X1377611Y1228264D01*
X1377474Y1228391D01*
X1377348Y1228537D01*
X1377221Y1228723D01*
X1377113Y1228927D01*
Y1228937D01*
X1377104Y1228957D01*
X1377094Y1228986D01*
X1377074Y1229035D01*
X1377055Y1229093D01*
X1377035Y1229171D01*
X1377016Y1229259D01*
X1376996Y1229357D01*
X1376967Y1229464D01*
X1376948Y1229581D01*
X1376928Y1229717D01*
X1376909Y1229854D01*
X1376889Y1230010D01*
X1376879Y1230176D01*
X1376870Y1230351D01*
Y1230537D01*
Y1234243D01*
X1377718D01*
Y1230537D01*
Y1230527D01*
Y1230498D01*
Y1230459D01*
Y1230400D01*
Y1230332D01*
X1377728Y1230254D01*
X1377738Y1230069D01*
X1377757Y1229874D01*
X1377777Y1229669D01*
X1377816Y1229474D01*
X1377835Y1229386D01*
X1377865Y1229308D01*
X1377874Y1229288D01*
X1377894Y1229240D01*
X1377933Y1229171D01*
X1377991Y1229083D01*
X1378060Y1228986D01*
X1378157Y1228879D01*
X1378264Y1228781D01*
X1378401Y1228693D01*
X1378420Y1228683D01*
X1378469Y1228664D01*
X1378547Y1228625D01*
X1378654Y1228596D01*
X1378791Y1228557D01*
X1378947Y1228518D01*
X1379123Y1228498D01*
X1379318Y1228488D01*
X1379406D01*
X1379474Y1228498D01*
X1379552D01*
X1379640Y1228508D01*
X1379835Y1228537D01*
X1380059Y1228596D01*
X1380274Y1228664D01*
X1380478Y1228771D01*
X1380576Y1228830D01*
X1380654Y1228908D01*
Y1228918D01*
X1380674Y1228927D01*
X1380693Y1228957D01*
X1380712Y1228996D01*
X1380751Y1229044D01*
X1380781Y1229103D01*
X1380820Y1229181D01*
X1380859Y1229269D01*
X1380888Y1229376D01*
X1380927Y1229493D01*
X1380966Y1229620D01*
X1380995Y1229776D01*
X1381015Y1229942D01*
X1381034Y1230117D01*
X1381054Y1230322D01*
Y1230537D01*
Y1234243D01*
X1381902D01*
Y1230537D01*
D02*
G37*
G36*
X1385267Y1234263D02*
X1385345Y1234253D01*
X1385433Y1234243D01*
X1385531Y1234233D01*
X1385638Y1234204D01*
X1385872Y1234146D01*
X1386116Y1234058D01*
X1386243Y1233999D01*
X1386360Y1233931D01*
X1386467Y1233843D01*
X1386574Y1233755D01*
X1386584Y1233746D01*
X1386594Y1233736D01*
X1386623Y1233707D01*
X1386662Y1233668D01*
X1386701Y1233609D01*
X1386750Y1233551D01*
X1386848Y1233404D01*
X1386945Y1233219D01*
X1387033Y1233004D01*
X1387101Y1232760D01*
X1387111Y1232624D01*
X1387121Y1232487D01*
Y1232468D01*
Y1232419D01*
X1387111Y1232341D01*
X1387101Y1232244D01*
X1387082Y1232126D01*
X1387052Y1232000D01*
X1387013Y1231863D01*
X1386955Y1231727D01*
X1386945Y1231707D01*
X1386926Y1231658D01*
X1386887Y1231590D01*
X1386828Y1231493D01*
X1386760Y1231376D01*
X1386672Y1231239D01*
X1386555Y1231102D01*
X1386428Y1230946D01*
X1386409Y1230927D01*
X1386360Y1230868D01*
X1386272Y1230780D01*
X1386214Y1230722D01*
X1386145Y1230654D01*
X1386067Y1230576D01*
X1385970Y1230488D01*
X1385872Y1230400D01*
X1385765Y1230293D01*
X1385648Y1230186D01*
X1385511Y1230069D01*
X1385375Y1229951D01*
X1385219Y1229815D01*
X1385209Y1229805D01*
X1385189Y1229786D01*
X1385150Y1229756D01*
X1385102Y1229717D01*
X1384985Y1229620D01*
X1384838Y1229493D01*
X1384692Y1229357D01*
X1384536Y1229220D01*
X1384409Y1229103D01*
X1384360Y1229054D01*
X1384312Y1229005D01*
X1384302Y1228996D01*
X1384282Y1228966D01*
X1384243Y1228927D01*
X1384195Y1228869D01*
X1384087Y1228742D01*
X1383980Y1228586D01*
X1387130D01*
Y1227835D01*
X1382888D01*
Y1227845D01*
Y1227884D01*
Y1227942D01*
X1382897Y1228010D01*
X1382907Y1228089D01*
X1382917Y1228176D01*
X1382946Y1228274D01*
X1382975Y1228371D01*
Y1228381D01*
X1382985Y1228391D01*
X1383005Y1228449D01*
X1383044Y1228528D01*
X1383102Y1228644D01*
X1383170Y1228771D01*
X1383268Y1228918D01*
X1383365Y1229064D01*
X1383492Y1229220D01*
Y1229230D01*
X1383512Y1229240D01*
X1383561Y1229298D01*
X1383639Y1229386D01*
X1383756Y1229503D01*
X1383902Y1229639D01*
X1384077Y1229805D01*
X1384292Y1229990D01*
X1384526Y1230195D01*
X1384536Y1230205D01*
X1384575Y1230234D01*
X1384624Y1230273D01*
X1384692Y1230342D01*
X1384780Y1230410D01*
X1384877Y1230498D01*
X1385092Y1230683D01*
X1385326Y1230907D01*
X1385560Y1231132D01*
X1385677Y1231239D01*
X1385775Y1231346D01*
X1385862Y1231453D01*
X1385941Y1231551D01*
Y1231561D01*
X1385960Y1231571D01*
X1385979Y1231600D01*
X1385999Y1231639D01*
X1386057Y1231736D01*
X1386126Y1231863D01*
X1386194Y1232010D01*
X1386253Y1232166D01*
X1386292Y1232341D01*
X1386311Y1232507D01*
Y1232517D01*
Y1232526D01*
X1386301Y1232585D01*
X1386292Y1232673D01*
X1386272Y1232780D01*
X1386223Y1232907D01*
X1386165Y1233034D01*
X1386087Y1233170D01*
X1385970Y1233297D01*
X1385950Y1233307D01*
X1385911Y1233346D01*
X1385833Y1233394D01*
X1385736Y1233463D01*
X1385609Y1233521D01*
X1385462Y1233570D01*
X1385287Y1233609D01*
X1385092Y1233619D01*
X1385033D01*
X1384994Y1233609D01*
X1384897Y1233599D01*
X1384770Y1233580D01*
X1384624Y1233531D01*
X1384468Y1233473D01*
X1384321Y1233385D01*
X1384185Y1233268D01*
X1384175Y1233248D01*
X1384136Y1233209D01*
X1384077Y1233131D01*
X1384019Y1233024D01*
X1383951Y1232887D01*
X1383902Y1232731D01*
X1383863Y1232546D01*
X1383843Y1232331D01*
X1383034Y1232419D01*
Y1232429D01*
Y1232458D01*
X1383044Y1232507D01*
X1383053Y1232566D01*
X1383073Y1232644D01*
X1383083Y1232731D01*
X1383141Y1232926D01*
X1383219Y1233151D01*
X1383327Y1233375D01*
X1383473Y1233599D01*
X1383551Y1233697D01*
X1383648Y1233794D01*
X1383658Y1233804D01*
X1383678Y1233814D01*
X1383707Y1233843D01*
X1383746Y1233872D01*
X1383804Y1233902D01*
X1383873Y1233951D01*
X1383951Y1233989D01*
X1384039Y1234038D01*
X1384136Y1234077D01*
X1384243Y1234126D01*
X1384370Y1234165D01*
X1384497Y1234194D01*
X1384789Y1234253D01*
X1384946Y1234263D01*
X1385111Y1234272D01*
X1385199D01*
X1385267Y1234263D01*
D02*
G37*
G36*
X1761121Y1000377D02*
Y1000367D01*
Y1000338D01*
Y1000289D01*
Y1000221D01*
X1761111Y1000133D01*
Y1000045D01*
X1761101Y999938D01*
X1761091Y999821D01*
X1761062Y999577D01*
X1761023Y999324D01*
X1760974Y999070D01*
X1760896Y998846D01*
Y998836D01*
X1760887Y998817D01*
X1760877Y998787D01*
X1760857Y998748D01*
X1760799Y998651D01*
X1760721Y998514D01*
X1760614Y998368D01*
X1760477Y998212D01*
X1760302Y998066D01*
X1760106Y997919D01*
X1760097D01*
X1760077Y997900D01*
X1760048Y997890D01*
X1759999Y997861D01*
X1759950Y997841D01*
X1759882Y997812D01*
X1759794Y997773D01*
X1759707Y997744D01*
X1759609Y997714D01*
X1759492Y997675D01*
X1759375Y997646D01*
X1759238Y997627D01*
X1758946Y997588D01*
X1758614Y997568D01*
X1758526D01*
X1758468Y997578D01*
X1758390D01*
X1758302Y997588D01*
X1758204Y997597D01*
X1758097Y997607D01*
X1757863Y997646D01*
X1757619Y997695D01*
X1757366Y997773D01*
X1757141Y997870D01*
X1757132D01*
X1757112Y997890D01*
X1757092Y997900D01*
X1757054Y997929D01*
X1756946Y997997D01*
X1756829Y998105D01*
X1756693Y998231D01*
X1756566Y998378D01*
X1756439Y998563D01*
X1756332Y998768D01*
Y998778D01*
X1756322Y998797D01*
X1756312Y998826D01*
X1756293Y998875D01*
X1756273Y998934D01*
X1756254Y999012D01*
X1756234Y999099D01*
X1756215Y999197D01*
X1756185Y999304D01*
X1756166Y999421D01*
X1756146Y999558D01*
X1756127Y999694D01*
X1756107Y999850D01*
X1756098Y1000016D01*
X1756088Y1000192D01*
Y1000377D01*
Y1004083D01*
X1756936D01*
Y1000377D01*
Y1000367D01*
Y1000338D01*
Y1000299D01*
Y1000241D01*
Y1000172D01*
X1756946Y1000094D01*
X1756956Y999909D01*
X1756976Y999714D01*
X1756995Y999509D01*
X1757034Y999314D01*
X1757054Y999226D01*
X1757083Y999148D01*
X1757092Y999129D01*
X1757112Y999080D01*
X1757151Y999012D01*
X1757210Y998924D01*
X1757278Y998826D01*
X1757375Y998719D01*
X1757483Y998622D01*
X1757619Y998534D01*
X1757639Y998524D01*
X1757688Y998504D01*
X1757766Y998465D01*
X1757873Y998436D01*
X1758009Y998397D01*
X1758165Y998358D01*
X1758341Y998339D01*
X1758536Y998329D01*
X1758624D01*
X1758692Y998339D01*
X1758770D01*
X1758858Y998348D01*
X1759053Y998378D01*
X1759277Y998436D01*
X1759492Y998504D01*
X1759697Y998612D01*
X1759794Y998670D01*
X1759872Y998748D01*
Y998758D01*
X1759892Y998768D01*
X1759911Y998797D01*
X1759931Y998836D01*
X1759970Y998885D01*
X1759999Y998943D01*
X1760038Y999021D01*
X1760077Y999109D01*
X1760106Y999217D01*
X1760145Y999333D01*
X1760184Y999460D01*
X1760214Y999616D01*
X1760233Y999782D01*
X1760253Y999958D01*
X1760272Y1000163D01*
Y1000377D01*
Y1004083D01*
X1761121D01*
Y1000377D01*
D02*
G37*
G36*
X1765178Y997675D02*
X1764388D01*
Y1002689D01*
X1764379Y1002679D01*
X1764339Y1002640D01*
X1764271Y1002591D01*
X1764183Y1002523D01*
X1764076Y1002435D01*
X1763949Y1002347D01*
X1763803Y1002240D01*
X1763637Y1002143D01*
X1763627D01*
X1763618Y1002133D01*
X1763559Y1002094D01*
X1763471Y1002045D01*
X1763364Y1001986D01*
X1763237Y1001918D01*
X1763101Y1001860D01*
X1762955Y1001791D01*
X1762818Y1001733D01*
Y1002504D01*
X1762828D01*
X1762847Y1002513D01*
X1762886Y1002533D01*
X1762925Y1002562D01*
X1762984Y1002591D01*
X1763052Y1002620D01*
X1763208Y1002708D01*
X1763384Y1002816D01*
X1763579Y1002942D01*
X1763774Y1003089D01*
X1763959Y1003245D01*
X1763969Y1003254D01*
X1763979Y1003264D01*
X1764037Y1003323D01*
X1764125Y1003410D01*
X1764232Y1003518D01*
X1764349Y1003654D01*
X1764466Y1003801D01*
X1764574Y1003957D01*
X1764661Y1004113D01*
X1765178D01*
Y997675D01*
D02*
G37*
G36*
X1478206Y1093769D02*
X1479074D01*
Y1093047D01*
X1478206D01*
Y1091516D01*
X1477416D01*
Y1093047D01*
X1474637D01*
Y1093769D01*
X1477563Y1097914D01*
X1478206D01*
Y1093769D01*
D02*
G37*
G36*
X1471828Y1097914D02*
X1471906D01*
X1472101Y1097904D01*
X1472305Y1097885D01*
X1472520Y1097846D01*
X1472725Y1097807D01*
X1472822Y1097777D01*
X1472910Y1097748D01*
X1472920D01*
X1472930Y1097738D01*
X1472988Y1097719D01*
X1473066Y1097670D01*
X1473164Y1097602D01*
X1473281Y1097524D01*
X1473398Y1097416D01*
X1473515Y1097290D01*
X1473622Y1097134D01*
X1473632Y1097114D01*
X1473661Y1097056D01*
X1473710Y1096968D01*
X1473759Y1096851D01*
X1473808Y1096704D01*
X1473856Y1096539D01*
X1473885Y1096363D01*
X1473895Y1096168D01*
Y1096158D01*
Y1096139D01*
Y1096100D01*
X1473885Y1096051D01*
Y1095992D01*
X1473876Y1095924D01*
X1473837Y1095768D01*
X1473788Y1095583D01*
X1473710Y1095397D01*
X1473593Y1095202D01*
X1473525Y1095105D01*
X1473447Y1095017D01*
X1473427Y1094998D01*
X1473398Y1094978D01*
X1473369Y1094939D01*
X1473320Y1094910D01*
X1473261Y1094861D01*
X1473193Y1094822D01*
X1473115Y1094773D01*
X1473027Y1094725D01*
X1472920Y1094676D01*
X1472813Y1094627D01*
X1472686Y1094578D01*
X1472559Y1094529D01*
X1472413Y1094490D01*
X1472257Y1094461D01*
X1472091Y1094432D01*
X1472110Y1094422D01*
X1472149Y1094403D01*
X1472208Y1094373D01*
X1472276Y1094334D01*
X1472442Y1094227D01*
X1472530Y1094168D01*
X1472598Y1094110D01*
X1472617Y1094090D01*
X1472666Y1094052D01*
X1472735Y1093973D01*
X1472822Y1093876D01*
X1472930Y1093749D01*
X1473047Y1093603D01*
X1473174Y1093437D01*
X1473300Y1093252D01*
X1474412Y1091516D01*
X1473349D01*
X1472500Y1092842D01*
Y1092852D01*
X1472481Y1092871D01*
X1472462Y1092900D01*
X1472442Y1092940D01*
X1472374Y1093037D01*
X1472286Y1093164D01*
X1472188Y1093310D01*
X1472081Y1093456D01*
X1471983Y1093593D01*
X1471886Y1093720D01*
X1471876Y1093730D01*
X1471847Y1093769D01*
X1471798Y1093827D01*
X1471750Y1093895D01*
X1471603Y1094032D01*
X1471535Y1094100D01*
X1471457Y1094149D01*
X1471447Y1094159D01*
X1471428Y1094168D01*
X1471389Y1094188D01*
X1471340Y1094217D01*
X1471223Y1094276D01*
X1471077Y1094325D01*
X1471067D01*
X1471047Y1094334D01*
X1471008D01*
X1470959Y1094344D01*
X1470891Y1094354D01*
X1470813D01*
X1470716Y1094364D01*
X1469623D01*
Y1091516D01*
X1468775D01*
Y1097924D01*
X1471750D01*
X1471828Y1097914D01*
D02*
G37*
G36*
X1572160Y1120263D02*
X1572287Y1120243D01*
X1572433Y1120214D01*
X1572599Y1120175D01*
X1572765Y1120116D01*
X1572931Y1120038D01*
X1572941D01*
X1572950Y1120029D01*
X1573009Y1119999D01*
X1573087Y1119950D01*
X1573184Y1119882D01*
X1573292Y1119794D01*
X1573409Y1119687D01*
X1573516Y1119560D01*
X1573613Y1119424D01*
X1573623Y1119404D01*
X1573652Y1119355D01*
X1573692Y1119277D01*
X1573730Y1119180D01*
X1573770Y1119053D01*
X1573808Y1118917D01*
X1573838Y1118770D01*
X1573848Y1118605D01*
Y1118585D01*
Y1118536D01*
X1573838Y1118458D01*
X1573818Y1118361D01*
X1573789Y1118244D01*
X1573750Y1118117D01*
X1573701Y1117980D01*
X1573623Y1117853D01*
X1573613Y1117834D01*
X1573584Y1117795D01*
X1573526Y1117736D01*
X1573457Y1117658D01*
X1573360Y1117571D01*
X1573253Y1117483D01*
X1573116Y1117385D01*
X1572960Y1117307D01*
X1572970D01*
X1572989Y1117298D01*
X1573018D01*
X1573058Y1117278D01*
X1573155Y1117249D01*
X1573282Y1117190D01*
X1573418Y1117122D01*
X1573565Y1117024D01*
X1573711Y1116907D01*
X1573838Y1116761D01*
X1573848Y1116741D01*
X1573887Y1116683D01*
X1573935Y1116595D01*
X1574004Y1116478D01*
X1574062Y1116332D01*
X1574111Y1116156D01*
X1574150Y1115952D01*
X1574160Y1115727D01*
Y1115717D01*
Y1115688D01*
Y1115649D01*
X1574150Y1115591D01*
X1574140Y1115513D01*
X1574130Y1115434D01*
X1574111Y1115337D01*
X1574082Y1115239D01*
X1574013Y1115015D01*
X1573965Y1114888D01*
X1573896Y1114771D01*
X1573828Y1114654D01*
X1573750Y1114537D01*
X1573652Y1114420D01*
X1573545Y1114303D01*
X1573535Y1114293D01*
X1573516Y1114274D01*
X1573487Y1114254D01*
X1573438Y1114215D01*
X1573379Y1114167D01*
X1573301Y1114118D01*
X1573214Y1114069D01*
X1573126Y1114020D01*
X1573018Y1113962D01*
X1572901Y1113913D01*
X1572775Y1113864D01*
X1572638Y1113816D01*
X1572492Y1113776D01*
X1572336Y1113757D01*
X1572170Y1113737D01*
X1572004Y1113728D01*
X1571926D01*
X1571868Y1113737D01*
X1571790Y1113747D01*
X1571711Y1113757D01*
X1571614Y1113767D01*
X1571516Y1113786D01*
X1571292Y1113845D01*
X1571058Y1113942D01*
X1570941Y1113991D01*
X1570834Y1114059D01*
X1570717Y1114137D01*
X1570609Y1114225D01*
X1570600Y1114235D01*
X1570590Y1114245D01*
X1570561Y1114274D01*
X1570522Y1114313D01*
X1570483Y1114371D01*
X1570434Y1114430D01*
X1570375Y1114498D01*
X1570327Y1114576D01*
X1570210Y1114771D01*
X1570112Y1114996D01*
X1570024Y1115249D01*
X1569995Y1115386D01*
X1569975Y1115532D01*
X1570765Y1115639D01*
Y1115630D01*
X1570775Y1115610D01*
Y1115571D01*
X1570795Y1115532D01*
X1570824Y1115415D01*
X1570873Y1115269D01*
X1570931Y1115113D01*
X1571009Y1114947D01*
X1571107Y1114801D01*
X1571214Y1114674D01*
X1571234Y1114664D01*
X1571273Y1114625D01*
X1571341Y1114586D01*
X1571438Y1114528D01*
X1571546Y1114479D01*
X1571682Y1114430D01*
X1571838Y1114391D01*
X1572004Y1114381D01*
X1572063D01*
X1572102Y1114391D01*
X1572199Y1114401D01*
X1572326Y1114430D01*
X1572482Y1114479D01*
X1572638Y1114537D01*
X1572794Y1114635D01*
X1572941Y1114762D01*
X1572960Y1114781D01*
X1572999Y1114830D01*
X1573058Y1114908D01*
X1573136Y1115025D01*
X1573204Y1115161D01*
X1573262Y1115327D01*
X1573301Y1115513D01*
X1573321Y1115717D01*
Y1115727D01*
Y1115737D01*
Y1115766D01*
X1573311Y1115805D01*
X1573301Y1115903D01*
X1573272Y1116030D01*
X1573233Y1116166D01*
X1573165Y1116322D01*
X1573077Y1116468D01*
X1572960Y1116605D01*
X1572941Y1116625D01*
X1572901Y1116664D01*
X1572823Y1116712D01*
X1572716Y1116780D01*
X1572589Y1116849D01*
X1572433Y1116898D01*
X1572267Y1116937D01*
X1572072Y1116956D01*
X1571985D01*
X1571916Y1116946D01*
X1571838Y1116937D01*
X1571741Y1116927D01*
X1571633Y1116907D01*
X1571516Y1116878D01*
X1571604Y1117571D01*
X1571653D01*
X1571692Y1117561D01*
X1571819D01*
X1571907Y1117571D01*
X1572033Y1117590D01*
X1572170Y1117619D01*
X1572316Y1117668D01*
X1572472Y1117727D01*
X1572628Y1117814D01*
X1572648Y1117824D01*
X1572697Y1117863D01*
X1572755Y1117932D01*
X1572833Y1118019D01*
X1572911Y1118127D01*
X1572970Y1118263D01*
X1573018Y1118429D01*
X1573038Y1118624D01*
Y1118634D01*
Y1118643D01*
Y1118692D01*
X1573018Y1118770D01*
X1572999Y1118878D01*
X1572970Y1118985D01*
X1572911Y1119102D01*
X1572843Y1119229D01*
X1572745Y1119336D01*
X1572736Y1119346D01*
X1572697Y1119385D01*
X1572628Y1119434D01*
X1572541Y1119482D01*
X1572433Y1119541D01*
X1572307Y1119580D01*
X1572160Y1119619D01*
X1571994Y1119629D01*
X1571916D01*
X1571829Y1119609D01*
X1571731Y1119590D01*
X1571604Y1119560D01*
X1571477Y1119502D01*
X1571351Y1119434D01*
X1571224Y1119336D01*
X1571214Y1119326D01*
X1571175Y1119287D01*
X1571126Y1119219D01*
X1571068Y1119121D01*
X1570999Y1119004D01*
X1570941Y1118858D01*
X1570883Y1118682D01*
X1570843Y1118478D01*
X1570053Y1118614D01*
Y1118624D01*
X1570063Y1118653D01*
X1570073Y1118692D01*
X1570083Y1118741D01*
X1570102Y1118809D01*
X1570122Y1118887D01*
X1570190Y1119063D01*
X1570268Y1119258D01*
X1570385Y1119463D01*
X1570522Y1119658D01*
X1570697Y1119833D01*
X1570707Y1119843D01*
X1570717Y1119853D01*
X1570746Y1119872D01*
X1570795Y1119902D01*
X1570843Y1119931D01*
X1570902Y1119970D01*
X1571048Y1120058D01*
X1571234Y1120136D01*
X1571458Y1120204D01*
X1571702Y1120253D01*
X1571838Y1120272D01*
X1572063D01*
X1572160Y1120263D01*
D02*
G37*
G36*
X1566893Y1120233D02*
X1566971D01*
X1567166Y1120224D01*
X1567371Y1120204D01*
X1567586Y1120165D01*
X1567791Y1120126D01*
X1567888Y1120097D01*
X1567976Y1120068D01*
X1567986D01*
X1567995Y1120058D01*
X1568054Y1120038D01*
X1568132Y1119989D01*
X1568230Y1119921D01*
X1568347Y1119843D01*
X1568464Y1119736D01*
X1568581Y1119609D01*
X1568688Y1119453D01*
X1568698Y1119434D01*
X1568727Y1119375D01*
X1568776Y1119287D01*
X1568824Y1119170D01*
X1568873Y1119024D01*
X1568922Y1118858D01*
X1568951Y1118682D01*
X1568961Y1118487D01*
Y1118478D01*
Y1118458D01*
Y1118419D01*
X1568951Y1118370D01*
Y1118312D01*
X1568941Y1118244D01*
X1568902Y1118087D01*
X1568854Y1117902D01*
X1568776Y1117717D01*
X1568659Y1117522D01*
X1568590Y1117424D01*
X1568512Y1117337D01*
X1568493Y1117317D01*
X1568464Y1117298D01*
X1568434Y1117259D01*
X1568385Y1117229D01*
X1568327Y1117180D01*
X1568259Y1117141D01*
X1568181Y1117093D01*
X1568093Y1117044D01*
X1567986Y1116995D01*
X1567878Y1116946D01*
X1567752Y1116898D01*
X1567625Y1116849D01*
X1567478Y1116810D01*
X1567322Y1116780D01*
X1567157Y1116751D01*
X1567176Y1116741D01*
X1567215Y1116722D01*
X1567274Y1116693D01*
X1567342Y1116654D01*
X1567508Y1116546D01*
X1567596Y1116488D01*
X1567664Y1116429D01*
X1567683Y1116410D01*
X1567732Y1116371D01*
X1567800Y1116293D01*
X1567888Y1116195D01*
X1567995Y1116068D01*
X1568112Y1115922D01*
X1568239Y1115756D01*
X1568366Y1115571D01*
X1569478Y1113835D01*
X1568415D01*
X1567566Y1115161D01*
Y1115171D01*
X1567547Y1115191D01*
X1567527Y1115220D01*
X1567508Y1115259D01*
X1567439Y1115357D01*
X1567352Y1115483D01*
X1567254Y1115630D01*
X1567147Y1115776D01*
X1567049Y1115912D01*
X1566952Y1116039D01*
X1566942Y1116049D01*
X1566913Y1116088D01*
X1566864Y1116147D01*
X1566815Y1116215D01*
X1566669Y1116351D01*
X1566601Y1116420D01*
X1566523Y1116468D01*
X1566513Y1116478D01*
X1566493Y1116488D01*
X1566454Y1116507D01*
X1566406Y1116537D01*
X1566288Y1116595D01*
X1566142Y1116644D01*
X1566133D01*
X1566113Y1116654D01*
X1566074D01*
X1566025Y1116664D01*
X1565957Y1116673D01*
X1565879D01*
X1565781Y1116683D01*
X1564689D01*
Y1113835D01*
X1563840D01*
Y1120243D01*
X1566815D01*
X1566893Y1120233D01*
D02*
G37*
G36*
X1404267Y1064209D02*
X1404346Y1064199D01*
X1404433Y1064189D01*
X1404531Y1064180D01*
X1404638Y1064150D01*
X1404872Y1064092D01*
X1405116Y1064004D01*
X1405243Y1063946D01*
X1405360Y1063877D01*
X1405467Y1063790D01*
X1405574Y1063702D01*
X1405584Y1063692D01*
X1405594Y1063682D01*
X1405623Y1063653D01*
X1405662Y1063614D01*
X1405701Y1063556D01*
X1405750Y1063497D01*
X1405847Y1063351D01*
X1405945Y1063165D01*
X1406033Y1062951D01*
X1406101Y1062707D01*
X1406111Y1062570D01*
X1406121Y1062434D01*
Y1062414D01*
Y1062365D01*
X1406111Y1062288D01*
X1406101Y1062190D01*
X1406082Y1062073D01*
X1406052Y1061946D01*
X1406013Y1061810D01*
X1405955Y1061673D01*
X1405945Y1061654D01*
X1405926Y1061605D01*
X1405887Y1061536D01*
X1405828Y1061439D01*
X1405760Y1061322D01*
X1405672Y1061185D01*
X1405555Y1061049D01*
X1405428Y1060893D01*
X1405409Y1060873D01*
X1405360Y1060815D01*
X1405272Y1060727D01*
X1405213Y1060668D01*
X1405145Y1060600D01*
X1405067Y1060522D01*
X1404970Y1060434D01*
X1404872Y1060347D01*
X1404765Y1060239D01*
X1404648Y1060132D01*
X1404511Y1060015D01*
X1404375Y1059898D01*
X1404219Y1059761D01*
X1404209Y1059752D01*
X1404189Y1059732D01*
X1404150Y1059703D01*
X1404102Y1059664D01*
X1403985Y1059566D01*
X1403838Y1059439D01*
X1403692Y1059303D01*
X1403536Y1059166D01*
X1403409Y1059049D01*
X1403360Y1059000D01*
X1403312Y1058952D01*
X1403302Y1058942D01*
X1403282Y1058913D01*
X1403243Y1058874D01*
X1403195Y1058815D01*
X1403087Y1058688D01*
X1402980Y1058532D01*
X1406130D01*
Y1057781D01*
X1401888D01*
Y1057791D01*
Y1057830D01*
Y1057889D01*
X1401897Y1057957D01*
X1401907Y1058035D01*
X1401917Y1058123D01*
X1401946Y1058220D01*
X1401975Y1058318D01*
Y1058327D01*
X1401985Y1058337D01*
X1402005Y1058396D01*
X1402044Y1058474D01*
X1402102Y1058591D01*
X1402170Y1058718D01*
X1402268Y1058864D01*
X1402366Y1059010D01*
X1402492Y1059166D01*
Y1059176D01*
X1402512Y1059186D01*
X1402561Y1059244D01*
X1402639Y1059332D01*
X1402756Y1059449D01*
X1402902Y1059586D01*
X1403078Y1059752D01*
X1403292Y1059937D01*
X1403526Y1060142D01*
X1403536Y1060151D01*
X1403575Y1060181D01*
X1403624Y1060220D01*
X1403692Y1060288D01*
X1403780Y1060356D01*
X1403877Y1060444D01*
X1404092Y1060629D01*
X1404326Y1060854D01*
X1404560Y1061078D01*
X1404677Y1061185D01*
X1404775Y1061293D01*
X1404862Y1061400D01*
X1404940Y1061497D01*
Y1061507D01*
X1404960Y1061517D01*
X1404980Y1061546D01*
X1404999Y1061585D01*
X1405058Y1061683D01*
X1405126Y1061810D01*
X1405194Y1061956D01*
X1405253Y1062112D01*
X1405292Y1062288D01*
X1405311Y1062453D01*
Y1062463D01*
Y1062473D01*
X1405301Y1062531D01*
X1405292Y1062619D01*
X1405272Y1062726D01*
X1405223Y1062853D01*
X1405165Y1062980D01*
X1405087Y1063117D01*
X1404970Y1063243D01*
X1404950Y1063253D01*
X1404911Y1063292D01*
X1404833Y1063341D01*
X1404736Y1063409D01*
X1404609Y1063468D01*
X1404462Y1063516D01*
X1404287Y1063556D01*
X1404092Y1063565D01*
X1404033D01*
X1403994Y1063556D01*
X1403897Y1063546D01*
X1403770Y1063526D01*
X1403624Y1063477D01*
X1403468Y1063419D01*
X1403321Y1063331D01*
X1403185Y1063214D01*
X1403175Y1063195D01*
X1403136Y1063156D01*
X1403078Y1063077D01*
X1403019Y1062970D01*
X1402951Y1062834D01*
X1402902Y1062678D01*
X1402863Y1062492D01*
X1402843Y1062278D01*
X1402034Y1062365D01*
Y1062375D01*
Y1062404D01*
X1402044Y1062453D01*
X1402053Y1062512D01*
X1402073Y1062590D01*
X1402083Y1062678D01*
X1402141Y1062873D01*
X1402219Y1063097D01*
X1402327Y1063321D01*
X1402473Y1063546D01*
X1402551Y1063643D01*
X1402648Y1063741D01*
X1402658Y1063751D01*
X1402678Y1063760D01*
X1402707Y1063790D01*
X1402746Y1063819D01*
X1402804Y1063848D01*
X1402873Y1063897D01*
X1402951Y1063936D01*
X1403038Y1063985D01*
X1403136Y1064024D01*
X1403243Y1064072D01*
X1403370Y1064111D01*
X1403497Y1064141D01*
X1403790Y1064199D01*
X1403946Y1064209D01*
X1404111Y1064219D01*
X1404199D01*
X1404267Y1064209D01*
D02*
G37*
G36*
X1398922Y1064180D02*
X1399001D01*
X1399196Y1064170D01*
X1399400Y1064150D01*
X1399615Y1064111D01*
X1399820Y1064072D01*
X1399917Y1064043D01*
X1400005Y1064014D01*
X1400015D01*
X1400025Y1064004D01*
X1400083Y1063985D01*
X1400161Y1063936D01*
X1400259Y1063868D01*
X1400376Y1063790D01*
X1400493Y1063682D01*
X1400610Y1063556D01*
X1400717Y1063399D01*
X1400727Y1063380D01*
X1400756Y1063321D01*
X1400805Y1063234D01*
X1400854Y1063117D01*
X1400903Y1062970D01*
X1400951Y1062804D01*
X1400981Y1062629D01*
X1400990Y1062434D01*
Y1062424D01*
Y1062404D01*
Y1062365D01*
X1400981Y1062317D01*
Y1062258D01*
X1400971Y1062190D01*
X1400932Y1062034D01*
X1400883Y1061849D01*
X1400805Y1061663D01*
X1400688Y1061468D01*
X1400620Y1061371D01*
X1400542Y1061283D01*
X1400522Y1061263D01*
X1400493Y1061244D01*
X1400464Y1061205D01*
X1400415Y1061176D01*
X1400356Y1061127D01*
X1400288Y1061088D01*
X1400210Y1061039D01*
X1400122Y1060990D01*
X1400015Y1060941D01*
X1399908Y1060893D01*
X1399781Y1060844D01*
X1399654Y1060795D01*
X1399508Y1060756D01*
X1399352Y1060727D01*
X1399186Y1060698D01*
X1399205Y1060688D01*
X1399244Y1060668D01*
X1399303Y1060639D01*
X1399371Y1060600D01*
X1399537Y1060493D01*
X1399625Y1060434D01*
X1399693Y1060376D01*
X1399713Y1060356D01*
X1399761Y1060317D01*
X1399830Y1060239D01*
X1399917Y1060142D01*
X1400025Y1060015D01*
X1400142Y1059869D01*
X1400269Y1059703D01*
X1400395Y1059518D01*
X1401507Y1057781D01*
X1400444D01*
X1399595Y1059108D01*
Y1059118D01*
X1399576Y1059137D01*
X1399556Y1059166D01*
X1399537Y1059205D01*
X1399469Y1059303D01*
X1399381Y1059430D01*
X1399283Y1059576D01*
X1399176Y1059722D01*
X1399079Y1059859D01*
X1398981Y1059986D01*
X1398971Y1059995D01*
X1398942Y1060034D01*
X1398893Y1060093D01*
X1398844Y1060161D01*
X1398698Y1060298D01*
X1398630Y1060366D01*
X1398552Y1060415D01*
X1398542Y1060424D01*
X1398523Y1060434D01*
X1398484Y1060454D01*
X1398435Y1060483D01*
X1398318Y1060542D01*
X1398171Y1060590D01*
X1398162D01*
X1398142Y1060600D01*
X1398103D01*
X1398054Y1060610D01*
X1397986Y1060620D01*
X1397908D01*
X1397811Y1060629D01*
X1396718D01*
Y1057781D01*
X1395870D01*
Y1064189D01*
X1398844D01*
X1398922Y1064180D01*
D02*
G37*
G36*
X1517545Y1108781D02*
X1516755D01*
Y1113795D01*
X1516745Y1113785D01*
X1516706Y1113746D01*
X1516638Y1113697D01*
X1516550Y1113629D01*
X1516443Y1113541D01*
X1516316Y1113453D01*
X1516170Y1113346D01*
X1516004Y1113249D01*
X1515994D01*
X1515985Y1113239D01*
X1515926Y1113200D01*
X1515838Y1113151D01*
X1515731Y1113092D01*
X1515604Y1113024D01*
X1515468Y1112966D01*
X1515321Y1112897D01*
X1515185Y1112839D01*
Y1113609D01*
X1515195D01*
X1515214Y1113619D01*
X1515253Y1113639D01*
X1515292Y1113668D01*
X1515351Y1113697D01*
X1515419Y1113726D01*
X1515575Y1113814D01*
X1515750Y1113922D01*
X1515946Y1114048D01*
X1516141Y1114195D01*
X1516326Y1114351D01*
X1516336Y1114360D01*
X1516346Y1114370D01*
X1516404Y1114429D01*
X1516492Y1114516D01*
X1516599Y1114624D01*
X1516716Y1114760D01*
X1516833Y1114907D01*
X1516940Y1115063D01*
X1517028Y1115219D01*
X1517545D01*
Y1108781D01*
D02*
G37*
G36*
X1511508Y1115180D02*
X1511586D01*
X1511781Y1115170D01*
X1511986Y1115150D01*
X1512200Y1115111D01*
X1512405Y1115072D01*
X1512503Y1115043D01*
X1512590Y1115014D01*
X1512600D01*
X1512610Y1115004D01*
X1512668Y1114985D01*
X1512746Y1114936D01*
X1512844Y1114868D01*
X1512961Y1114790D01*
X1513078Y1114682D01*
X1513195Y1114556D01*
X1513302Y1114399D01*
X1513312Y1114380D01*
X1513341Y1114321D01*
X1513390Y1114234D01*
X1513439Y1114117D01*
X1513488Y1113970D01*
X1513536Y1113804D01*
X1513566Y1113629D01*
X1513575Y1113434D01*
Y1113424D01*
Y1113404D01*
Y1113365D01*
X1513566Y1113317D01*
Y1113258D01*
X1513556Y1113190D01*
X1513517Y1113034D01*
X1513468Y1112849D01*
X1513390Y1112663D01*
X1513273Y1112468D01*
X1513205Y1112371D01*
X1513127Y1112283D01*
X1513107Y1112263D01*
X1513078Y1112244D01*
X1513049Y1112205D01*
X1513000Y1112176D01*
X1512941Y1112127D01*
X1512873Y1112088D01*
X1512795Y1112039D01*
X1512707Y1111990D01*
X1512600Y1111942D01*
X1512493Y1111893D01*
X1512366Y1111844D01*
X1512239Y1111795D01*
X1512093Y1111756D01*
X1511937Y1111727D01*
X1511771Y1111698D01*
X1511791Y1111688D01*
X1511830Y1111668D01*
X1511888Y1111639D01*
X1511956Y1111600D01*
X1512122Y1111493D01*
X1512210Y1111434D01*
X1512278Y1111376D01*
X1512298Y1111356D01*
X1512346Y1111317D01*
X1512415Y1111239D01*
X1512503Y1111142D01*
X1512610Y1111015D01*
X1512727Y1110869D01*
X1512854Y1110703D01*
X1512980Y1110518D01*
X1514092Y1108781D01*
X1513029D01*
X1512181Y1110108D01*
Y1110118D01*
X1512161Y1110137D01*
X1512142Y1110166D01*
X1512122Y1110205D01*
X1512054Y1110303D01*
X1511966Y1110430D01*
X1511869Y1110576D01*
X1511761Y1110722D01*
X1511664Y1110859D01*
X1511566Y1110986D01*
X1511557Y1110995D01*
X1511527Y1111034D01*
X1511478Y1111093D01*
X1511430Y1111161D01*
X1511283Y1111298D01*
X1511215Y1111366D01*
X1511137Y1111415D01*
X1511127Y1111424D01*
X1511108Y1111434D01*
X1511069Y1111454D01*
X1511020Y1111483D01*
X1510903Y1111542D01*
X1510757Y1111590D01*
X1510747D01*
X1510727Y1111600D01*
X1510688D01*
X1510640Y1111610D01*
X1510571Y1111620D01*
X1510493D01*
X1510396Y1111629D01*
X1509303D01*
Y1108781D01*
X1508455D01*
Y1115189D01*
X1511430D01*
X1511508Y1115180D01*
D02*
G37*
G36*
X1596930Y1183796D02*
X1596140D01*
Y1188809D01*
X1596131Y1188800D01*
X1596092Y1188761D01*
X1596023Y1188712D01*
X1595936Y1188643D01*
X1595828Y1188556D01*
X1595701Y1188468D01*
X1595555Y1188361D01*
X1595389Y1188263D01*
X1595380D01*
X1595370Y1188253D01*
X1595311Y1188214D01*
X1595224Y1188166D01*
X1595116Y1188107D01*
X1594989Y1188039D01*
X1594853Y1187980D01*
X1594707Y1187912D01*
X1594570Y1187853D01*
Y1188624D01*
X1594580D01*
X1594599Y1188634D01*
X1594638Y1188653D01*
X1594677Y1188682D01*
X1594736Y1188712D01*
X1594804Y1188741D01*
X1594960Y1188829D01*
X1595136Y1188936D01*
X1595331Y1189063D01*
X1595526Y1189209D01*
X1595711Y1189365D01*
X1595721Y1189375D01*
X1595731Y1189385D01*
X1595789Y1189443D01*
X1595877Y1189531D01*
X1595984Y1189638D01*
X1596101Y1189775D01*
X1596218Y1189921D01*
X1596326Y1190077D01*
X1596414Y1190233D01*
X1596930D01*
Y1183796D01*
D02*
G37*
G36*
X1590278Y1190302D02*
X1590356D01*
X1590454Y1190292D01*
X1590552Y1190272D01*
X1590669Y1190263D01*
X1590912Y1190204D01*
X1591186Y1190126D01*
X1591459Y1190029D01*
X1591595Y1189960D01*
X1591732Y1189882D01*
X1591741D01*
X1591761Y1189863D01*
X1591800Y1189843D01*
X1591849Y1189804D01*
X1591907Y1189765D01*
X1591976Y1189707D01*
X1592132Y1189580D01*
X1592307Y1189414D01*
X1592493Y1189209D01*
X1592658Y1188975D01*
X1592814Y1188702D01*
Y1188692D01*
X1592834Y1188663D01*
X1592853Y1188624D01*
X1592873Y1188565D01*
X1592902Y1188497D01*
X1592932Y1188409D01*
X1592970Y1188312D01*
X1593009Y1188205D01*
X1593039Y1188078D01*
X1593078Y1187951D01*
X1593136Y1187658D01*
X1593175Y1187337D01*
X1593195Y1186985D01*
Y1186976D01*
Y1186946D01*
Y1186888D01*
X1593185Y1186820D01*
Y1186732D01*
X1593175Y1186634D01*
X1593165Y1186527D01*
X1593146Y1186400D01*
X1593097Y1186127D01*
X1593029Y1185834D01*
X1592932Y1185532D01*
X1592795Y1185239D01*
Y1185230D01*
X1592775Y1185210D01*
X1592756Y1185171D01*
X1592727Y1185113D01*
X1592678Y1185054D01*
X1592629Y1184976D01*
X1592512Y1184810D01*
X1592356Y1184625D01*
X1592161Y1184430D01*
X1591937Y1184245D01*
X1591683Y1184079D01*
X1591673D01*
X1591654Y1184059D01*
X1591615Y1184040D01*
X1591556Y1184020D01*
X1591488Y1183991D01*
X1591410Y1183952D01*
X1591322Y1183923D01*
X1591215Y1183884D01*
X1590990Y1183815D01*
X1590727Y1183747D01*
X1590435Y1183708D01*
X1590132Y1183689D01*
X1590044D01*
X1589976Y1183698D01*
X1589898D01*
X1589810Y1183708D01*
X1589703Y1183728D01*
X1589586Y1183747D01*
X1589342Y1183796D01*
X1589069Y1183874D01*
X1588786Y1183981D01*
X1588650Y1184040D01*
X1588513Y1184118D01*
X1588503Y1184128D01*
X1588484Y1184137D01*
X1588445Y1184167D01*
X1588396Y1184196D01*
X1588338Y1184245D01*
X1588269Y1184293D01*
X1588113Y1184430D01*
X1587938Y1184605D01*
X1587752Y1184801D01*
X1587587Y1185044D01*
X1587430Y1185308D01*
Y1185318D01*
X1587411Y1185347D01*
X1587401Y1185386D01*
X1587372Y1185444D01*
X1587343Y1185513D01*
X1587313Y1185591D01*
X1587284Y1185688D01*
X1587255Y1185795D01*
X1587216Y1185912D01*
X1587187Y1186030D01*
X1587128Y1186303D01*
X1587089Y1186595D01*
X1587070Y1186907D01*
Y1186927D01*
Y1186976D01*
X1587079Y1187063D01*
Y1187171D01*
X1587099Y1187307D01*
X1587118Y1187463D01*
X1587138Y1187629D01*
X1587177Y1187824D01*
X1587226Y1188019D01*
X1587274Y1188224D01*
X1587343Y1188429D01*
X1587430Y1188634D01*
X1587528Y1188839D01*
X1587635Y1189043D01*
X1587772Y1189229D01*
X1587918Y1189404D01*
X1587928Y1189414D01*
X1587957Y1189443D01*
X1588006Y1189492D01*
X1588074Y1189551D01*
X1588162Y1189619D01*
X1588259Y1189687D01*
X1588376Y1189775D01*
X1588513Y1189863D01*
X1588669Y1189941D01*
X1588835Y1190029D01*
X1589020Y1190097D01*
X1589215Y1190175D01*
X1589420Y1190224D01*
X1589644Y1190272D01*
X1589888Y1190302D01*
X1590132Y1190311D01*
X1590220D01*
X1590278Y1190302D01*
D02*
G37*
G36*
X1516443Y1129263D02*
X1516570Y1129243D01*
X1516716Y1129214D01*
X1516882Y1129175D01*
X1517048Y1129116D01*
X1517214Y1129038D01*
X1517224D01*
X1517233Y1129028D01*
X1517292Y1128999D01*
X1517370Y1128951D01*
X1517467Y1128882D01*
X1517575Y1128794D01*
X1517692Y1128687D01*
X1517799Y1128560D01*
X1517897Y1128424D01*
X1517906Y1128404D01*
X1517936Y1128355D01*
X1517975Y1128278D01*
X1518014Y1128180D01*
X1518053Y1128053D01*
X1518092Y1127917D01*
X1518121Y1127770D01*
X1518131Y1127605D01*
Y1127585D01*
Y1127536D01*
X1518121Y1127458D01*
X1518101Y1127361D01*
X1518072Y1127244D01*
X1518033Y1127117D01*
X1517984Y1126980D01*
X1517906Y1126853D01*
X1517897Y1126834D01*
X1517867Y1126795D01*
X1517809Y1126736D01*
X1517740Y1126658D01*
X1517643Y1126571D01*
X1517536Y1126483D01*
X1517399Y1126385D01*
X1517243Y1126307D01*
X1517253D01*
X1517272Y1126298D01*
X1517302D01*
X1517341Y1126278D01*
X1517438Y1126249D01*
X1517565Y1126190D01*
X1517702Y1126122D01*
X1517848Y1126024D01*
X1517994Y1125907D01*
X1518121Y1125761D01*
X1518131Y1125742D01*
X1518170Y1125683D01*
X1518218Y1125595D01*
X1518287Y1125478D01*
X1518345Y1125332D01*
X1518394Y1125156D01*
X1518433Y1124951D01*
X1518443Y1124727D01*
Y1124717D01*
Y1124688D01*
Y1124649D01*
X1518433Y1124591D01*
X1518423Y1124513D01*
X1518414Y1124435D01*
X1518394Y1124337D01*
X1518365Y1124240D01*
X1518297Y1124015D01*
X1518248Y1123888D01*
X1518179Y1123771D01*
X1518111Y1123654D01*
X1518033Y1123537D01*
X1517936Y1123420D01*
X1517828Y1123303D01*
X1517818Y1123293D01*
X1517799Y1123274D01*
X1517770Y1123254D01*
X1517721Y1123215D01*
X1517663Y1123167D01*
X1517584Y1123118D01*
X1517497Y1123069D01*
X1517409Y1123020D01*
X1517302Y1122962D01*
X1517184Y1122913D01*
X1517058Y1122864D01*
X1516921Y1122815D01*
X1516775Y1122776D01*
X1516619Y1122757D01*
X1516453Y1122737D01*
X1516287Y1122728D01*
X1516209D01*
X1516151Y1122737D01*
X1516073Y1122747D01*
X1515995Y1122757D01*
X1515897Y1122767D01*
X1515800Y1122786D01*
X1515575Y1122845D01*
X1515341Y1122942D01*
X1515224Y1122991D01*
X1515117Y1123059D01*
X1515000Y1123137D01*
X1514892Y1123225D01*
X1514883Y1123235D01*
X1514873Y1123245D01*
X1514844Y1123274D01*
X1514805Y1123313D01*
X1514766Y1123371D01*
X1514717Y1123430D01*
X1514658Y1123498D01*
X1514610Y1123576D01*
X1514493Y1123771D01*
X1514395Y1123996D01*
X1514307Y1124249D01*
X1514278Y1124386D01*
X1514259Y1124532D01*
X1515049Y1124639D01*
Y1124630D01*
X1515058Y1124610D01*
Y1124571D01*
X1515078Y1124532D01*
X1515107Y1124415D01*
X1515156Y1124269D01*
X1515214Y1124113D01*
X1515292Y1123947D01*
X1515390Y1123801D01*
X1515497Y1123674D01*
X1515517Y1123664D01*
X1515556Y1123625D01*
X1515624Y1123586D01*
X1515721Y1123528D01*
X1515829Y1123479D01*
X1515965Y1123430D01*
X1516121Y1123391D01*
X1516287Y1123381D01*
X1516346D01*
X1516385Y1123391D01*
X1516482Y1123401D01*
X1516609Y1123430D01*
X1516765Y1123479D01*
X1516921Y1123537D01*
X1517077Y1123635D01*
X1517224Y1123762D01*
X1517243Y1123781D01*
X1517282Y1123830D01*
X1517341Y1123908D01*
X1517419Y1124025D01*
X1517487Y1124162D01*
X1517545Y1124327D01*
X1517584Y1124513D01*
X1517604Y1124717D01*
Y1124727D01*
Y1124737D01*
Y1124766D01*
X1517594Y1124805D01*
X1517584Y1124903D01*
X1517555Y1125030D01*
X1517516Y1125166D01*
X1517448Y1125322D01*
X1517360Y1125468D01*
X1517243Y1125605D01*
X1517224Y1125624D01*
X1517184Y1125664D01*
X1517106Y1125712D01*
X1516999Y1125781D01*
X1516872Y1125849D01*
X1516716Y1125898D01*
X1516551Y1125937D01*
X1516355Y1125956D01*
X1516268D01*
X1516199Y1125946D01*
X1516121Y1125937D01*
X1516024Y1125927D01*
X1515917Y1125907D01*
X1515800Y1125878D01*
X1515887Y1126571D01*
X1515936D01*
X1515975Y1126561D01*
X1516102D01*
X1516190Y1126571D01*
X1516317Y1126590D01*
X1516453Y1126619D01*
X1516599Y1126668D01*
X1516755Y1126727D01*
X1516911Y1126814D01*
X1516931Y1126824D01*
X1516980Y1126863D01*
X1517038Y1126932D01*
X1517116Y1127019D01*
X1517194Y1127126D01*
X1517253Y1127263D01*
X1517302Y1127429D01*
X1517321Y1127624D01*
Y1127634D01*
Y1127644D01*
Y1127692D01*
X1517302Y1127770D01*
X1517282Y1127878D01*
X1517253Y1127985D01*
X1517194Y1128102D01*
X1517126Y1128229D01*
X1517029Y1128336D01*
X1517019Y1128346D01*
X1516980Y1128385D01*
X1516911Y1128434D01*
X1516824Y1128482D01*
X1516716Y1128541D01*
X1516590Y1128580D01*
X1516443Y1128619D01*
X1516277Y1128629D01*
X1516199D01*
X1516112Y1128609D01*
X1516014Y1128590D01*
X1515887Y1128560D01*
X1515760Y1128502D01*
X1515634Y1128434D01*
X1515507Y1128336D01*
X1515497Y1128326D01*
X1515458Y1128287D01*
X1515409Y1128219D01*
X1515351Y1128121D01*
X1515283Y1128004D01*
X1515224Y1127858D01*
X1515166Y1127682D01*
X1515126Y1127478D01*
X1514337Y1127614D01*
Y1127624D01*
X1514346Y1127653D01*
X1514356Y1127692D01*
X1514366Y1127741D01*
X1514385Y1127809D01*
X1514405Y1127887D01*
X1514473Y1128063D01*
X1514551Y1128258D01*
X1514668Y1128463D01*
X1514805Y1128658D01*
X1514980Y1128833D01*
X1514990Y1128843D01*
X1515000Y1128853D01*
X1515029Y1128872D01*
X1515078Y1128902D01*
X1515126Y1128931D01*
X1515185Y1128970D01*
X1515331Y1129058D01*
X1515517Y1129136D01*
X1515741Y1129204D01*
X1515985Y1129253D01*
X1516121Y1129272D01*
X1516346D01*
X1516443Y1129263D01*
D02*
G37*
G36*
X1510406Y1123586D02*
X1513556D01*
Y1122835D01*
X1509557D01*
Y1129243D01*
X1510406D01*
Y1123586D01*
D02*
G37*
G36*
X1445551Y1067209D02*
X1445629Y1067199D01*
X1445716Y1067189D01*
X1445814Y1067180D01*
X1445921Y1067150D01*
X1446155Y1067092D01*
X1446399Y1067004D01*
X1446526Y1066946D01*
X1446643Y1066877D01*
X1446750Y1066789D01*
X1446858Y1066702D01*
X1446867Y1066692D01*
X1446877Y1066682D01*
X1446906Y1066653D01*
X1446945Y1066614D01*
X1446984Y1066555D01*
X1447033Y1066497D01*
X1447131Y1066351D01*
X1447228Y1066165D01*
X1447316Y1065951D01*
X1447384Y1065707D01*
X1447394Y1065570D01*
X1447404Y1065434D01*
Y1065414D01*
Y1065366D01*
X1447394Y1065287D01*
X1447384Y1065190D01*
X1447365Y1065073D01*
X1447336Y1064946D01*
X1447296Y1064810D01*
X1447238Y1064673D01*
X1447228Y1064653D01*
X1447209Y1064605D01*
X1447170Y1064537D01*
X1447111Y1064439D01*
X1447043Y1064322D01*
X1446955Y1064185D01*
X1446838Y1064049D01*
X1446711Y1063893D01*
X1446692Y1063873D01*
X1446643Y1063815D01*
X1446555Y1063727D01*
X1446497Y1063668D01*
X1446428Y1063600D01*
X1446350Y1063522D01*
X1446253Y1063434D01*
X1446155Y1063346D01*
X1446048Y1063239D01*
X1445931Y1063132D01*
X1445794Y1063015D01*
X1445658Y1062898D01*
X1445502Y1062761D01*
X1445492Y1062751D01*
X1445473Y1062732D01*
X1445434Y1062703D01*
X1445385Y1062664D01*
X1445268Y1062566D01*
X1445121Y1062439D01*
X1444975Y1062303D01*
X1444819Y1062166D01*
X1444692Y1062049D01*
X1444644Y1062001D01*
X1444595Y1061952D01*
X1444585Y1061942D01*
X1444565Y1061913D01*
X1444526Y1061874D01*
X1444478Y1061815D01*
X1444370Y1061688D01*
X1444263Y1061532D01*
X1447413D01*
Y1060781D01*
X1443171D01*
Y1060791D01*
Y1060830D01*
Y1060889D01*
X1443181Y1060957D01*
X1443190Y1061035D01*
X1443200Y1061123D01*
X1443229Y1061220D01*
X1443259Y1061318D01*
Y1061328D01*
X1443268Y1061337D01*
X1443288Y1061396D01*
X1443327Y1061474D01*
X1443385Y1061591D01*
X1443454Y1061718D01*
X1443551Y1061864D01*
X1443649Y1062010D01*
X1443775Y1062166D01*
Y1062176D01*
X1443795Y1062186D01*
X1443844Y1062244D01*
X1443922Y1062332D01*
X1444039Y1062449D01*
X1444185Y1062586D01*
X1444361Y1062751D01*
X1444575Y1062937D01*
X1444809Y1063142D01*
X1444819Y1063151D01*
X1444858Y1063181D01*
X1444907Y1063220D01*
X1444975Y1063288D01*
X1445063Y1063356D01*
X1445160Y1063444D01*
X1445375Y1063629D01*
X1445609Y1063854D01*
X1445843Y1064078D01*
X1445960Y1064185D01*
X1446058Y1064293D01*
X1446145Y1064400D01*
X1446224Y1064497D01*
Y1064507D01*
X1446243Y1064517D01*
X1446263Y1064546D01*
X1446282Y1064585D01*
X1446341Y1064683D01*
X1446409Y1064810D01*
X1446477Y1064956D01*
X1446536Y1065112D01*
X1446575Y1065287D01*
X1446594Y1065453D01*
Y1065463D01*
Y1065473D01*
X1446584Y1065531D01*
X1446575Y1065619D01*
X1446555Y1065726D01*
X1446506Y1065853D01*
X1446448Y1065980D01*
X1446370Y1066116D01*
X1446253Y1066243D01*
X1446233Y1066253D01*
X1446194Y1066292D01*
X1446116Y1066341D01*
X1446019Y1066409D01*
X1445892Y1066468D01*
X1445746Y1066516D01*
X1445570Y1066555D01*
X1445375Y1066565D01*
X1445316D01*
X1445278Y1066555D01*
X1445180Y1066546D01*
X1445053Y1066526D01*
X1444907Y1066477D01*
X1444751Y1066419D01*
X1444604Y1066331D01*
X1444468Y1066214D01*
X1444458Y1066195D01*
X1444419Y1066156D01*
X1444361Y1066077D01*
X1444302Y1065970D01*
X1444234Y1065834D01*
X1444185Y1065678D01*
X1444146Y1065492D01*
X1444127Y1065278D01*
X1443317Y1065366D01*
Y1065375D01*
Y1065405D01*
X1443327Y1065453D01*
X1443336Y1065512D01*
X1443356Y1065590D01*
X1443366Y1065678D01*
X1443424Y1065873D01*
X1443502Y1066097D01*
X1443610Y1066321D01*
X1443756Y1066546D01*
X1443834Y1066643D01*
X1443931Y1066741D01*
X1443941Y1066750D01*
X1443961Y1066760D01*
X1443990Y1066789D01*
X1444029Y1066819D01*
X1444088Y1066848D01*
X1444156Y1066897D01*
X1444234Y1066936D01*
X1444322Y1066985D01*
X1444419Y1067024D01*
X1444526Y1067072D01*
X1444653Y1067111D01*
X1444780Y1067141D01*
X1445073Y1067199D01*
X1445229Y1067209D01*
X1445394Y1067219D01*
X1445482D01*
X1445551Y1067209D01*
D02*
G37*
G36*
X1439435Y1061532D02*
X1442585D01*
Y1060781D01*
X1438586D01*
Y1067189D01*
X1439435D01*
Y1061532D01*
D02*
G37*
G36*
X1482828Y1077781D02*
X1482038D01*
Y1082795D01*
X1482029Y1082785D01*
X1481989Y1082746D01*
X1481921Y1082697D01*
X1481833Y1082629D01*
X1481726Y1082541D01*
X1481599Y1082453D01*
X1481453Y1082346D01*
X1481287Y1082249D01*
X1481277D01*
X1481268Y1082239D01*
X1481209Y1082200D01*
X1481121Y1082151D01*
X1481014Y1082092D01*
X1480887Y1082024D01*
X1480751Y1081966D01*
X1480605Y1081897D01*
X1480468Y1081839D01*
Y1082609D01*
X1480478D01*
X1480497Y1082619D01*
X1480536Y1082639D01*
X1480575Y1082668D01*
X1480634Y1082697D01*
X1480702Y1082726D01*
X1480858Y1082814D01*
X1481034Y1082922D01*
X1481229Y1083048D01*
X1481424Y1083195D01*
X1481609Y1083351D01*
X1481619Y1083360D01*
X1481629Y1083370D01*
X1481687Y1083429D01*
X1481775Y1083516D01*
X1481882Y1083624D01*
X1481999Y1083760D01*
X1482116Y1083907D01*
X1482224Y1084063D01*
X1482311Y1084219D01*
X1482828D01*
Y1077781D01*
D02*
G37*
G36*
X1476020Y1078532D02*
X1479171D01*
Y1077781D01*
X1475172D01*
Y1084189D01*
X1476020D01*
Y1078532D01*
D02*
G37*
G36*
X1545478Y1000781D02*
X1544629D01*
Y1003805D01*
X1541313D01*
Y1000781D01*
X1540465D01*
Y1007189D01*
X1541313D01*
Y1004556D01*
X1544629D01*
Y1007189D01*
X1545478D01*
Y1000781D01*
D02*
G37*
G36*
X1549535D02*
X1548745D01*
Y1005795D01*
X1548736Y1005785D01*
X1548697Y1005746D01*
X1548628Y1005697D01*
X1548541Y1005629D01*
X1548433Y1005541D01*
X1548306Y1005453D01*
X1548160Y1005346D01*
X1547994Y1005248D01*
X1547985D01*
X1547975Y1005239D01*
X1547916Y1005200D01*
X1547829Y1005151D01*
X1547721Y1005092D01*
X1547594Y1005024D01*
X1547458Y1004966D01*
X1547312Y1004897D01*
X1547175Y1004839D01*
Y1005609D01*
X1547185D01*
X1547204Y1005619D01*
X1547243Y1005639D01*
X1547282Y1005668D01*
X1547341Y1005697D01*
X1547409Y1005726D01*
X1547565Y1005814D01*
X1547741Y1005921D01*
X1547936Y1006048D01*
X1548131Y1006195D01*
X1548316Y1006351D01*
X1548326Y1006360D01*
X1548336Y1006370D01*
X1548394Y1006429D01*
X1548482Y1006516D01*
X1548589Y1006624D01*
X1548706Y1006760D01*
X1548823Y1006907D01*
X1548931Y1007063D01*
X1549019Y1007219D01*
X1549535D01*
Y1000781D01*
D02*
G37*
G36*
X1526893Y1140302D02*
X1526971Y1140292D01*
X1527069Y1140282D01*
X1527176Y1140272D01*
X1527293Y1140253D01*
X1527547Y1140194D01*
X1527820Y1140107D01*
X1527956Y1140048D01*
X1528093Y1139980D01*
X1528220Y1139902D01*
X1528347Y1139814D01*
X1528356Y1139804D01*
X1528376Y1139794D01*
X1528405Y1139765D01*
X1528454Y1139726D01*
X1528503Y1139677D01*
X1528571Y1139609D01*
X1528639Y1139541D01*
X1528707Y1139463D01*
X1528785Y1139365D01*
X1528854Y1139268D01*
X1528932Y1139151D01*
X1529010Y1139024D01*
X1529078Y1138897D01*
X1529146Y1138751D01*
X1529263Y1138439D01*
X1528425Y1138244D01*
Y1138253D01*
X1528415Y1138273D01*
X1528405Y1138312D01*
X1528385Y1138361D01*
X1528356Y1138419D01*
X1528327Y1138487D01*
X1528259Y1138634D01*
X1528171Y1138800D01*
X1528054Y1138975D01*
X1527927Y1139131D01*
X1527771Y1139268D01*
X1527751Y1139277D01*
X1527693Y1139316D01*
X1527605Y1139365D01*
X1527478Y1139434D01*
X1527332Y1139492D01*
X1527147Y1139541D01*
X1526942Y1139580D01*
X1526708Y1139590D01*
X1526640D01*
X1526591Y1139580D01*
X1526523D01*
X1526454Y1139570D01*
X1526279Y1139541D01*
X1526084Y1139502D01*
X1525879Y1139434D01*
X1525674Y1139346D01*
X1525479Y1139229D01*
X1525469D01*
X1525459Y1139209D01*
X1525401Y1139160D01*
X1525313Y1139082D01*
X1525206Y1138975D01*
X1525099Y1138839D01*
X1524982Y1138682D01*
X1524874Y1138487D01*
X1524786Y1138273D01*
Y1138263D01*
X1524777Y1138244D01*
X1524767Y1138214D01*
X1524757Y1138166D01*
X1524738Y1138117D01*
X1524728Y1138048D01*
X1524689Y1137893D01*
X1524650Y1137707D01*
X1524621Y1137502D01*
X1524601Y1137278D01*
X1524591Y1137044D01*
Y1137034D01*
Y1137005D01*
Y1136966D01*
Y1136907D01*
X1524601Y1136839D01*
Y1136751D01*
X1524611Y1136664D01*
X1524621Y1136566D01*
X1524650Y1136342D01*
X1524689Y1136098D01*
X1524747Y1135854D01*
X1524825Y1135620D01*
Y1135610D01*
X1524835Y1135591D01*
X1524855Y1135561D01*
X1524874Y1135522D01*
X1524923Y1135405D01*
X1525001Y1135278D01*
X1525108Y1135122D01*
X1525235Y1134976D01*
X1525381Y1134830D01*
X1525557Y1134703D01*
X1525567D01*
X1525576Y1134693D01*
X1525606Y1134674D01*
X1525645Y1134654D01*
X1525752Y1134615D01*
X1525889Y1134557D01*
X1526045Y1134508D01*
X1526230Y1134459D01*
X1526435Y1134420D01*
X1526649Y1134410D01*
X1526718D01*
X1526766Y1134420D01*
X1526825D01*
X1526903Y1134430D01*
X1527069Y1134459D01*
X1527254Y1134508D01*
X1527459Y1134586D01*
X1527654Y1134684D01*
X1527849Y1134820D01*
X1527859Y1134830D01*
X1527869Y1134840D01*
X1527927Y1134898D01*
X1528015Y1134996D01*
X1528122Y1135122D01*
X1528230Y1135298D01*
X1528347Y1135503D01*
X1528444Y1135756D01*
X1528522Y1136039D01*
X1529371Y1135825D01*
Y1135815D01*
X1529361Y1135776D01*
X1529341Y1135727D01*
X1529322Y1135649D01*
X1529283Y1135571D01*
X1529244Y1135464D01*
X1529205Y1135357D01*
X1529146Y1135239D01*
X1529019Y1134976D01*
X1528844Y1134713D01*
X1528649Y1134459D01*
X1528532Y1134342D01*
X1528405Y1134235D01*
X1528395Y1134225D01*
X1528376Y1134215D01*
X1528337Y1134186D01*
X1528278Y1134147D01*
X1528210Y1134108D01*
X1528132Y1134059D01*
X1528044Y1134010D01*
X1527937Y1133962D01*
X1527820Y1133913D01*
X1527693Y1133864D01*
X1527547Y1133816D01*
X1527400Y1133776D01*
X1527079Y1133708D01*
X1526903Y1133698D01*
X1526718Y1133689D01*
X1526620D01*
X1526542Y1133698D01*
X1526454D01*
X1526357Y1133708D01*
X1526240Y1133728D01*
X1526123Y1133737D01*
X1525850Y1133796D01*
X1525567Y1133864D01*
X1525294Y1133971D01*
X1525157Y1134030D01*
X1525030Y1134108D01*
X1525020Y1134118D01*
X1525001Y1134128D01*
X1524972Y1134157D01*
X1524923Y1134186D01*
X1524806Y1134284D01*
X1524669Y1134420D01*
X1524504Y1134586D01*
X1524348Y1134801D01*
X1524182Y1135044D01*
X1524045Y1135327D01*
Y1135337D01*
X1524035Y1135366D01*
X1524016Y1135405D01*
X1523996Y1135464D01*
X1523967Y1135542D01*
X1523938Y1135630D01*
X1523909Y1135727D01*
X1523879Y1135844D01*
X1523850Y1135961D01*
X1523821Y1136098D01*
X1523762Y1136390D01*
X1523723Y1136702D01*
X1523714Y1137044D01*
Y1137054D01*
Y1137093D01*
Y1137141D01*
X1523723Y1137210D01*
Y1137298D01*
X1523733Y1137405D01*
X1523743Y1137512D01*
X1523762Y1137639D01*
X1523811Y1137912D01*
X1523870Y1138205D01*
X1523967Y1138507D01*
X1524094Y1138790D01*
Y1138800D01*
X1524113Y1138819D01*
X1524133Y1138858D01*
X1524162Y1138917D01*
X1524201Y1138975D01*
X1524250Y1139043D01*
X1524377Y1139209D01*
X1524523Y1139395D01*
X1524708Y1139580D01*
X1524933Y1139765D01*
X1525177Y1139921D01*
X1525186D01*
X1525206Y1139941D01*
X1525245Y1139960D01*
X1525303Y1139980D01*
X1525362Y1140009D01*
X1525440Y1140048D01*
X1525538Y1140077D01*
X1525635Y1140116D01*
X1525742Y1140155D01*
X1525859Y1140185D01*
X1526123Y1140253D01*
X1526415Y1140292D01*
X1526727Y1140311D01*
X1526825D01*
X1526893Y1140302D01*
D02*
G37*
G36*
X1534286Y1139512D02*
X1534277Y1139502D01*
X1534257Y1139482D01*
X1534228Y1139443D01*
X1534179Y1139395D01*
X1534130Y1139326D01*
X1534062Y1139248D01*
X1533984Y1139151D01*
X1533906Y1139053D01*
X1533818Y1138936D01*
X1533721Y1138800D01*
X1533613Y1138663D01*
X1533516Y1138507D01*
X1533409Y1138341D01*
X1533292Y1138166D01*
X1533184Y1137971D01*
X1533067Y1137775D01*
X1533058Y1137766D01*
X1533038Y1137727D01*
X1533009Y1137668D01*
X1532970Y1137590D01*
X1532921Y1137493D01*
X1532862Y1137375D01*
X1532794Y1137239D01*
X1532726Y1137093D01*
X1532658Y1136937D01*
X1532580Y1136761D01*
X1532502Y1136576D01*
X1532424Y1136381D01*
X1532277Y1135981D01*
X1532141Y1135552D01*
Y1135542D01*
X1532131Y1135513D01*
X1532121Y1135474D01*
X1532102Y1135415D01*
X1532082Y1135337D01*
X1532063Y1135249D01*
X1532043Y1135142D01*
X1532014Y1135035D01*
X1531994Y1134908D01*
X1531965Y1134771D01*
X1531916Y1134479D01*
X1531877Y1134147D01*
X1531848Y1133796D01*
X1531039D01*
Y1133806D01*
Y1133835D01*
Y1133874D01*
X1531048Y1133932D01*
Y1134001D01*
X1531058Y1134089D01*
X1531068Y1134196D01*
X1531078Y1134303D01*
X1531097Y1134430D01*
X1531116Y1134576D01*
X1531136Y1134723D01*
X1531165Y1134879D01*
X1531195Y1135054D01*
X1531234Y1135230D01*
X1531331Y1135620D01*
Y1135630D01*
X1531341Y1135669D01*
X1531360Y1135727D01*
X1531380Y1135805D01*
X1531409Y1135903D01*
X1531448Y1136010D01*
X1531487Y1136137D01*
X1531536Y1136283D01*
X1531594Y1136429D01*
X1531653Y1136595D01*
X1531790Y1136946D01*
X1531955Y1137317D01*
X1532141Y1137688D01*
X1532150Y1137697D01*
X1532170Y1137736D01*
X1532199Y1137785D01*
X1532238Y1137853D01*
X1532287Y1137941D01*
X1532345Y1138039D01*
X1532414Y1138146D01*
X1532482Y1138273D01*
X1532658Y1138536D01*
X1532853Y1138819D01*
X1533058Y1139102D01*
X1533282Y1139375D01*
X1530141D01*
Y1140126D01*
X1534286D01*
Y1139512D01*
D02*
G37*
G36*
X1756482Y1239224D02*
X1756541D01*
X1756619Y1239214D01*
X1756794Y1239184D01*
X1756989Y1239126D01*
X1757194Y1239048D01*
X1757399Y1238951D01*
X1757496Y1238882D01*
X1757594Y1238804D01*
X1757604D01*
X1757614Y1238785D01*
X1757672Y1238726D01*
X1757750Y1238629D01*
X1757847Y1238502D01*
X1757955Y1238336D01*
X1758043Y1238141D01*
X1758130Y1237907D01*
X1758179Y1237644D01*
X1757399Y1237585D01*
Y1237595D01*
Y1237605D01*
X1757379Y1237663D01*
X1757350Y1237741D01*
X1757321Y1237839D01*
X1757223Y1238063D01*
X1757165Y1238160D01*
X1757097Y1238248D01*
X1757087Y1238268D01*
X1757038Y1238307D01*
X1756970Y1238355D01*
X1756882Y1238424D01*
X1756765Y1238482D01*
X1756628Y1238541D01*
X1756472Y1238580D01*
X1756306Y1238590D01*
X1756238D01*
X1756170Y1238580D01*
X1756082Y1238560D01*
X1755975Y1238541D01*
X1755858Y1238502D01*
X1755750Y1238443D01*
X1755634Y1238375D01*
X1755614Y1238365D01*
X1755575Y1238326D01*
X1755507Y1238258D01*
X1755429Y1238170D01*
X1755331Y1238063D01*
X1755234Y1237926D01*
X1755136Y1237760D01*
X1755048Y1237575D01*
Y1237565D01*
X1755038Y1237556D01*
X1755029Y1237517D01*
X1755019Y1237478D01*
X1755000Y1237429D01*
X1754980Y1237361D01*
X1754960Y1237283D01*
X1754941Y1237195D01*
X1754922Y1237097D01*
X1754902Y1236990D01*
X1754882Y1236863D01*
X1754863Y1236736D01*
X1754853Y1236590D01*
X1754843Y1236434D01*
X1754834Y1236268D01*
Y1236102D01*
X1754843Y1236112D01*
X1754882Y1236161D01*
X1754941Y1236239D01*
X1755029Y1236337D01*
X1755126Y1236444D01*
X1755243Y1236551D01*
X1755380Y1236649D01*
X1755526Y1236736D01*
X1755546Y1236746D01*
X1755594Y1236766D01*
X1755682Y1236805D01*
X1755789Y1236844D01*
X1755916Y1236883D01*
X1756063Y1236922D01*
X1756219Y1236941D01*
X1756384Y1236951D01*
X1756463D01*
X1756521Y1236941D01*
X1756589Y1236932D01*
X1756667Y1236922D01*
X1756853Y1236883D01*
X1757057Y1236805D01*
X1757175Y1236766D01*
X1757282Y1236707D01*
X1757399Y1236639D01*
X1757516Y1236561D01*
X1757623Y1236473D01*
X1757731Y1236366D01*
X1757740Y1236356D01*
X1757750Y1236337D01*
X1757779Y1236307D01*
X1757818Y1236258D01*
X1757857Y1236200D01*
X1757906Y1236132D01*
X1757955Y1236054D01*
X1758013Y1235966D01*
X1758062Y1235859D01*
X1758111Y1235751D01*
X1758160Y1235624D01*
X1758199Y1235498D01*
X1758238Y1235351D01*
X1758267Y1235205D01*
X1758277Y1235039D01*
X1758286Y1234874D01*
Y1234864D01*
Y1234844D01*
Y1234815D01*
Y1234776D01*
X1758277Y1234717D01*
Y1234659D01*
X1758257Y1234503D01*
X1758218Y1234337D01*
X1758179Y1234142D01*
X1758111Y1233947D01*
X1758023Y1233752D01*
Y1233742D01*
X1758013Y1233732D01*
X1757994Y1233703D01*
X1757974Y1233664D01*
X1757916Y1233576D01*
X1757838Y1233459D01*
X1757731Y1233332D01*
X1757604Y1233206D01*
X1757467Y1233079D01*
X1757301Y1232962D01*
X1757282Y1232952D01*
X1757223Y1232923D01*
X1757126Y1232874D01*
X1757009Y1232825D01*
X1756853Y1232776D01*
X1756677Y1232728D01*
X1756482Y1232698D01*
X1756277Y1232689D01*
X1756238D01*
X1756180Y1232698D01*
X1756111D01*
X1756033Y1232708D01*
X1755936Y1232728D01*
X1755829Y1232747D01*
X1755712Y1232776D01*
X1755585Y1232815D01*
X1755448Y1232864D01*
X1755321Y1232923D01*
X1755185Y1232991D01*
X1755048Y1233079D01*
X1754912Y1233176D01*
X1754785Y1233284D01*
X1754668Y1233410D01*
X1754658Y1233420D01*
X1754639Y1233449D01*
X1754609Y1233488D01*
X1754570Y1233547D01*
X1754522Y1233625D01*
X1754473Y1233723D01*
X1754414Y1233840D01*
X1754366Y1233976D01*
X1754307Y1234132D01*
X1754249Y1234308D01*
X1754200Y1234503D01*
X1754151Y1234717D01*
X1754112Y1234951D01*
X1754083Y1235215D01*
X1754063Y1235488D01*
X1754053Y1235790D01*
Y1235800D01*
Y1235810D01*
Y1235839D01*
Y1235868D01*
Y1235966D01*
X1754063Y1236093D01*
X1754073Y1236249D01*
X1754092Y1236424D01*
X1754112Y1236619D01*
X1754141Y1236824D01*
X1754170Y1237048D01*
X1754219Y1237273D01*
X1754278Y1237497D01*
X1754346Y1237712D01*
X1754424Y1237936D01*
X1754512Y1238131D01*
X1754619Y1238326D01*
X1754736Y1238492D01*
X1754746Y1238502D01*
X1754765Y1238521D01*
X1754795Y1238560D01*
X1754843Y1238609D01*
X1754912Y1238668D01*
X1754980Y1238726D01*
X1755068Y1238794D01*
X1755165Y1238863D01*
X1755273Y1238931D01*
X1755399Y1238999D01*
X1755526Y1239058D01*
X1755672Y1239116D01*
X1755829Y1239165D01*
X1755994Y1239204D01*
X1756170Y1239224D01*
X1756355Y1239233D01*
X1756423D01*
X1756482Y1239224D01*
D02*
G37*
G36*
X1750893Y1239302D02*
X1750971Y1239292D01*
X1751069Y1239282D01*
X1751176Y1239272D01*
X1751293Y1239253D01*
X1751547Y1239194D01*
X1751820Y1239107D01*
X1751956Y1239048D01*
X1752093Y1238980D01*
X1752220Y1238902D01*
X1752346Y1238814D01*
X1752356Y1238804D01*
X1752376Y1238794D01*
X1752405Y1238765D01*
X1752454Y1238726D01*
X1752503Y1238677D01*
X1752571Y1238609D01*
X1752639Y1238541D01*
X1752707Y1238463D01*
X1752785Y1238365D01*
X1752854Y1238268D01*
X1752932Y1238151D01*
X1753010Y1238024D01*
X1753078Y1237897D01*
X1753146Y1237751D01*
X1753263Y1237439D01*
X1752424Y1237244D01*
Y1237253D01*
X1752415Y1237273D01*
X1752405Y1237312D01*
X1752386Y1237361D01*
X1752356Y1237419D01*
X1752327Y1237487D01*
X1752259Y1237634D01*
X1752171Y1237800D01*
X1752054Y1237975D01*
X1751927Y1238131D01*
X1751771Y1238268D01*
X1751752Y1238278D01*
X1751693Y1238316D01*
X1751605Y1238365D01*
X1751478Y1238434D01*
X1751332Y1238492D01*
X1751147Y1238541D01*
X1750942Y1238580D01*
X1750708Y1238590D01*
X1750640D01*
X1750591Y1238580D01*
X1750523D01*
X1750454Y1238570D01*
X1750279Y1238541D01*
X1750084Y1238502D01*
X1749879Y1238434D01*
X1749674Y1238346D01*
X1749479Y1238229D01*
X1749469D01*
X1749459Y1238209D01*
X1749401Y1238160D01*
X1749313Y1238082D01*
X1749206Y1237975D01*
X1749099Y1237839D01*
X1748981Y1237682D01*
X1748874Y1237487D01*
X1748786Y1237273D01*
Y1237263D01*
X1748777Y1237244D01*
X1748767Y1237214D01*
X1748757Y1237166D01*
X1748738Y1237117D01*
X1748728Y1237048D01*
X1748689Y1236892D01*
X1748650Y1236707D01*
X1748621Y1236502D01*
X1748601Y1236278D01*
X1748591Y1236044D01*
Y1236034D01*
Y1236005D01*
Y1235966D01*
Y1235907D01*
X1748601Y1235839D01*
Y1235751D01*
X1748611Y1235664D01*
X1748621Y1235566D01*
X1748650Y1235342D01*
X1748689Y1235098D01*
X1748747Y1234854D01*
X1748826Y1234620D01*
Y1234610D01*
X1748835Y1234591D01*
X1748855Y1234561D01*
X1748874Y1234522D01*
X1748923Y1234405D01*
X1749001Y1234278D01*
X1749108Y1234122D01*
X1749235Y1233976D01*
X1749381Y1233830D01*
X1749557Y1233703D01*
X1749567D01*
X1749577Y1233693D01*
X1749606Y1233674D01*
X1749645Y1233654D01*
X1749752Y1233615D01*
X1749889Y1233557D01*
X1750045Y1233508D01*
X1750230Y1233459D01*
X1750435Y1233420D01*
X1750649Y1233410D01*
X1750718D01*
X1750766Y1233420D01*
X1750825D01*
X1750903Y1233430D01*
X1751069Y1233459D01*
X1751254Y1233508D01*
X1751459Y1233586D01*
X1751654Y1233683D01*
X1751849Y1233820D01*
X1751859Y1233830D01*
X1751869Y1233840D01*
X1751927Y1233898D01*
X1752015Y1233996D01*
X1752122Y1234122D01*
X1752229Y1234298D01*
X1752346Y1234503D01*
X1752444Y1234756D01*
X1752522Y1235039D01*
X1753371Y1234825D01*
Y1234815D01*
X1753361Y1234776D01*
X1753341Y1234727D01*
X1753322Y1234649D01*
X1753283Y1234571D01*
X1753244Y1234464D01*
X1753205Y1234357D01*
X1753146Y1234240D01*
X1753020Y1233976D01*
X1752844Y1233713D01*
X1752649Y1233459D01*
X1752532Y1233342D01*
X1752405Y1233235D01*
X1752395Y1233225D01*
X1752376Y1233215D01*
X1752337Y1233186D01*
X1752278Y1233147D01*
X1752210Y1233108D01*
X1752132Y1233059D01*
X1752044Y1233010D01*
X1751937Y1232962D01*
X1751820Y1232913D01*
X1751693Y1232864D01*
X1751547Y1232815D01*
X1751400Y1232776D01*
X1751078Y1232708D01*
X1750903Y1232698D01*
X1750718Y1232689D01*
X1750620D01*
X1750542Y1232698D01*
X1750454D01*
X1750357Y1232708D01*
X1750240Y1232728D01*
X1750123Y1232737D01*
X1749850Y1232796D01*
X1749567Y1232864D01*
X1749294Y1232971D01*
X1749157Y1233030D01*
X1749030Y1233108D01*
X1749021Y1233118D01*
X1749001Y1233128D01*
X1748972Y1233157D01*
X1748923Y1233186D01*
X1748806Y1233284D01*
X1748669Y1233420D01*
X1748504Y1233586D01*
X1748347Y1233801D01*
X1748182Y1234044D01*
X1748045Y1234327D01*
Y1234337D01*
X1748035Y1234366D01*
X1748016Y1234405D01*
X1747996Y1234464D01*
X1747967Y1234542D01*
X1747938Y1234630D01*
X1747909Y1234727D01*
X1747879Y1234844D01*
X1747850Y1234961D01*
X1747821Y1235098D01*
X1747762Y1235390D01*
X1747723Y1235703D01*
X1747713Y1236044D01*
Y1236054D01*
Y1236093D01*
Y1236141D01*
X1747723Y1236210D01*
Y1236298D01*
X1747733Y1236405D01*
X1747743Y1236512D01*
X1747762Y1236639D01*
X1747811Y1236912D01*
X1747870Y1237205D01*
X1747967Y1237507D01*
X1748094Y1237790D01*
Y1237800D01*
X1748113Y1237819D01*
X1748133Y1237858D01*
X1748162Y1237917D01*
X1748201Y1237975D01*
X1748250Y1238043D01*
X1748377Y1238209D01*
X1748523Y1238394D01*
X1748708Y1238580D01*
X1748933Y1238765D01*
X1749177Y1238921D01*
X1749186D01*
X1749206Y1238941D01*
X1749245Y1238960D01*
X1749303Y1238980D01*
X1749362Y1239009D01*
X1749440Y1239048D01*
X1749538Y1239077D01*
X1749635Y1239116D01*
X1749742Y1239155D01*
X1749859Y1239184D01*
X1750123Y1239253D01*
X1750415Y1239292D01*
X1750727Y1239311D01*
X1750825D01*
X1750893Y1239302D01*
D02*
G37*
G36*
X1750869Y1188302D02*
X1750947Y1188292D01*
X1751044Y1188282D01*
X1751152Y1188272D01*
X1751269Y1188253D01*
X1751522Y1188194D01*
X1751795Y1188107D01*
X1751932Y1188048D01*
X1752068Y1187980D01*
X1752195Y1187902D01*
X1752322Y1187814D01*
X1752332Y1187804D01*
X1752351Y1187794D01*
X1752381Y1187765D01*
X1752429Y1187726D01*
X1752478Y1187677D01*
X1752547Y1187609D01*
X1752615Y1187541D01*
X1752683Y1187463D01*
X1752761Y1187365D01*
X1752829Y1187268D01*
X1752907Y1187151D01*
X1752985Y1187024D01*
X1753054Y1186897D01*
X1753122Y1186751D01*
X1753239Y1186439D01*
X1752400Y1186244D01*
Y1186253D01*
X1752390Y1186273D01*
X1752381Y1186312D01*
X1752361Y1186361D01*
X1752332Y1186419D01*
X1752303Y1186487D01*
X1752234Y1186634D01*
X1752147Y1186799D01*
X1752030Y1186975D01*
X1751903Y1187131D01*
X1751747Y1187268D01*
X1751727Y1187278D01*
X1751669Y1187317D01*
X1751581Y1187365D01*
X1751454Y1187433D01*
X1751308Y1187492D01*
X1751122Y1187541D01*
X1750918Y1187580D01*
X1750683Y1187590D01*
X1750615D01*
X1750567Y1187580D01*
X1750498D01*
X1750430Y1187570D01*
X1750254Y1187541D01*
X1750059Y1187502D01*
X1749854Y1187433D01*
X1749650Y1187346D01*
X1749455Y1187229D01*
X1749445D01*
X1749435Y1187209D01*
X1749377Y1187160D01*
X1749289Y1187082D01*
X1749182Y1186975D01*
X1749074Y1186839D01*
X1748957Y1186683D01*
X1748850Y1186487D01*
X1748762Y1186273D01*
Y1186263D01*
X1748752Y1186244D01*
X1748743Y1186214D01*
X1748733Y1186165D01*
X1748713Y1186117D01*
X1748703Y1186049D01*
X1748665Y1185892D01*
X1748625Y1185707D01*
X1748596Y1185502D01*
X1748577Y1185278D01*
X1748567Y1185044D01*
Y1185034D01*
Y1185005D01*
Y1184966D01*
Y1184907D01*
X1748577Y1184839D01*
Y1184751D01*
X1748586Y1184663D01*
X1748596Y1184566D01*
X1748625Y1184342D01*
X1748665Y1184098D01*
X1748723Y1183854D01*
X1748801Y1183620D01*
Y1183610D01*
X1748811Y1183591D01*
X1748830Y1183561D01*
X1748850Y1183522D01*
X1748899Y1183405D01*
X1748977Y1183279D01*
X1749084Y1183122D01*
X1749211Y1182976D01*
X1749357Y1182830D01*
X1749533Y1182703D01*
X1749542D01*
X1749552Y1182693D01*
X1749581Y1182674D01*
X1749620Y1182654D01*
X1749728Y1182615D01*
X1749864Y1182557D01*
X1750020Y1182508D01*
X1750206Y1182459D01*
X1750410Y1182420D01*
X1750625Y1182410D01*
X1750693D01*
X1750742Y1182420D01*
X1750801D01*
X1750879Y1182430D01*
X1751044Y1182459D01*
X1751230Y1182508D01*
X1751434Y1182586D01*
X1751630Y1182683D01*
X1751825Y1182820D01*
X1751834Y1182830D01*
X1751844Y1182840D01*
X1751903Y1182898D01*
X1751991Y1182996D01*
X1752098Y1183122D01*
X1752205Y1183298D01*
X1752322Y1183503D01*
X1752420Y1183756D01*
X1752498Y1184039D01*
X1753346Y1183825D01*
Y1183815D01*
X1753336Y1183776D01*
X1753317Y1183727D01*
X1753297Y1183649D01*
X1753259Y1183571D01*
X1753219Y1183464D01*
X1753180Y1183356D01*
X1753122Y1183240D01*
X1752995Y1182976D01*
X1752820Y1182713D01*
X1752625Y1182459D01*
X1752507Y1182342D01*
X1752381Y1182235D01*
X1752371Y1182225D01*
X1752351Y1182215D01*
X1752312Y1182186D01*
X1752254Y1182147D01*
X1752186Y1182108D01*
X1752108Y1182059D01*
X1752020Y1182010D01*
X1751913Y1181962D01*
X1751795Y1181913D01*
X1751669Y1181864D01*
X1751522Y1181815D01*
X1751376Y1181776D01*
X1751054Y1181708D01*
X1750879Y1181698D01*
X1750693Y1181689D01*
X1750596D01*
X1750518Y1181698D01*
X1750430D01*
X1750332Y1181708D01*
X1750215Y1181728D01*
X1750098Y1181737D01*
X1749825Y1181796D01*
X1749542Y1181864D01*
X1749269Y1181972D01*
X1749133Y1182030D01*
X1749006Y1182108D01*
X1748996Y1182118D01*
X1748977Y1182128D01*
X1748947Y1182157D01*
X1748899Y1182186D01*
X1748782Y1182284D01*
X1748645Y1182420D01*
X1748479Y1182586D01*
X1748323Y1182801D01*
X1748157Y1183044D01*
X1748021Y1183327D01*
Y1183337D01*
X1748011Y1183366D01*
X1747991Y1183405D01*
X1747972Y1183464D01*
X1747943Y1183542D01*
X1747914Y1183630D01*
X1747884Y1183727D01*
X1747855Y1183844D01*
X1747826Y1183961D01*
X1747796Y1184098D01*
X1747738Y1184390D01*
X1747699Y1184703D01*
X1747689Y1185044D01*
Y1185054D01*
Y1185093D01*
Y1185141D01*
X1747699Y1185210D01*
Y1185297D01*
X1747709Y1185405D01*
X1747718Y1185512D01*
X1747738Y1185639D01*
X1747787Y1185912D01*
X1747845Y1186205D01*
X1747943Y1186507D01*
X1748070Y1186790D01*
Y1186799D01*
X1748089Y1186819D01*
X1748109Y1186858D01*
X1748138Y1186917D01*
X1748177Y1186975D01*
X1748226Y1187043D01*
X1748352Y1187209D01*
X1748499Y1187394D01*
X1748684Y1187580D01*
X1748908Y1187765D01*
X1749152Y1187921D01*
X1749162D01*
X1749182Y1187941D01*
X1749220Y1187960D01*
X1749279Y1187980D01*
X1749337Y1188009D01*
X1749416Y1188048D01*
X1749513Y1188077D01*
X1749611Y1188116D01*
X1749718Y1188155D01*
X1749835Y1188185D01*
X1750098Y1188253D01*
X1750391Y1188292D01*
X1750703Y1188311D01*
X1750801D01*
X1750869Y1188302D01*
D02*
G37*
G36*
X1758009Y1187355D02*
X1755453D01*
X1755102Y1185629D01*
X1755112Y1185639D01*
X1755131Y1185649D01*
X1755160Y1185668D01*
X1755199Y1185697D01*
X1755258Y1185727D01*
X1755316Y1185756D01*
X1755473Y1185834D01*
X1755648Y1185912D01*
X1755853Y1185971D01*
X1756077Y1186019D01*
X1756311Y1186039D01*
X1756389D01*
X1756448Y1186029D01*
X1756526Y1186019D01*
X1756604Y1186010D01*
X1756702Y1185990D01*
X1756799Y1185971D01*
X1757023Y1185892D01*
X1757140Y1185853D01*
X1757257Y1185795D01*
X1757384Y1185727D01*
X1757501Y1185649D01*
X1757618Y1185561D01*
X1757726Y1185453D01*
X1757735Y1185444D01*
X1757755Y1185424D01*
X1757784Y1185395D01*
X1757813Y1185346D01*
X1757862Y1185288D01*
X1757911Y1185219D01*
X1757960Y1185141D01*
X1758018Y1185054D01*
X1758077Y1184946D01*
X1758125Y1184839D01*
X1758174Y1184712D01*
X1758223Y1184585D01*
X1758252Y1184439D01*
X1758282Y1184293D01*
X1758301Y1184127D01*
X1758311Y1183961D01*
Y1183951D01*
Y1183922D01*
Y1183874D01*
X1758301Y1183815D01*
X1758291Y1183737D01*
X1758282Y1183649D01*
X1758272Y1183552D01*
X1758252Y1183444D01*
X1758184Y1183210D01*
X1758096Y1182966D01*
X1758038Y1182830D01*
X1757970Y1182703D01*
X1757891Y1182576D01*
X1757804Y1182459D01*
X1757794Y1182449D01*
X1757774Y1182430D01*
X1757735Y1182391D01*
X1757687Y1182342D01*
X1757628Y1182284D01*
X1757550Y1182215D01*
X1757462Y1182147D01*
X1757355Y1182079D01*
X1757248Y1182001D01*
X1757121Y1181933D01*
X1756975Y1181864D01*
X1756828Y1181806D01*
X1756662Y1181757D01*
X1756497Y1181718D01*
X1756311Y1181698D01*
X1756116Y1181689D01*
X1756028D01*
X1755970Y1181698D01*
X1755902Y1181708D01*
X1755814Y1181718D01*
X1755716Y1181728D01*
X1755609Y1181747D01*
X1755385Y1181806D01*
X1755151Y1181893D01*
X1755034Y1181952D01*
X1754917Y1182020D01*
X1754799Y1182088D01*
X1754692Y1182176D01*
X1754682Y1182186D01*
X1754673Y1182196D01*
X1754644Y1182225D01*
X1754604Y1182264D01*
X1754565Y1182313D01*
X1754517Y1182371D01*
X1754468Y1182440D01*
X1754409Y1182518D01*
X1754302Y1182703D01*
X1754195Y1182927D01*
X1754117Y1183181D01*
X1754088Y1183327D01*
X1754068Y1183474D01*
X1754897Y1183532D01*
Y1183522D01*
Y1183503D01*
X1754907Y1183474D01*
X1754917Y1183435D01*
X1754946Y1183327D01*
X1754985Y1183191D01*
X1755034Y1183044D01*
X1755112Y1182898D01*
X1755199Y1182752D01*
X1755316Y1182625D01*
X1755336Y1182615D01*
X1755375Y1182576D01*
X1755443Y1182537D01*
X1755541Y1182479D01*
X1755658Y1182430D01*
X1755794Y1182381D01*
X1755950Y1182342D01*
X1756116Y1182332D01*
X1756175D01*
X1756214Y1182342D01*
X1756321Y1182352D01*
X1756458Y1182381D01*
X1756604Y1182440D01*
X1756770Y1182508D01*
X1756926Y1182615D01*
X1757004Y1182674D01*
X1757082Y1182752D01*
Y1182762D01*
X1757101Y1182771D01*
X1757140Y1182830D01*
X1757209Y1182927D01*
X1757277Y1183054D01*
X1757345Y1183220D01*
X1757413Y1183415D01*
X1757453Y1183639D01*
X1757472Y1183893D01*
Y1183903D01*
Y1183922D01*
Y1183961D01*
X1757462Y1184000D01*
Y1184059D01*
X1757453Y1184127D01*
X1757423Y1184283D01*
X1757384Y1184449D01*
X1757316Y1184624D01*
X1757218Y1184800D01*
X1757092Y1184956D01*
X1757072Y1184976D01*
X1757023Y1185015D01*
X1756945Y1185083D01*
X1756828Y1185151D01*
X1756692Y1185219D01*
X1756516Y1185288D01*
X1756321Y1185327D01*
X1756107Y1185346D01*
X1756038D01*
X1755970Y1185337D01*
X1755872Y1185327D01*
X1755765Y1185297D01*
X1755648Y1185268D01*
X1755531Y1185219D01*
X1755414Y1185161D01*
X1755404Y1185151D01*
X1755365Y1185132D01*
X1755307Y1185093D01*
X1755238Y1185044D01*
X1755170Y1184976D01*
X1755092Y1184898D01*
X1755014Y1184810D01*
X1754946Y1184712D01*
X1754205Y1184820D01*
X1754829Y1188107D01*
X1758009D01*
Y1187355D01*
D02*
G37*
G36*
X1629903Y1014302D02*
X1629981Y1014292D01*
X1630079Y1014282D01*
X1630186Y1014272D01*
X1630303Y1014253D01*
X1630556Y1014194D01*
X1630830Y1014107D01*
X1630966Y1014048D01*
X1631103Y1013980D01*
X1631230Y1013902D01*
X1631356Y1013814D01*
X1631366Y1013804D01*
X1631385Y1013794D01*
X1631415Y1013765D01*
X1631464Y1013726D01*
X1631512Y1013677D01*
X1631581Y1013609D01*
X1631649Y1013541D01*
X1631717Y1013463D01*
X1631795Y1013365D01*
X1631864Y1013268D01*
X1631942Y1013151D01*
X1632020Y1013024D01*
X1632088Y1012897D01*
X1632156Y1012751D01*
X1632273Y1012439D01*
X1631434Y1012244D01*
Y1012253D01*
X1631425Y1012273D01*
X1631415Y1012312D01*
X1631395Y1012361D01*
X1631366Y1012419D01*
X1631337Y1012487D01*
X1631268Y1012634D01*
X1631181Y1012800D01*
X1631064Y1012975D01*
X1630937Y1013131D01*
X1630781Y1013268D01*
X1630761Y1013278D01*
X1630703Y1013316D01*
X1630615Y1013365D01*
X1630488Y1013434D01*
X1630342Y1013492D01*
X1630157Y1013541D01*
X1629952Y1013580D01*
X1629718Y1013590D01*
X1629649D01*
X1629601Y1013580D01*
X1629532D01*
X1629464Y1013570D01*
X1629288Y1013541D01*
X1629093Y1013502D01*
X1628889Y1013434D01*
X1628684Y1013346D01*
X1628489Y1013229D01*
X1628479D01*
X1628469Y1013209D01*
X1628411Y1013160D01*
X1628323Y1013082D01*
X1628216Y1012975D01*
X1628108Y1012839D01*
X1627991Y1012682D01*
X1627884Y1012487D01*
X1627796Y1012273D01*
Y1012263D01*
X1627787Y1012244D01*
X1627777Y1012214D01*
X1627767Y1012166D01*
X1627747Y1012117D01*
X1627738Y1012048D01*
X1627699Y1011892D01*
X1627660Y1011707D01*
X1627630Y1011502D01*
X1627611Y1011278D01*
X1627601Y1011044D01*
Y1011034D01*
Y1011005D01*
Y1010966D01*
Y1010907D01*
X1627611Y1010839D01*
Y1010751D01*
X1627621Y1010664D01*
X1627630Y1010566D01*
X1627660Y1010342D01*
X1627699Y1010098D01*
X1627757Y1009854D01*
X1627835Y1009620D01*
Y1009610D01*
X1627845Y1009591D01*
X1627865Y1009561D01*
X1627884Y1009522D01*
X1627933Y1009405D01*
X1628011Y1009278D01*
X1628118Y1009122D01*
X1628245Y1008976D01*
X1628391Y1008830D01*
X1628567Y1008703D01*
X1628577D01*
X1628586Y1008693D01*
X1628616Y1008674D01*
X1628654Y1008654D01*
X1628762Y1008615D01*
X1628898Y1008557D01*
X1629054Y1008508D01*
X1629240Y1008459D01*
X1629445Y1008420D01*
X1629659Y1008410D01*
X1629727D01*
X1629776Y1008420D01*
X1629835D01*
X1629913Y1008430D01*
X1630079Y1008459D01*
X1630264Y1008508D01*
X1630469Y1008586D01*
X1630664Y1008683D01*
X1630859Y1008820D01*
X1630869Y1008830D01*
X1630878Y1008840D01*
X1630937Y1008898D01*
X1631025Y1008996D01*
X1631132Y1009122D01*
X1631239Y1009298D01*
X1631356Y1009503D01*
X1631454Y1009756D01*
X1631532Y1010039D01*
X1632380Y1009825D01*
Y1009815D01*
X1632371Y1009776D01*
X1632351Y1009727D01*
X1632332Y1009649D01*
X1632293Y1009571D01*
X1632254Y1009464D01*
X1632215Y1009357D01*
X1632156Y1009240D01*
X1632029Y1008976D01*
X1631854Y1008713D01*
X1631659Y1008459D01*
X1631542Y1008342D01*
X1631415Y1008235D01*
X1631405Y1008225D01*
X1631385Y1008215D01*
X1631346Y1008186D01*
X1631288Y1008147D01*
X1631220Y1008108D01*
X1631142Y1008059D01*
X1631054Y1008010D01*
X1630947Y1007962D01*
X1630830Y1007913D01*
X1630703Y1007864D01*
X1630556Y1007815D01*
X1630410Y1007776D01*
X1630088Y1007708D01*
X1629913Y1007698D01*
X1629727Y1007689D01*
X1629630D01*
X1629552Y1007698D01*
X1629464D01*
X1629366Y1007708D01*
X1629250Y1007728D01*
X1629133Y1007737D01*
X1628859Y1007796D01*
X1628577Y1007864D01*
X1628303Y1007971D01*
X1628167Y1008030D01*
X1628040Y1008108D01*
X1628030Y1008118D01*
X1628011Y1008128D01*
X1627982Y1008157D01*
X1627933Y1008186D01*
X1627816Y1008284D01*
X1627679Y1008420D01*
X1627513Y1008586D01*
X1627357Y1008801D01*
X1627191Y1009044D01*
X1627055Y1009327D01*
Y1009337D01*
X1627045Y1009366D01*
X1627026Y1009405D01*
X1627006Y1009464D01*
X1626977Y1009542D01*
X1626948Y1009630D01*
X1626918Y1009727D01*
X1626889Y1009844D01*
X1626860Y1009961D01*
X1626831Y1010098D01*
X1626772Y1010390D01*
X1626733Y1010703D01*
X1626723Y1011044D01*
Y1011054D01*
Y1011093D01*
Y1011141D01*
X1626733Y1011210D01*
Y1011298D01*
X1626743Y1011405D01*
X1626753Y1011512D01*
X1626772Y1011639D01*
X1626821Y1011912D01*
X1626879Y1012205D01*
X1626977Y1012507D01*
X1627104Y1012790D01*
Y1012800D01*
X1627123Y1012819D01*
X1627143Y1012858D01*
X1627172Y1012917D01*
X1627211Y1012975D01*
X1627260Y1013043D01*
X1627387Y1013209D01*
X1627533Y1013394D01*
X1627718Y1013580D01*
X1627943Y1013765D01*
X1628186Y1013921D01*
X1628196D01*
X1628216Y1013941D01*
X1628255Y1013960D01*
X1628313Y1013980D01*
X1628372Y1014009D01*
X1628450Y1014048D01*
X1628547Y1014077D01*
X1628645Y1014116D01*
X1628752Y1014155D01*
X1628869Y1014185D01*
X1629133Y1014253D01*
X1629425Y1014292D01*
X1629737Y1014311D01*
X1629835D01*
X1629903Y1014302D01*
D02*
G37*
G36*
X1636409Y1010049D02*
X1637277D01*
Y1009327D01*
X1636409D01*
Y1007796D01*
X1635619D01*
Y1009327D01*
X1632839D01*
Y1010049D01*
X1635765Y1014194D01*
X1636409D01*
Y1010049D01*
D02*
G37*
G36*
X1635893Y1094302D02*
X1635971Y1094292D01*
X1636069Y1094282D01*
X1636176Y1094272D01*
X1636293Y1094253D01*
X1636547Y1094194D01*
X1636820Y1094107D01*
X1636956Y1094048D01*
X1637093Y1093980D01*
X1637220Y1093902D01*
X1637346Y1093814D01*
X1637356Y1093804D01*
X1637376Y1093794D01*
X1637405Y1093765D01*
X1637454Y1093726D01*
X1637503Y1093677D01*
X1637571Y1093609D01*
X1637639Y1093541D01*
X1637707Y1093463D01*
X1637785Y1093365D01*
X1637854Y1093268D01*
X1637932Y1093151D01*
X1638010Y1093024D01*
X1638078Y1092897D01*
X1638146Y1092751D01*
X1638263Y1092439D01*
X1637424Y1092244D01*
Y1092253D01*
X1637415Y1092273D01*
X1637405Y1092312D01*
X1637386Y1092361D01*
X1637356Y1092419D01*
X1637327Y1092487D01*
X1637259Y1092634D01*
X1637171Y1092800D01*
X1637054Y1092975D01*
X1636927Y1093131D01*
X1636771Y1093268D01*
X1636752Y1093278D01*
X1636693Y1093316D01*
X1636605Y1093365D01*
X1636478Y1093434D01*
X1636332Y1093492D01*
X1636147Y1093541D01*
X1635942Y1093580D01*
X1635708Y1093590D01*
X1635640D01*
X1635591Y1093580D01*
X1635523D01*
X1635454Y1093570D01*
X1635279Y1093541D01*
X1635084Y1093502D01*
X1634879Y1093434D01*
X1634674Y1093346D01*
X1634479Y1093229D01*
X1634469D01*
X1634459Y1093209D01*
X1634401Y1093160D01*
X1634313Y1093082D01*
X1634206Y1092975D01*
X1634099Y1092839D01*
X1633981Y1092682D01*
X1633874Y1092487D01*
X1633786Y1092273D01*
Y1092263D01*
X1633777Y1092244D01*
X1633767Y1092214D01*
X1633757Y1092166D01*
X1633738Y1092117D01*
X1633728Y1092048D01*
X1633689Y1091892D01*
X1633650Y1091707D01*
X1633621Y1091502D01*
X1633601Y1091278D01*
X1633591Y1091044D01*
Y1091034D01*
Y1091005D01*
Y1090966D01*
Y1090907D01*
X1633601Y1090839D01*
Y1090751D01*
X1633611Y1090664D01*
X1633621Y1090566D01*
X1633650Y1090342D01*
X1633689Y1090098D01*
X1633747Y1089854D01*
X1633826Y1089620D01*
Y1089610D01*
X1633835Y1089591D01*
X1633855Y1089561D01*
X1633874Y1089522D01*
X1633923Y1089405D01*
X1634001Y1089278D01*
X1634108Y1089122D01*
X1634235Y1088976D01*
X1634381Y1088830D01*
X1634557Y1088703D01*
X1634567D01*
X1634577Y1088693D01*
X1634606Y1088674D01*
X1634645Y1088654D01*
X1634752Y1088615D01*
X1634889Y1088557D01*
X1635045Y1088508D01*
X1635230Y1088459D01*
X1635435Y1088420D01*
X1635649Y1088410D01*
X1635718D01*
X1635766Y1088420D01*
X1635825D01*
X1635903Y1088430D01*
X1636069Y1088459D01*
X1636254Y1088508D01*
X1636459Y1088586D01*
X1636654Y1088683D01*
X1636849Y1088820D01*
X1636859Y1088830D01*
X1636869Y1088840D01*
X1636927Y1088898D01*
X1637015Y1088996D01*
X1637122Y1089122D01*
X1637229Y1089298D01*
X1637346Y1089503D01*
X1637444Y1089756D01*
X1637522Y1090039D01*
X1638371Y1089825D01*
Y1089815D01*
X1638361Y1089776D01*
X1638341Y1089727D01*
X1638322Y1089649D01*
X1638283Y1089571D01*
X1638244Y1089464D01*
X1638205Y1089357D01*
X1638146Y1089240D01*
X1638020Y1088976D01*
X1637844Y1088713D01*
X1637649Y1088459D01*
X1637532Y1088342D01*
X1637405Y1088235D01*
X1637395Y1088225D01*
X1637376Y1088215D01*
X1637337Y1088186D01*
X1637278Y1088147D01*
X1637210Y1088108D01*
X1637132Y1088059D01*
X1637044Y1088010D01*
X1636937Y1087962D01*
X1636820Y1087913D01*
X1636693Y1087864D01*
X1636547Y1087815D01*
X1636400Y1087776D01*
X1636078Y1087708D01*
X1635903Y1087698D01*
X1635718Y1087689D01*
X1635620D01*
X1635542Y1087698D01*
X1635454D01*
X1635357Y1087708D01*
X1635240Y1087728D01*
X1635123Y1087737D01*
X1634850Y1087796D01*
X1634567Y1087864D01*
X1634294Y1087971D01*
X1634157Y1088030D01*
X1634030Y1088108D01*
X1634021Y1088118D01*
X1634001Y1088128D01*
X1633972Y1088157D01*
X1633923Y1088186D01*
X1633806Y1088284D01*
X1633669Y1088420D01*
X1633504Y1088586D01*
X1633347Y1088801D01*
X1633182Y1089044D01*
X1633045Y1089327D01*
Y1089337D01*
X1633035Y1089366D01*
X1633016Y1089405D01*
X1632996Y1089464D01*
X1632967Y1089542D01*
X1632938Y1089630D01*
X1632909Y1089727D01*
X1632879Y1089844D01*
X1632850Y1089961D01*
X1632821Y1090098D01*
X1632762Y1090390D01*
X1632723Y1090703D01*
X1632713Y1091044D01*
Y1091054D01*
Y1091093D01*
Y1091141D01*
X1632723Y1091210D01*
Y1091298D01*
X1632733Y1091405D01*
X1632743Y1091512D01*
X1632762Y1091639D01*
X1632811Y1091912D01*
X1632870Y1092205D01*
X1632967Y1092507D01*
X1633094Y1092790D01*
Y1092800D01*
X1633113Y1092819D01*
X1633133Y1092858D01*
X1633162Y1092917D01*
X1633201Y1092975D01*
X1633250Y1093043D01*
X1633377Y1093209D01*
X1633523Y1093394D01*
X1633708Y1093580D01*
X1633933Y1093765D01*
X1634177Y1093921D01*
X1634186D01*
X1634206Y1093941D01*
X1634245Y1093960D01*
X1634303Y1093980D01*
X1634362Y1094009D01*
X1634440Y1094048D01*
X1634538Y1094077D01*
X1634635Y1094116D01*
X1634742Y1094155D01*
X1634859Y1094185D01*
X1635123Y1094253D01*
X1635415Y1094292D01*
X1635727Y1094311D01*
X1635825D01*
X1635893Y1094302D01*
D02*
G37*
G36*
X1641287Y1094224D02*
X1641414Y1094204D01*
X1641560Y1094175D01*
X1641726Y1094136D01*
X1641892Y1094077D01*
X1642057Y1093999D01*
X1642067D01*
X1642077Y1093989D01*
X1642135Y1093960D01*
X1642214Y1093912D01*
X1642311Y1093843D01*
X1642418Y1093755D01*
X1642535Y1093648D01*
X1642643Y1093521D01*
X1642740Y1093385D01*
X1642750Y1093365D01*
X1642779Y1093316D01*
X1642818Y1093239D01*
X1642857Y1093141D01*
X1642896Y1093014D01*
X1642935Y1092878D01*
X1642965Y1092731D01*
X1642974Y1092566D01*
Y1092546D01*
Y1092497D01*
X1642965Y1092419D01*
X1642945Y1092322D01*
X1642916Y1092205D01*
X1642877Y1092078D01*
X1642828Y1091941D01*
X1642750Y1091814D01*
X1642740Y1091795D01*
X1642711Y1091756D01*
X1642652Y1091697D01*
X1642584Y1091619D01*
X1642487Y1091532D01*
X1642379Y1091444D01*
X1642243Y1091346D01*
X1642087Y1091268D01*
X1642097D01*
X1642116Y1091258D01*
X1642145D01*
X1642184Y1091239D01*
X1642282Y1091210D01*
X1642409Y1091151D01*
X1642545Y1091083D01*
X1642691Y1090985D01*
X1642838Y1090868D01*
X1642965Y1090722D01*
X1642974Y1090703D01*
X1643013Y1090644D01*
X1643062Y1090556D01*
X1643130Y1090439D01*
X1643189Y1090293D01*
X1643238Y1090117D01*
X1643277Y1089912D01*
X1643286Y1089688D01*
Y1089678D01*
Y1089649D01*
Y1089610D01*
X1643277Y1089552D01*
X1643267Y1089474D01*
X1643257Y1089396D01*
X1643238Y1089298D01*
X1643208Y1089201D01*
X1643140Y1088976D01*
X1643091Y1088849D01*
X1643023Y1088732D01*
X1642955Y1088615D01*
X1642877Y1088498D01*
X1642779Y1088381D01*
X1642672Y1088264D01*
X1642662Y1088254D01*
X1642643Y1088235D01*
X1642614Y1088215D01*
X1642565Y1088176D01*
X1642506Y1088128D01*
X1642428Y1088079D01*
X1642340Y1088030D01*
X1642253Y1087981D01*
X1642145Y1087923D01*
X1642028Y1087874D01*
X1641901Y1087825D01*
X1641765Y1087776D01*
X1641619Y1087737D01*
X1641463Y1087718D01*
X1641297Y1087698D01*
X1641131Y1087689D01*
X1641053D01*
X1640994Y1087698D01*
X1640916Y1087708D01*
X1640838Y1087718D01*
X1640741Y1087728D01*
X1640643Y1087747D01*
X1640419Y1087806D01*
X1640185Y1087903D01*
X1640068Y1087952D01*
X1639960Y1088020D01*
X1639843Y1088098D01*
X1639736Y1088186D01*
X1639726Y1088196D01*
X1639717Y1088206D01*
X1639687Y1088235D01*
X1639648Y1088274D01*
X1639609Y1088332D01*
X1639561Y1088391D01*
X1639502Y1088459D01*
X1639453Y1088537D01*
X1639336Y1088732D01*
X1639239Y1088957D01*
X1639151Y1089210D01*
X1639122Y1089347D01*
X1639102Y1089493D01*
X1639892Y1089600D01*
Y1089591D01*
X1639902Y1089571D01*
Y1089532D01*
X1639922Y1089493D01*
X1639951Y1089376D01*
X1640000Y1089230D01*
X1640058Y1089074D01*
X1640136Y1088908D01*
X1640234Y1088762D01*
X1640341Y1088635D01*
X1640360Y1088625D01*
X1640399Y1088586D01*
X1640468Y1088547D01*
X1640565Y1088488D01*
X1640672Y1088440D01*
X1640809Y1088391D01*
X1640965Y1088352D01*
X1641131Y1088342D01*
X1641189D01*
X1641228Y1088352D01*
X1641326Y1088362D01*
X1641453Y1088391D01*
X1641609Y1088440D01*
X1641765Y1088498D01*
X1641921Y1088596D01*
X1642067Y1088723D01*
X1642087Y1088742D01*
X1642126Y1088791D01*
X1642184Y1088869D01*
X1642262Y1088986D01*
X1642331Y1089122D01*
X1642389Y1089288D01*
X1642428Y1089474D01*
X1642448Y1089678D01*
Y1089688D01*
Y1089698D01*
Y1089727D01*
X1642438Y1089766D01*
X1642428Y1089864D01*
X1642399Y1089990D01*
X1642360Y1090127D01*
X1642292Y1090283D01*
X1642204Y1090429D01*
X1642087Y1090566D01*
X1642067Y1090585D01*
X1642028Y1090624D01*
X1641950Y1090673D01*
X1641843Y1090742D01*
X1641716Y1090810D01*
X1641560Y1090859D01*
X1641394Y1090898D01*
X1641199Y1090917D01*
X1641111D01*
X1641043Y1090907D01*
X1640965Y1090898D01*
X1640868Y1090888D01*
X1640760Y1090868D01*
X1640643Y1090839D01*
X1640731Y1091532D01*
X1640780D01*
X1640819Y1091522D01*
X1640946D01*
X1641033Y1091532D01*
X1641160Y1091551D01*
X1641297Y1091580D01*
X1641443Y1091629D01*
X1641599Y1091688D01*
X1641755Y1091775D01*
X1641775Y1091785D01*
X1641823Y1091824D01*
X1641882Y1091892D01*
X1641960Y1091980D01*
X1642038Y1092087D01*
X1642097Y1092224D01*
X1642145Y1092390D01*
X1642165Y1092585D01*
Y1092595D01*
Y1092605D01*
Y1092653D01*
X1642145Y1092731D01*
X1642126Y1092839D01*
X1642097Y1092946D01*
X1642038Y1093063D01*
X1641970Y1093190D01*
X1641872Y1093297D01*
X1641862Y1093307D01*
X1641823Y1093346D01*
X1641755Y1093394D01*
X1641667Y1093443D01*
X1641560Y1093502D01*
X1641433Y1093541D01*
X1641287Y1093580D01*
X1641121Y1093590D01*
X1641043D01*
X1640955Y1093570D01*
X1640858Y1093551D01*
X1640731Y1093521D01*
X1640604Y1093463D01*
X1640477Y1093394D01*
X1640351Y1093297D01*
X1640341Y1093287D01*
X1640302Y1093248D01*
X1640253Y1093180D01*
X1640195Y1093082D01*
X1640126Y1092965D01*
X1640068Y1092819D01*
X1640009Y1092644D01*
X1639970Y1092439D01*
X1639180Y1092575D01*
Y1092585D01*
X1639190Y1092614D01*
X1639200Y1092653D01*
X1639209Y1092702D01*
X1639229Y1092770D01*
X1639249Y1092848D01*
X1639317Y1093024D01*
X1639395Y1093219D01*
X1639512Y1093424D01*
X1639648Y1093619D01*
X1639824Y1093794D01*
X1639834Y1093804D01*
X1639843Y1093814D01*
X1639873Y1093833D01*
X1639922Y1093863D01*
X1639970Y1093892D01*
X1640029Y1093931D01*
X1640175Y1094019D01*
X1640360Y1094097D01*
X1640585Y1094165D01*
X1640829Y1094214D01*
X1640965Y1094233D01*
X1641189D01*
X1641287Y1094224D01*
D02*
G37*
G36*
X1348922Y1190302D02*
X1349001Y1190292D01*
X1349098Y1190282D01*
X1349205Y1190272D01*
X1349322Y1190253D01*
X1349576Y1190194D01*
X1349849Y1190107D01*
X1349986Y1190048D01*
X1350122Y1189980D01*
X1350249Y1189902D01*
X1350376Y1189814D01*
X1350385Y1189804D01*
X1350405Y1189794D01*
X1350434Y1189765D01*
X1350483Y1189726D01*
X1350532Y1189677D01*
X1350600Y1189609D01*
X1350668Y1189541D01*
X1350737Y1189463D01*
X1350815Y1189365D01*
X1350883Y1189268D01*
X1350961Y1189151D01*
X1351039Y1189024D01*
X1351107Y1188897D01*
X1351176Y1188751D01*
X1351293Y1188439D01*
X1350454Y1188244D01*
Y1188253D01*
X1350444Y1188273D01*
X1350434Y1188312D01*
X1350415Y1188361D01*
X1350385Y1188419D01*
X1350356Y1188487D01*
X1350288Y1188634D01*
X1350200Y1188800D01*
X1350083Y1188975D01*
X1349956Y1189131D01*
X1349800Y1189268D01*
X1349781Y1189277D01*
X1349722Y1189316D01*
X1349635Y1189365D01*
X1349508Y1189434D01*
X1349361Y1189492D01*
X1349176Y1189541D01*
X1348971Y1189580D01*
X1348737Y1189590D01*
X1348669D01*
X1348620Y1189580D01*
X1348552D01*
X1348484Y1189570D01*
X1348308Y1189541D01*
X1348113Y1189502D01*
X1347908Y1189434D01*
X1347703Y1189346D01*
X1347508Y1189229D01*
X1347498D01*
X1347489Y1189209D01*
X1347430Y1189160D01*
X1347342Y1189082D01*
X1347235Y1188975D01*
X1347128Y1188839D01*
X1347011Y1188682D01*
X1346904Y1188487D01*
X1346816Y1188273D01*
Y1188263D01*
X1346806Y1188244D01*
X1346796Y1188214D01*
X1346786Y1188166D01*
X1346767Y1188117D01*
X1346757Y1188048D01*
X1346718Y1187892D01*
X1346679Y1187707D01*
X1346650Y1187502D01*
X1346630Y1187278D01*
X1346621Y1187044D01*
Y1187034D01*
Y1187005D01*
Y1186966D01*
Y1186907D01*
X1346630Y1186839D01*
Y1186751D01*
X1346640Y1186664D01*
X1346650Y1186566D01*
X1346679Y1186342D01*
X1346718Y1186098D01*
X1346777Y1185854D01*
X1346855Y1185620D01*
Y1185610D01*
X1346864Y1185591D01*
X1346884Y1185561D01*
X1346904Y1185522D01*
X1346952Y1185405D01*
X1347030Y1185278D01*
X1347138Y1185122D01*
X1347264Y1184976D01*
X1347411Y1184830D01*
X1347586Y1184703D01*
X1347596D01*
X1347606Y1184693D01*
X1347635Y1184674D01*
X1347674Y1184654D01*
X1347781Y1184615D01*
X1347918Y1184557D01*
X1348074Y1184508D01*
X1348259Y1184459D01*
X1348464Y1184420D01*
X1348679Y1184410D01*
X1348747D01*
X1348796Y1184420D01*
X1348854D01*
X1348932Y1184430D01*
X1349098Y1184459D01*
X1349283Y1184508D01*
X1349488Y1184586D01*
X1349683Y1184684D01*
X1349878Y1184820D01*
X1349888Y1184830D01*
X1349898Y1184840D01*
X1349956Y1184898D01*
X1350044Y1184996D01*
X1350151Y1185122D01*
X1350259Y1185298D01*
X1350376Y1185503D01*
X1350473Y1185756D01*
X1350551Y1186039D01*
X1351400Y1185825D01*
Y1185815D01*
X1351390Y1185776D01*
X1351371Y1185727D01*
X1351351Y1185649D01*
X1351312Y1185571D01*
X1351273Y1185464D01*
X1351234Y1185357D01*
X1351176Y1185239D01*
X1351049Y1184976D01*
X1350873Y1184713D01*
X1350678Y1184459D01*
X1350561Y1184342D01*
X1350434Y1184235D01*
X1350424Y1184225D01*
X1350405Y1184215D01*
X1350366Y1184186D01*
X1350307Y1184147D01*
X1350239Y1184108D01*
X1350161Y1184059D01*
X1350073Y1184010D01*
X1349966Y1183962D01*
X1349849Y1183913D01*
X1349722Y1183864D01*
X1349576Y1183815D01*
X1349430Y1183776D01*
X1349108Y1183708D01*
X1348932Y1183698D01*
X1348747Y1183689D01*
X1348649D01*
X1348571Y1183698D01*
X1348484D01*
X1348386Y1183708D01*
X1348269Y1183728D01*
X1348152Y1183737D01*
X1347879Y1183796D01*
X1347596Y1183864D01*
X1347323Y1183971D01*
X1347186Y1184030D01*
X1347059Y1184108D01*
X1347050Y1184118D01*
X1347030Y1184128D01*
X1347001Y1184157D01*
X1346952Y1184186D01*
X1346835Y1184284D01*
X1346699Y1184420D01*
X1346533Y1184586D01*
X1346377Y1184801D01*
X1346211Y1185044D01*
X1346074Y1185327D01*
Y1185337D01*
X1346065Y1185366D01*
X1346045Y1185405D01*
X1346026Y1185464D01*
X1345996Y1185542D01*
X1345967Y1185630D01*
X1345938Y1185727D01*
X1345909Y1185844D01*
X1345879Y1185961D01*
X1345850Y1186098D01*
X1345792Y1186390D01*
X1345753Y1186702D01*
X1345743Y1187044D01*
Y1187054D01*
Y1187093D01*
Y1187141D01*
X1345753Y1187210D01*
Y1187298D01*
X1345762Y1187405D01*
X1345772Y1187512D01*
X1345792Y1187639D01*
X1345840Y1187912D01*
X1345899Y1188205D01*
X1345996Y1188507D01*
X1346123Y1188790D01*
Y1188800D01*
X1346143Y1188819D01*
X1346162Y1188858D01*
X1346192Y1188917D01*
X1346230Y1188975D01*
X1346279Y1189043D01*
X1346406Y1189209D01*
X1346552Y1189395D01*
X1346738Y1189580D01*
X1346962Y1189765D01*
X1347206Y1189921D01*
X1347216D01*
X1347235Y1189941D01*
X1347274Y1189960D01*
X1347333Y1189980D01*
X1347391Y1190009D01*
X1347469Y1190048D01*
X1347567Y1190077D01*
X1347664Y1190116D01*
X1347771Y1190155D01*
X1347889Y1190184D01*
X1348152Y1190253D01*
X1348445Y1190292D01*
X1348757Y1190311D01*
X1348854D01*
X1348922Y1190302D01*
D02*
G37*
G36*
X1354394Y1190224D02*
X1354472Y1190214D01*
X1354560Y1190204D01*
X1354658Y1190194D01*
X1354765Y1190165D01*
X1354999Y1190107D01*
X1355243Y1190019D01*
X1355370Y1189960D01*
X1355487Y1189892D01*
X1355594Y1189804D01*
X1355701Y1189716D01*
X1355711Y1189707D01*
X1355721Y1189697D01*
X1355750Y1189668D01*
X1355789Y1189629D01*
X1355828Y1189570D01*
X1355877Y1189511D01*
X1355974Y1189365D01*
X1356072Y1189180D01*
X1356160Y1188965D01*
X1356228Y1188721D01*
X1356238Y1188585D01*
X1356247Y1188448D01*
Y1188429D01*
Y1188380D01*
X1356238Y1188302D01*
X1356228Y1188205D01*
X1356208Y1188087D01*
X1356179Y1187961D01*
X1356140Y1187824D01*
X1356082Y1187688D01*
X1356072Y1187668D01*
X1356052Y1187619D01*
X1356013Y1187551D01*
X1355955Y1187454D01*
X1355887Y1187337D01*
X1355799Y1187200D01*
X1355682Y1187063D01*
X1355555Y1186907D01*
X1355535Y1186888D01*
X1355487Y1186829D01*
X1355399Y1186741D01*
X1355340Y1186683D01*
X1355272Y1186615D01*
X1355194Y1186537D01*
X1355096Y1186449D01*
X1354999Y1186361D01*
X1354892Y1186254D01*
X1354775Y1186146D01*
X1354638Y1186030D01*
X1354501Y1185912D01*
X1354346Y1185776D01*
X1354336Y1185766D01*
X1354316Y1185747D01*
X1354277Y1185717D01*
X1354228Y1185678D01*
X1354111Y1185581D01*
X1353965Y1185454D01*
X1353819Y1185318D01*
X1353663Y1185181D01*
X1353536Y1185064D01*
X1353487Y1185015D01*
X1353438Y1184966D01*
X1353429Y1184957D01*
X1353409Y1184927D01*
X1353370Y1184888D01*
X1353321Y1184830D01*
X1353214Y1184703D01*
X1353107Y1184547D01*
X1356257D01*
Y1183796D01*
X1352014D01*
Y1183806D01*
Y1183845D01*
Y1183903D01*
X1352024Y1183971D01*
X1352034Y1184050D01*
X1352044Y1184137D01*
X1352073Y1184235D01*
X1352102Y1184332D01*
Y1184342D01*
X1352112Y1184352D01*
X1352131Y1184410D01*
X1352170Y1184488D01*
X1352229Y1184605D01*
X1352297Y1184732D01*
X1352395Y1184879D01*
X1352492Y1185025D01*
X1352619Y1185181D01*
Y1185191D01*
X1352639Y1185200D01*
X1352687Y1185259D01*
X1352765Y1185347D01*
X1352882Y1185464D01*
X1353029Y1185600D01*
X1353204Y1185766D01*
X1353419Y1185952D01*
X1353653Y1186156D01*
X1353663Y1186166D01*
X1353702Y1186195D01*
X1353750Y1186234D01*
X1353819Y1186303D01*
X1353907Y1186371D01*
X1354004Y1186459D01*
X1354219Y1186644D01*
X1354453Y1186868D01*
X1354687Y1187093D01*
X1354804Y1187200D01*
X1354901Y1187307D01*
X1354989Y1187414D01*
X1355067Y1187512D01*
Y1187522D01*
X1355087Y1187532D01*
X1355106Y1187561D01*
X1355126Y1187600D01*
X1355184Y1187697D01*
X1355253Y1187824D01*
X1355321Y1187971D01*
X1355379Y1188127D01*
X1355418Y1188302D01*
X1355438Y1188468D01*
Y1188478D01*
Y1188487D01*
X1355428Y1188546D01*
X1355418Y1188634D01*
X1355399Y1188741D01*
X1355350Y1188868D01*
X1355292Y1188995D01*
X1355213Y1189131D01*
X1355096Y1189258D01*
X1355077Y1189268D01*
X1355038Y1189307D01*
X1354960Y1189355D01*
X1354862Y1189424D01*
X1354736Y1189482D01*
X1354589Y1189531D01*
X1354414Y1189570D01*
X1354219Y1189580D01*
X1354160D01*
X1354121Y1189570D01*
X1354024Y1189560D01*
X1353897Y1189541D01*
X1353750Y1189492D01*
X1353594Y1189434D01*
X1353448Y1189346D01*
X1353312Y1189229D01*
X1353302Y1189209D01*
X1353263Y1189170D01*
X1353204Y1189092D01*
X1353146Y1188985D01*
X1353078Y1188848D01*
X1353029Y1188692D01*
X1352990Y1188507D01*
X1352970Y1188292D01*
X1352161Y1188380D01*
Y1188390D01*
Y1188419D01*
X1352170Y1188468D01*
X1352180Y1188526D01*
X1352200Y1188605D01*
X1352209Y1188692D01*
X1352268Y1188887D01*
X1352346Y1189112D01*
X1352453Y1189336D01*
X1352600Y1189560D01*
X1352678Y1189658D01*
X1352775Y1189755D01*
X1352785Y1189765D01*
X1352804Y1189775D01*
X1352834Y1189804D01*
X1352873Y1189833D01*
X1352931Y1189863D01*
X1353000Y1189911D01*
X1353078Y1189950D01*
X1353165Y1189999D01*
X1353263Y1190038D01*
X1353370Y1190087D01*
X1353497Y1190126D01*
X1353624Y1190155D01*
X1353916Y1190214D01*
X1354072Y1190224D01*
X1354238Y1190233D01*
X1354326D01*
X1354394Y1190224D01*
D02*
G37*
G36*
X1550060Y1090799D02*
X1550138Y1090789D01*
X1550235Y1090779D01*
X1550343Y1090770D01*
X1550460Y1090750D01*
X1550713Y1090692D01*
X1550986Y1090604D01*
X1551123Y1090545D01*
X1551259Y1090477D01*
X1551386Y1090399D01*
X1551513Y1090311D01*
X1551523Y1090302D01*
X1551542Y1090292D01*
X1551572Y1090263D01*
X1551620Y1090224D01*
X1551669Y1090175D01*
X1551737Y1090107D01*
X1551806Y1090038D01*
X1551874Y1089960D01*
X1551952Y1089863D01*
X1552020Y1089765D01*
X1552098Y1089648D01*
X1552176Y1089521D01*
X1552245Y1089395D01*
X1552313Y1089248D01*
X1552430Y1088936D01*
X1551591Y1088741D01*
Y1088751D01*
X1551581Y1088770D01*
X1551572Y1088809D01*
X1551552Y1088858D01*
X1551523Y1088917D01*
X1551494Y1088985D01*
X1551425Y1089131D01*
X1551337Y1089297D01*
X1551221Y1089473D01*
X1551094Y1089629D01*
X1550938Y1089765D01*
X1550918Y1089775D01*
X1550860Y1089814D01*
X1550772Y1089863D01*
X1550645Y1089931D01*
X1550499Y1089989D01*
X1550313Y1090038D01*
X1550109Y1090077D01*
X1549875Y1090087D01*
X1549806D01*
X1549757Y1090077D01*
X1549689D01*
X1549621Y1090068D01*
X1549445Y1090038D01*
X1549250Y1089999D01*
X1549045Y1089931D01*
X1548841Y1089843D01*
X1548645Y1089726D01*
X1548636D01*
X1548626Y1089707D01*
X1548568Y1089658D01*
X1548480Y1089580D01*
X1548372Y1089473D01*
X1548265Y1089336D01*
X1548148Y1089180D01*
X1548041Y1088985D01*
X1547953Y1088770D01*
Y1088761D01*
X1547943Y1088741D01*
X1547934Y1088712D01*
X1547924Y1088663D01*
X1547904Y1088614D01*
X1547894Y1088546D01*
X1547856Y1088390D01*
X1547816Y1088205D01*
X1547787Y1088000D01*
X1547768Y1087775D01*
X1547758Y1087541D01*
Y1087532D01*
Y1087502D01*
Y1087463D01*
Y1087405D01*
X1547768Y1087337D01*
Y1087249D01*
X1547777Y1087161D01*
X1547787Y1087063D01*
X1547816Y1086839D01*
X1547856Y1086595D01*
X1547914Y1086351D01*
X1547992Y1086117D01*
Y1086108D01*
X1548002Y1086088D01*
X1548021Y1086059D01*
X1548041Y1086020D01*
X1548090Y1085903D01*
X1548168Y1085776D01*
X1548275Y1085620D01*
X1548402Y1085474D01*
X1548548Y1085327D01*
X1548723Y1085201D01*
X1548733D01*
X1548743Y1085191D01*
X1548772Y1085171D01*
X1548811Y1085152D01*
X1548919Y1085113D01*
X1549055Y1085054D01*
X1549211Y1085005D01*
X1549397Y1084957D01*
X1549601Y1084918D01*
X1549816Y1084908D01*
X1549884D01*
X1549933Y1084918D01*
X1549991D01*
X1550069Y1084927D01*
X1550235Y1084957D01*
X1550421Y1085005D01*
X1550625Y1085083D01*
X1550821Y1085181D01*
X1551016Y1085318D01*
X1551025Y1085327D01*
X1551035Y1085337D01*
X1551094Y1085396D01*
X1551181Y1085493D01*
X1551289Y1085620D01*
X1551396Y1085795D01*
X1551513Y1086000D01*
X1551611Y1086254D01*
X1551689Y1086537D01*
X1552537Y1086322D01*
Y1086312D01*
X1552527Y1086273D01*
X1552508Y1086225D01*
X1552488Y1086147D01*
X1552449Y1086068D01*
X1552410Y1085961D01*
X1552371Y1085854D01*
X1552313Y1085737D01*
X1552186Y1085474D01*
X1552010Y1085210D01*
X1551815Y1084957D01*
X1551698Y1084840D01*
X1551572Y1084732D01*
X1551562Y1084723D01*
X1551542Y1084713D01*
X1551503Y1084684D01*
X1551445Y1084644D01*
X1551376Y1084605D01*
X1551299Y1084557D01*
X1551211Y1084508D01*
X1551103Y1084459D01*
X1550986Y1084410D01*
X1550860Y1084362D01*
X1550713Y1084313D01*
X1550567Y1084274D01*
X1550245Y1084206D01*
X1550069Y1084196D01*
X1549884Y1084186D01*
X1549787D01*
X1549709Y1084196D01*
X1549621D01*
X1549523Y1084206D01*
X1549406Y1084225D01*
X1549289Y1084235D01*
X1549016Y1084293D01*
X1548733Y1084362D01*
X1548460Y1084469D01*
X1548324Y1084528D01*
X1548197Y1084605D01*
X1548187Y1084615D01*
X1548168Y1084625D01*
X1548138Y1084654D01*
X1548090Y1084684D01*
X1547973Y1084781D01*
X1547836Y1084918D01*
X1547670Y1085083D01*
X1547514Y1085298D01*
X1547348Y1085542D01*
X1547212Y1085825D01*
Y1085835D01*
X1547202Y1085864D01*
X1547182Y1085903D01*
X1547163Y1085961D01*
X1547134Y1086039D01*
X1547104Y1086127D01*
X1547075Y1086225D01*
X1547046Y1086342D01*
X1547017Y1086459D01*
X1546987Y1086595D01*
X1546929Y1086888D01*
X1546890Y1087200D01*
X1546880Y1087541D01*
Y1087551D01*
Y1087590D01*
Y1087639D01*
X1546890Y1087707D01*
Y1087795D01*
X1546900Y1087902D01*
X1546909Y1088009D01*
X1546929Y1088136D01*
X1546978Y1088409D01*
X1547036Y1088702D01*
X1547134Y1089004D01*
X1547260Y1089287D01*
Y1089297D01*
X1547280Y1089316D01*
X1547299Y1089355D01*
X1547329Y1089414D01*
X1547368Y1089473D01*
X1547417Y1089541D01*
X1547543Y1089707D01*
X1547690Y1089892D01*
X1547875Y1090077D01*
X1548099Y1090263D01*
X1548343Y1090419D01*
X1548353D01*
X1548372Y1090438D01*
X1548411Y1090458D01*
X1548470Y1090477D01*
X1548528Y1090506D01*
X1548607Y1090545D01*
X1548704Y1090575D01*
X1548802Y1090614D01*
X1548909Y1090653D01*
X1549026Y1090682D01*
X1549289Y1090750D01*
X1549582Y1090789D01*
X1549894Y1090809D01*
X1549991D01*
X1550060Y1090799D01*
D02*
G37*
G36*
X1556224Y1084293D02*
X1555434D01*
Y1089307D01*
X1555424Y1089297D01*
X1555385Y1089258D01*
X1555317Y1089209D01*
X1555229Y1089141D01*
X1555122Y1089053D01*
X1554995Y1088965D01*
X1554849Y1088858D01*
X1554683Y1088761D01*
X1554673D01*
X1554664Y1088751D01*
X1554605Y1088712D01*
X1554517Y1088663D01*
X1554410Y1088605D01*
X1554283Y1088536D01*
X1554147Y1088478D01*
X1554000Y1088409D01*
X1553864Y1088351D01*
Y1089121D01*
X1553873D01*
X1553893Y1089131D01*
X1553932Y1089151D01*
X1553971Y1089180D01*
X1554030Y1089209D01*
X1554098Y1089239D01*
X1554254Y1089326D01*
X1554429Y1089434D01*
X1554624Y1089560D01*
X1554819Y1089707D01*
X1555005Y1089863D01*
X1555015Y1089872D01*
X1555024Y1089882D01*
X1555083Y1089941D01*
X1555171Y1090029D01*
X1555278Y1090136D01*
X1555395Y1090272D01*
X1555512Y1090419D01*
X1555619Y1090575D01*
X1555707Y1090731D01*
X1556224D01*
Y1084293D01*
D02*
G37*
%LPC*%
G36*
X1477416Y1096636D02*
X1475407Y1093769D01*
X1477416D01*
Y1096636D01*
D02*
G37*
G36*
X1471642Y1097212D02*
X1469623D01*
Y1095095D01*
X1471535D01*
X1471642Y1095105D01*
X1471769Y1095115D01*
X1471915Y1095124D01*
X1472071Y1095144D01*
X1472218Y1095173D01*
X1472344Y1095212D01*
X1472364Y1095222D01*
X1472403Y1095232D01*
X1472462Y1095261D01*
X1472530Y1095300D01*
X1472608Y1095358D01*
X1472696Y1095427D01*
X1472774Y1095505D01*
X1472842Y1095592D01*
X1472852Y1095602D01*
X1472871Y1095641D01*
X1472900Y1095690D01*
X1472930Y1095768D01*
X1472959Y1095846D01*
X1472988Y1095944D01*
X1473008Y1096051D01*
X1473017Y1096168D01*
Y1096178D01*
Y1096188D01*
Y1096246D01*
X1472998Y1096324D01*
X1472978Y1096431D01*
X1472939Y1096548D01*
X1472881Y1096675D01*
X1472793Y1096802D01*
X1472686Y1096919D01*
X1472666Y1096929D01*
X1472627Y1096968D01*
X1472540Y1097017D01*
X1472432Y1097065D01*
X1472286Y1097124D01*
X1472110Y1097163D01*
X1471896Y1097202D01*
X1471642Y1097212D01*
D02*
G37*
G36*
X1566708Y1119531D02*
X1564689D01*
Y1117414D01*
X1566601D01*
X1566708Y1117424D01*
X1566835Y1117434D01*
X1566981Y1117444D01*
X1567137Y1117463D01*
X1567283Y1117493D01*
X1567410Y1117532D01*
X1567430Y1117541D01*
X1567469Y1117551D01*
X1567527Y1117580D01*
X1567596Y1117619D01*
X1567673Y1117678D01*
X1567761Y1117746D01*
X1567839Y1117824D01*
X1567908Y1117912D01*
X1567917Y1117922D01*
X1567937Y1117961D01*
X1567966Y1118009D01*
X1567995Y1118087D01*
X1568025Y1118166D01*
X1568054Y1118263D01*
X1568073Y1118370D01*
X1568083Y1118487D01*
Y1118497D01*
Y1118507D01*
Y1118566D01*
X1568064Y1118643D01*
X1568044Y1118751D01*
X1568005Y1118868D01*
X1567947Y1118995D01*
X1567859Y1119121D01*
X1567752Y1119239D01*
X1567732Y1119248D01*
X1567693Y1119287D01*
X1567605Y1119336D01*
X1567498Y1119385D01*
X1567352Y1119443D01*
X1567176Y1119482D01*
X1566962Y1119521D01*
X1566708Y1119531D01*
D02*
G37*
G36*
X1398737Y1063477D02*
X1396718D01*
Y1061361D01*
X1398630D01*
X1398737Y1061371D01*
X1398864Y1061380D01*
X1399010Y1061390D01*
X1399166Y1061410D01*
X1399313Y1061439D01*
X1399439Y1061478D01*
X1399459Y1061488D01*
X1399498Y1061497D01*
X1399556Y1061527D01*
X1399625Y1061566D01*
X1399703Y1061624D01*
X1399790Y1061693D01*
X1399869Y1061770D01*
X1399937Y1061858D01*
X1399947Y1061868D01*
X1399966Y1061907D01*
X1399995Y1061956D01*
X1400025Y1062034D01*
X1400054Y1062112D01*
X1400083Y1062209D01*
X1400103Y1062317D01*
X1400112Y1062434D01*
Y1062443D01*
Y1062453D01*
Y1062512D01*
X1400093Y1062590D01*
X1400073Y1062697D01*
X1400034Y1062814D01*
X1399976Y1062941D01*
X1399888Y1063068D01*
X1399781Y1063185D01*
X1399761Y1063195D01*
X1399722Y1063234D01*
X1399635Y1063282D01*
X1399527Y1063331D01*
X1399381Y1063390D01*
X1399205Y1063429D01*
X1398991Y1063468D01*
X1398737Y1063477D01*
D02*
G37*
G36*
X1511322Y1114477D02*
X1509303D01*
Y1112361D01*
X1511215D01*
X1511322Y1112371D01*
X1511449Y1112380D01*
X1511595Y1112390D01*
X1511752Y1112410D01*
X1511898Y1112439D01*
X1512025Y1112478D01*
X1512044Y1112488D01*
X1512083Y1112497D01*
X1512142Y1112527D01*
X1512210Y1112566D01*
X1512288Y1112624D01*
X1512376Y1112692D01*
X1512454Y1112770D01*
X1512522Y1112858D01*
X1512532Y1112868D01*
X1512551Y1112907D01*
X1512581Y1112956D01*
X1512610Y1113034D01*
X1512639Y1113112D01*
X1512668Y1113210D01*
X1512688Y1113317D01*
X1512698Y1113434D01*
Y1113444D01*
Y1113453D01*
Y1113512D01*
X1512678Y1113590D01*
X1512659Y1113697D01*
X1512620Y1113814D01*
X1512561Y1113941D01*
X1512473Y1114068D01*
X1512366Y1114185D01*
X1512346Y1114195D01*
X1512307Y1114234D01*
X1512220Y1114282D01*
X1512112Y1114331D01*
X1511966Y1114390D01*
X1511791Y1114429D01*
X1511576Y1114468D01*
X1511322Y1114477D01*
D02*
G37*
G36*
X1590132Y1189580D02*
X1590044D01*
X1589986Y1189570D01*
X1589908Y1189560D01*
X1589810Y1189551D01*
X1589713Y1189531D01*
X1589606Y1189502D01*
X1589362Y1189424D01*
X1589235Y1189375D01*
X1589108Y1189316D01*
X1588972Y1189248D01*
X1588845Y1189160D01*
X1588718Y1189063D01*
X1588591Y1188956D01*
X1588581Y1188946D01*
X1588562Y1188926D01*
X1588533Y1188887D01*
X1588494Y1188839D01*
X1588445Y1188770D01*
X1588386Y1188682D01*
X1588328Y1188585D01*
X1588269Y1188468D01*
X1588211Y1188331D01*
X1588152Y1188185D01*
X1588094Y1188019D01*
X1588045Y1187824D01*
X1588006Y1187619D01*
X1587977Y1187405D01*
X1587957Y1187161D01*
X1587947Y1186898D01*
Y1186888D01*
Y1186849D01*
Y1186790D01*
X1587957Y1186702D01*
X1587967Y1186605D01*
X1587977Y1186498D01*
X1587996Y1186371D01*
X1588025Y1186234D01*
X1588094Y1185942D01*
X1588152Y1185795D01*
X1588211Y1185639D01*
X1588279Y1185493D01*
X1588357Y1185347D01*
X1588455Y1185200D01*
X1588562Y1185074D01*
X1588572Y1185064D01*
X1588591Y1185044D01*
X1588630Y1185015D01*
X1588679Y1184966D01*
X1588737Y1184918D01*
X1588806Y1184869D01*
X1588893Y1184801D01*
X1588991Y1184742D01*
X1589098Y1184684D01*
X1589215Y1184625D01*
X1589342Y1184566D01*
X1589488Y1184518D01*
X1589635Y1184469D01*
X1589791Y1184440D01*
X1589947Y1184420D01*
X1590122Y1184410D01*
X1590210D01*
X1590278Y1184420D01*
X1590366Y1184430D01*
X1590454Y1184449D01*
X1590561Y1184469D01*
X1590678Y1184498D01*
X1590922Y1184576D01*
X1591059Y1184625D01*
X1591186Y1184693D01*
X1591322Y1184771D01*
X1591449Y1184859D01*
X1591576Y1184957D01*
X1591693Y1185074D01*
X1591703Y1185083D01*
X1591722Y1185103D01*
X1591751Y1185142D01*
X1591790Y1185200D01*
X1591839Y1185269D01*
X1591888Y1185357D01*
X1591946Y1185454D01*
X1592005Y1185561D01*
X1592063Y1185698D01*
X1592122Y1185834D01*
X1592171Y1185991D01*
X1592219Y1186166D01*
X1592258Y1186351D01*
X1592288Y1186546D01*
X1592307Y1186761D01*
X1592317Y1186985D01*
Y1186995D01*
Y1187024D01*
Y1187063D01*
Y1187112D01*
X1592307Y1187180D01*
Y1187268D01*
X1592288Y1187454D01*
X1592249Y1187658D01*
X1592200Y1187892D01*
X1592132Y1188127D01*
X1592044Y1188351D01*
Y1188361D01*
X1592034Y1188380D01*
X1592015Y1188409D01*
X1591995Y1188448D01*
X1591937Y1188556D01*
X1591849Y1188682D01*
X1591741Y1188829D01*
X1591605Y1188985D01*
X1591449Y1189131D01*
X1591273Y1189258D01*
X1591264D01*
X1591254Y1189268D01*
X1591225Y1189287D01*
X1591186Y1189307D01*
X1591078Y1189355D01*
X1590942Y1189424D01*
X1590776Y1189482D01*
X1590581Y1189531D01*
X1590366Y1189570D01*
X1590132Y1189580D01*
D02*
G37*
G36*
X1756228Y1236258D02*
X1756180D01*
X1756141Y1236249D01*
X1756043Y1236239D01*
X1755916Y1236210D01*
X1755780Y1236161D01*
X1755624Y1236093D01*
X1755477Y1235995D01*
X1755331Y1235868D01*
X1755312Y1235849D01*
X1755273Y1235800D01*
X1755214Y1235712D01*
X1755146Y1235605D01*
X1755078Y1235459D01*
X1755019Y1235283D01*
X1754980Y1235088D01*
X1754960Y1234864D01*
Y1234844D01*
Y1234795D01*
X1754970Y1234717D01*
X1754980Y1234620D01*
X1755000Y1234493D01*
X1755029Y1234366D01*
X1755068Y1234230D01*
X1755126Y1234083D01*
X1755136Y1234064D01*
X1755155Y1234025D01*
X1755195Y1233957D01*
X1755253Y1233879D01*
X1755321Y1233781D01*
X1755399Y1233693D01*
X1755497Y1233596D01*
X1755604Y1233518D01*
X1755614Y1233508D01*
X1755663Y1233488D01*
X1755721Y1233459D01*
X1755799Y1233430D01*
X1755897Y1233391D01*
X1756014Y1233362D01*
X1756131Y1233342D01*
X1756258Y1233332D01*
X1756306D01*
X1756346Y1233342D01*
X1756433Y1233352D01*
X1756560Y1233381D01*
X1756687Y1233430D01*
X1756833Y1233498D01*
X1756980Y1233596D01*
X1757116Y1233732D01*
X1757135Y1233752D01*
X1757175Y1233810D01*
X1757233Y1233898D01*
X1757301Y1234015D01*
X1757360Y1234171D01*
X1757418Y1234366D01*
X1757457Y1234581D01*
X1757477Y1234825D01*
Y1234834D01*
Y1234854D01*
Y1234893D01*
X1757467Y1234932D01*
Y1234990D01*
X1757457Y1235059D01*
X1757438Y1235205D01*
X1757389Y1235371D01*
X1757331Y1235546D01*
X1757243Y1235712D01*
X1757126Y1235868D01*
X1757106Y1235888D01*
X1757067Y1235927D01*
X1756989Y1235995D01*
X1756882Y1236063D01*
X1756755Y1236132D01*
X1756599Y1236200D01*
X1756423Y1236239D01*
X1756228Y1236258D01*
D02*
G37*
G36*
X1635619Y1012917D02*
X1633609Y1010049D01*
X1635619D01*
Y1012917D01*
D02*
G37*
%LPD*%
D10*
X1713000Y1218000D02*
Y1234000D01*
X1715000Y1190000D02*
Y1206000D01*
X1682370Y1017040D02*
X1683370Y1018040D01*
X1682370Y1017040D02*
Y1020540D01*
Y1019040D02*
Y1020540D01*
X1681370Y1021040D02*
X1684370D01*
X1367000Y1170000D02*
X1383000D01*
X1516000Y1168000D02*
X1532000D01*
X1545000Y1060000D02*
Y1076000D01*
X1623140Y1036020D02*
Y1052020D01*
Y1061420D02*
Y1077420D01*
M02*
