G04*
G04 #@! TF.GenerationSoftware,Altium Limited,Altium Designer,22.8.2 (66)*
G04*
G04 Layer_Color=8421504*
%FSLAX44Y44*%
%MOMM*%
G71*
G04*
G04 #@! TF.SameCoordinates,52C54432-6914-4BE2-A169-96465BD4BA84*
G04*
G04*
G04 #@! TF.FilePolarity,Positive*
G04*
G01*
G75*
%ADD11R,1.5240X1.0160*%
%ADD12R,1.1430X1.7780*%
%ADD13R,1.7780X1.1430*%
%ADD14R,1.0160X0.7620*%
%ADD15R,0.7620X1.0160*%
%ADD16R,1.0160X1.0160*%
%ADD17R,1.0160X1.0160*%
D11*
X1406360Y1225623D02*
D03*
Y1212923D02*
D03*
Y1238577D02*
D03*
Y1187523D02*
D03*
Y1174823D02*
D03*
Y1200477D02*
D03*
Y1149423D02*
D03*
Y1162377D02*
D03*
X1487640Y1225623D02*
D03*
Y1212923D02*
D03*
Y1238577D02*
D03*
Y1187523D02*
D03*
Y1174823D02*
D03*
Y1200477D02*
D03*
Y1149423D02*
D03*
Y1162377D02*
D03*
D12*
X1698000Y1226000D02*
D03*
X1728000D02*
D03*
X1700000Y1198000D02*
D03*
X1730000D02*
D03*
X1560000Y1068000D02*
D03*
X1530000D02*
D03*
X1638140Y1044020D02*
D03*
X1608140D02*
D03*
X1638140Y1069420D02*
D03*
X1608140D02*
D03*
D13*
X1375000Y1155000D02*
D03*
Y1185000D02*
D03*
X1524000Y1153000D02*
D03*
Y1183000D02*
D03*
D14*
X1529000Y1106000D02*
D03*
Y1120000D02*
D03*
D15*
X1461000Y1081000D02*
D03*
X1447000D02*
D03*
X1511000D02*
D03*
X1497000D02*
D03*
D16*
X1547000Y1105000D02*
D03*
Y1120000D02*
D03*
X1426000Y1069000D02*
D03*
Y1084000D02*
D03*
X1497000Y1112000D02*
D03*
Y1097000D02*
D03*
D17*
X1466000Y1112000D02*
D03*
X1481000D02*
D03*
M02*
