G04*
G04 #@! TF.GenerationSoftware,Altium Limited,Altium Designer,22.8.2 (66)*
G04*
G04 Layer_Physical_Order=1*
G04 Layer_Color=255*
%FSLAX44Y44*%
%MOMM*%
G71*
G04*
G04 #@! TF.SameCoordinates,52C54432-6914-4BE2-A169-96465BD4BA84*
G04*
G04*
G04 #@! TF.FilePolarity,Positive*
G04*
G01*
G75*
%ADD11R,1.5240X1.0160*%
%ADD12R,1.1430X1.7780*%
%ADD13R,1.7780X1.1430*%
%ADD14R,1.0160X0.7620*%
%ADD15R,0.7620X1.0160*%
%ADD16R,1.0160X1.0160*%
%ADD17R,1.0160X1.0160*%
%ADD31C,0.3000*%
%ADD32C,0.2540*%
%ADD33C,0.8000*%
%ADD34C,0.6000*%
%ADD35C,1.2700*%
%ADD36O,3.8100X2.5400*%
%ADD37C,1.5240*%
%ADD38C,2.0320*%
%ADD39R,2.0320X2.0320*%
%ADD40C,1.5000*%
G36*
X1780000Y988000D02*
X1323184D01*
X1322000Y988208D01*
Y1250000D01*
X1780000D01*
Y988000D01*
D02*
G37*
%LPC*%
G36*
X1414019Y1243696D02*
X1398701D01*
Y1233458D01*
X1414019D01*
Y1243696D01*
D02*
G37*
G36*
X1736255Y1237430D02*
X1729270D01*
Y1227270D01*
X1736255D01*
Y1237430D01*
D02*
G37*
G36*
X1726730D02*
X1719745D01*
Y1227270D01*
X1726730D01*
Y1237430D01*
D02*
G37*
G36*
X1414019Y1230742D02*
X1398701D01*
Y1220504D01*
X1414019D01*
Y1230742D01*
D02*
G37*
G36*
X1495299Y1243696D02*
X1479981D01*
Y1233458D01*
X1495299D01*
Y1237160D01*
X1629836D01*
X1638424Y1228573D01*
Y1225262D01*
X1636381Y1224416D01*
X1634584Y1222619D01*
X1633611Y1220271D01*
Y1217729D01*
X1634584Y1215381D01*
X1636381Y1213584D01*
X1638729Y1212611D01*
X1641271D01*
X1643619Y1213584D01*
X1645416Y1215381D01*
X1646328Y1217584D01*
X1656000D01*
X1657002Y1217998D01*
X1658587Y1219584D01*
X1692246D01*
Y1217071D01*
X1703754D01*
Y1234929D01*
X1692246D01*
Y1222416D01*
X1658000D01*
X1656998Y1222002D01*
X1655413Y1220416D01*
X1646328D01*
X1645416Y1222619D01*
X1643619Y1224416D01*
X1641271Y1225389D01*
X1641256D01*
Y1229160D01*
X1640842Y1230162D01*
X1631425Y1239578D01*
X1630423Y1239993D01*
X1495299D01*
Y1243696D01*
D02*
G37*
G36*
X1736255Y1224730D02*
X1729270D01*
Y1214570D01*
X1736255D01*
Y1224730D01*
D02*
G37*
G36*
X1726730D02*
X1719745D01*
Y1214570D01*
X1726730D01*
Y1224730D01*
D02*
G37*
G36*
X1759322Y1222040D02*
X1759270D01*
Y1213270D01*
X1768040D01*
Y1213322D01*
X1767356Y1215875D01*
X1766034Y1218165D01*
X1764165Y1220034D01*
X1761875Y1221356D01*
X1759322Y1222040D01*
D02*
G37*
G36*
X1756730D02*
X1756678D01*
X1754125Y1221356D01*
X1751835Y1220034D01*
X1749966Y1218165D01*
X1748644Y1215875D01*
X1747960Y1213322D01*
Y1213270D01*
X1756730D01*
Y1222040D01*
D02*
G37*
G36*
X1414019Y1218042D02*
X1398701D01*
Y1207804D01*
X1414019D01*
Y1218042D01*
D02*
G37*
G36*
X1768040Y1210730D02*
X1759270D01*
Y1201960D01*
X1759322D01*
X1761875Y1202644D01*
X1764165Y1203966D01*
X1766034Y1205835D01*
X1767356Y1208125D01*
X1768040Y1210678D01*
Y1210730D01*
D02*
G37*
G36*
X1756730D02*
X1747960D01*
Y1210678D01*
X1748644Y1208125D01*
X1749966Y1205835D01*
X1751835Y1203966D01*
X1754125Y1202644D01*
X1756678Y1201960D01*
X1756730D01*
Y1210730D01*
D02*
G37*
G36*
X1738255Y1209430D02*
X1731270D01*
Y1199270D01*
X1738255D01*
Y1209430D01*
D02*
G37*
G36*
X1728730D02*
X1721745D01*
Y1199270D01*
X1728730D01*
Y1209430D01*
D02*
G37*
G36*
X1414019Y1205596D02*
X1398701D01*
Y1195358D01*
X1414019D01*
Y1205596D01*
D02*
G37*
G36*
X1587387Y1230868D02*
X1491220D01*
X1490914Y1230742D01*
X1479981D01*
Y1220504D01*
X1495299D01*
Y1227538D01*
X1586697D01*
X1587479Y1226756D01*
Y1224456D01*
X1587381Y1224416D01*
X1585584Y1222619D01*
X1584611Y1220271D01*
Y1217729D01*
X1585584Y1215381D01*
X1587381Y1213584D01*
X1589729Y1212611D01*
X1592271D01*
X1594224Y1213420D01*
X1610822Y1196822D01*
X1612000Y1196335D01*
X1694246D01*
Y1189071D01*
X1705754D01*
Y1206929D01*
X1694246D01*
Y1199665D01*
X1612690D01*
X1596579Y1215776D01*
X1597389Y1217729D01*
Y1220271D01*
X1596416Y1222619D01*
X1594619Y1224416D01*
X1592271Y1225389D01*
X1590809D01*
Y1227446D01*
X1590322Y1228623D01*
X1588564Y1230381D01*
X1587387Y1230868D01*
D02*
G37*
G36*
X1738255Y1196730D02*
X1731270D01*
Y1186570D01*
X1738255D01*
Y1196730D01*
D02*
G37*
G36*
X1728730D02*
X1721745D01*
Y1186570D01*
X1728730D01*
Y1196730D01*
D02*
G37*
G36*
X1414019Y1192642D02*
X1398701D01*
Y1186416D01*
X1383929D01*
Y1190754D01*
X1366071D01*
Y1179246D01*
X1383929D01*
Y1183584D01*
X1398701D01*
Y1182404D01*
X1414019D01*
Y1192642D01*
D02*
G37*
G36*
X1495299D02*
X1479981D01*
Y1190621D01*
X1474523D01*
X1473337Y1190385D01*
X1472332Y1189714D01*
X1472332Y1189714D01*
X1378809Y1096191D01*
X1378138Y1095186D01*
X1377935Y1094169D01*
X1376665Y1094294D01*
Y1149246D01*
X1383929D01*
Y1160754D01*
X1366071D01*
Y1149246D01*
X1373335D01*
Y1012000D01*
X1373822Y1010822D01*
X1377822Y1006822D01*
X1379000Y1006335D01*
X1503000D01*
X1504178Y1006822D01*
X1506178Y1008822D01*
X1506665Y1010000D01*
Y1026888D01*
X1508936Y1027496D01*
X1511262Y1028839D01*
X1513161Y1030738D01*
X1514504Y1033064D01*
X1515199Y1035657D01*
Y1038343D01*
X1514504Y1040937D01*
X1513161Y1043262D01*
X1511262Y1045161D01*
X1508936Y1046504D01*
X1506343Y1047199D01*
X1503657D01*
X1501064Y1046504D01*
X1498738Y1045161D01*
X1496839Y1043262D01*
X1495496Y1040937D01*
X1494801Y1038343D01*
Y1035657D01*
X1495496Y1033064D01*
X1496839Y1030738D01*
X1498738Y1028839D01*
X1501064Y1027496D01*
X1503335Y1026888D01*
Y1010690D01*
X1502310Y1009665D01*
X1379690D01*
X1376665Y1012690D01*
Y1023706D01*
X1377935Y1023831D01*
X1378138Y1022814D01*
X1378809Y1021809D01*
X1386809Y1013809D01*
X1387814Y1013138D01*
X1389000Y1012902D01*
X1472745D01*
X1472745Y1012902D01*
X1473931Y1013138D01*
X1474936Y1013809D01*
X1478451Y1017324D01*
X1479122Y1018329D01*
X1479358Y1019515D01*
X1479358Y1019515D01*
Y1026801D01*
X1480343D01*
X1482937Y1027496D01*
X1485262Y1028839D01*
X1487161Y1030738D01*
X1488504Y1033064D01*
X1489199Y1035657D01*
Y1038343D01*
X1488504Y1040937D01*
X1487161Y1043262D01*
X1485262Y1045161D01*
X1482937Y1046504D01*
X1480343Y1047199D01*
X1477657D01*
X1475063Y1046504D01*
X1472738Y1045161D01*
X1470839Y1043262D01*
X1469496Y1040937D01*
X1468801Y1038343D01*
Y1035657D01*
X1469496Y1033064D01*
X1470839Y1030738D01*
X1472738Y1028839D01*
X1473162Y1028594D01*
Y1020798D01*
X1471462Y1019098D01*
X1390283D01*
X1384098Y1025283D01*
Y1092717D01*
X1475806Y1184425D01*
X1479981D01*
Y1182404D01*
X1495299D01*
Y1184425D01*
X1515019D01*
X1515071Y1184372D01*
Y1177246D01*
X1532929D01*
Y1188754D01*
X1519453D01*
X1518493Y1189714D01*
X1517488Y1190385D01*
X1516302Y1190621D01*
X1516302Y1190621D01*
X1495299D01*
Y1192642D01*
D02*
G37*
G36*
X1414019Y1179942D02*
X1398701D01*
Y1169704D01*
X1414019D01*
Y1179942D01*
D02*
G37*
G36*
X1535430Y1161255D02*
X1525270D01*
Y1154270D01*
X1535430D01*
Y1161255D01*
D02*
G37*
G36*
X1522730D02*
X1512570D01*
Y1154270D01*
X1522730D01*
Y1161255D01*
D02*
G37*
G36*
X1641322Y1158040D02*
X1641270D01*
Y1149270D01*
X1650040D01*
Y1149322D01*
X1649356Y1151875D01*
X1648034Y1154165D01*
X1646165Y1156034D01*
X1643875Y1157356D01*
X1641322Y1158040D01*
D02*
G37*
G36*
X1638730D02*
X1638678D01*
X1636125Y1157356D01*
X1633835Y1156034D01*
X1631966Y1154165D01*
X1630644Y1151875D01*
X1629960Y1149322D01*
Y1149270D01*
X1638730D01*
Y1158040D01*
D02*
G37*
G36*
X1557322Y1156040D02*
X1557270D01*
Y1147270D01*
X1566040D01*
Y1147322D01*
X1565356Y1149875D01*
X1564034Y1152165D01*
X1562165Y1154034D01*
X1559875Y1155356D01*
X1557322Y1156040D01*
D02*
G37*
G36*
X1554730D02*
X1554678D01*
X1552125Y1155356D01*
X1549835Y1154034D01*
X1547966Y1152165D01*
X1546644Y1149875D01*
X1545960Y1147322D01*
Y1147270D01*
X1554730D01*
Y1156040D01*
D02*
G37*
G36*
X1535430Y1151730D02*
X1525270D01*
Y1144745D01*
X1535430D01*
Y1151730D01*
D02*
G37*
G36*
X1522730D02*
X1512570D01*
Y1144745D01*
X1522730D01*
Y1151730D01*
D02*
G37*
G36*
X1383000Y1172098D02*
X1383000Y1172098D01*
X1361000D01*
X1359814Y1171862D01*
X1358809Y1171191D01*
X1350809Y1163191D01*
X1350138Y1162186D01*
X1349902Y1161000D01*
X1349902Y1161000D01*
Y1017000D01*
X1349902Y1017000D01*
X1350138Y1015814D01*
X1350809Y1014809D01*
X1368809Y996809D01*
X1369814Y996138D01*
X1371000Y995902D01*
X1371000Y995902D01*
X1512000D01*
X1512000Y995902D01*
X1513186Y996138D01*
X1514191Y996809D01*
X1532191Y1014809D01*
X1532862Y1015814D01*
X1533098Y1017000D01*
X1533098Y1017000D01*
Y1024582D01*
X1534272Y1025068D01*
X1538106Y1021233D01*
X1539442Y1020341D01*
X1541018Y1020027D01*
X1541018Y1020027D01*
X1638271D01*
X1639000Y1019882D01*
X1653000D01*
X1653000Y1019882D01*
X1654576Y1020196D01*
X1655912Y1021088D01*
X1666912Y1032088D01*
X1666912Y1032088D01*
X1667804Y1033424D01*
X1668118Y1035000D01*
Y1046294D01*
X1674746Y1052922D01*
X1683904D01*
X1684242Y1052337D01*
X1685668Y1050912D01*
X1687414Y1049903D01*
X1689362Y1049381D01*
X1691378D01*
X1693326Y1049903D01*
X1695072Y1050912D01*
X1696498Y1052337D01*
X1697507Y1054084D01*
X1698029Y1056032D01*
Y1058048D01*
X1697507Y1059996D01*
X1696498Y1061742D01*
X1695072Y1063168D01*
X1693326Y1064177D01*
X1691378Y1064699D01*
X1689362D01*
X1687414Y1064177D01*
X1685668Y1063168D01*
X1684242Y1061742D01*
X1683904Y1061158D01*
X1673040D01*
X1671464Y1060844D01*
X1670128Y1059952D01*
X1661088Y1050912D01*
X1660196Y1049576D01*
X1659882Y1048000D01*
X1659882Y1048000D01*
Y1036706D01*
X1651294Y1028118D01*
X1642973D01*
Y1035091D01*
X1643894D01*
Y1052949D01*
X1642258D01*
Y1060491D01*
X1643894D01*
Y1078349D01*
X1632386D01*
Y1060491D01*
X1634022D01*
Y1052949D01*
X1632386D01*
Y1035091D01*
X1634737D01*
Y1028263D01*
X1542724D01*
X1540199Y1030788D01*
Y1047199D01*
X1534118D01*
Y1059071D01*
X1535754D01*
Y1076929D01*
X1533403D01*
Y1084525D01*
X1533403Y1084525D01*
X1533118Y1085958D01*
Y1102151D01*
X1534119D01*
Y1109849D01*
X1530353D01*
X1529000Y1110118D01*
X1527647Y1109849D01*
X1523881D01*
Y1102151D01*
X1524882D01*
Y1084810D01*
X1524882Y1084810D01*
X1525167Y1083377D01*
Y1076929D01*
X1524246D01*
Y1072618D01*
X1514098D01*
Y1075881D01*
X1514849D01*
Y1086119D01*
X1507151D01*
Y1075881D01*
X1507902D01*
Y1071598D01*
X1474783D01*
X1465271Y1081111D01*
X1464849Y1081393D01*
Y1086119D01*
X1457151D01*
Y1075881D01*
X1461511D01*
X1461793Y1075825D01*
X1471309Y1066309D01*
X1471309Y1066309D01*
X1472314Y1065638D01*
X1473500Y1065402D01*
X1509867D01*
X1510924Y1064696D01*
X1512500Y1064382D01*
X1524246D01*
Y1059071D01*
X1525882D01*
Y1047199D01*
X1519801D01*
Y1026801D01*
X1526902D01*
Y1018283D01*
X1510717Y1002098D01*
X1372283D01*
X1356098Y1018283D01*
Y1159717D01*
X1362283Y1165902D01*
X1381717D01*
X1392987Y1154632D01*
X1393511Y1153848D01*
X1395291Y1152068D01*
X1395291Y1152068D01*
X1396296Y1151396D01*
X1397481Y1151160D01*
X1397701D01*
X1398701Y1150160D01*
Y1144304D01*
X1414019D01*
Y1154542D01*
X1403083D01*
X1401636Y1155988D01*
X1402162Y1157258D01*
X1414019D01*
Y1167496D01*
X1398701D01*
Y1159476D01*
X1397431Y1158950D01*
X1385191Y1171191D01*
X1384186Y1171862D01*
X1383000Y1172098D01*
D02*
G37*
G36*
X1497800Y1148153D02*
X1488910D01*
Y1141803D01*
X1497800D01*
Y1148153D01*
D02*
G37*
G36*
X1713720Y1165889D02*
X1701020D01*
X1697695Y1165451D01*
X1694596Y1164167D01*
X1691935Y1162125D01*
X1689893Y1159464D01*
X1688609Y1156366D01*
X1688172Y1153040D01*
X1688609Y1149715D01*
X1689893Y1146616D01*
X1691935Y1143955D01*
X1694596Y1141913D01*
X1697695Y1140629D01*
X1701020Y1140191D01*
X1713720D01*
X1717045Y1140629D01*
X1720144Y1141913D01*
X1722805Y1143955D01*
X1724847Y1146616D01*
X1726131Y1149715D01*
X1726568Y1153040D01*
X1726131Y1156366D01*
X1724847Y1159464D01*
X1722805Y1162125D01*
X1720144Y1164167D01*
X1717045Y1165451D01*
X1713720Y1165889D01*
D02*
G37*
G36*
X1650040Y1146730D02*
X1641270D01*
Y1137960D01*
X1641322D01*
X1643875Y1138644D01*
X1646165Y1139966D01*
X1648034Y1141835D01*
X1649356Y1144125D01*
X1650040Y1146678D01*
Y1146730D01*
D02*
G37*
G36*
X1638730D02*
X1629960D01*
Y1146678D01*
X1630644Y1144125D01*
X1631966Y1141835D01*
X1633835Y1139966D01*
X1636125Y1138644D01*
X1638678Y1137960D01*
X1638730D01*
Y1146730D01*
D02*
G37*
G36*
X1566040Y1144730D02*
X1557270D01*
Y1135960D01*
X1557322D01*
X1559875Y1136644D01*
X1562165Y1137966D01*
X1564034Y1139835D01*
X1565356Y1142125D01*
X1566040Y1144678D01*
Y1144730D01*
D02*
G37*
G36*
X1554730D02*
X1545960D01*
Y1144678D01*
X1546644Y1142125D01*
X1547966Y1139835D01*
X1549835Y1137966D01*
X1552125Y1136644D01*
X1554678Y1135960D01*
X1554730D01*
Y1144730D01*
D02*
G37*
G36*
X1691708Y1137200D02*
X1691640D01*
Y1128310D01*
X1700530D01*
Y1128378D01*
X1699838Y1130962D01*
X1698500Y1133278D01*
X1696608Y1135170D01*
X1694292Y1136508D01*
X1691708Y1137200D01*
D02*
G37*
G36*
X1689100D02*
X1689032D01*
X1686448Y1136508D01*
X1684132Y1135170D01*
X1682240Y1133278D01*
X1680902Y1130962D01*
X1680210Y1128378D01*
Y1128310D01*
X1689100D01*
Y1137200D01*
D02*
G37*
G36*
X1552119Y1125119D02*
X1541881D01*
Y1121665D01*
X1534119D01*
Y1123849D01*
X1523881D01*
Y1116151D01*
X1534119D01*
Y1118335D01*
X1541881D01*
Y1114881D01*
X1552119D01*
Y1125119D01*
D02*
G37*
G36*
X1700530Y1125770D02*
X1691640D01*
Y1116880D01*
X1691708D01*
X1694292Y1117572D01*
X1696608Y1118910D01*
X1698500Y1120802D01*
X1699838Y1123118D01*
X1700530Y1125702D01*
Y1125770D01*
D02*
G37*
G36*
X1689100D02*
X1680210D01*
Y1125702D01*
X1680902Y1123118D01*
X1682240Y1120802D01*
X1684132Y1118910D01*
X1686448Y1117572D01*
X1689032Y1116880D01*
X1689100D01*
Y1125770D01*
D02*
G37*
G36*
X1436322Y1118040D02*
X1436270D01*
Y1109270D01*
X1445040D01*
Y1109322D01*
X1444356Y1111875D01*
X1443034Y1114165D01*
X1441165Y1116034D01*
X1438875Y1117356D01*
X1436322Y1118040D01*
D02*
G37*
G36*
X1433730D02*
X1433678D01*
X1431125Y1117356D01*
X1428835Y1116034D01*
X1426966Y1114165D01*
X1425644Y1111875D01*
X1424960Y1109322D01*
Y1109270D01*
X1433730D01*
Y1118040D01*
D02*
G37*
G36*
X1495299Y1179942D02*
X1479981D01*
Y1172060D01*
X1435310Y1127388D01*
X1421723D01*
X1420545Y1126901D01*
X1409822Y1116178D01*
X1409335Y1115000D01*
Y1071757D01*
X1409822Y1070580D01*
X1411580Y1068822D01*
X1412757Y1068335D01*
X1420881D01*
Y1063881D01*
X1426335D01*
Y1047112D01*
X1424064Y1046504D01*
X1421738Y1045161D01*
X1419839Y1043262D01*
X1418496Y1040937D01*
X1417801Y1038343D01*
Y1035657D01*
X1418496Y1033064D01*
X1419839Y1030738D01*
X1421738Y1028839D01*
X1424064Y1027496D01*
X1426657Y1026801D01*
X1429343D01*
X1431936Y1027496D01*
X1434262Y1028839D01*
X1436161Y1030738D01*
X1437504Y1033064D01*
X1438199Y1035657D01*
Y1038343D01*
X1437504Y1040937D01*
X1436161Y1043262D01*
X1434262Y1045161D01*
X1431936Y1046504D01*
X1429665Y1047112D01*
Y1063881D01*
X1431119D01*
Y1074119D01*
X1420881D01*
Y1071665D01*
X1413447D01*
X1412665Y1072447D01*
Y1114310D01*
X1422413Y1124058D01*
X1436000D01*
X1437178Y1124545D01*
X1478808Y1166176D01*
X1479981Y1165690D01*
Y1159614D01*
X1473822Y1153455D01*
X1473335Y1152277D01*
Y1137000D01*
X1473822Y1135822D01*
X1479335Y1130310D01*
Y1117119D01*
X1475881D01*
Y1106881D01*
X1486119D01*
Y1110335D01*
X1491881D01*
Y1106881D01*
X1502119D01*
Y1117119D01*
X1491881D01*
Y1113665D01*
X1486119D01*
Y1117119D01*
X1482665D01*
Y1131000D01*
X1482178Y1132178D01*
X1476665Y1137690D01*
Y1140870D01*
X1477480Y1141803D01*
X1486370D01*
Y1149423D01*
X1487640D01*
Y1150693D01*
X1497800D01*
Y1157043D01*
X1496479D01*
X1495299Y1157258D01*
Y1167496D01*
X1481787D01*
X1481301Y1168669D01*
X1482337Y1169704D01*
X1495299D01*
Y1179942D01*
D02*
G37*
G36*
X1554620Y1112620D02*
X1548270D01*
Y1106270D01*
X1554620D01*
Y1112620D01*
D02*
G37*
G36*
X1545730D02*
X1539380D01*
Y1106270D01*
X1545730D01*
Y1112620D01*
D02*
G37*
G36*
X1445040Y1106730D02*
X1436270D01*
Y1097960D01*
X1436322D01*
X1438875Y1098644D01*
X1441165Y1099966D01*
X1443034Y1101835D01*
X1444356Y1104125D01*
X1445040Y1106678D01*
Y1106730D01*
D02*
G37*
G36*
X1433730D02*
X1424960D01*
Y1106678D01*
X1425644Y1104125D01*
X1426966Y1101835D01*
X1428835Y1099966D01*
X1431125Y1098644D01*
X1433678Y1097960D01*
X1433730D01*
Y1106730D01*
D02*
G37*
G36*
X1554620Y1103730D02*
X1548270D01*
Y1097380D01*
X1554620D01*
Y1103730D01*
D02*
G37*
G36*
X1545730D02*
X1539380D01*
Y1097380D01*
X1545730D01*
Y1103730D01*
D02*
G37*
G36*
X1608322Y1105040D02*
X1608270D01*
Y1096270D01*
X1617040D01*
Y1096322D01*
X1616356Y1098875D01*
X1615034Y1101165D01*
X1613165Y1103034D01*
X1610875Y1104356D01*
X1608322Y1105040D01*
D02*
G37*
G36*
X1605730D02*
X1605678D01*
X1603125Y1104356D01*
X1600835Y1103034D01*
X1598966Y1101165D01*
X1597644Y1098875D01*
X1596960Y1096322D01*
Y1096270D01*
X1605730D01*
Y1105040D01*
D02*
G37*
G36*
X1495299Y1205596D02*
X1479981D01*
Y1195358D01*
X1495299D01*
Y1198812D01*
X1529833D01*
X1614822Y1113822D01*
X1616000Y1113335D01*
X1676720D01*
X1683902Y1106153D01*
X1683233Y1104996D01*
X1682711Y1103048D01*
Y1101032D01*
X1683233Y1099084D01*
X1684242Y1097337D01*
X1685668Y1095912D01*
X1687414Y1094903D01*
X1689362Y1094381D01*
X1691378D01*
X1693326Y1094903D01*
X1695072Y1095912D01*
X1696498Y1097337D01*
X1697507Y1099084D01*
X1698029Y1101032D01*
Y1103048D01*
X1697507Y1104996D01*
X1696498Y1106742D01*
X1695072Y1108168D01*
X1693326Y1109177D01*
X1691378Y1109699D01*
X1689362D01*
X1687414Y1109177D01*
X1686257Y1108509D01*
X1678588Y1116178D01*
X1677410Y1116665D01*
X1616690D01*
X1531701Y1201655D01*
X1530523Y1202142D01*
X1495299D01*
Y1205596D01*
D02*
G37*
G36*
X1397322Y1094040D02*
X1397270D01*
Y1085270D01*
X1406040D01*
Y1085322D01*
X1405356Y1087875D01*
X1404034Y1090165D01*
X1402165Y1092034D01*
X1399875Y1093356D01*
X1397322Y1094040D01*
D02*
G37*
G36*
X1394730D02*
X1394678D01*
X1392125Y1093356D01*
X1389835Y1092034D01*
X1387966Y1090165D01*
X1386644Y1087875D01*
X1385960Y1085322D01*
Y1085270D01*
X1394730D01*
Y1094040D01*
D02*
G37*
G36*
X1617040Y1093730D02*
X1608270D01*
Y1084960D01*
X1608322D01*
X1610875Y1085644D01*
X1613165Y1086966D01*
X1615034Y1088835D01*
X1616356Y1091125D01*
X1617040Y1093678D01*
Y1093730D01*
D02*
G37*
G36*
X1605730D02*
X1596960D01*
Y1093678D01*
X1597644Y1091125D01*
X1598966Y1088835D01*
X1600835Y1086966D01*
X1603125Y1085644D01*
X1605678Y1084960D01*
X1605730D01*
Y1093730D01*
D02*
G37*
G36*
X1580322Y1093040D02*
X1580270D01*
Y1084270D01*
X1589040D01*
Y1084322D01*
X1588356Y1086875D01*
X1587034Y1089165D01*
X1585165Y1091034D01*
X1582875Y1092356D01*
X1580322Y1093040D01*
D02*
G37*
G36*
X1577730D02*
X1577678D01*
X1575125Y1092356D01*
X1572835Y1091034D01*
X1570966Y1089165D01*
X1569644Y1086875D01*
X1568960Y1084322D01*
Y1084270D01*
X1577730D01*
Y1093040D01*
D02*
G37*
G36*
X1495299Y1218042D02*
X1479981D01*
Y1207804D01*
X1495299D01*
Y1211258D01*
X1533229D01*
X1571664Y1172822D01*
X1572841Y1172335D01*
X1726310D01*
X1734335Y1164310D01*
Y1087690D01*
X1729310Y1082665D01*
X1698029D01*
Y1083048D01*
X1697507Y1084996D01*
X1696498Y1086742D01*
X1695072Y1088168D01*
X1693326Y1089177D01*
X1691378Y1089699D01*
X1689362D01*
X1687414Y1089177D01*
X1685668Y1088168D01*
X1684242Y1086742D01*
X1683233Y1084996D01*
X1682711Y1083048D01*
Y1081032D01*
X1683233Y1079084D01*
X1684242Y1077337D01*
X1685668Y1075912D01*
X1687414Y1074903D01*
X1689362Y1074381D01*
X1691378D01*
X1693326Y1074903D01*
X1695072Y1075912D01*
X1696498Y1077337D01*
X1697507Y1079084D01*
X1697574Y1079335D01*
X1730000D01*
X1731178Y1079822D01*
X1737178Y1085822D01*
X1737665Y1087000D01*
Y1165000D01*
X1737178Y1166178D01*
X1728178Y1175178D01*
X1727000Y1175665D01*
X1573531D01*
X1535096Y1214101D01*
X1533918Y1214588D01*
X1495299D01*
Y1218042D01*
D02*
G37*
G36*
X1502119Y1102119D02*
X1491881D01*
Y1091881D01*
X1493902D01*
Y1086119D01*
X1493151D01*
Y1075881D01*
X1500849D01*
Y1086119D01*
X1500098D01*
Y1091881D01*
X1502119D01*
Y1102119D01*
D02*
G37*
G36*
X1431119Y1089119D02*
X1420881D01*
Y1078881D01*
X1431119D01*
Y1082335D01*
X1443151D01*
Y1075881D01*
X1450849D01*
Y1086119D01*
X1443151D01*
Y1085665D01*
X1431119D01*
Y1089119D01*
D02*
G37*
G36*
X1406040Y1082730D02*
X1397270D01*
Y1073960D01*
X1397322D01*
X1399875Y1074644D01*
X1402165Y1075966D01*
X1404034Y1077835D01*
X1405356Y1080125D01*
X1406040Y1082678D01*
Y1082730D01*
D02*
G37*
G36*
X1394730D02*
X1385960D01*
Y1082678D01*
X1386644Y1080125D01*
X1387966Y1077835D01*
X1389835Y1075966D01*
X1392125Y1074644D01*
X1394678Y1073960D01*
X1394730D01*
Y1082730D01*
D02*
G37*
G36*
X1589040Y1081730D02*
X1580270D01*
Y1072960D01*
X1580322D01*
X1582875Y1073644D01*
X1585165Y1074966D01*
X1587034Y1076835D01*
X1588356Y1079125D01*
X1589040Y1081678D01*
Y1081730D01*
D02*
G37*
G36*
X1577730D02*
X1568960D01*
Y1081678D01*
X1569644Y1079125D01*
X1570966Y1076835D01*
X1572835Y1074966D01*
X1575125Y1073644D01*
X1577678Y1072960D01*
X1577730D01*
Y1081730D01*
D02*
G37*
G36*
X1616395Y1080850D02*
X1609410D01*
Y1070690D01*
X1616395D01*
Y1080850D01*
D02*
G37*
G36*
X1606870D02*
X1599885D01*
Y1070690D01*
X1606870D01*
Y1080850D01*
D02*
G37*
G36*
X1568255Y1079430D02*
X1561270D01*
Y1069270D01*
X1568255D01*
Y1079430D01*
D02*
G37*
G36*
X1558730D02*
X1551745D01*
Y1069270D01*
X1558730D01*
Y1079430D01*
D02*
G37*
G36*
X1616395Y1068150D02*
X1609410D01*
Y1057990D01*
X1616395D01*
Y1068150D01*
D02*
G37*
G36*
X1606870D02*
X1599885D01*
Y1057990D01*
X1606870D01*
Y1068150D01*
D02*
G37*
G36*
X1568255Y1066730D02*
X1561270D01*
Y1056570D01*
X1568255D01*
Y1066730D01*
D02*
G37*
G36*
X1558730D02*
X1551745D01*
Y1056570D01*
X1558730D01*
Y1066730D01*
D02*
G37*
G36*
X1616395Y1055450D02*
X1609410D01*
Y1045290D01*
X1616395D01*
Y1055450D01*
D02*
G37*
G36*
X1606870D02*
X1599885D01*
Y1045290D01*
X1606870D01*
Y1055450D01*
D02*
G37*
G36*
X1584322Y1054040D02*
X1584270D01*
Y1045270D01*
X1593040D01*
Y1045322D01*
X1592356Y1047875D01*
X1591034Y1050165D01*
X1589165Y1052034D01*
X1586875Y1053356D01*
X1584322Y1054040D01*
D02*
G37*
G36*
X1581730D02*
X1581678D01*
X1579125Y1053356D01*
X1576835Y1052034D01*
X1574966Y1050165D01*
X1573644Y1047875D01*
X1572960Y1045322D01*
Y1045270D01*
X1581730D01*
Y1054040D01*
D02*
G37*
G36*
X1404672Y1049700D02*
X1404270D01*
Y1038270D01*
X1415700D01*
Y1038672D01*
X1414834Y1041902D01*
X1413163Y1044798D01*
X1410798Y1047162D01*
X1407902Y1048835D01*
X1404672Y1049700D01*
D02*
G37*
G36*
X1401730D02*
X1401328D01*
X1398098Y1048835D01*
X1395202Y1047162D01*
X1392838Y1044798D01*
X1391165Y1041902D01*
X1390300Y1038672D01*
Y1038270D01*
X1401730D01*
Y1049700D01*
D02*
G37*
G36*
X1593040Y1042730D02*
X1584270D01*
Y1033960D01*
X1584322D01*
X1586875Y1034644D01*
X1589165Y1035966D01*
X1591034Y1037835D01*
X1592356Y1040125D01*
X1593040Y1042678D01*
Y1042730D01*
D02*
G37*
G36*
X1581730D02*
X1572960D01*
Y1042678D01*
X1573644Y1040125D01*
X1574966Y1037835D01*
X1576835Y1035966D01*
X1579125Y1034644D01*
X1581678Y1033960D01*
X1581730D01*
Y1042730D01*
D02*
G37*
G36*
X1616395Y1042750D02*
X1609410D01*
Y1032590D01*
X1616395D01*
Y1042750D01*
D02*
G37*
G36*
X1606870D02*
X1599885D01*
Y1032590D01*
X1606870D01*
Y1042750D01*
D02*
G37*
G36*
X1471119Y1117119D02*
X1460881D01*
Y1109237D01*
X1452822Y1101178D01*
X1452335Y1100000D01*
Y1047112D01*
X1450063Y1046504D01*
X1447738Y1045161D01*
X1445839Y1043262D01*
X1444496Y1040937D01*
X1443801Y1038343D01*
Y1035657D01*
X1444496Y1033064D01*
X1445839Y1030738D01*
X1447738Y1028839D01*
X1450063Y1027496D01*
X1452657Y1026801D01*
X1455343D01*
X1457937Y1027496D01*
X1460262Y1028839D01*
X1462161Y1030738D01*
X1463504Y1033064D01*
X1464199Y1035657D01*
Y1038343D01*
X1463504Y1040937D01*
X1462161Y1043262D01*
X1460262Y1045161D01*
X1457937Y1046504D01*
X1455665Y1047112D01*
Y1099310D01*
X1463237Y1106881D01*
X1471119D01*
Y1117119D01*
D02*
G37*
G36*
X1415700Y1035730D02*
X1404270D01*
Y1024300D01*
X1404672D01*
X1407902Y1025165D01*
X1410798Y1026837D01*
X1413163Y1029202D01*
X1414834Y1032098D01*
X1415700Y1035328D01*
Y1035730D01*
D02*
G37*
G36*
X1401730D02*
X1390300D01*
Y1035328D01*
X1391165Y1032098D01*
X1392838Y1029202D01*
X1395202Y1026837D01*
X1398098Y1025165D01*
X1401328Y1024300D01*
X1401730D01*
Y1035730D01*
D02*
G37*
G36*
X1712720Y1043888D02*
X1700020D01*
X1696694Y1043451D01*
X1693596Y1042167D01*
X1690935Y1040125D01*
X1688893Y1037464D01*
X1687609Y1034365D01*
X1687171Y1031040D01*
X1687609Y1027715D01*
X1688893Y1024616D01*
X1690935Y1021955D01*
X1693596Y1019913D01*
X1696694Y1018629D01*
X1700020Y1018192D01*
X1712720D01*
X1716045Y1018629D01*
X1719144Y1019913D01*
X1721805Y1021955D01*
X1723847Y1024616D01*
X1725131Y1027715D01*
X1725569Y1031040D01*
X1725131Y1034365D01*
X1723847Y1037464D01*
X1721805Y1040125D01*
X1719144Y1042167D01*
X1716045Y1043451D01*
X1712720Y1043888D01*
D02*
G37*
%LPD*%
D11*
X1406360Y1225623D02*
D03*
Y1212923D02*
D03*
Y1238577D02*
D03*
Y1187523D02*
D03*
Y1174823D02*
D03*
Y1200477D02*
D03*
Y1149423D02*
D03*
Y1162377D02*
D03*
X1487640Y1225623D02*
D03*
Y1212923D02*
D03*
Y1238577D02*
D03*
Y1187523D02*
D03*
Y1174823D02*
D03*
Y1200477D02*
D03*
Y1149423D02*
D03*
Y1162377D02*
D03*
D12*
X1698000Y1226000D02*
D03*
X1728000D02*
D03*
X1700000Y1198000D02*
D03*
X1730000D02*
D03*
X1560000Y1068000D02*
D03*
X1530000D02*
D03*
X1638140Y1044020D02*
D03*
X1608140D02*
D03*
X1638140Y1069420D02*
D03*
X1608140D02*
D03*
D13*
X1375000Y1155000D02*
D03*
Y1185000D02*
D03*
X1524000Y1153000D02*
D03*
Y1183000D02*
D03*
D14*
X1529000Y1106000D02*
D03*
Y1120000D02*
D03*
D15*
X1461000Y1081000D02*
D03*
X1447000D02*
D03*
X1511000D02*
D03*
X1497000D02*
D03*
D16*
X1547000Y1105000D02*
D03*
Y1120000D02*
D03*
X1426000Y1069000D02*
D03*
Y1084000D02*
D03*
X1497000Y1112000D02*
D03*
Y1097000D02*
D03*
D17*
X1466000Y1112000D02*
D03*
X1481000D02*
D03*
D31*
X1612000Y1198000D02*
X1700000D01*
X1591000Y1219000D02*
X1612000Y1198000D01*
X1530523Y1200477D02*
X1616000Y1115000D01*
X1677410D02*
X1690370Y1102040D01*
X1616000Y1115000D02*
X1677410D01*
X1487640Y1200477D02*
X1530523D01*
X1487640Y1212923D02*
X1533918D01*
X1572841Y1174000D01*
X1727000D01*
X1375000Y1012000D02*
X1379000Y1008000D01*
X1505000Y1010000D02*
Y1037000D01*
X1375000Y1012000D02*
Y1155000D01*
X1379000Y1008000D02*
X1503000D01*
X1505000Y1010000D01*
X1475000Y1137000D02*
X1481000Y1131000D01*
Y1112000D02*
Y1131000D01*
X1475000Y1137000D02*
Y1152277D01*
X1485100Y1162377D02*
X1487640D01*
X1475000Y1152277D02*
X1485100Y1162377D01*
X1454000Y1100000D02*
X1466000Y1112000D01*
X1454000Y1037000D02*
Y1100000D01*
X1481000Y1112000D02*
X1497000D01*
X1426000Y1084000D02*
X1444690D01*
X1447000Y1081690D01*
Y1081000D02*
Y1081690D01*
X1428000Y1037000D02*
Y1067000D01*
X1426000Y1069000D02*
X1428000Y1067000D01*
X1425000Y1070000D02*
X1426000Y1069000D01*
X1411000Y1071757D02*
X1412757Y1070000D01*
X1411000Y1071757D02*
Y1115000D01*
X1412757Y1070000D02*
X1425000D01*
X1421723Y1125723D02*
X1436000D01*
X1411000Y1115000D02*
X1421723Y1125723D01*
X1690370Y1082040D02*
X1691410Y1081000D01*
X1730000D01*
X1736000Y1087000D02*
Y1165000D01*
X1730000Y1081000D02*
X1736000Y1087000D01*
X1727000Y1174000D02*
X1736000Y1165000D01*
X1491220Y1229203D02*
X1587387D01*
X1589144Y1220856D02*
Y1227446D01*
X1587387Y1229203D02*
X1589144Y1227446D01*
Y1220856D02*
X1591000Y1219000D01*
X1487640Y1225623D02*
X1491220Y1229203D01*
X1436000Y1125723D02*
X1485100Y1174823D01*
X1487640D01*
X1529000Y1120000D02*
X1547000D01*
D32*
X1698000Y1225445D02*
Y1226000D01*
X1693555Y1221000D02*
X1698000Y1225445D01*
X1658000Y1221000D02*
X1693555D01*
X1656000Y1219000D02*
X1658000Y1221000D01*
X1640000Y1219000D02*
X1656000D01*
X1375000Y1185000D02*
X1403837D01*
X1406360Y1187523D01*
X1639840Y1219160D02*
X1640000Y1219000D01*
X1630423Y1238577D02*
X1639840Y1229160D01*
Y1219160D02*
Y1229160D01*
X1487640Y1238577D02*
X1630423D01*
D33*
X1638140Y1044020D02*
Y1069420D01*
Y1044020D02*
X1638855Y1043305D01*
X1535160Y1030003D02*
Y1031840D01*
X1541018Y1024145D02*
X1638855D01*
X1530000Y1037000D02*
Y1068000D01*
Y1037000D02*
X1535160Y1031840D01*
Y1030003D02*
X1541018Y1024145D01*
X1529500Y1068500D02*
X1530000Y1068000D01*
X1529285Y1068715D02*
X1529500Y1068500D01*
X1529285Y1068715D02*
Y1084525D01*
X1529000Y1084810D02*
Y1106000D01*
Y1084810D02*
X1529285Y1084525D01*
X1512500Y1068500D02*
X1529500D01*
X1639000Y1024000D02*
X1653000D01*
X1638855Y1027145D02*
Y1043305D01*
Y1024145D02*
X1639000Y1024000D01*
X1664000Y1048000D02*
X1673040Y1057040D01*
X1690370D01*
X1664000Y1035000D02*
Y1048000D01*
X1653000Y1024000D02*
X1664000Y1035000D01*
D34*
X1512000Y999000D02*
X1530000Y1017000D01*
Y1037000D01*
X1371000Y999000D02*
X1512000D01*
X1353000Y1017000D02*
X1371000Y999000D01*
X1476260Y1034260D02*
X1479000Y1037000D01*
X1476260Y1019515D02*
Y1034260D01*
X1389000Y1016000D02*
X1472745D01*
X1476260Y1019515D01*
X1381000Y1024000D02*
X1389000Y1016000D01*
X1381000Y1024000D02*
Y1094000D01*
X1353000Y1017000D02*
Y1161000D01*
X1361000Y1169000D02*
X1383000D01*
X1353000Y1161000D02*
X1361000Y1169000D01*
X1383000D02*
X1395701Y1156299D01*
X1403820Y1149423D02*
X1406360D01*
X1398985Y1154258D02*
X1403820Y1149423D01*
X1397481Y1154258D02*
X1398985D01*
X1395701Y1156038D02*
X1397481Y1154258D01*
X1395701Y1156038D02*
Y1156299D01*
X1497000Y1097000D02*
X1497000Y1097000D01*
X1497000Y1081000D02*
Y1097000D01*
X1461000Y1079730D02*
X1461810Y1078920D01*
X1463080D01*
X1461000Y1079730D02*
Y1081000D01*
X1463080Y1078920D02*
X1473500Y1068500D01*
X1512500D01*
X1511000Y1070000D02*
X1512500Y1068500D01*
X1511000Y1070000D02*
Y1081000D01*
X1381000Y1094000D02*
X1474523Y1187523D01*
X1487640D02*
X1516302D01*
X1520825Y1183000D01*
X1524000D01*
X1474523Y1187523D02*
X1487640D01*
D35*
X1591000Y1219000D02*
D03*
X1640000D02*
D03*
D36*
X1707370Y1153040D02*
D03*
X1706370Y1031040D02*
D03*
D37*
X1690370Y1082040D02*
D03*
Y1102040D02*
D03*
Y1057040D02*
D03*
Y1127040D02*
D03*
D38*
X1505000Y1037000D02*
D03*
X1403000D02*
D03*
X1428000D02*
D03*
X1454000D02*
D03*
X1479000D02*
D03*
D39*
X1530000D02*
D03*
D40*
X1758000Y1212000D02*
D03*
X1435000Y1108000D02*
D03*
X1607000Y1095000D02*
D03*
X1396000Y1084000D02*
D03*
X1556000Y1146000D02*
D03*
X1640000Y1148000D02*
D03*
X1583000Y1044000D02*
D03*
X1579000Y1083000D02*
D03*
M02*
