G04*
G04 #@! TF.GenerationSoftware,Altium Limited,Altium Designer,22.8.2 (66)*
G04*
G04 Layer_Color=2752767*
%FSLAX44Y44*%
%MOMM*%
G71*
G04*
G04 #@! TF.SameCoordinates,52C54432-6914-4BE2-A169-96465BD4BA84*
G04*
G04*
G04 #@! TF.FilePolarity,Positive*
G04*
G01*
G75*
%ADD42C,0.0508*%
%ADD43C,0.0677*%
D42*
X1591000Y1216968D02*
X1592016Y1217984D01*
X1593032D01*
X1592016Y1219000D01*
X1593032Y1220016D01*
X1592016D01*
X1591000Y1221032D01*
X1589984Y1220016D01*
X1588968D01*
X1589984Y1219000D01*
X1588968Y1217984D01*
X1589984D01*
X1591000Y1216968D01*
X1640000D02*
X1641016Y1217984D01*
X1642032D01*
X1641016Y1219000D01*
X1642032Y1220016D01*
X1641016D01*
X1640000Y1221032D01*
X1638984Y1220016D01*
X1637968D01*
X1638984Y1219000D01*
X1637968Y1217984D01*
X1638984D01*
X1640000Y1216968D01*
X1705338Y1151008D02*
Y1155072D01*
X1709402D01*
Y1151008D01*
X1705338D01*
X1704338Y1029008D02*
Y1033072D01*
X1708402D01*
Y1029008D01*
X1704338D01*
X1505000Y1034968D02*
X1502968Y1039032D01*
X1507032D01*
X1505000Y1034968D01*
X1403000D02*
X1400968Y1039032D01*
X1405032D01*
X1403000Y1034968D01*
X1428000D02*
X1425968Y1039032D01*
X1430032D01*
X1428000Y1034968D01*
X1454000D02*
X1451968Y1039032D01*
X1456032D01*
X1454000Y1034968D01*
X1479000D02*
X1476968Y1039032D01*
X1481032D01*
X1479000Y1034968D01*
X1530000D02*
X1527968Y1039032D01*
X1532032D01*
X1530000Y1034968D01*
X1755968Y1209968D02*
X1756984Y1212000D01*
X1755968Y1214032D01*
X1758000Y1213016D01*
X1760032Y1214032D01*
X1759016Y1212000D01*
X1760032Y1209968D01*
X1758000Y1210984D01*
X1755968Y1209968D01*
X1432968Y1105968D02*
X1433984Y1108000D01*
X1432968Y1110032D01*
X1435000Y1109016D01*
X1437032Y1110032D01*
X1436016Y1108000D01*
X1437032Y1105968D01*
X1435000Y1106984D01*
X1432968Y1105968D01*
X1604968Y1092968D02*
X1605984Y1095000D01*
X1604968Y1097032D01*
X1607000Y1096016D01*
X1609032Y1097032D01*
X1608016Y1095000D01*
X1609032Y1092968D01*
X1607000Y1093984D01*
X1604968Y1092968D01*
X1393968Y1081968D02*
X1394984Y1084000D01*
X1393968Y1086032D01*
X1396000Y1085016D01*
X1398032Y1086032D01*
X1397016Y1084000D01*
X1398032Y1081968D01*
X1396000Y1082984D01*
X1393968Y1081968D01*
X1553968Y1143968D02*
X1554984Y1146000D01*
X1553968Y1148032D01*
X1556000Y1147016D01*
X1558032Y1148032D01*
X1557016Y1146000D01*
X1558032Y1143968D01*
X1556000Y1144984D01*
X1553968Y1143968D01*
X1637968Y1145968D02*
X1638984Y1148000D01*
X1637968Y1150032D01*
X1640000Y1149016D01*
X1642032Y1150032D01*
X1641016Y1148000D01*
X1642032Y1145968D01*
X1640000Y1146984D01*
X1637968Y1145968D01*
X1580968Y1041968D02*
X1581984Y1044000D01*
X1580968Y1046032D01*
X1583000Y1045016D01*
X1585032Y1046032D01*
X1584016Y1044000D01*
X1585032Y1041968D01*
X1583000Y1042984D01*
X1580968Y1041968D01*
X1576968Y1080968D02*
X1577984Y1083000D01*
X1576968Y1085032D01*
X1579000Y1084016D01*
X1581032Y1085032D01*
X1580016Y1083000D01*
X1581032Y1080968D01*
X1579000Y1081984D01*
X1576968Y1080968D01*
D43*
X1692402Y1082040D02*
G03*
X1692402Y1082040I-2032J0D01*
G01*
Y1102040D02*
G03*
X1692402Y1102040I-2032J0D01*
G01*
Y1057040D02*
G03*
X1692402Y1057040I-2032J0D01*
G01*
Y1127040D02*
G03*
X1692402Y1127040I-2032J0D01*
G01*
M02*
