M48
;Layer_Color=9474304
;FILE_FORMAT=2:4
METRIC,LZ
;TYPE=PLATED
T1F00S00C0.5000
T2F00S00C0.7112
T3F00S00C1.0000
T4F00S00C1.1000
T5F00S00C3.0000
;TYPE=NON_PLATED
T6F00S00C0.9000
T7F00S00C1.0000
T8F00S00C2.5000
%
T01
X472Y479
X623Y443
T02
X494Y394
X522Y438
X565Y429
X459Y471
X464Y503
X406Y531
X409Y651
X524Y644
X317Y653
X357Y526
X381Y534
T03
X441Y553
X4664
Y608
X441
X582
X6074
Y553
X582
X3247
X2993
Y608
X3247
T04
X4184Y43
X4438
X393
X3676
X3422
T05
X612Y41
X289
T06
X437Y6835
X467
X532
X562
X372
X342
T07
X4292Y534
X5702
X2875
T08
X4347Y5805
X4727
X5757
X6137
X331
X293
M30
