G04*
G04 #@! TF.GenerationSoftware,Altium Limited,Altium Designer,22.8.2 (66)*
G04*
G04 Layer_Color=2752767*
%FSLAX44Y44*%
%MOMM*%
G71*
G04*
G04 #@! TF.SameCoordinates,69D579BB-6610-4C83-93C2-135228772BCE*
G04*
G04*
G04 #@! TF.FilePolarity,Positive*
G04*
G01*
G75*
%ADD49C,0.0508*%
%ADD50C,0.0677*%
D49*
X342000Y681468D02*
X343016Y682484D01*
X344032D01*
X343016Y683500D01*
X344032Y684516D01*
X343016D01*
X342000Y685532D01*
X340984Y684516D01*
X339968D01*
X340984Y683500D01*
X339968Y682484D01*
X340984D01*
X342000Y681468D01*
X372000D02*
X373016Y682484D01*
X374032D01*
X373016Y683500D01*
X374032Y684516D01*
X373016D01*
X372000Y685532D01*
X370984Y684516D01*
X369968D01*
X370984Y683500D01*
X369968Y682484D01*
X370984D01*
X372000Y681468D01*
X464368Y550968D02*
Y555032D01*
X468432D01*
Y550968D01*
X464368D01*
X438968D02*
Y555032D01*
X443032D01*
Y550968D01*
X438968D01*
X464368Y605968D02*
Y610032D01*
X468432D01*
Y605968D01*
X464368D01*
X438968D02*
Y610032D01*
X443032D01*
Y605968D01*
X438968D01*
X434700Y578468D02*
X432668Y582532D01*
X436732D01*
X434700Y578468D01*
X472700D02*
X470668Y582532D01*
X474732D01*
X472700Y578468D01*
X467000Y681468D02*
X468016Y682484D01*
X469032D01*
X468016Y683500D01*
X469032Y684516D01*
X468016D01*
X467000Y685532D01*
X465984Y684516D01*
X464968D01*
X465984Y683500D01*
X464968Y682484D01*
X465984D01*
X467000Y681468D01*
X437000D02*
X438016Y682484D01*
X439032D01*
X438016Y683500D01*
X439032Y684516D01*
X438016D01*
X437000Y685532D01*
X435984Y684516D01*
X434968D01*
X435984Y683500D01*
X434968Y682484D01*
X435984D01*
X437000Y681468D01*
X562000D02*
X563016Y682484D01*
X564032D01*
X563016Y683500D01*
X564032Y684516D01*
X563016D01*
X562000Y685532D01*
X560984Y684516D01*
X559968D01*
X560984Y683500D01*
X559968Y682484D01*
X560984D01*
X562000Y681468D01*
X532000D02*
X533016Y682484D01*
X534032D01*
X533016Y683500D01*
X534032Y684516D01*
X533016D01*
X532000Y685532D01*
X530984Y684516D01*
X529968D01*
X530984Y683500D01*
X529968Y682484D01*
X530984D01*
X532000Y681468D01*
X416368Y427968D02*
X417384Y430000D01*
X416368Y432032D01*
X418400Y431016D01*
X420432Y432032D01*
X419416Y430000D01*
X420432Y427968D01*
X418400Y428984D01*
X416368Y427968D01*
X390968D02*
X391984Y430000D01*
X390968Y432032D01*
X393000Y431016D01*
X395032Y432032D01*
X394016Y430000D01*
X395032Y427968D01*
X393000Y428984D01*
X390968Y427968D01*
X340168D02*
X341184Y430000D01*
X340168Y432032D01*
X342200Y431016D01*
X344232Y432032D01*
X343216Y430000D01*
X344232Y427968D01*
X342200Y428984D01*
X340168Y427968D01*
X365568D02*
X366584Y430000D01*
X365568Y432032D01*
X367600Y431016D01*
X369632Y432032D01*
X368616Y430000D01*
X369632Y427968D01*
X367600Y428984D01*
X365568Y427968D01*
X441768D02*
X442784Y430000D01*
X441768Y432032D01*
X443800Y431016D01*
X445832Y432032D01*
X444816Y430000D01*
X445832Y427968D01*
X443800Y428984D01*
X441768Y427968D01*
X287984Y408984D02*
Y407968D01*
X290016D01*
Y408984D01*
X291032D01*
Y411016D01*
X290016D01*
Y412032D01*
X287984D01*
Y411016D01*
X286968D01*
Y408984D01*
X287984D01*
X610984D02*
Y407968D01*
X613016D01*
Y408984D01*
X614032D01*
Y411016D01*
X613016D01*
Y412032D01*
X610984D01*
Y411016D01*
X609968D01*
Y408984D01*
X610984D01*
X322668Y550968D02*
Y555032D01*
X326732D01*
Y550968D01*
X322668D01*
X297268D02*
Y555032D01*
X301332D01*
Y550968D01*
X297268D01*
X322668Y605968D02*
Y610032D01*
X326732D01*
Y605968D01*
X322668D01*
X297268D02*
Y610032D01*
X301332D01*
Y605968D01*
X297268D01*
X293000Y578468D02*
X290968Y582532D01*
X295032D01*
X293000Y578468D01*
X331000D02*
X328968Y582532D01*
X333032D01*
X331000Y578468D01*
X605368Y550968D02*
Y555032D01*
X609432D01*
Y550968D01*
X605368D01*
X579968D02*
Y555032D01*
X584032D01*
Y550968D01*
X579968D01*
X605368Y605968D02*
Y610032D01*
X609432D01*
Y605968D01*
X605368D01*
X579968D02*
Y610032D01*
X584032D01*
Y605968D01*
X579968D01*
X575700Y578468D02*
X573668Y582532D01*
X577732D01*
X575700Y578468D01*
X613700D02*
X611668Y582532D01*
X615732D01*
X613700Y578468D01*
X620968Y443000D02*
X623000Y445032D01*
X625032Y443000D01*
X623000Y440968D01*
X620968Y443000D01*
X469968Y479000D02*
X472000Y481032D01*
X474032Y479000D01*
X472000Y476968D01*
X469968Y479000D01*
X562968Y426968D02*
X563984D01*
X565000Y427984D01*
X566016Y426968D01*
X567032D01*
Y427984D01*
X566016Y429000D01*
X567032Y430016D01*
Y431032D01*
X566016D01*
X565000Y430016D01*
X563984Y431032D01*
X562968D01*
Y430016D01*
X563984Y429000D01*
X562968Y427984D01*
Y426968D01*
X491968Y391968D02*
X492984D01*
X494000Y392984D01*
X495016Y391968D01*
X496032D01*
Y392984D01*
X495016Y394000D01*
X496032Y395016D01*
Y396032D01*
X495016D01*
X494000Y395016D01*
X492984Y396032D01*
X491968D01*
Y395016D01*
X492984Y394000D01*
X491968Y392984D01*
Y391968D01*
X461968Y500968D02*
X462984D01*
X464000Y501984D01*
X465016Y500968D01*
X466032D01*
Y501984D01*
X465016Y503000D01*
X466032Y504016D01*
Y505032D01*
X465016D01*
X464000Y504016D01*
X462984Y505032D01*
X461968D01*
Y504016D01*
X462984Y503000D01*
X461968Y501984D01*
Y500968D01*
X403968Y528968D02*
X404984D01*
X406000Y529984D01*
X407016Y528968D01*
X408032D01*
Y529984D01*
X407016Y531000D01*
X408032Y532016D01*
Y533032D01*
X407016D01*
X406000Y532016D01*
X404984Y533032D01*
X403968D01*
Y532016D01*
X404984Y531000D01*
X403968Y529984D01*
Y528968D01*
X378968Y531968D02*
X379984D01*
X381000Y532984D01*
X382016Y531968D01*
X383032D01*
Y532984D01*
X382016Y534000D01*
X383032Y535016D01*
Y536032D01*
X382016D01*
X381000Y535016D01*
X379984Y536032D01*
X378968D01*
Y535016D01*
X379984Y534000D01*
X378968Y532984D01*
Y531968D01*
X354968Y523968D02*
X355984D01*
X357000Y524984D01*
X358016Y523968D01*
X359032D01*
Y524984D01*
X358016Y526000D01*
X359032Y527016D01*
Y528032D01*
X358016D01*
X357000Y527016D01*
X355984Y528032D01*
X354968D01*
Y527016D01*
X355984Y526000D01*
X354968Y524984D01*
Y523968D01*
X521968Y641968D02*
X522984D01*
X524000Y642984D01*
X525016Y641968D01*
X526032D01*
Y642984D01*
X525016Y644000D01*
X526032Y645016D01*
Y646032D01*
X525016D01*
X524000Y645016D01*
X522984Y646032D01*
X521968D01*
Y645016D01*
X522984Y644000D01*
X521968Y642984D01*
Y641968D01*
X519968Y435968D02*
X520984D01*
X522000Y436984D01*
X523016Y435968D01*
X524032D01*
Y436984D01*
X523016Y438000D01*
X524032Y439016D01*
Y440032D01*
X523016D01*
X522000Y439016D01*
X520984Y440032D01*
X519968D01*
Y439016D01*
X520984Y438000D01*
X519968Y436984D01*
Y435968D01*
X406968Y648968D02*
X407984D01*
X409000Y649984D01*
X410016Y648968D01*
X411032D01*
Y649984D01*
X410016Y651000D01*
X411032Y652016D01*
Y653032D01*
X410016D01*
X409000Y652016D01*
X407984Y653032D01*
X406968D01*
Y652016D01*
X407984Y651000D01*
X406968Y649984D01*
Y648968D01*
X456968Y468968D02*
X457984D01*
X459000Y469984D01*
X460016Y468968D01*
X461032D01*
Y469984D01*
X460016Y471000D01*
X461032Y472016D01*
Y473032D01*
X460016D01*
X459000Y472016D01*
X457984Y473032D01*
X456968D01*
Y472016D01*
X457984Y471000D01*
X456968Y469984D01*
Y468968D01*
X314968Y650968D02*
X315984D01*
X317000Y651984D01*
X318016Y650968D01*
X319032D01*
Y651984D01*
X318016Y653000D01*
X319032Y654016D01*
Y655032D01*
X318016D01*
X317000Y654016D01*
X315984Y655032D01*
X314968D01*
Y654016D01*
X315984Y653000D01*
X314968Y651984D01*
Y650968D01*
D50*
X431232Y534000D02*
G03*
X431232Y534000I-2032J0D01*
G01*
X289532D02*
G03*
X289532Y534000I-2032J0D01*
G01*
X572232D02*
G03*
X572232Y534000I-2032J0D01*
G01*
M02*
