G04*
G04 #@! TF.GenerationSoftware,Altium Limited,Altium Designer,22.8.2 (66)*
G04*
G04 Layer_Color=32768*
%FSLAX44Y44*%
%MOMM*%
G71*
G04*
G04 #@! TF.SameCoordinates,69D579BB-6610-4C83-93C2-135228772BCE*
G04*
G04*
G04 #@! TF.FilePolarity,Positive*
G04*
G01*
G75*
%ADD10C,0.2000*%
%ADD47C,0.0762*%
%ADD48C,0.1000*%
D10*
X420940Y320780D02*
Y381740D01*
X415860Y320780D02*
X420940D01*
X415860D02*
Y381740D01*
X395540Y320780D02*
Y381740D01*
X390460Y320780D02*
X395540D01*
X390460D02*
Y381740D01*
X451420Y402060D02*
Y407140D01*
Y402060D02*
X456500D01*
Y381740D02*
Y402060D01*
X370140Y320780D02*
Y381740D01*
X365060Y320780D02*
X370140D01*
X365060D02*
Y381740D01*
X344740D02*
X365060D01*
X344740Y320780D02*
Y381740D01*
X339660Y320780D02*
X344740D01*
X339660D02*
Y381740D01*
X329500D02*
X339660D01*
X329500D02*
Y402060D01*
X334580D01*
Y407140D01*
X339660D01*
Y417300D01*
X327900Y442700D02*
X458100D01*
X327900Y417300D02*
Y442700D01*
Y417300D02*
X458100D01*
Y442700D01*
X393000Y425000D02*
Y435000D01*
X388000Y430000D02*
X398000D01*
X446340Y407140D02*
Y417300D01*
Y320780D02*
Y381740D01*
X441260Y320780D02*
X446340D01*
X441260D02*
Y381740D01*
X446340Y407140D02*
X451420D01*
X446340Y381740D02*
X456500D01*
X420940D02*
X441260D01*
X395540D02*
X415860D01*
X370140D02*
X390460D01*
D47*
X649000Y655000D02*
G03*
X599000Y705000I-50000J0D01*
G01*
Y372000D02*
G03*
X649000Y422000I0J50000D01*
G01*
X305000Y705000D02*
G03*
X255000Y655000I0J-50000D01*
G01*
Y422000D02*
G03*
X305000Y372000I50000J0D01*
G01*
X599000D01*
X305000Y705000D02*
X599000D01*
X649000Y422000D02*
Y655000D01*
X255000Y422000D02*
Y655000D01*
D48*
X649000Y661000D02*
G03*
X649000Y661000I0J0D01*
G01*
M02*
