G04*
G04 #@! TF.GenerationSoftware,Altium Limited,Altium Designer,22.8.2 (66)*
G04*
G04 Layer_Color=32768*
%FSLAX44Y44*%
%MOMM*%
G71*
G04*
G04 #@! TF.SameCoordinates,69D579BB-6610-4C83-93C2-135228772BCE*
G04*
G04*
G04 #@! TF.FilePolarity,Positive*
G04*
G01*
G75*
%ADD10C,0.2000*%
%ADD46C,0.0500*%
%ADD48C,0.1000*%
D10*
X394500Y518000D02*
X447000D01*
Y478000D02*
Y518000D01*
X394500Y478000D02*
X447000D01*
X394500D02*
Y518000D01*
X422000Y493000D02*
Y503000D01*
X417000Y498000D02*
X427000D01*
D46*
X419700Y526500D02*
X487700D01*
X419700D02*
Y634500D01*
X487700D01*
Y526500D02*
Y634500D01*
X395000Y630500D02*
Y649500D01*
X361000Y630500D02*
Y649500D01*
Y630500D02*
X395000D01*
X361000Y649500D02*
X395000D01*
X619000Y451500D02*
Y470500D01*
X585000Y451500D02*
Y470500D01*
Y451500D02*
X619000D01*
X585000Y470500D02*
X619000D01*
X319250Y497500D02*
Y516500D01*
X285250Y497500D02*
Y516500D01*
Y497500D02*
X319250D01*
X285250Y516500D02*
X319250D01*
X337950Y477500D02*
X376050D01*
X337950Y496500D02*
X376050D01*
Y477500D02*
Y496500D01*
X337950Y477500D02*
Y496500D01*
X338250Y497500D02*
Y516500D01*
X372250Y497500D02*
Y516500D01*
X338250D02*
X372250D01*
X338250Y497500D02*
X372250D01*
X619000Y474500D02*
Y493500D01*
X585000Y474500D02*
Y493500D01*
Y474500D02*
X619000D01*
X585000Y493500D02*
X619000D01*
X278000Y526500D02*
X346000D01*
X278000D02*
Y634500D01*
X346000D01*
Y526500D02*
Y634500D01*
X560700Y526500D02*
X628700D01*
X560700D02*
Y634500D01*
X628700D01*
Y526500D02*
Y634500D01*
X492500Y562000D02*
X511500D01*
X492500Y596000D02*
X511500D01*
X492500Y562000D02*
Y596000D01*
X511500Y562000D02*
Y596000D01*
X347500Y562000D02*
X366500D01*
X347500Y596000D02*
X366500D01*
X347500Y562000D02*
Y596000D01*
X366500Y562000D02*
Y596000D01*
X538500Y562000D02*
X557500D01*
X538500Y596000D02*
X557500D01*
X538500Y562000D02*
Y596000D01*
X557500Y562000D02*
Y596000D01*
X397500Y562000D02*
X416500D01*
X397500Y596000D02*
X416500D01*
X397500Y562000D02*
Y596000D01*
X416500Y562000D02*
Y596000D01*
X578000Y636500D02*
Y655500D01*
X612000Y636500D02*
Y655500D01*
X578000D02*
X612000D01*
X578000Y636500D02*
X612000D01*
X280950Y495500D02*
X319050D01*
X280950Y476500D02*
X319050D01*
X280950D02*
Y495500D01*
X319050Y476500D02*
Y495500D01*
X480900Y417750D02*
X555100D01*
X480900Y510250D02*
X555100D01*
Y417750D02*
Y510250D01*
X480900Y417750D02*
Y510250D01*
X600950Y497500D02*
X639050D01*
X600950Y516500D02*
X639050D01*
Y497500D02*
Y516500D01*
X600950Y497500D02*
Y516500D01*
D48*
X373000Y640000D02*
X383000D01*
X378000Y635000D02*
Y645000D01*
X597000Y461000D02*
X607000D01*
X602000Y456000D02*
Y466000D01*
X297250Y507000D02*
X307250D01*
X302250Y502000D02*
Y512000D01*
X357000Y482000D02*
Y492000D01*
X352000Y487000D02*
X362000D01*
X350250Y507000D02*
X360250D01*
X355250Y502000D02*
Y512000D01*
X597000Y484000D02*
X607000D01*
X602000Y479000D02*
Y489000D01*
X502000Y574000D02*
Y584000D01*
X497000Y579000D02*
X507000D01*
X357000Y574000D02*
Y584000D01*
X352000Y579000D02*
X362000D01*
X548000Y574000D02*
Y584000D01*
X543000Y579000D02*
X553000D01*
X407000Y574000D02*
Y584000D01*
X402000Y579000D02*
X412000D01*
X590000Y646000D02*
X600000D01*
X595000Y641000D02*
Y651000D01*
X300000Y481000D02*
Y491000D01*
X295000Y486000D02*
X305000D01*
X620000Y502000D02*
Y512000D01*
X615000Y507000D02*
X625000D01*
M02*
