G04*
G04 #@! TF.GenerationSoftware,Altium Limited,Altium Designer,22.8.2 (66)*
G04*
G04 Layer_Color=8388736*
%FSLAX44Y44*%
%MOMM*%
G71*
G04*
G04 #@! TF.SameCoordinates,69D579BB-6610-4C83-93C2-135228772BCE*
G04*
G04*
G04 #@! TF.FilePolarity,Positive*
G04*
G01*
G75*
%ADD48C,0.1000*%
D48*
X377500Y661000D02*
Y670000D01*
Y661000D02*
X381500D01*
Y670000D01*
X332500Y661000D02*
Y670000D01*
Y661000D02*
X336500D01*
Y670000D01*
X351500Y661000D02*
Y670000D01*
X347500Y661000D02*
X351500D01*
X347500D02*
Y670000D01*
X390500Y696000D02*
X395500D01*
Y692000D02*
Y696000D01*
X390500Y692000D02*
X395500D01*
X390500Y671000D02*
X395500D01*
Y675000D01*
X390500D02*
X395500D01*
X318500Y671000D02*
X323500D01*
X318500D02*
Y675000D01*
X323500D01*
X318500Y692000D02*
X323500D01*
X318500D02*
Y696000D01*
X323500D01*
X390500Y670000D02*
Y697000D01*
X323500Y670000D02*
X390500D01*
X323500Y697000D02*
X390500D01*
X372000D02*
Y712000D01*
X357000D02*
X372000D01*
X357000Y697000D02*
Y712000D01*
X323500Y670000D02*
Y697000D01*
X418500Y670000D02*
Y697000D01*
X452000D02*
Y712000D01*
X467000D01*
Y697000D02*
Y712000D01*
X418500Y697000D02*
X485500D01*
X418500Y670000D02*
X485500D01*
Y697000D01*
X413500Y696000D02*
X418500D01*
X413500Y692000D02*
Y696000D01*
Y692000D02*
X418500D01*
X413500Y675000D02*
X418500D01*
X413500Y671000D02*
Y675000D01*
Y671000D02*
X418500D01*
X485500Y675000D02*
X490500D01*
Y671000D02*
Y675000D01*
X485500Y671000D02*
X490500D01*
X485500Y692000D02*
X490500D01*
Y696000D01*
X485500D02*
X490500D01*
X442500Y661000D02*
Y670000D01*
Y661000D02*
X446500D01*
Y670000D01*
X431500Y661000D02*
Y670000D01*
X427500Y661000D02*
X431500D01*
X427500D02*
Y670000D01*
X476500Y661000D02*
Y670000D01*
X472500Y661000D02*
X476500D01*
X472500D02*
Y670000D01*
X513500D02*
Y697000D01*
X547000D02*
Y712000D01*
X562000D01*
Y697000D02*
Y712000D01*
X513500Y697000D02*
X580500D01*
X513500Y670000D02*
X580500D01*
Y697000D01*
X508500Y696000D02*
X513500D01*
X508500Y692000D02*
Y696000D01*
Y692000D02*
X513500D01*
X508500Y675000D02*
X513500D01*
X508500Y671000D02*
Y675000D01*
Y671000D02*
X513500D01*
X580500Y675000D02*
X585500D01*
Y671000D02*
Y675000D01*
X580500Y671000D02*
X585500D01*
X580500Y692000D02*
X585500D01*
Y696000D01*
X580500D02*
X585500D01*
X537500Y661000D02*
Y670000D01*
Y661000D02*
X541500D01*
Y670000D01*
X526500Y661000D02*
Y670000D01*
X522500Y661000D02*
X526500D01*
X522500D02*
Y670000D01*
X571500Y661000D02*
Y670000D01*
X567500Y661000D02*
X571500D01*
X567500D02*
Y670000D01*
M02*
