G04*
G04 #@! TF.GenerationSoftware,Altium Limited,Altium Designer,22.8.2 (66)*
G04*
G04 Layer_Color=8388736*
%FSLAX44Y44*%
%MOMM*%
G71*
G04*
G04 #@! TF.SameCoordinates,69D579BB-6610-4C83-93C2-135228772BCE*
G04*
G04*
G04 #@! TF.FilePolarity,Negative*
G04*
G01*
G75*
%ADD21R,0.9032X1.3032*%
%ADD22R,1.2032X1.0032*%
%ADD23R,1.3532X1.5532*%
%ADD24R,1.5032X1.6032*%
%ADD25R,1.4032X1.4032*%
%ADD26R,1.5532X1.3532*%
%ADD27R,1.7032X1.8032*%
G04:AMPARAMS|DCode=28|XSize=2.1732mm|YSize=0.8032mm|CornerRadius=0.1766mm|HoleSize=0mm|Usage=FLASHONLY|Rotation=180.000|XOffset=0mm|YOffset=0mm|HoleType=Round|Shape=RoundedRectangle|*
%AMROUNDEDRECTD28*
21,1,2.1732,0.4500,0,0,180.0*
21,1,1.8200,0.8032,0,0,180.0*
1,1,0.3532,-0.9100,0.2250*
1,1,0.3532,0.9100,0.2250*
1,1,0.3532,0.9100,-0.2250*
1,1,0.3532,-0.9100,-0.2250*
%
%ADD28ROUNDEDRECTD28*%
%ADD29C,1.1032*%
%ADD30C,1.7032*%
%ADD31C,1.2032*%
%ADD32C,2.7032*%
%ADD33C,2.2032*%
%ADD34C,2.0032*%
%ADD35C,1.4732*%
D21*
X349500Y663000D02*
D03*
X334500D02*
D03*
X379500D02*
D03*
X474500D02*
D03*
X429500D02*
D03*
X444500D02*
D03*
X569500D02*
D03*
X524500D02*
D03*
X539500D02*
D03*
D22*
X319500Y695000D02*
D03*
X394500D02*
D03*
Y672000D02*
D03*
X319500D02*
D03*
X414500D02*
D03*
X489500D02*
D03*
Y695000D02*
D03*
X414500D02*
D03*
X509500Y672000D02*
D03*
X584500D02*
D03*
Y695000D02*
D03*
X509500D02*
D03*
D23*
X386750Y640000D02*
D03*
X369250D02*
D03*
X311000Y507000D02*
D03*
X293500D02*
D03*
X346500D02*
D03*
X364000D02*
D03*
X610750Y484000D02*
D03*
X593250D02*
D03*
X586250Y646000D02*
D03*
X603750D02*
D03*
D24*
X610000Y461000D02*
D03*
X594000D02*
D03*
D25*
X367500Y487000D02*
D03*
X346500D02*
D03*
X404000Y508000D02*
D03*
Y488000D02*
D03*
X289500Y486000D02*
D03*
X310500D02*
D03*
X630500Y507000D02*
D03*
X609500D02*
D03*
D26*
X502000Y570250D02*
D03*
Y587750D02*
D03*
X357000Y570250D02*
D03*
Y587750D02*
D03*
X548000Y570250D02*
D03*
Y587750D02*
D03*
X407000Y570250D02*
D03*
Y587750D02*
D03*
D27*
X436500Y498000D02*
D03*
D28*
X542750Y425900D02*
D03*
Y438600D02*
D03*
Y451300D02*
D03*
Y464000D02*
D03*
Y476700D02*
D03*
Y489400D02*
D03*
Y502100D02*
D03*
X493250D02*
D03*
Y489400D02*
D03*
Y476700D02*
D03*
Y464000D02*
D03*
Y451300D02*
D03*
Y438600D02*
D03*
Y425900D02*
D03*
D29*
X342000Y683500D02*
D03*
X372000D02*
D03*
X467000D02*
D03*
X437000D02*
D03*
X562000D02*
D03*
X532000D02*
D03*
D30*
X466400Y553000D02*
D03*
X441000D02*
D03*
X466400Y608000D02*
D03*
X441000D02*
D03*
X324700Y553000D02*
D03*
X299300D02*
D03*
X324700Y608000D02*
D03*
X299300D02*
D03*
X607400Y553000D02*
D03*
X582000D02*
D03*
X607400Y608000D02*
D03*
X582000D02*
D03*
D31*
X429200Y534000D02*
D03*
X287500D02*
D03*
X570200D02*
D03*
X623000Y443000D02*
D03*
X472000Y479000D02*
D03*
D32*
X434700Y580500D02*
D03*
X472700D02*
D03*
X293000D02*
D03*
X331000D02*
D03*
X575700D02*
D03*
X613700D02*
D03*
D33*
X418400Y430000D02*
D03*
X393000D02*
D03*
X342200D02*
D03*
X367600D02*
D03*
X443800D02*
D03*
D34*
X289000Y410000D02*
D03*
X612000D02*
D03*
D35*
X565000Y429000D02*
D03*
X494000Y394000D02*
D03*
X464000Y503000D02*
D03*
X406000Y531000D02*
D03*
X381000Y534000D02*
D03*
X357000Y526000D02*
D03*
X524000Y644000D02*
D03*
X522000Y438000D02*
D03*
X409000Y651000D02*
D03*
X459000Y471000D02*
D03*
X317000Y653000D02*
D03*
M02*
