G04*
G04 #@! TF.GenerationSoftware,Altium Limited,Altium Designer,22.8.2 (66)*
G04*
G04 Layer_Physical_Order=1*
G04 Layer_Color=255*
%FSLAX44Y44*%
%MOMM*%
G71*
G04*
G04 #@! TF.SameCoordinates,69D579BB-6610-4C83-93C2-135228772BCE*
G04*
G04*
G04 #@! TF.FilePolarity,Positive*
G04*
G01*
G75*
%ADD13R,0.7000X1.1000*%
%ADD14R,1.0000X0.8000*%
%ADD15R,1.1500X1.3500*%
%ADD16R,1.3000X1.4000*%
%ADD17R,1.2000X1.2000*%
%ADD18R,1.3500X1.1500*%
%ADD19R,1.5000X1.6000*%
G04:AMPARAMS|DCode=20|XSize=1.97mm|YSize=0.6mm|CornerRadius=0.075mm|HoleSize=0mm|Usage=FLASHONLY|Rotation=180.000|XOffset=0mm|YOffset=0mm|HoleType=Round|Shape=RoundedRectangle|*
%AMROUNDEDRECTD20*
21,1,1.9700,0.4500,0,0,180.0*
21,1,1.8200,0.6000,0,0,180.0*
1,1,0.1500,-0.9100,0.2250*
1,1,0.1500,0.9100,0.2250*
1,1,0.1500,0.9100,-0.2250*
1,1,0.1500,-0.9100,-0.2250*
%
%ADD20ROUNDEDRECTD20*%
%ADD36C,0.2540*%
%ADD37C,0.7000*%
%ADD38C,0.5000*%
%ADD39C,0.9000*%
%ADD40C,1.5000*%
%ADD41C,1.0000*%
%ADD42C,2.5000*%
%ADD43C,2.0000*%
%ADD44C,1.8000*%
%ADD45C,1.2700*%
D13*
X349500Y663000D02*
D03*
X334500D02*
D03*
X379500D02*
D03*
X474500D02*
D03*
X429500D02*
D03*
X444500D02*
D03*
X569500D02*
D03*
X524500D02*
D03*
X539500D02*
D03*
D14*
X319500Y695000D02*
D03*
X394500D02*
D03*
Y672000D02*
D03*
X319500D02*
D03*
X414500D02*
D03*
X489500D02*
D03*
Y695000D02*
D03*
X414500D02*
D03*
X509500Y672000D02*
D03*
X584500D02*
D03*
Y695000D02*
D03*
X509500D02*
D03*
D15*
X386750Y640000D02*
D03*
X369250D02*
D03*
X311000Y507000D02*
D03*
X293500D02*
D03*
X346500D02*
D03*
X364000D02*
D03*
X610750Y484000D02*
D03*
X593250D02*
D03*
X586250Y646000D02*
D03*
X603750D02*
D03*
D16*
X610000Y461000D02*
D03*
X594000D02*
D03*
D17*
X367500Y487000D02*
D03*
X346500D02*
D03*
X404000Y508000D02*
D03*
Y488000D02*
D03*
X289500Y486000D02*
D03*
X310500D02*
D03*
X630500Y507000D02*
D03*
X609500D02*
D03*
D18*
X502000Y570250D02*
D03*
Y587750D02*
D03*
X357000Y570250D02*
D03*
Y587750D02*
D03*
X548000Y570250D02*
D03*
Y587750D02*
D03*
X407000Y570250D02*
D03*
Y587750D02*
D03*
D19*
X436500Y498000D02*
D03*
D20*
X542750Y425900D02*
D03*
Y438600D02*
D03*
Y451300D02*
D03*
Y464000D02*
D03*
Y476700D02*
D03*
Y489400D02*
D03*
Y502100D02*
D03*
X493250D02*
D03*
Y489400D02*
D03*
Y476700D02*
D03*
Y464000D02*
D03*
Y451300D02*
D03*
Y438600D02*
D03*
Y425900D02*
D03*
D36*
X592000Y425512D02*
X598488Y432000D01*
X629000D01*
X638000Y441000D01*
Y499500D01*
X630500Y507000D02*
X638000Y499500D01*
X532000Y579000D02*
X538928Y572072D01*
X532000Y579000D02*
Y623500D01*
X569500Y661000D01*
X394190Y503190D02*
Y551810D01*
X391000Y555000D02*
X394190Y551810D01*
X391000Y555000D02*
Y613000D01*
X419000Y641000D01*
X592000Y406662D02*
Y425512D01*
X569178Y383840D02*
X592000Y406662D01*
X464560Y383840D02*
X569178D01*
X418400Y430000D02*
X464560Y383840D01*
X544300Y427450D02*
X563450D01*
X565000Y429000D01*
X542750Y425900D02*
X544300Y427450D01*
X442730Y491270D02*
X443230D01*
X436500Y497500D02*
X442730Y491270D01*
X443230D02*
X445100Y489400D01*
X493250D01*
X510600D01*
X464000Y503000D02*
X464450Y502550D01*
X492800D01*
X493250Y502100D01*
X609500Y485250D02*
Y507000D01*
Y485250D02*
X610750Y484000D01*
X640310Y516810D02*
Y655614D01*
X630500Y507000D02*
X640310Y516810D01*
X539500Y663000D02*
Y665000D01*
X541730Y667230D01*
X559342D01*
X571922Y679810D01*
X616114D02*
X640310Y655614D01*
X571922Y679810D02*
X616114D01*
X420390Y478610D02*
X440000Y459000D01*
X420390Y548140D02*
X425250Y553000D01*
X420390Y478610D02*
Y548140D01*
X440000Y459000D02*
X461000D01*
X380000Y535000D02*
X381000Y534000D01*
X380000Y535000D02*
Y619868D01*
X386750Y626618D01*
X378000Y487000D02*
X394190Y503190D01*
X524000Y644000D02*
X524500Y644500D01*
Y663000D01*
X522300Y438300D02*
X542450D01*
X542750Y438600D01*
X522000Y438000D02*
X522300Y438300D01*
X511000Y460000D02*
X515000Y464000D01*
X542750D01*
X511000Y420488D02*
Y460000D01*
X479000Y419000D02*
X509512D01*
X511000Y420488D01*
X427270Y658770D02*
X429500Y661000D01*
X425270Y658770D02*
X427270D01*
X419160Y652660D02*
X425270Y658770D01*
X410660Y652660D02*
X419160D01*
X409000Y651000D02*
X410660Y652660D01*
X429500Y661000D02*
Y663000D01*
X419000Y641000D02*
X438000D01*
X444500Y647500D02*
Y663000D01*
X438000Y641000D02*
X444500Y647500D01*
X386750Y626618D02*
Y640000D01*
X477160Y435140D02*
Y452840D01*
Y435140D02*
X486400Y425900D01*
X493250D01*
X459000Y471000D02*
X477160Y452840D01*
X317000Y653000D02*
X318944Y654944D01*
X334500Y661000D02*
Y663000D01*
X332270Y658770D02*
X334500Y661000D01*
X330270Y658770D02*
X332270D01*
X326444Y654944D02*
X330270Y658770D01*
X318944Y654944D02*
X326444D01*
X367500Y487000D02*
X378000D01*
X441000Y553000D02*
X455090Y567090D01*
Y641590D02*
X474500Y661000D01*
X455090Y567090D02*
Y641590D01*
X461000Y459000D02*
X472080Y447920D01*
Y425920D02*
Y447920D01*
Y425920D02*
X479000Y419000D01*
X532870Y491130D02*
X541020D01*
X528000Y496000D02*
Y517885D01*
Y496000D02*
X532870Y491130D01*
X528000Y517885D02*
X548000Y537885D01*
X541020Y491130D02*
X542750Y489400D01*
X548000Y537885D02*
Y570250D01*
X556410Y483510D02*
Y495290D01*
X549600Y502100D02*
X556410Y495290D01*
X542750Y502100D02*
X549600D01*
X548900Y476000D02*
X556410Y483510D01*
X524000Y476000D02*
X548900D01*
X510600Y489400D02*
X524000Y476000D01*
X436500Y497500D02*
Y498000D01*
X346500Y487000D02*
Y507000D01*
X346500Y487000D02*
X346500Y487000D01*
X311000Y486500D02*
Y507000D01*
X310500Y486000D02*
X311000Y486500D01*
X288500Y485000D02*
X289500Y486000D01*
X276000Y485000D02*
X288500D01*
X275000Y484000D02*
X276000Y485000D01*
X275000Y462000D02*
Y484000D01*
Y462000D02*
X326948Y410052D01*
X267920Y493080D02*
X276000Y485000D01*
X367500Y455500D02*
X393000Y430000D01*
X367500Y455500D02*
Y487000D01*
X267920Y493080D02*
Y667920D01*
X273000Y634000D02*
X279000Y640000D01*
X273000Y564000D02*
Y634000D01*
Y564000D02*
X284000Y553000D01*
X267920Y667920D02*
X279810Y679810D01*
X284000Y553000D02*
X299300D01*
X340888Y640000D02*
X363888Y663000D01*
X279000Y640000D02*
X340888D01*
X363888Y663000D02*
X379500D01*
X474500Y661000D02*
Y663000D01*
X336010Y607740D02*
X356000Y587750D01*
X324700Y608000D02*
X324960Y607740D01*
X356000Y587750D02*
X357000D01*
X324960Y607740D02*
X336010D01*
X408000Y570250D02*
X425250Y553000D01*
X441000D01*
X407000Y570250D02*
X408000D01*
X480750Y608000D02*
X501000Y587750D01*
X466400Y608000D02*
X480750D01*
X501000Y587750D02*
X502000D01*
X549000Y570250D02*
X566250Y553000D01*
X548000Y570250D02*
X549000D01*
X566250Y553000D02*
X582000D01*
X546178Y572072D02*
X548000Y570250D01*
X538928Y572072D02*
X546178D01*
X569500Y661000D02*
Y663000D01*
X279810Y679810D02*
X332078D01*
X341810Y670078D01*
Y664488D02*
Y670078D01*
Y664488D02*
X343298Y663000D01*
X349500D01*
X607400Y608000D02*
Y642350D01*
X603750Y646000D02*
X607400Y642350D01*
X347652Y410052D02*
X367600Y430000D01*
X326948Y410052D02*
X347652D01*
X386750Y640000D02*
Y653750D01*
X379500Y661000D02*
Y663000D01*
Y661000D02*
X386750Y653750D01*
X569000Y664000D02*
X569500Y663500D01*
Y663000D02*
Y663500D01*
D37*
X584690Y430028D02*
X594000Y439338D01*
Y457500D01*
X584690Y409690D02*
Y430028D01*
X569000Y394000D02*
X584690Y409690D01*
X591000Y457500D02*
X594000D01*
X492909Y395091D02*
X494000Y394000D01*
X478709Y395091D02*
X492909D01*
X443800Y430000D02*
X478709Y395091D01*
X494000Y394000D02*
X569000D01*
D38*
X591000Y457500D02*
X593625Y460125D01*
X584800Y451300D02*
X591000Y457500D01*
X542750Y451300D02*
X584800D01*
X593625Y460125D02*
Y483625D01*
X593250Y484000D02*
X593625Y483625D01*
X593250Y484000D02*
Y510572D01*
X607400Y524722D01*
Y553000D01*
X624000D01*
X634000Y563000D01*
Y653000D01*
X602000Y668000D02*
X619000D01*
X634000Y653000D01*
X589500Y655500D02*
X602000Y668000D01*
X589500Y649250D02*
Y655500D01*
X586250Y646000D02*
X589500Y649250D01*
X483750Y553000D02*
X501000Y570250D01*
X466400Y553000D02*
X483750D01*
X501000Y570250D02*
X502000D01*
X405000Y530000D02*
X406000Y531000D01*
X404000Y508000D02*
X405000Y509000D01*
Y530000D01*
X364000Y507000D02*
Y519000D01*
X357000Y526000D02*
X364000Y519000D01*
X357000Y526000D02*
Y570250D01*
X325000Y526000D02*
X357000D01*
X301000D02*
X325000D01*
X324700Y526300D02*
Y553000D01*
Y526300D02*
X325000Y526000D01*
X293500Y518500D02*
X301000Y526000D01*
X293500Y507000D02*
Y518500D01*
D39*
X342000Y683500D02*
D03*
X372000D02*
D03*
X467000D02*
D03*
X437000D02*
D03*
X562000D02*
D03*
X532000D02*
D03*
D40*
X466400Y553000D02*
D03*
X441000D02*
D03*
X466400Y608000D02*
D03*
X441000D02*
D03*
X324700Y553000D02*
D03*
X299300D02*
D03*
X324700Y608000D02*
D03*
X299300D02*
D03*
X607400Y553000D02*
D03*
X582000D02*
D03*
X607400Y608000D02*
D03*
X582000D02*
D03*
D41*
X429200Y534000D02*
D03*
X287500D02*
D03*
X570200D02*
D03*
X623000Y443000D02*
D03*
X472000Y479000D02*
D03*
D42*
X434700Y580500D02*
D03*
X472700D02*
D03*
X293000D02*
D03*
X331000D02*
D03*
X575700D02*
D03*
X613700D02*
D03*
D43*
X418400Y430000D02*
D03*
X393000D02*
D03*
X342200D02*
D03*
X367600D02*
D03*
X443800D02*
D03*
D44*
X289000Y410000D02*
D03*
X612000D02*
D03*
D45*
X565000Y429000D02*
D03*
X494000Y394000D02*
D03*
X464000Y503000D02*
D03*
X406000Y531000D02*
D03*
X381000Y534000D02*
D03*
X357000Y526000D02*
D03*
X524000Y644000D02*
D03*
X522000Y438000D02*
D03*
X409000Y651000D02*
D03*
X459000Y471000D02*
D03*
X317000Y653000D02*
D03*
M02*
