G04*
G04 #@! TF.GenerationSoftware,Altium Limited,Altium Designer,22.8.2 (66)*
G04*
G04 Layer_Color=16711935*
%FSLAX44Y44*%
%MOMM*%
G71*
G04*
G04 #@! TF.SameCoordinates,69D579BB-6610-4C83-93C2-135228772BCE*
G04*
G04*
G04 #@! TF.FilePolarity,Positive*
G04*
G01*
G75*
%ADD10C,0.2000*%
%ADD12C,0.1270*%
%ADD48C,0.1000*%
D10*
X563450Y419900D02*
G03*
X563450Y419900I-1000J0D01*
G01*
D12*
X424200Y529000D02*
X483200D01*
X424200D02*
Y616500D01*
X483200Y529000D02*
Y616500D01*
X439700Y632000D02*
X467700D01*
X424200Y616500D02*
X439700Y632000D01*
X467700D02*
X483200Y616500D01*
X282500Y529000D02*
X341500D01*
X282500D02*
Y616500D01*
X341500Y529000D02*
Y616500D01*
X298000Y632000D02*
X326000D01*
X282500Y616500D02*
X298000Y632000D01*
X326000D02*
X341500Y616500D01*
X565200Y529000D02*
X624200D01*
X565200D02*
Y616500D01*
X624200Y529000D02*
Y616500D01*
X580700Y632000D02*
X608700D01*
X565200Y616500D02*
X580700Y632000D01*
X608700D02*
X624200Y616500D01*
X498000Y420250D02*
X538000D01*
X498000Y507750D02*
X538000D01*
Y420250D02*
Y507750D01*
X498000Y420250D02*
Y507750D01*
D48*
X389000Y633250D02*
Y646750D01*
X367000Y633250D02*
Y646750D01*
Y633250D02*
X389000D01*
X367000Y646750D02*
X389000D01*
X613000Y454000D02*
Y468000D01*
X591000Y454000D02*
Y468000D01*
Y454000D02*
X613000D01*
X591000Y468000D02*
X613000D01*
X313250Y500250D02*
Y513750D01*
X291250Y500250D02*
Y513750D01*
Y500250D02*
X313250D01*
X291250Y513750D02*
X313250D01*
X346000Y480250D02*
X368000D01*
X346000Y493750D02*
X368000D01*
Y480250D02*
Y493750D01*
X346000Y480250D02*
Y493750D01*
X344250Y500250D02*
Y513750D01*
X366250Y500250D02*
Y513750D01*
X344250D02*
X366250D01*
X344250Y500250D02*
X366250D01*
X613000Y477250D02*
Y490750D01*
X591000Y477250D02*
Y490750D01*
Y477250D02*
X613000D01*
X591000Y490750D02*
X613000D01*
X495250Y568000D02*
X508750D01*
X495250Y590000D02*
X508750D01*
X495250Y568000D02*
Y590000D01*
X508750Y568000D02*
Y590000D01*
X350250Y568000D02*
X363750D01*
X350250Y590000D02*
X363750D01*
X350250Y568000D02*
Y590000D01*
X363750Y568000D02*
Y590000D01*
X541250Y568000D02*
X554750D01*
X541250Y590000D02*
X554750D01*
X541250Y568000D02*
Y590000D01*
X554750Y568000D02*
Y590000D01*
X400250Y568000D02*
X413750D01*
X400250Y590000D02*
X413750D01*
X400250Y568000D02*
Y590000D01*
X413750Y568000D02*
Y590000D01*
X584000Y639250D02*
Y652750D01*
X606000Y639250D02*
Y652750D01*
X584000D02*
X606000D01*
X584000Y639250D02*
X606000D01*
X289000Y492750D02*
X311000D01*
X289000Y479250D02*
X311000D01*
X289000D02*
Y492750D01*
X311000Y479250D02*
Y492750D01*
X609000Y500250D02*
X631000D01*
X609000Y513750D02*
X631000D01*
Y500250D02*
Y513750D01*
X609000Y500250D02*
Y513750D01*
M02*
