M48
;Layer_Color=9474304
;FILE_FORMAT=2:4
METRIC,LZ
;TYPE=PLATED
T1F00S00C0.5000
T3F00S00C0.7112
T5F00S00C1.1000
T6F00S00C3.0000
%
T01
X5588Y10668
Y11176
X736Y999
X863Y1032
T03
X375Y1004
X386Y1025
X611Y102
X621971Y1004778
X615009Y978584
X614999Y963344
X651Y996
X786Y995
X778Y1008
X783Y1037
X725Y1154
X602Y115
X584Y1149
X814Y1157
X805Y104
X821Y103532
X825Y995
X806
X817Y929
X841Y928
T05
X2753Y887
X3007
X344
X3694
X3948
X4202
X4456
X471
X4964
X5218
X5472
X5726
X598
X6234
X6646Y887
X69
X7154
X7408
X7662
X7916
X817
X8424
X8678
X907Y8887
Y9141
Y9395
Y9649
Y9903
Y10157
Y10411
Y10665
Y10919
Y11173
X908Y11639
Y11893
Y12147
Y12401
T06
X281Y932
X862Y1246
X281Y1245
M30
